<?xml version="1.0" encoding="UTF-8"?>
<svg width="691px" height="573px" viewBox="0 0 691 573" version="1.1" xmlns="http://www.w3.org/2000/svg" xmlns:xlink="http://www.w3.org/1999/xlink">
    <title>Symbol3</title>
    <defs>
        <path d="M0,0 L691,0 L691,573 L0,573 L0,0 Z" id="path-1"></path>
        <polygon id="path-2" points="0 0 504 0 504 493 0 493"></polygon>
    </defs>
    <g id="Symbol3" stroke="none" fill="none" xlink:href="#path-1" fill-rule="evenodd">
        <use fill="#FFFFFF" xlink:href="#path-1"></use>
        <g id="Group-3" stroke-width="1" transform="translate(93, 40)">
            <mask id="mask-3" fill="white">
                <use xlink:href="#path-2"></use>
            </mask>
            <g id="Clip-2"></g>
            <path d="M476.654125,426.093465 L410.154008,426.093465 C388.441076,426.093465 381.443398,443.086031 359.558738,462.045872 C347.64574,473.787482 331.810266,480.248808 314.969438,480.248808 L138.629773,480.248808 C130.639251,480.248808 124.143113,473.861931 124.143113,466.010879 C124.143113,458.160954 130.639251,451.77295 138.629773,451.77295 L314.956928,451.77295 C324.051749,451.77295 332.606362,448.280585 339.039949,441.936574 C358.864997,425.740394 372.499836,397.617608 410.14036,397.617608 L476.652988,397.617608 C484.643511,397.617608 491.145335,404.004484 491.145335,411.855537 C491.145335,419.705461 484.643511,426.093465 476.654125,426.093465 L476.654125,426.093465 Z M155.670762,360.376997 L167.853296,360.376997 L167.853296,387.595107 C167.853296,391.119057 170.728337,393.969575 174.280059,393.969575 C177.831782,393.969575 180.706823,391.117929 180.706823,387.595107 L180.706823,360.376997 L207.727436,360.376997 L207.727436,387.595107 C207.727436,391.119057 210.602478,393.969575 214.1542,393.969575 C217.705923,393.969575 220.580964,391.117929 220.580964,387.595107 L220.580964,360.376997 L247.594753,360.376997 L247.594753,387.595107 C247.594753,391.119057 250.469794,393.969575 254.021517,393.969575 C257.574377,393.969575 260.448281,391.117929 260.448281,387.595107 L260.448281,360.376997 L272.630814,360.376997 C278.643608,360.376997 283.532771,365.226376 283.532771,371.190243 L283.532771,439.022886 L144.761982,439.022886 L144.761982,371.190243 C144.761982,365.226376 149.656831,360.376997 155.670762,360.376997 Z M153.755585,272.946052 C154.654035,271.127676 157.5359,271.137828 158.275131,272.821969 C161.501592,280.180075 168.732412,288.958363 184.881775,288.958363 L227.298871,288.958363 C231.619394,288.958363 234.68891,284.823025 233.4561,280.747471 C230.430938,270.780244 226.2503,262.475725 223.501497,257.594762 L246.034406,237.113216 C280.372272,286.465429 285.218218,347.0178 243.473254,347.0178 L195.783732,347.0178 C184.573572,347.0178 174.016211,344.234962 165.260299,338.968215 C142.652329,325.377772 138.779894,303.164708 153.755585,272.946052 Z M176.991333,219.27012 L217.65702,182.309259 L249.541775,216.207532 L208.876088,253.168393 L176.991333,219.27012 Z M165.11359,150.629811 L206.610628,112.905278 L210.671852,171.358395 L166.491973,211.520589 L107.535427,202.978058 L165.11359,150.629811 Z M15.577318,112.79586 C10.8428253,109.592269 12.8353382,101.341896 17.1217429,97.4434422 L106.525523,16.1636158 C110.972284,12.1185189 119.329011,11.1856424 122.524765,16.1015744 C145.470507,51.4989924 186.8106,87.0689982 202.146808,99.664523 L149.974132,147.096838 L94.5567985,197.475553 C83.3136578,180.98947 51.2844681,136.801355 15.577318,112.79586 L15.577318,112.79586 Z M476.654125,384.867543 L410.141498,384.867543 C365.996874,384.867543 348.670428,417.908518 329.976972,432.897711 C326.029477,436.788269 320.555753,439.024014 314.956928,439.024014 L296.390848,439.024014 L296.390848,371.191371 C296.390848,358.337528 285.949489,347.892019 273.043646,347.66867 C281.824578,338.991903 284.125293,329.912432 285.833486,318.984127 L285.84031,318.977359 C291.619962,282.448532 265.031515,241.528305 255.419233,228.155571 L259.126763,224.786161 C261.436576,222.688035 262.779703,219.81834 262.899117,216.7174 C263.018531,213.61646 261.90741,210.659907 259.773874,208.393705 L223.446907,169.769008 C217.393171,98.7778955 220.952854,96.8376929 215.129985,93.7062961 C208.215329,88.197023 158.355878,47.7990711 133.332327,9.2025748 C125.734166,-2.50970662 108.266697,-2.72854342 97.8378485,6.76265718 L8.43406828,88.0424836 C-2.05733091,97.5799332 -3.51418536,115.345196 8.35900786,123.347404 C46.9002574,149.260389 82.4470512,202.305755 87.3202919,209.733798 C89.9701521,216.151131 94.0962005,212.760289 163.887604,224.029256 L200.233905,262.668618 C202.536895,265.120944 205.675785,266.360643 208.820361,266.360643 C210.307922,266.360643 211.794346,266.066228 213.200023,265.507856 C214.690996,268.278285 216.49472,271.907141 218.235895,276.209427 L184.881775,276.209427 C177.306359,276.209427 172.592337,273.520216 170.063029,267.742473 C167.708861,262.382099 162.51832,258.964184 156.512349,258.827693 C150.411984,258.672026 144.88822,261.939914 142.220163,267.319464 C119.688391,312.789015 139.100607,336.633203 155.189693,347.676566 C142.311146,347.93714 131.907317,358.362345 131.907317,371.191371 L131.907317,439.947866 C120.08985,442.925851 111.288448,453.43453 111.288448,466.012007 C111.288448,480.890654 123.552865,493 138.628636,493 L314.968301,493 C335.228927,493 354.278351,485.217757 368.620577,471.092631 C392.511398,449.603758 395.944843,438.844658 410.152871,438.844658 L476.652988,438.844658 C491.728759,438.844658 504,426.73644 504,411.856665 C504,396.97689 491.729896,384.867543 476.654125,384.867543 Z" id="Fill-1" fill="#000000" mask="url(#mask-3)"></path>
        </g>
    </g>
</svg>