<?xml version="1.0" encoding="UTF-8"?>
<svg width="691px" height="573px" viewBox="0 0 691 573" version="1.1" xmlns="http://www.w3.org/2000/svg" xmlns:xlink="http://www.w3.org/1999/xlink">
    <title>Symbol2a</title>
    <defs>
        <polygon id="path-1" points="0 0 376 0 376 450 0 450"></polygon>
    </defs>
    <g id="Symbol2a" stroke="none" fill="none" fill-rule="evenodd" stroke-width="1">
        <g id="Group-12" transform="translate(157.3915, 61.4249)">
            <g id="Group-3" transform="translate(-0.3915, -0.4249)">
                <mask id="mask-2" fill="white">
                    <use xlink:href="#path-1"></use>
                </mask>
                <g id="Clip-2"></g>
                <path d="M85.217095,386.458093 C86.8081339,387.111271 86.531016,389.353808 87.1557257,390.337754 L89.6915933,394.334439 L92.3254077,398.097077 C93.060009,399.145506 95.1324207,400.63456 96.3758678,400.85547 C100.014235,401.505066 102.655216,391.116314 103.351594,385.023967 L104.70971,373.131831 L104.993995,368.264641 C105.114637,366.192861 105.495674,364.416026 105.747708,362.337082 L106.72001,354.321025 L108.145017,343.977649 C111.481182,319.749168 119.110285,289.76508 133.877563,270.268855 L139.884571,262.33758 L148.716509,253.609834 L154.495372,249.376716 L158.247214,247.556893 C161.854525,245.806329 165.792704,244.744765 169.617409,245.642736 L174.201799,246.719823 C179.296229,247.91632 183.362217,250.193487 186.780801,254.022996 L190.230441,257.88594 C191.374746,259.168414 191.614836,260.046084 192.452162,261.433639 L195.580488,266.623239 C197.133304,269.200127 198.148607,271.699398 199.402804,274.552126 L201.36413,279.014513 C201.979284,280.414009 203.016087,282.304284 202.983836,283.470929 C202.945613,284.833408 203.688575,285.53435 204.037362,286.654425 C207.616005,298.170416 209.447133,309.980159 210.695358,321.955883 L211.069228,325.548958 C211.148063,326.306023 211.096701,327.973 211.13373,328.863806 L211.566129,339.198823 L211.494461,351.305899 L210.949781,361.128643 L210.555604,367.677139 L206.84318,396.132767 L206.039299,402.03525 C205.24378,407.87564 205.628401,418.867417 209.235711,418.061393 C212.458401,417.342539 214.408976,414.830133 216.519611,412.660436 C217.321103,411.836501 217.95298,411.134364 217.77142,409.82562 C219.805608,409.080496 221.021582,407.456507 222.127665,405.611608 L224.589475,401.502678 L228.110784,396.222326 L236.198565,380.925784 L238.59229,375.367204 C244.746218,361.07252 249.012878,346.273921 252.79936,331.106343 L253.954416,324.298725 C254.611376,320.425034 256.142691,316.436709 255.445119,312.59287 C254.927912,309.743725 256.167775,307.126237 256.368447,304.29381 L256.779346,298.472526 L257.441084,291.055912 L257.983375,286.60666 L260.497742,272.868431 L262.086392,266.561145 L263.227115,261.298705 C263.492288,260.079519 264.490868,258.235814 265.114383,257.317544 C266.31244,255.555038 265.719981,254.366899 266.134463,252.64977 C266.761562,250.051388 269.744163,247.415988 269.901833,243.982924 L273.070772,239.573077 C273.74565,236.469587 275.354606,234.834851 276.764084,232.351104 L279.610515,227.33465 L286.539657,216.151815 C287.351899,214.840683 289.021773,214.568426 289.007439,212.513363 C289.000273,211.245219 290.651035,210.943109 291.266189,210.107233 L294.263123,206.035319 C295.721576,205.000027 295.66663,203.05124 296.282978,201.981318 C298.458115,200.319118 300.409885,199.074855 299.889094,195.894942 C301.267517,194.678144 303.816524,193.4303 304.404205,191.575848 C305.161501,189.190017 306.414504,187.909932 307.730814,185.799941 L311.942528,179.046058 L315.399335,173.550766 L317.802616,170.121284 C318.804779,168.689546 319.369765,167.731871 320.3349,166.329986 L322.532731,163.141714 C323.927877,161.118893 324.915706,159.312205 326.217683,157.259531 L328.939888,152.969096 C329.945635,151.384512 330.367284,149.745 331.125775,148.271469 C332.739509,145.142902 334.362798,142.314057 335.621774,138.882186 L338.260366,131.694842 L339.355698,127.44023 C339.958908,125.098581 340.482087,123.053071 341.024378,120.668435 C341.604892,118.116623 340.75801,115.841844 342.777865,113.385561 C343.580552,112.411168 342.497164,109.382906 342.990482,108.248503 C343.937699,106.072835 343.803918,104.521687 343.882754,102.314973 L344.038035,97.9719966 L343.542329,92.9758426 C343.339268,90.9279449 343.452743,89.2788798 342.70978,87.2727759 C341.853343,84.9621741 341.779285,82.2085577 339.654317,80.389929 C340.093883,78.2166498 339.109637,76.1663639 337.077837,74.9400135 C337.474402,73.0389913 336.768468,72.0060866 335.331517,70.9266117 L333.945927,67.7646098 C330.00297,66.9060451 332.587811,62.6179981 328.956611,63.1816178 C328.49196,60.4375542 326.822086,59.0464167 324.326831,58.6499724 C323.745122,57.2898817 322.33206,56.365641 321.313174,55.6396225 C317.206573,52.710472 312.933941,50.7843735 308.147685,49.2797955 L301.366658,47.1483102 C299.498502,46.5608083 297.65304,46.6897721 295.929414,46.3566156 C293.933449,45.9721124 292.631472,45.792996 290.388251,45.7368728 L285.273515,45.6114913 C281.673371,45.5231272 276.959978,45.0347365 275.630529,45.8288192 C274.100408,46.742313 272.352893,46.0748058 271.017472,46.2742221 L267.030319,46.8724709 L259.035707,48.3507784 L254.896855,49.1400847 L242.918673,52.0978938 C240.960931,52.5803141 239.163248,53.0698989 237.175644,53.6753124 L223.705565,57.7806607 C222.088247,58.2738279 221.354841,58.8458063 220.706241,60.2954552 C220.307287,61.1862609 220.167534,63.0657891 221.332146,63.6915025 L224.857037,65.584166 C227.208956,66.8487279 229.052029,70.5361379 228.93497,72.5494064 C228.848968,74.0038317 227.613883,74.8540376 226.68936,76.2678632 L225.331243,78.3444196 C224.639643,77.8321466 223.5467,77.4512257 223.215831,77.8213996 L221.836214,79.3653831 C219.332597,77.9002108 215.29647,80.5069518 215.064742,81.556574 L212.310286,94.0374059 C211.968667,95.5849718 211.820552,96.6477292 210.278486,96.7575873 C208.848701,96.8602807 208.014959,96.0912742 207.786814,94.5281849 C207.487002,92.4790931 208.595473,90.6938995 208.575167,88.7092896 L208.492748,80.7147268 C205.674985,78.9880445 202.805859,78.5115949 199.648865,78.4972656 C198.167718,78.491295 196.677015,76.8577533 195.290231,76.494744 C192.041263,75.6421499 189.339363,74.258177 186.304206,72.970927 C184.379909,72.1541562 182.597754,71.7744294 180.675846,70.745107 L174.855176,67.6284814 C171.424647,65.7907469 168.230625,63.8455426 164.779791,62.0161669 C163.400173,61.2841778 162.40876,61.5552407 161.245343,60.0506628 L155.895295,56.8062674 C154.734267,55.427071 153.523071,55.3530362 152.314263,54.5458182 C148.598256,52.0632647 143.973254,49.4445826 143.802444,49.2893484 C142.273518,47.888658 140.291886,47.3465323 138.564677,46.4019918 C134.345796,44.0949723 130.362227,41.6769007 125.670334,39.9812653 C124.461527,39.5442212 123.574033,38.1626366 121.834879,38.0109847 C120.850633,37.9250088 118.78061,37.436618 117.965979,36.8718043 C116.434664,35.8114351 114.808985,35.6968006 113.004136,35.1833335 C109.80653,34.2734221 106.846624,32.5562927 103.173617,32.592116 L98.7158417,31.4314416 L91.2563537,30.1621033 C88.5341483,30.1979265 86.009031,31.0732088 83.2677139,29.2450272 C82.2798842,29.6581891 80.793959,30.6898996 79.8992982,30.4666012 C77.2857899,29.8170056 75.4606342,30.7507992 73.2317463,31.1150026 C71.6000953,31.381289 70.4677343,31.3024778 68.8563893,31.9234147 L62.364425,34.4226858 C58.5528596,35.8890522 54.9586884,38.6307275 51.8327508,41.2780681 C50.8580603,42.1031978 49.7722838,42.5450182 48.8477612,43.7033044 L42.0547895,52.2137225 C41.3942456,53.0400462 41.307049,54.1875854 40.6285879,55.0795851 C39.1773025,56.9901603 38.4020891,59.4762961 37.3796196,61.591064 C35.6786891,65.1112986 35.0790634,68.6852682 34.2954886,72.54463 C34.099595,73.504694 32.803591,74.6593978 32.2911618,83.0038346 L32.12513,85.7049102 C31.9817932,88.0334236 31.3582779,89.6383067 31.7202034,91.9775671 L32.3126624,95.8046879 L32.3843308,100.473656 L34.0374823,112.665513 L36.5375157,123.07576 C37.0750288,125.314715 37.9326609,127.308878 38.2623356,129.480963 C38.4546459,130.74433 40.6154487,134.534434 41.3404942,138.562165 C41.5244432,139.586711 43.2600134,140.688874 42.8132803,142.378539 C42.5708021,143.295615 43.9540026,144.501665 44.1331736,145.202608 C44.0196986,146.938843 44.8510523,148.223705 45.773186,149.672159 C46.9019636,151.445412 46.928242,155.130434 48.8417888,157.150867 C49.1177122,159.268023 49.8045346,160.555273 50.8867277,162.480177 C51.6117732,163.767427 50.8532824,166.191469 52.5088229,167.759335 C53.3748163,168.579688 53.3342042,170.93089 54.02461,171.692732 C55.4962015,173.315526 55.5750368,175.314466 56.4159462,177.016072 C57.6020586,179.413843 58.2279628,181.547717 59.0939562,184.017135 C59.7521111,185.893081 60.8629716,187.395271 61.4184019,189.492127 C61.6752137,190.459356 62.6319871,191.621224 63.0058574,192.79384 L65.0722968,199.282631 C66.0338481,202.303727 66.8580349,205.117049 67.8363088,208.085605 C70.0783359,214.884865 70.9479127,221.82264 72.2164437,228.860722 C72.5019229,230.446499 72.1710537,231.776737 72.3526137,233.403114 C72.5867305,235.502358 73.425251,237.57175 73.2293574,239.821452 C72.9570174,242.940466 73.493336,246.005745 73.2162182,249.125953 L72.5150621,256.986776 L71.2345864,270.79904 C70.8631051,274.799306 70.5967374,278.43537 69.9564996,282.379513 C69.5659067,284.79042 70.5561253,287.575083 68.7309696,289.914344 C69.7271606,292.036276 69.3604572,294.08895 68.4335456,296.179836 L68.4490738,309.964635 L68.5338814,315.596056 L69.5694901,329.971939 C69.776134,332.836608 70.093864,335.511413 71.160529,338.198159 C70.1356706,339.514068 70.3076748,341.010287 71.9811324,341.78407 C71.3349222,343.898838 72.0169666,345.86673 72.8710153,347.906269 C72.7814297,352.011617 75.0987086,356.396387 75.0795971,357.69319 C75.0437628,360.019315 75.6684726,360.738169 76.5380494,362.605756 C77.0158388,363.632691 77.0815349,365.747458 77.3586528,367.029932 C77.6357707,368.307629 78.935358,369.553085 79.026138,370.455832 C79.2638383,372.792704 80.4630898,374.589839 81.045993,376.533849 C81.6862308,378.667723 82.3288577,380.217677 83.3310211,381.999288 C83.9593142,383.116974 83.1566279,385.612663 85.217095,386.458093 L85.217095,386.458093 Z M130.228446,378.916097 L129.067417,385.210248 C128.705492,387.178141 128.111838,388.572861 128.30176,390.674493 L126.605607,396.184114 C126.551856,399.450003 125.875784,401.55283 124.475861,404.434216 C123.945514,405.524438 124.804341,407.911463 123.359028,408.918097 C121.900575,409.93309 121.328422,411.268105 121.945965,413.154798 L118.757915,416.549651 C118.762693,419.210127 117.18121,420.398266 115.665423,422.190624 L112.136948,426.364036 L108.606084,428.986301 C107.317246,429.943977 106.761816,430.42162 104.928299,430.574466 C102.616993,430.766718 100.502774,433.017614 97.9203223,433.012838 C95.2291731,433.006867 92.4687445,433.214642 89.7596783,431.898734 C88.6046222,431.338696 86.2837599,431.381684 85.5264636,430.667607 C83.7658095,429.007795 81.4330024,428.207741 78.0550309,425.424272 C77.0851183,424.624219 76.6873586,422.560798 75.0019563,422.196594 C72.9809068,421.75955 72.8781821,419.680606 71.9452982,418.560531 C70.5764314,416.915048 69.2362319,416.463675 68.5052141,414.301143 L65.2180226,410.525369 C64.790401,408.391495 63.5588987,407.381278 62.6355705,405.627132 L60.1940664,400.989211 C58.8538669,398.444563 58.4847746,395.604971 56.1507731,393.486621 C56.4123628,391.02795 55.5093407,389.113792 53.5647376,387.565032 C53.7701871,385.523105 53.2685081,383.716417 51.9127806,382.247663 C53.1502553,379.703016 49.6134188,378.240231 49.6253635,374.286535 C49.6301414,372.890621 48.7486198,371.863687 48.4655296,370.663607 L47.3188349,365.819105 L45.7767694,358.445479 L43.0772589,344.675009 C42.6771103,342.629499 43.0402303,341.085516 42.3354908,339.045977 C41.1063774,335.492307 41.4921924,326.783667 40.8865943,321.068659 L40.4207495,316.663589 L41.0944327,313.026332 C40.785064,308.438564 41.5614719,304.155293 41.4945813,299.635589 C41.420524,294.653764 41.0645708,290.045696 42.169459,285.117606 L42.7655013,276.760034 L42.9339221,270.315425 C43.0354524,266.42024 43.7497476,262.791342 43.5538539,258.863916 C43.4057392,255.907301 44.1809526,252.926803 43.299431,249.946306 C43.93728,247.939008 43.9026402,246.047539 42.9900624,244.324439 C44.4437368,241.672322 42.7105555,238.904376 42.6639711,236.504216 C42.6114142,233.792394 42.9482558,232.238857 41.5483327,229.805262 C40.1914106,227.446896 40.7635635,221.913393 39.8199293,221.137222 C38.7281804,220.239251 38.0736088,218.732285 38.4665906,217.349506 C39.0805501,215.198915 37.4751775,214.431103 36.7405762,213.099671 C35.7049675,211.223725 34.5869402,209.006264 34.2082921,206.766114 C33.9956758,205.509911 34.8819752,203.44649 33.0185963,202.698978 C30.7252069,201.779513 31.6760079,199.42473 31.1635787,198.004933 C30.3704482,195.801801 28.7364083,194.568286 28.294453,192.065433 C28.0388356,190.624143 25.8625046,184.854206 25.2951297,184.004 C23.6837847,181.594287 21.9386587,179.307568 22.7783737,176.214824 C21.1849458,175.51627 21.0033858,174.318578 20.519624,173.050434 L16.9899543,163.800862 C16.0678207,161.382791 15.1432981,159.327728 14.421836,156.774722 C14.0276597,155.380002 12.4533434,153.988865 12.5954858,152.16546 C12.7364337,150.33489 11.3042598,149.226756 10.8754437,147.845172 L6.49411436,133.745127 C3.6405168,124.561232 2.87605366,116.208436 0.767807664,107.453226 C1.31846002,106.34151 0.930256081,104.698415 0.83828161,103.476841 L0.0391787358,92.9853955 C-0.0599625774,91.6873985 0.0487345251,89.8771286 0.132347681,88.56122 L0.703306087,79.5862934 L2.07814526,69.2859053 C2.42812604,66.664835 3.4231226,64.7232131 2.89158182,61.9170559 L4.38586836,58.1699404 C4.44678652,55.5870817 5.6173707,53.8568171 6.38661173,51.6966731 C8.8950064,44.6490391 12.0842511,38.2916004 16.482303,32.1001429 L24.5342499,22.5162204 C25.9305896,20.8552142 27.4738496,19.8736562 29.1246122,18.5768534 C31.3069156,16.8645004 34.1796247,13.3454599 39.105634,11.2366626 L42.552885,8.61320412 C45.1018918,8.03764337 48.7175635,5.38433217 50.3038245,5.26611533 C52.5351013,5.10013412 54.2181147,4.03021205 56.1806349,3.51555088 L63.4430347,1.6097522 L73.0669089,0.526694927 C77.5700746,0.0203925207 82.3049682,-0.125288832 86.9550541,0.10875662 C89.115857,0.21622647 91.6636693,0.951797892 93.6787463,0.437136719 C94.5996855,1.11419678 95.9996086,2.22830089 97.3481694,1.43541222 C100.019012,-0.134841708 101.595718,4.3776979 107.716201,3.91438344 C113.118805,3.5048039 115.560309,7.30087784 122.334169,7.96002625 L128.035392,10.3637686 C129.440093,10.9560469 130.490035,11.2032275 131.754983,11.7584884 L136.022837,13.6296579 C137.810964,14.4141878 139.181026,14.6661449 140.870011,15.7671138 C142.612748,16.903906 147.235362,19.4975118 147.433644,19.565576 C150.624083,20.6557979 152.952112,22.3717332 155.823627,24.1067742 L159.847809,26.5403693 C160.11776,26.7039623 164.098941,27.3547519 166.727977,31.130526 C170.236146,30.5812357 172.898628,32.1849247 176.108179,33.0864773 L181.194247,34.5170204 C189.229472,35.7362062 197.230056,34.894359 205.125527,33.2835054 L208.091405,32.6780919 L219.644354,28.8473887 L225.410079,26.4926049 L235.847389,22.4147211 L243.733305,19.7088691 L252.57241,16.9218177 L260.305432,15.3503696 L270.817995,14.2040246 L274.983124,13.783698 C276.871587,13.5938346 278.998945,13.9341558 280.668819,13.008721 C281.496589,13.4744237 282.956236,14.2708947 283.866425,13.7622041 C285.661719,12.7567639 287.428345,13.2762015 289.13047,13.0576795 C290.576978,12.8702043 291.128825,12.7842284 292.411689,13.5747289 C294.496046,14.8595907 297.313809,13.9878908 299.50089,14.2840299 L303.010254,14.7580914 L318.107207,18.4562483 C326.217683,20.4420523 339.232668,27.4001281 345.687603,33.2572349 C346.222727,33.7432375 349.342693,35.3588676 351.601442,38.679686 C354.131337,42.3969487 357.579783,43.6650929 358.56164,47.8504465 C358.87937,49.208149 359.852866,49.6356402 360.981644,50.1108957 C362.198813,50.6243628 363.017027,52.9421292 362.979998,54.1863913 C362.909524,56.5256517 364.738264,57.4857157 365.343862,59.0010406 C365.990072,60.6214471 365.982905,61.3355245 367.575138,62.3588763 C368.361102,62.8627905 368.036205,65.1053281 368.279878,65.9185166 C370.292566,67.2929366 371.057029,71.1116986 371.865688,74.3059414 C372.259864,75.861866 372.896519,76.8804414 373.343252,78.752805 L375.223353,86.619598 L375.996178,102.283926 C376.053512,103.449377 375.471804,104.278089 375.586473,105.679973 C375.765644,107.878329 375.228131,110.480293 374.903234,112.746713 L373.659787,121.424306 L371.896744,127.936979 C371.471511,129.510815 370.945943,130.273851 370.535044,131.605283 L369.292792,135.629432 C368.717055,137.491049 368.343185,138.629035 367.518998,140.457217 L365.784622,144.299861 C363.719377,148.876882 360.119234,157.537758 358.918788,158.284077 C357.828233,158.963525 358.247494,160.451385 357.717147,161.198898 L353.894832,166.580749 C352.973892,167.877552 353.167397,169.434671 351.081846,169.737975 C350.900286,172.097535 350.071322,173.898252 348.184053,175.320436 C347.479314,177.273999 346.394732,180.104039 344.489546,181.077238 C342.787421,181.947744 342.942703,183.088118 342.332327,184.279839 C341.862899,185.196915 339.316281,185.651871 339.721207,187.586328 C340.073577,189.26644 338.154058,189.618703 337.753909,190.497567 C336.881943,192.410531 335.201319,194.34857 333.809757,196.44065 L330.129584,201.972959 L325.921453,207.904101 C325.361245,208.693407 325.084127,210.039168 324.746091,211.018338 C321.603431,211.553299 321.108919,213.937936 319.931168,216.267643 L316.673838,220.316868 L313.440398,225.590056 L309.474745,231.509256 L308.145296,233.674177 L303.787856,240.140279 L299.736202,247.01835 C297.552704,250.724866 295.098061,256.313298 293.52255,260.669409 L291.657976,265.825574 L290.172051,269.958387 L289.190194,274.239269 C287.171533,283.051797 285.277098,291.851189 285.001175,300.660135 L284.506663,316.472532 L283.996622,320.709232 L283.566612,327.071447 C283.315772,330.771993 283.161685,334.064152 282.239552,337.657228 L280.35945,344.987866 L278.889053,350.541669 C274.414555,367.438317 267.908257,383.396396 258.978372,398.444563 L255.116638,404.953654 C251.0614,411.787542 246.835353,418.277527 242.024013,424.470179 C240.981237,425.812358 240.784149,427.307383 238.815656,428.337899 L236.528239,432.243831 C235.340933,432.973432 234.409243,433.286289 233.792895,434.617721 L230.800738,437.187444 C229.67435,438.992938 228.778494,439.39177 227.106231,440.634838 L220.923636,445.230966 C219.840248,445.555763 218.743721,445.73488 217.868172,446.47284 C215.685869,447.055565 212.8908,446.751067 211.440709,449.101074 L208.677892,450.000239 C208.372106,449.681412 208.182185,449.074804 208.051988,448.798965 C207.874011,448.421626 206.86707,448.209075 206.444226,448.601937 C204.97144,449.970386 203.66588,448.987634 202.197872,448.853894 C200.525609,448.701048 199.166298,448.898076 197.612288,447.938012 C196.252977,447.099747 194.583103,447.280057 193.146151,447.572614 C191.758172,444.807057 189.014466,446.359399 185.808499,441.474297 C185.175428,440.509457 183.430302,439.869414 183.740865,438.148703 C183.977371,436.842347 182.535641,435.833324 182.258523,435.029689 L181.087939,431.631253 L179.494511,424.46182 C178.111311,414.487424 178.595073,404.770955 179.673683,394.8491 L181.704288,376.160093 L183.009847,364.361097 L183.444636,357.615573 C183.959454,349.617428 184.270017,334.943017 183.362217,328.075693 L181.453448,313.642493 L180.669874,308.632009 L179.228144,303.039995 L175.973203,292.678707 C175.392689,290.83142 174.167159,289.409235 173.683397,287.284915 C172.795903,283.390924 168.028759,276.724211 162.804131,279.100488 C159.563524,280.57402 157.993986,284.077537 155.897684,286.823988 C154.355619,288.844422 153.091866,290.091072 152.588992,292.798118 C152.267679,294.522412 148.47642,295.936238 148.708148,300.877463 C146.45537,301.905591 146.50076,304.012 145.770937,305.874811 C145.065003,307.677916 143.740332,308.932925 143.601773,311.133669 L141.931898,315.661732 C141.02171,318.128762 140.666951,320.558774 139.541757,323.049687 L138.834628,326.907854 C137.931606,328.404074 137.996108,329.778494 137.702267,331.205454 L135.813804,340.377409 C135.524742,341.778099 134.510634,343.193119 134.855837,344.894725 C135.238068,346.777836 134.032844,348.417348 133.817839,350.083131 L132.25069,362.232 L131.723927,367.872973 C131.593729,369.270081 131.186413,370.316121 131.351251,371.766964 C131.39903,372.192067 130.608288,372.737775 130.387311,373.064961 C130.074359,373.528276 130.885406,374.700891 130.811349,375.177341 L130.228446,378.916097 Z" id="Fill-1" fill="#102E79" mask="url(#mask-2)"></path>
            </g>
            <path d="M36.6201365,377.575061 C33.8172157,375.294533 33.098618,371.259944 33.9380649,368.103643 C34.2239446,367.031857 36.3459519,367.771929 36.7175955,368.71304 C37.7675538,371.374285 38.0716259,374.427555 36.6201365,377.575061" id="Fill-4" fill="#102E79"></path>
            <path d="M113.00065,209.533943 C98.132599,197.379337 88.3540928,181.800594 81.5298828,164.284543 C78.3991394,156.24537 83.6818219,147.114739 90.819583,144.862333 C99.6395524,146.324 104.904352,151.352377 105.666174,160.108007 C120.946729,191.278671 154.044863,209.695685 188.864547,204.342626 C223.1382,199.073434 248.65507,171.721077 255.27422,138.167415 C251.841847,132.585521 251.857346,127.631426 254.699574,122.196897 C256.805017,118.170123 261.598894,113.476012 267.085444,113.576652 C275.382033,113.730007 279.632262,120.367417 283.139743,127.669765 C285.136695,131.82833 280.137759,136.401433 279.641799,140.466547 C277.43025,158.563671 271.02689,173.943531 260.860916,188.544634 C227.028381,237.135502 159.495647,247.545692 113.00065,209.533943" id="Fill-6" fill="#102E79"></path>
            <path d="M144.821214,98.3356377 C150.587989,100.685671 151.311531,103.695946 151.960802,106.809532 L153.719345,115.238302 L154.598617,125.999293 C154.876533,129.396688 149.269082,133.197828 140.841733,133.545761 C132.515009,133.890132 127.233391,131.145853 125.666515,128.107079 C122.579481,122.120966 122.10271,116.200165 120.939532,110.000305 C119.909323,104.512936 120.757449,98.2323265 131.221258,96.8560311 C136.371105,96.1791646 140.920795,96.745595 144.821214,98.3356377" id="Fill-8" fill="#102E79"></path>
            <path d="M209.12282,145.321596 C187.811814,142.450225 194.337016,125.773539 195.285348,115.622045 C195.611488,112.128543 197.349296,108.637434 204.293304,107.729363 C210.826931,106.87513 219.334244,109.683092 222.5463,113.303413 C225.599497,116.743076 225.719844,119.997297 225.567004,123.249125 C225.116907,132.814381 226.766861,147.698853 209.12282,145.321596" id="Fill-10" fill="#102E79"></path>
        </g>
    </g>
</svg>