<?xml version="1.0" encoding="UTF-8"?>
<svg width="691px" height="573px" viewBox="0 0 691 573" version="1.1" xmlns="http://www.w3.org/2000/svg" xmlns:xlink="http://www.w3.org/1999/xlink">
    <title>Symbol9</title>
    <defs>
        <polygon id="path-1" points="0 0 336 0 336 360 0 360"></polygon>
    </defs>
    <g id="Symbol9" stroke="none" fill="none" fill-rule="evenodd" stroke-width="1">
        <g id="Group-3" transform="translate(177, 106)">
            <mask id="mask-2" fill="white">
                <use xlink:href="#path-1"></use>
            </mask>
            <g id="Clip-2"></g>
            <path d="M51.7370179,359.968533 C46.041728,360.602762 41.8029921,351.504433 42.6403743,345.786844 C45.0093203,329.603113 46.0962806,311.127448 41.6093304,295.315272 C37.6719976,293.754197 34.7411599,289.729701 34.2638248,286.045456 L30.5310642,283.23906 C29.7427793,282.645661 31.6207521,279.703164 31.6862152,278.143451 C32.2453792,264.873636 38.7930532,255.122023 46.975941,245.835874 C73.2566489,216.012135 98.8268095,186.858011 127.147784,158.075442 L76.0565604,114.438846 L17.1724998,65.3133095 C9.38920974,64.4449872 5.93875872,58.7927265 2.70106279,52.3592479 C-5.99734693,35.0799072 8.71684913,20.8519433 13.0742369,20.3551759 C19.606909,19.6093442 20.4715674,10.5368737 34.3838405,7.91557487 L49.7840353,13.3840997 L62.7293638,21.5378907 L89.9401933,47.8624819 L118.199796,74.3190907 L143.388089,97.200335 L166.683406,118.455176 L194.737073,92.1496392 L224.299119,63.4705065 L270.049645,19.9400689 C275.780394,14.4878761 281.179736,11.3521167 288.551154,8.41370331 C295.025182,5.83323465 302.26431,-2.07965818 309.458433,0.51578156 L322.287837,5.14456527 L332.029565,11.8652162 C331.598599,14.666168 333.458843,17.4616757 334.619449,20.375591 C338.443585,29.9842982 333.90481,47.6528868 326.146068,55.833898 C323.573914,58.5463843 318.643724,61.2411775 315.723797,63.4405643 L294.871071,79.1520254 L255.619122,113.181275 L224.363219,141.262926 C218.719754,146.334037 212.17208,150.519133 208.136552,157.445296 L280.647849,229.690252 C288.326125,237.340471 294.550575,244.933527 298.063761,254.892013 L292.783071,264.401366 C290.845091,267.890987 286.519071,268.900854 287.453284,273.871251 C287.631943,274.819872 286.543619,276.142771 286.017187,276.917184 C285.411653,277.810004 282.858592,275.990338 281.745719,276.259818 C267.166541,279.782103 254.159841,273.599049 243.745752,263.496297 L231.172745,251.298955 L202.465811,225.299644 L167.063911,194.460594 C141.489659,219.742654 117.006459,244.398651 94.8212859,272.257097 C91.0107878,277.042396 91.2276344,282.177475 84.1698936,285.390811 C80.8653708,286.894724 77.0562365,293.264235 72.3647142,293.716089 C65.3669813,294.389788 61.4296485,297.609929 60.0658338,304.310165 C54.6392154,330.966842 67.9009489,358.167921 51.7370179,359.968533" id="Fill-1" fill="#000000" mask="url(#mask-2)"></path>
        </g>
    </g>
</svg>