<?xml version="1.0" encoding="UTF-8"?>
<svg width="691px" height="573px" viewBox="0 0 691 573" version="1.1" xmlns="http://www.w3.org/2000/svg" xmlns:xlink="http://www.w3.org/1999/xlink">
    <title>Symbol8</title>
    <defs>
        <polygon id="path-1" points="0 0 420 0 420 75 0 75"></polygon>
        <polygon id="path-3" points="-9.35527533e-16 0 419 0 419 88 -9.35527533e-16 88"></polygon>
        <polygon id="path-5" points="-8.10863871e-15 0 420 0 420 69 -8.10863871e-15 69"></polygon>
    </defs>
    <g id="Symbol8" stroke="none" fill="none" fill-rule="evenodd" stroke-width="1">
        <g id="Group-14" transform="translate(134.331, 122.5285)">
            <g id="Group-3" transform="translate(-0.331, 118.4715)">
                <mask id="mask-2" fill="white">
                    <use xlink:href="#path-1"></use>
                </mask>
                <g id="Clip-2"></g>
                <path d="M193.278196,73.6141887 L157.657249,71.7444538 L115.217242,70.2211739 L50.1692574,67.2559679 C42.0240354,66.8842652 35.8385555,65.1071053 28.3971548,61.7253117 C21.8604666,58.7544951 10.8044305,59.016791 7.61545949,51.8225897 L1.9286953,38.9911307 L-0.000140483305,26.9647938 C2.39369504,25.2886249 3.15370972,21.9138445 4.50094461,18.9752889 C8.94021706,9.28717267 25.3472623,0.0661394667 36.9736606,0 C40.8285225,-0.0222275992 46.3481115,1.71986599 50.0695143,2.32160363 L76.637717,6.61652356 L129.970799,11.5244024 L173.17363,14.7308645 C180.974668,15.3101597 188.758848,17.1897131 196.797302,15.2526509 L253.653706,19.3862659 C290.72163,20.3667196 326.544873,20.9838864 363.119702,17.6119113 C369.402115,17.0326161 373.077158,13.2103899 380.500296,16.1643746 C383.974448,17.5473894 391.438326,15.8375568 395.116179,19.0005367 C400.603457,23.7190575 419.415577,27.4318769 414.554854,30.8866084 C400.801539,40.6602864 426.810618,26.1063709 418.217254,40.7093792 C419.856694,44.7476139 418.944958,49.7929525 416.537074,52.7735877 L417.104626,57.5468119 C417.224037,58.5553186 413.690882,59.2566445 412.481321,60.3198546 C402.189514,69.3613483 390.254052,71.4470916 377.500978,71.9871126 C336.54588,73.717985 296.595237,75.2258357 254.957391,74.9719557 C244.747064,74.910239 193.278196,73.6141887 193.278196,73.6141887" id="Fill-1" fill="#000000" mask="url(#mask-2)"></path>
            </g>
            <g id="Group-6" transform="translate(1.669, 0.4715)">
                <mask id="mask-4" fill="white">
                    <use xlink:href="#path-3"></use>
                </mask>
                <g id="Clip-5"></g>
                <path d="M228.166846,6.96556678 L263.650766,10.5008735 L305.961541,14.0066491 L370.780856,20.0099205 C378.898368,20.7622631 384.992119,22.8294472 392.265579,26.5644411 C398.652853,29.8438108 409.706994,30.0983416 412.555145,37.4516109 L417.636314,50.566277 L419,62.7007885 C416.531041,64.2673485 415.615363,67.6114055 414.133706,70.4914008 C409.24775,79.9877916 392.432704,88.4562153 380.819606,87.9809036 C376.970108,87.8234038 371.537835,85.8209071 367.849844,85.0446584 L341.519894,79.5040424 L288.489229,72.1001482 L245.495908,66.8731255 C237.733713,65.9295333 230.047356,63.6837557 221.92844,65.2489094 L165.344607,58.4567329 C128.373414,55.7454873 92.6282734,53.4561161 55.9477933,55.1267383 C49.6461885,55.4150191 45.7980947,59.0698569 38.5232311,55.7651748 C35.1175276,54.2183023 27.5856563,55.5823626 24.0591732,52.2425243 C18.7996435,47.2615949 0.186947168,42.6659774 5.2021089,39.4330139 C19.3937105,30.2867788 -7.25785047,43.6475383 2.00425865,29.424749 C0.554903588,25.3044432 1.70230968,20.2939826 4.24429868,17.4210185 L3.90162171,12.6130576 C3.82859219,11.599153 7.38878122,11.0605601 8.64713599,10.0522805 C19.3459604,1.47698197 31.3621251,-0.0544217864 44.122629,0.000421874313 C85.1034241,0.179015333 125.068828,0.531983509 166.635264,2.72854243 C176.829904,3.2671353 228.166846,6.96556678 228.166846,6.96556678" id="Fill-4" fill="#000000" mask="url(#mask-4)"></path>
            </g>
            <g id="Group-9" transform="translate(1.669, 258.4715)">
                <mask id="mask-6" fill="white">
                    <use xlink:href="#path-5"></use>
                </mask>
                <g id="Clip-8"></g>
                <path d="M225.496373,0 L261.149238,0.843212563 L303.607104,1.14576059 L368.699145,2.23689446 C376.8511,2.37416162 383.083048,3.9695422 390.61841,7.13228965 C397.235202,9.90984864 408.277702,9.33136561 411.672477,16.4216347 L417.724644,29.0642204 L420,41.0148676 C417.655821,42.7559194 416.992878,46.1469786 415.7316,49.1178321 C411.575564,58.9170266 395.444412,68.5915602 383.82605,68.9921562 C379.974799,69.1252213 374.407199,67.5452482 370.671121,67.0508063 L343.997485,63.526682 L290.554706,60.1580338 L247.287824,58.1984751 C239.474364,57.8455024 231.639835,56.191293 223.662043,58.3567525 L166.721956,55.8635327 C129.649101,55.9489745 93.8304996,56.3607759 57.3756417,60.7785374 C51.1141985,61.5377089 47.5522829,65.4568264 40.0478211,62.7226887 C36.5350644,61.4410616 29.1261114,63.3614012 25.3591328,60.3107085 C19.7381603,55.7570806 0.83163586,52.5915317 5.58881574,49.0043766 C19.0527444,38.8536101 -6.51973098,54.1280835 1.64626956,39.3046308 C-0.109406514,35.3210817 0.657472794,30.2576043 2.97777429,27.2139151 L2.27269478,22.4655919 C2.12521799,21.4627012 5.63376105,20.6615092 6.81357537,19.5647726 C16.8377835,10.2432118 28.7047492,7.81862546 41.4355075,6.91518343 C82.3146691,4.01156276 122.198011,1.35866476 163.815961,0.41600354 C174.02276,0.184890462 225.496373,0 225.496373,0" id="Fill-7" fill="#000000" mask="url(#mask-6)"></path>
            </g>
            <path d="M32.669,162.25926 C34.3292749,173.198303 35.7023821,183.099571 35.6842599,193.501347 C35.6842599,194.158792 35.6758958,194.83886 35.6675317,195.534479 C35.5797086,202.475123 35.4486709,212.96173 44.28953,213.459409 C47.6477182,213.636142 50.7758935,211.86316 52.2577341,208.94071 C54.3027578,204.912619 53.6796319,200.975016 53.128995,197.502574 L50.9961482,183.940819 L49.4390307,159.40326 C49.2410802,156.287111 50.1485856,152.951813 51.5941817,151.4715" id="Fill-10" fill="#000000"></path>
            <path d="M387.669,58.5642376 C389.882865,72.8548124 391.714104,85.7899924 391.690102,99.3818233 C391.68869,100.239117 391.678806,101.128683 391.666099,102.037892 C391.550323,111.103322 391.375247,124.804594 403.16323,125.455633 C407.640377,125.687144 411.81114,123.369223 413.787805,119.551388 C416.514191,114.288359 415.68258,109.144594 414.949802,104.606968 L412.104816,86.8900229 L410.029318,54.8319913 C409.766704,50.7615978 410.975293,46.4035689 412.903953,44.4715" id="Fill-12" fill="#000000"></path>
        </g>
    </g>
</svg>