<?xml version="1.0" encoding="UTF-8"?>
<svg width="691px" height="573px" viewBox="0 0 691 573" version="1.1" xmlns="http://www.w3.org/2000/svg" xmlns:xlink="http://www.w3.org/1999/xlink">
    <title>Symbol2</title>
    <defs>
        <path d="M0,0 L691,0 L691,573 L0,573 L0,0 Z" id="path-1"></path>
        <polygon id="path-2" points="0 0 492 0 492 207 0 207"></polygon>
        <polygon id="path-4" points="0 0 492 0 492 207 0 207"></polygon>
    </defs>
    <g id="Symbol2" stroke="none" fill="none" xlink:href="#path-1" fill-rule="evenodd">
        <g id="Group-7" stroke-width="1" transform="translate(99, 74)">
            <g id="Group-3" transform="translate(0, 222)">
                <mask id="mask-3" fill="white">
                    <use xlink:href="#path-2"></use>
                </mask>
                <g id="Clip-2"></g>
                <path d="M22.513204,85.3356695 C36.5960493,102.323495 60.0628513,104.094816 75.7453917,85.7778089 C76.6229782,84.7512165 77.444132,83.6679749 78.2353419,82.555718 C91.250572,120.731693 134.709532,128.54098 155.762395,93.7294099 C163.474101,115.257454 181.349456,130.378622 202.13052,130.378622 C215.560358,130.378622 228.203593,124.094716 237.724601,112.687519 C241.021885,108.737279 243.769813,104.315885 246.001785,99.5905204 C254.660178,117.942069 271.087861,130.378622 289.920269,130.378622 C303.350107,130.378622 315.993342,124.094716 325.52126,112.68061 C330.145288,107.137287 333.738556,100.705541 336.236568,93.7266465 C344.551758,107.478564 357.583112,115.998038 372.080565,115.998038 C383.95332,115.998038 395.420681,110.370432 403.924748,100.250966 C408.225152,95.1069505 411.535105,89.0979996 413.765925,82.5570997 C414.555983,83.6679749 415.378289,84.7512165 416.255875,85.7778089 C423.470051,94.2033281 432.737687,98.809868 442.455634,98.809868 C442.7735,98.809868 443.097124,98.8015779 443.4219,98.7946695 C453.29878,98.4824085 462.553747,93.7003945 469.475394,85.3508681 C470.522279,84.0949158 471.481635,82.7643525 472.391469,81.395102 C476.492631,89.667254 478.983733,99.2022668 478.983733,109.50826 L478.983733,156.594726 C478.983733,166.332846 472.939673,174.552494 464.923922,175.711728 C320.456134,196.612487 173.147131,196.612487 27.1038338,175.681331 C19.0696558,174.530387 13.0186852,166.309357 13.0186852,156.55742 L13.0186852,109.50826 C13.0186852,99.2340455 15.4165004,89.667254 19.4992356,81.4185907 L19.4992356,81.2182463 C20.4367099,82.6441459 21.4248585,84.0327399 22.513204,85.3356695 Z M24.3052311,23.6848555 C24.3052311,19.2385911 27.3307164,15.617193 31.0495182,15.617193 L68.1753441,15.617193 C71.8941458,15.617193 74.9196311,19.2385911 74.9196311,23.6848555 L74.9196311,51.3199503 C74.9196311,59.9748293 71.9068144,68.4625243 66.6631773,74.5930635 C61.7500747,80.3422576 55.4768282,83.3087367 48.9237215,83.1788582 C42.4086204,82.972987 36.3069755,79.8310339 31.730166,74.309818 C26.9437492,68.5675324 24.3063828,60.9654979 24.3063828,52.8978354 L24.3063828,23.6848555 L24.3052311,23.6848555 Z M94.6803,15.617193 L144.957255,15.617193 C148.676057,15.617193 151.701542,19.2385911 151.701542,23.6848555 L151.701542,60.5620457 C151.701542,81.5470874 138.652913,99.0019223 121.9995,100.297943 C112.612088,101.10623 103.891503,97.0717075 97.2681437,89.1947176 C91.2494204,81.9961353 87.9371643,72.4182903 87.9371643,62.2394121 L87.9371643,23.6848555 C87.9360129,19.2385911 90.9614983,15.617193 94.6803,15.617193 Z M171.461059,15.617193 L232.747004,15.617193 C236.465806,15.617193 239.491291,19.2385911 239.491291,23.6848555 L239.491291,70.0321192 C239.491291,81.9436312 235.600888,93.1670638 228.532976,101.63127 C221.458155,110.103767 212.083411,114.762811 202.129369,114.762811 C181.498024,114.762811 164.717924,94.7007349 164.717924,70.0321192 L164.717924,60.5620457 L164.717924,23.6848555 C164.717924,19.2385911 167.743409,15.617193 171.461059,15.617193 Z M259.25196,15.617193 L320.537904,15.617193 C324.256706,15.617193 327.282191,19.2385911 327.282191,23.6848555 L327.282191,60.5620457 L327.282191,70.0321192 C327.282191,81.9353411 323.386029,93.1601554 316.323876,101.63127 C309.249055,110.103767 299.874311,114.762811 289.920269,114.762811 C269.288924,114.762811 252.508824,94.7007349 252.508824,70.0321192 L252.508824,23.6848555 C252.507673,19.2385911 255.533158,15.617193 259.25196,15.617193 Z M347.041708,15.617193 L397.318664,15.617193 C401.037465,15.617193 404.062951,19.2385911 404.062951,23.6848555 L404.062951,51.3199503 L404.062951,62.2394121 C404.062951,72.419672 400.751847,81.997517 394.74464,89.179519 C388.108612,97.0799976 379.337353,101.113138 370.006374,100.297943 C353.347202,99.0019223 340.297421,81.5470874 340.297421,60.5620457 L340.297421,23.6848555 C340.298573,19.2385911 343.324058,15.617193 347.041708,15.617193 Z M423.823619,15.617193 L460.949445,15.617193 C464.668247,15.617193 467.693732,19.2385911 467.693732,23.6848555 L467.693732,52.8978354 C467.693732,60.9654979 465.056366,68.5675324 460.257281,74.3250165 C455.69314,79.8310339 449.591495,82.9716054 443.076394,83.1774765 C436.853821,83.5657302 430.255799,80.3408759 425.336938,74.5916819 C420.093301,68.4611426 417.080484,59.9734476 417.080484,51.3185687 L417.080484,23.6834738 C417.080484,19.2385911 420.105969,15.617193 423.823619,15.617193 Z M0,156.55742 C0,174.209836 10.9836519,189.103026 25.5582681,191.192134 C99.1304238,201.730251 173.013535,207 246.712377,207 C320.335207,207 393.766857,201.738541 466.486763,191.222531 C481.029132,189.109934 492.000115,174.225035 492.000115,156.596107 L492.000115,109.509642 C492.000115,92.8962534 487.20103,77.6272452 479.229043,65.4794649 C480.188399,61.4338893 480.711266,57.2169847 480.711266,52.8978354 L480.711266,23.6848555 C480.711266,10.6223993 471.844417,0 460.950597,0 L423.824771,0 C418.710123,0 414.086094,2.40136967 410.572293,6.23831074 C407.058492,2.40275136 402.434463,0 397.319815,0 L347.04286,0 C341.928212,0 337.304183,2.40136967 333.790382,6.23831074 C330.276581,2.40275136 325.652552,0 320.537904,0 L259.25196,0 C254.137312,0 249.513283,2.40136967 245.999482,6.23831074 C242.485681,2.40275136 237.861652,0 232.747004,0 L171.461059,0 C166.346411,0 161.722383,2.40136967 158.208582,6.23831074 C154.69478,2.40275136 150.070752,0 144.956104,0 L94.6791483,0 C89.5645003,0 84.9404715,2.40136967 81.4266703,6.23831074 C77.9128692,2.40275136 73.2888404,0 68.1741924,0 L31.0495182,0 C20.155698,0 11.2888493,10.6223993 11.2888493,23.6848555 L11.2888493,52.8978354 C11.2888493,57.215603 11.8105641,61.4338893 12.7699205,65.4794649 C4.79908539,77.6258636 0,92.8962534 0,109.509642 L0,156.55742 Z" id="Fill-1" fill="#102E79" mask="url(#mask-3)"></path>
            </g>
            <g id="Group-6">
                <mask id="mask-5" fill="white">
                    <use xlink:href="#path-4"></use>
                </mask>
                <g id="Clip-5"></g>
                <path d="M13.0175335,50.4415349 C13.0175335,40.6881508 19.0685042,32.468448 27.095772,31.3174961 C100.158881,20.848394 173.51452,15.6172972 246.692798,15.6172972 C319.793913,15.6172972 392.730337,20.8401039 464.92277,31.295389 L464.92968,31.295389 C472.938521,32.4463408 478.982582,40.6674254 478.982582,50.4125194 L478.982582,97.4992991 C478.982582,107.802598 476.506452,117.354255 472.416806,125.640279 C464.953866,114.397428 454.382518,108.551476 443.420749,108.204671 C432.008669,108.00847 421.429259,113.676183 413.763622,124.443731 C406.376692,102.77461 388.176561,89.6264017 369.163338,91.124159 C355.648275,92.1770105 343.845773,100.692396 336.23772,113.27411 C328.544441,91.7873725 310.779649,76.628798 289.922572,76.628798 C271.091316,76.628798 254.665937,89.0640519 246.00524,107.411578 C236.981762,88.3096465 220.398601,76.628798 202.132824,76.628798 C181.352911,76.628798 163.478707,91.7500667 155.764699,113.27411 C139.009937,85.5642188 107.101259,84.1175842 88.0788223,106.749746 C83.7772663,111.893796 80.4673139,117.902787 78.2376453,124.443731 C70.6054065,113.728687 60.1595931,108.018142 48.58167,108.206053 C38.7047907,108.518316 29.4429129,113.300362 22.5339344,121.649944 C21.4709261,122.921103 20.5012045,124.269637 19.5810055,125.656859 C15.4798432,117.377743 13.0175335,107.809506 13.0175335,97.5006808 L13.0175335,50.4415349 L13.0175335,50.4415349 Z M467.693732,183.314986 C467.693732,187.761281 464.668247,191.382703 460.949445,191.382703 L423.823619,191.382703 C420.104818,191.382703 417.079332,187.761281 417.079332,183.314986 L417.079332,155.679707 C417.079332,138.74151 428.484502,123.805388 442.459089,123.805388 C442.662938,123.805388 442.872545,123.813678 443.075242,123.820587 C449.590343,124.026459 455.691988,127.168433 460.274556,132.704885 C471.536916,146.195753 466.39578,161.241029 467.693732,183.314986 Z M397.318664,191.382703 L347.041708,191.382703 C343.322906,191.382703 340.297421,187.761281 340.297421,183.314986 L340.297421,146.43755 C340.297421,124.995027 354.03476,106.625394 372.17961,106.625394 C389.754374,106.625394 404.061799,123.646493 404.061799,144.760172 L404.061799,155.679707 L404.061799,183.314986 C404.062951,187.761281 401.037465,191.382703 397.318664,191.382703 Z M320.536752,191.382703 L259.250808,191.382703 C255.532006,191.382703 252.506521,187.761281 252.506521,183.314986 L252.506521,136.967413 C252.506521,112.306923 269.28662,92.2433318 289.917966,92.2433318 C310.450266,92.2433318 327.278737,112.244747 327.278737,136.967413 L327.278737,146.438932 L327.278737,183.316368 C327.281039,187.761281 324.255554,191.382703 320.536752,191.382703 Z M232.747004,191.382703 L171.461059,191.382703 C167.742258,191.382703 164.716772,187.761281 164.716772,183.314986 L164.716772,146.43755 L164.716772,136.966032 C164.716772,112.305541 181.496872,92.2419501 202.128217,92.2419501 C222.617905,92.2419501 239.488989,112.189479 239.488989,136.966032 L239.488989,183.313605 C239.491291,187.761281 236.465806,191.382703 232.747004,191.382703 Z M144.957255,191.382703 L94.6803,191.382703 C90.9614983,191.382703 87.9360129,187.761281 87.9360129,183.314986 L87.9360129,155.679707 L87.9360129,144.760172 C87.9360129,134.579845 91.247117,125.001936 97.2543235,117.819886 C117.553982,93.6692409 151.700391,110.897594 151.700391,146.438932 L151.700391,183.316368 C151.700391,187.761281 148.674905,191.382703 144.957255,191.382703 Z M68.1753441,191.382703 L31.0495182,191.382703 C27.3307164,191.382703 24.3052311,187.761281 24.3052311,183.314986 L24.3052311,154.101812 C24.3052311,146.034095 26.9425975,138.43201 31.748593,132.681396 C36.3058238,127.168433 42.4074687,124.026459 48.9225698,123.820587 C49.1264186,123.812296 49.3291158,123.805388 49.5387231,123.805388 C55.8442168,123.805388 61.9009459,126.84788 66.6620256,132.406439 C71.9056627,138.537019 74.9184794,147.02477 74.9184794,155.679707 L74.9184794,183.314986 C74.9184794,187.761281 71.8929941,191.382703 68.1753441,191.382703 L68.1753441,191.382703 Z M0,50.4415349 L0,97.4979174 C0,114.075493 4.84284955,129.221632 12.8136847,141.311462 C11.8209293,145.419241 11.2876976,149.710785 11.2876976,154.101812 L11.2876976,183.314986 C11.2876976,196.37753 20.1545463,207 31.0483665,207 L68.1741924,207 C73.2888404,207 77.9128692,204.598614 81.4266703,200.761648 C84.9404715,204.597233 89.5645003,207 94.6791483,207 L144.956104,207 C150.070752,207 154.69478,204.598614 158.208582,200.761648 C161.722383,204.597233 166.346411,207 171.461059,207 L232.747004,207 C237.861652,207 242.485681,204.598614 245.999482,200.761648 C249.513283,204.597233 254.137312,207 259.25196,207 L320.537904,207 C325.652552,207 330.276581,204.598614 333.790382,200.761648 C337.304183,204.597233 341.928212,207 347.04286,207 L397.319815,207 C402.434463,207 407.058492,204.598614 410.572293,200.761648 C414.086094,204.597233 418.710123,207 423.824771,207 L460.950597,207 C471.844417,207 480.711266,196.37753 480.711266,183.314986 L480.711266,154.101812 C480.711266,149.810267 480.193006,145.615442 479.245167,141.593328 C487.22867,129.441321 492.000115,114.125234 492.000115,97.4979174 L492.000115,50.4111377 C492.000115,32.7738025 481.029132,17.8888036 466.486763,15.7844823 C320.983607,-5.2614941 172.644995,-5.26978427 25.5525096,15.8079711 C10.9836519,17.8957121 0,32.7890012 0,50.4415349 Z" id="Fill-4" fill="#102E79" mask="url(#mask-5)"></path>
            </g>
        </g>
    </g>
</svg>