<?xml version="1.0" encoding="UTF-8"?>
<svg width="691px" height="573px" viewBox="0 0 691 573" version="1.1" xmlns="http://www.w3.org/2000/svg" xmlns:xlink="http://www.w3.org/1999/xlink">
    <title>Symbol5a</title>
    <defs>
        <polygon id="path-1" points="0 0 380 0 380 443 0 443"></polygon>
    </defs>
    <g id="Symbol5a" stroke="none" fill="none" fill-rule="evenodd" stroke-width="1">
        <g id="Group-10" transform="translate(143, 81)">
            <g id="Group-3">
                <mask id="mask-2" fill="white">
                    <use xlink:href="#path-1"></use>
                </mask>
                <g id="Clip-2"></g>
                <path d="M186.024315,366.33861 C234.865756,367.432004 280.413327,343.848633 309.405732,306.081778 C349.568143,253.763833 356.227591,183.800775 327.510263,124.964884 C299.450063,67.4745264 239.713694,31.4526241 175.939336,36.9761474 C132.805154,40.712302 96.0271303,61.9568942 69.0566581,95.1534106 C45.9690028,123.571043 33.8162441,157.478029 31.5815378,194.461364 C29.9780978,221.012686 35.6912345,246.826438 46.4121823,271.048408 C71.1644058,326.971724 123.149247,364.93063 186.024315,366.33861 M287.278495,392.138224 C284.367852,410.318251 293.301975,426.788671 285.840807,439.925891 C284.300846,442.636989 281.494826,443.161299 279.135512,442.962179 C270.602249,442.239926 270.21432,431.592298 271.602636,420.738481 C273.262502,407.756787 273.195496,384.437339 265.585033,380.339469 C188.73159,412.382502 101.272401,393.850186 47.7546519,330.34852 C-3.89751125,269.061919 -13.2289678,188.950801 17.7207158,114.842745 C33.7656958,76.4219743 63.1401525,45.8870704 99.1047006,24.9205394 C164.129836,-12.990059 247.492258,-7.41705023 306.24705,40.0689906 C393.286569,110.411437 403.065908,236.058631 336.758256,324.941641 C330.936969,332.745032 328.726949,344.975017 328.036906,354.519826 C327.692472,359.295175 331.054524,375.475752 321.618444,375.862211 C319.125118,375.963538 316.779911,374.695767 315.464479,371.873916 C311.880249,364.1801 317.72152,355.421168 311.016226,352.31183 L296.859167,363.394224 C289.807087,371.026771 288.965399,381.603706 287.278495,392.138224" id="Fill-1" fill="#EA4589" mask="url(#mask-2)"></path>
            </g>
            <path d="M102.199188,290.295516 C87.0158558,274.765766 77.9826304,256.037918 72.5133909,235.509519 C70.0024008,226.088445 77.0869382,216.507111 85.3923405,214.882138 C95.1216936,217.640704 100.406629,223.953237 100.16363,233.878654 C113.421752,270.808797 148.307963,295.677135 188.114025,294.078086 C227.296741,292.504961 259.409006,265.032423 271.063569,228.202442 C267.905756,221.499868 268.545536,215.941493 272.421781,210.20047 C275.294335,205.946551 281.271877,201.283738 287.426679,202.0921 C296.731077,203.315249 300.674236,211.305782 303.699398,219.946776 C305.421522,224.868831 299.229155,229.370207 298.160898,233.870406 C293.401873,253.906245 284.274735,270.361016 271.014265,285.465374 C226.887047,335.727604 149.681436,338.858535 102.199188,290.295516" id="Fill-4" fill="#EA4589"></path>
            <path d="M127.157882,193.919903 C121.36593,187.639175 120.715825,180.050698 120.143224,172.210097 L118.595464,150.980976 L118.004354,123.969485 C117.818114,115.442021 123.62279,106.305453 132.194461,106.008558 C140.66318,105.716377 145.951936,112.951408 147.458052,120.667125 C150.425169,135.871177 150.743281,150.73003 151.750828,166.337009 C152.641542,180.153197 151.602762,195.822619 140.932708,198.553575 C135.682125,199.896669 131.075864,198.16832 127.157882,193.919903" id="Fill-6" fill="#EA4589"></path>
            <path d="M219.400311,194.748439 C197.336737,198.713068 200.314232,154.872816 199.083707,129.73606 C198.660199,121.085854 199.656618,111.717053 206.450387,105.949465 C212.840648,100.522946 222.00606,102.975112 226.017619,110.11403 C229.830364,116.901296 230.651499,124.741169 231.197353,132.715118 C232.804329,156.171229 237.667609,191.465948 219.400311,194.748439" id="Fill-8" fill="#EA4589"></path>
        </g>
    </g>
</svg>