<?xml version="1.0" encoding="UTF-8"?>
<svg width="691px" height="573px" viewBox="0 0 691 573" version="1.1" xmlns="http://www.w3.org/2000/svg" xmlns:xlink="http://www.w3.org/1999/xlink">
    <title>Symbol3a</title>
    <defs>
        <polygon id="path-1" points="0 0 511 0 511 422 0 422"></polygon>
    </defs>
    <g id="Symbol3a" stroke="none" fill="none" fill-rule="evenodd" stroke-width="1">
        <g id="Group-6" transform="translate(90, 76)">
            <g id="Group-3">
                <mask id="mask-2" fill="white">
                    <use xlink:href="#path-1"></use>
                </mask>
                <g id="Clip-2"></g>
                <path d="M454.129502,102.889932 L449.344722,105.943609 L439.812897,115.152153 L437.237224,118.327849 L435.957473,116.511623 L430.744672,112.342511 C426.350179,108.827758 420.130397,108.295416 416.806495,108.292177 C415.471759,108.292177 414.324619,108.719778 413.403889,109.062075 C412.859429,109.266157 412.295562,109.475639 411.986137,109.475639 C411.930073,109.475639 411.893417,109.46808 411.83951,109.446484 C411.233596,109.19921 410.594259,109.073953 409.939829,109.073953 C407.904303,109.073953 406.35394,110.244457 405.221894,111.09858 C405.038611,111.235715 404.786326,111.427919 404.617058,111.542378 C401.901227,112.009932 400.301269,112.72908 398.182726,114.407091 C393.744029,117.920764 389.478912,121.532698 386.111885,126.582928 C385.66877,125.908053 385.164201,125.170548 384.520552,124.493513 C380.640331,120.416184 374.433486,116.077543 369.317718,115.572196 L361.840826,114.835772 C361.495821,114.801218 361.161598,114.786101 360.834922,114.786101 C359.800987,114.786101 358.917992,114.934034 358.138497,115.06469 C357.560615,115.162951 357.060359,115.247176 356.622634,115.247176 C356.378975,115.247176 356.163347,115.220181 355.943407,115.166191 L354.894378,114.907039 L348.17973,117.696165 C347.830413,117.840858 347.563034,117.88837 347.159811,117.959636 C346.391098,118.095691 345.339912,118.282497 344.09035,119.090188 C339.280773,122.203255 334.384945,125.819509 330.72682,131.164525 C330.032499,130.077165 329.259473,129.185249 328.565152,128.384037 C328.23632,128.003947 327.904253,127.623857 327.584046,127.220011 C323.327554,121.863118 319.050577,118.32137 314.122405,116.069984 C313.765541,115.908014 313.394662,115.723368 313.014079,115.535483 C311.692281,114.881123 310.194746,114.1393 308.546272,113.782966 L302.114096,112.395421 L296.404273,111.664396 L291.821106,111.683832 C288.400171,111.69679 285.234756,112.89105 282.17392,114.045357 C281.458036,114.316387 280.745386,114.585258 280.037049,114.833612 C269.323585,118.5924 260.561551,125.823828 253.924529,136.364847 L252.400041,133.830554 C250.162903,130.107399 248.10797,127.262123 244.787303,124.590695 L244.229905,124.139338 C241.432135,121.880394 238.261329,119.321266 234.801582,117.742596 C234.024244,117.387342 233.299735,117.105514 232.59032,116.831244 C231.528353,116.42092 230.610857,116.067825 229.621126,115.465296 L229.149979,115.176989 L224.246604,114.08315 C220.293069,113.198793 216.563787,112.751756 213.161181,112.751756 C208.827064,112.751756 205.919324,113.465504 204.182442,113.890946 C203.924767,113.954654 203.622888,114.02916 203.405104,114.076672 C203.15821,114.03024 202.907004,114.006484 202.652563,114.006484 C200.8704,114.006484 199.653181,115.11436 198.925438,115.777358 C198.915734,115.785997 198.907109,115.794635 198.897406,115.802194 C193.886217,117.439172 184.9754,122.968834 182.290835,127.270762 L180.10976,129.18093 L179.831601,129.637686 C179.42622,130.303923 179.051028,130.989597 178.675836,131.672031 C178.576647,131.855597 178.477458,132.037004 178.379348,132.214091 L177.403632,130.53824 L172.803214,124.847688 C171.368211,123.072495 162.822884,116.032191 158.623533,115.598111 C157.894712,115.522525 157.424643,115.27849 156.71415,114.908118 C156.099611,114.588497 155.337367,114.19221 154.387526,113.925499 C151.38491,113.082175 148.306824,112.653494 145.238441,112.653494 C140.146392,112.653494 135.231157,113.801322 130.628583,116.064585 C130.285735,116.233034 129.85987,116.391765 129.410286,116.560214 C128.165036,117.024529 126.614673,117.603302 125.3015,118.935777 L120.928569,123.373759 L119.924822,124.575578 L118.601945,122.390061 C115.412811,117.118471 108.104109,110.117041 103.269734,107.698286 L98.5086738,105.318404 C95.9664227,104.047478 89.5234656,102.805707 87.225952,102.805707 C87.0383558,102.805707 86.8701662,102.812186 86.7224612,102.824064 C82.4799852,103.154483 75.8192441,104.900521 71.2220606,107.953119 L70.8662748,108.188516 L67.3547769,112.07796 L65.3871737,109.807138 L60.6347382,104.997704 C57.9803606,102.308999 49.0242621,96.8829979 45.6389065,96.2243192 L39.5905482,95.0484158 L34.1976982,95.9846034 C34.1189941,95.5861567 34.0553839,95.1553161 33.9906956,94.715837 C33.8440687,93.7375372 33.6791135,92.6285814 33.3157807,91.5455409 C31.7589484,86.9002364 30.6419967,79.8685713 30.8263584,75.8689879 C30.8576244,75.20599 30.7401073,74.5397527 30.5632925,73.5322982 C30.2118193,71.5379055 29.6253118,68.2002402 30.326102,65.3528046 C30.6959036,63.8529608 30.8899686,62.3282816 31.0786428,60.8532732 C31.3546464,58.6925911 31.6155559,56.6506871 32.370253,55.0860553 C32.8953066,53.9976157 33.2262952,52.8573457 33.5195489,51.8509711 C33.768599,50.9957686 34.0262741,50.1103316 34.3087465,49.6298201 C37.7922128,43.7157493 41.7996544,39.9504827 46.5607151,38.1180601 L51.3217758,36.2845578 C52.1400831,35.9714155 53.1039391,35.8493979 54.2208908,35.7101036 C55.6257056,35.534096 57.1717565,35.3397318 58.7857302,34.7156067 C60.0288242,35.137809 61.2945591,35.3526894 62.5656846,35.3526894 C63.8874827,35.3526894 65.2125152,35.1302504 66.5817514,34.6767339 C68.1666154,35.4725473 69.7342291,35.8623555 71.334187,35.8623555 C72.1719008,35.8623555 73.0193178,35.751136 73.8667349,35.528697 C75.7028051,36.446528 77.5291722,36.6063385 78.9523153,36.7315955 C79.6800589,36.7931441 80.3668333,36.853613 80.8843399,36.9972265 C81.9851196,37.3028103 83.0460081,37.6451072 84.0928808,37.9820052 C86.6922733,38.8188511 89.3757606,39.682692 92.4290495,39.9515625 L99.5663279,42.4912548 L100.26604,42.4361849 C100.337197,42.4297061 100.406198,42.4264667 100.475199,42.4264667 C101.125317,42.4264667 101.712902,42.6888584 102.696165,43.1542527 C103.584551,43.5742953 104.590454,44.0504876 105.841095,44.3064005 C107.298739,44.607665 108.634553,45.0115106 110.050149,45.4369523 C110.933145,45.7036632 111.83339,45.9746932 112.797247,46.2349253 L124.097219,49.2767251 L141.124264,53.469593 L165.98183,59.0834791 C167.300394,59.3815042 168.355892,59.4506115 169.287404,59.5110804 C169.92674,59.5531926 170.477669,59.5877463 171.084661,59.6935668 L177.887716,60.881348 C178.397676,60.9698917 178.883917,61.1275427 179.447783,61.3089493 C180.478484,61.6436876 181.760391,62.0583313 183.38299,62.0583313 C183.6784,62.0583313 183.9792,62.0432141 184.283235,62.016219 L191.87441,63.6791128 L192.453371,63.6002873 C193.007534,63.5236214 193.550916,63.4858284 194.118017,63.4858284 C196.015541,63.4858284 197.837596,63.9091104 199.947513,64.3971805 C200.707601,64.5731881 201.480626,64.7535149 202.279527,64.9176447 C203.867626,65.2459042 205.525803,65.3603632 207.128995,65.4726625 C207.784504,65.5169343 208.433543,65.562286 209.055629,65.621675 L215.227973,66.2198849 C215.781059,66.2727951 216.30719,66.2879123 216.818228,66.2879123 L217.875882,66.2803537 C218.831113,66.2803537 219.34862,66.3473014 220.082832,66.7662642 L220.971218,67.272691 L226.603415,66.8137755 C228.125747,67.3979479 230.021115,67.9605243 232.10947,67.9605243 C233.278172,67.9605243 234.419921,67.7909955 235.563826,67.446539 C237.015001,68.1754047 238.523317,68.5425371 240.062899,68.5425371 C241.323243,68.5425371 242.5879,68.2931031 243.834229,67.7996339 L249.89229,68.5781706 C252.884125,68.9636596 255.723943,69.146146 259.102829,69.1699016 L274.127771,69.2789615 C275.006454,69.2854403 275.884059,69.3383506 276.760586,69.3912608 C277.783739,69.4517297 278.841393,69.5143582 279.930313,69.5143582 C281.492536,69.5143582 283.707033,69.3977396 286.087564,68.5252603 C287.241172,69.004692 288.402328,69.2476473 289.555936,69.2476473 C290.929485,69.2465675 292.262064,68.8967119 293.494377,68.2196766 C294.649063,68.5965272 295.808063,68.782253 296.998328,68.782253 C298.174577,68.782253 299.387483,68.6051656 300.778282,68.228315 L300.813861,68.2293948 C301.183662,68.233714 302.022454,68.2455918 302.577696,68.3352153 C303.393847,71.3305837 303.242907,74.239568 303.110296,76.8300109 C302.972294,79.4917207 302.840762,82.0065776 303.798149,84.2158507 C304.919413,86.8062937 307.084316,88.3525689 309.587754,88.3525689 C309.968337,88.3525689 310.357545,88.3169355 310.744597,88.2456686 C315.658753,87.3483538 315.698644,81.5778965 315.734223,76.4866341 C315.754707,73.35953 315.778426,69.8242611 316.594577,66.9055586 C316.756298,66.8785636 317.029067,66.8526483 317.474339,66.8526483 C317.712607,66.8526483 317.945485,66.8580473 318.171894,66.8634464 C318.433882,66.871005 318.68401,66.876404 318.922279,66.876404 C319.081843,66.876404 319.236017,66.8742444 319.383722,66.8688454 C320.765896,66.8137755 322.070444,66.4574411 323.220818,66.1410594 C323.780372,65.9888074 324.344239,65.8311565 324.908105,65.7220965 L329.322005,64.8755324 L341.106062,62.5420822 L352.621661,60.1740783 L399.705058,48.6050888 L408.195401,46.5739829 C408.648219,46.4660028 409.071928,46.3299478 409.490245,46.1928131 C410.031471,46.0146459 410.326881,45.921783 410.597494,45.921783 C410.653557,45.921783 410.712855,45.9250224 410.775387,45.932581 L411.755415,46.0545985 L415.827545,44.0310512 C416.504616,44.1195949 417.155812,44.1638667 417.796226,44.1638667 C420.020426,44.1627869 422.113094,43.6380036 424.58311,42.4588607 C425.552356,41.995626 426.957171,41.8908853 428.443924,41.7775062 C429.440125,41.7029999 430.468669,41.6241744 431.528479,41.4373688 C435.746158,40.6879869 440.262481,40.2927796 444.589052,40.2927796 C452.128476,40.2927796 465.972856,41.53995 474.006067,49.891132 C474.561309,50.4677458 475.179082,51.5950582 475.72462,52.589555 C476.008171,53.1078596 476.282018,53.6056479 476.551553,54.0483664 C482.444659,63.8011303 482.861899,84.9749509 479.527216,99.7250345 C476.426489,98.4217145 473.243823,97.7641156 470.021267,97.7641156 C464.805231,97.7641156 459.458741,99.4885581 454.129502,102.889932 L454.129502,102.889932 Z M457.876034,186.873625 C454.401193,189.190878 450.171654,190.687483 447.101115,190.687483 C444.744304,190.687483 444.363721,189.953218 444.27747,189.448951 L445.334046,171.80824 L445.806271,166.520453 L445.892522,154.132975 C448.95767,143.090928 454.700915,129.28891 464.781512,125.177027 C465.393895,124.926513 465.980403,124.794778 466.478503,124.794778 C467.129698,124.794778 467.814317,124.972945 468.400824,126.271946 C470.820167,131.626679 470.753323,138.19295 470.4536,145.015134 C470.042829,154.356494 469.273038,164.380288 466.436455,174.390044 C464.911967,179.775012 461.872694,184.208676 457.876034,186.873625 L457.876034,186.873625 Z M42.9586536,124.167413 C43.0211856,124.008682 43.0772488,123.928777 43.0653893,123.928777 L43.063233,123.928777 C43.063233,123.928777 43.1085149,123.91366 43.218485,123.91366 C43.5613331,123.91366 44.1640127,124.07779 44.8238336,124.543184 C49.3207503,127.711321 53.0069066,133.093049 56.0936178,140.997194 C56.4364659,141.877232 56.8558619,142.676285 57.2612421,143.450502 C57.8229523,144.523824 58.4040691,145.63494 58.4213193,146.386481 L58.6994791,159.111938 L59.3291122,168.687614 L60.4978145,184.320975 C60.3317812,184.34905 60.1484976,184.365247 59.9436512,184.365247 C57.2849611,184.365247 53.4575686,181.773724 51.4134175,178.588311 C50.8948328,177.77954 50.2166836,177.306587 49.7584746,176.991285 C49.4404237,175.534633 48.7482586,174.383565 48.1779232,173.4355 C47.8976071,172.972265 47.6097441,172.492834 47.5127116,172.199128 C45.8308152,167.107865 44.9931014,161.87083 44.1047151,156.324971 C43.7133507,153.872743 43.3068924,151.33737 42.8228081,148.826832 C42.6319775,147.834495 42.5996334,146.824881 42.5640548,145.755877 C42.5306325,144.721428 42.4961321,143.651345 42.3268643,142.471122 C41.399665,135.999874 40.7517036,129.730549 42.9586536,124.167413 L42.9586536,124.167413 Z M397.610235,234.319008 C397.652282,234.319008 397.691095,234.324407 397.725595,234.334125 C398.069522,235.12238 398.711014,237.884511 398.621529,243.91628 C398.38326,260.012876 397.942301,289.976278 382.003098,292.30001 C381.649469,292.35184 381.299074,292.378835 380.963773,292.378835 C374.422705,292.377755 370.419576,281.16942 369.974304,270.623002 L369.682129,263.698237 L369.64116,250.110019 C369.639003,249.435144 369.609894,248.711677 369.578627,247.961215 C369.491298,245.902034 369.384563,243.391497 370.107994,242.053623 L377.277616,238.293756 C378.349286,237.731179 379.161125,237.111373 379.874852,236.564994 C380.443032,236.131994 380.932507,235.757303 381.478045,235.473315 C382.745936,234.813556 383.724886,233.76075 384.67257,232.743578 C384.947495,232.447712 385.335625,232.029829 385.670926,231.710208 C387.903752,233.247845 392.450263,234.735811 395.213532,234.735811 C396.111622,234.735811 396.881413,234.599756 397.610235,234.319008 L397.610235,234.319008 Z M419.226916,237.67395 C419.109399,234.706656 418.998351,231.902413 419.905066,229.577601 C420.063552,229.171595 420.983204,228.789346 421.874825,228.418974 C422.728711,228.064799 423.699036,227.663113 424.582031,227.017392 L429.416405,223.476724 L434.93432,218.212694 L435.236198,217.730023 C436.742358,218.092836 437.462555,218.865973 437.752574,220.29779 C438.935292,226.149232 439.249031,232.631278 438.684086,239.563602 C438.591366,240.695233 438.508349,241.820386 438.427489,242.93906 C438.03289,248.324028 437.660932,253.409892 436.205445,258.280875 C434.223826,264.913013 432.047064,268.499033 428.690818,270.657555 C427.497319,271.426374 426.782513,271.525716 426.295194,271.525716 C425.670952,271.525716 424.938895,271.331351 424.059134,270.928585 C422.6306,270.279625 419.306699,267.236745 419.308855,253.079473 L419.309933,240.804293 C419.309933,239.774163 419.268964,238.727836 419.226916,237.67395 L419.226916,237.67395 Z M397.039899,160.760794 C398.129898,158.438142 398.741202,156.11225 399.336335,153.854386 C399.495899,153.245378 399.656542,152.635291 399.826888,152.026283 C402.071573,144.00228 408.519921,135.342275 415.022175,135.342275 L415.109504,135.344435 C416.767682,135.362791 418.90024,136.452311 419.598874,138.243701 L421.379959,142.798302 C424.787956,159.80733 424.800894,177.702874 421.416616,195.995785 C418.804286,201.976804 414.128398,205.786342 408.214807,206.736567 L407.960367,206.7776 L407.714551,206.857505 C405.721072,207.508625 403.58528,207.867119 401.698537,207.867119 C400.067313,207.867119 397.212401,207.592849 396.424282,205.756108 C395.83454,204.382601 395.988714,202.027554 396.125638,199.950017 C396.166607,199.324812 396.206498,198.711485 396.231295,198.119754 L397.341778,171.497257 L397.039899,160.760794 Z M273.465794,257.034784 C274.567651,257.028305 275.673822,257.020747 276.79832,257.020747 C277.890475,257.020747 279.000958,257.027226 280.141629,257.048822 L285.636902,257.154642 L293.383329,256.606103 C293.768224,256.578028 294.211339,256.507841 294.684642,256.424697 C294.854988,256.394462 295.029646,256.365307 295.198914,256.339392 C295.535293,257.793884 295.797281,259.948088 295.700249,261.518119 L294.40217,282.670343 L293.67227,287.625551 C291.089049,305.196075 283.267153,311.456762 276.809102,311.455682 C276.45116,311.455682 276.085671,311.439485 275.715869,311.408171 C270.662633,310.968692 263.670903,308.150411 261.294685,288.810092 C260.018169,278.432124 259.675321,260.920988 260.819226,255.367571 C261.183637,255.471232 261.552361,255.580292 261.929709,255.690432 C264.183019,256.35235 266.516111,257.035864 269.203911,257.048822 L270.145126,257.050981 C271.256687,257.050981 272.358545,257.043423 273.465794,257.034784 L273.465794,257.034784 Z M318.824168,214.286537 C318.523368,217.646878 317.407494,223.603061 313.301942,225.72487 C309.390454,227.746258 304.776021,228.992349 299.189106,229.536568 L292.306268,230.207125 C290.824905,230.351818 289.404997,230.372334 288.090746,230.372334 L285.496744,230.362616 C285.119395,230.362616 284.737734,230.363696 284.35176,230.369095 L274.812389,230.482474 L269.684761,229.722294 C267.934942,229.463142 263.870359,228.286159 263.898246,222.970298 L264.034236,198.201819 C264.057955,193.772475 264.136659,189.034307 264.771683,184.112574 L265.864915,175.635055 C265.967339,174.840321 266.033105,174.023992 266.096715,173.201183 C266.251967,171.204631 266.397516,169.320378 267.208276,168.053771 L267.550046,167.51819 L267.68697,166.892985 C269.009846,160.798587 270.772603,156.026946 273.235072,151.882669 C277.8646,144.089744 285.963578,139.248996 294.371982,139.248996 C300.314683,139.248996 305.524249,141.756294 308.667023,146.128409 C311.321401,149.824568 313.441022,152.985146 314.56013,157.192051 L316.984864,166.300174 L318.998827,180.759791 C320.583691,192.123618 319.781556,203.553313 318.824168,214.286537 L318.824168,214.286537 Z M347.412095,245.376171 C347.555488,245.424762 347.798069,245.542461 348.063291,245.728186 C350.215256,249.976124 348.387811,277.015425 345.144769,288.459157 L342.859115,294.592428 C340.494757,300.935179 335.288425,305.196075 329.902044,305.194995 C329.725229,305.194995 329.547336,305.190676 329.370521,305.183117 C325.632614,304.995232 316.875972,301.901601 316.299167,277.261619 C316.262511,275.669992 316.213994,274.088084 316.165478,272.510494 C315.953085,265.63756 315.752551,259.124199 316.494311,252.526614 C316.999958,252.147604 317.696435,251.885213 318.686167,251.531038 C319.468895,251.251369 320.355125,250.932828 321.229496,250.459875 C324.567413,248.656607 328.304242,246.436536 331.597956,242.61188 C335.524537,244.598714 340.768604,245.769219 344.349103,245.769219 C345.560931,245.769219 346.565756,245.640723 347.412095,245.376171 L347.412095,245.376171 Z M347.030434,218.693205 C345.116738,218.635976 340.673728,217.949222 340.743807,212.864439 L341.380987,166.831436 C344.515136,153.703214 348.288622,144.931989 357.204829,141.755214 C358.340109,141.350289 359.485093,141.146206 360.608513,141.146206 C364.801395,141.146206 368.506958,144.05627 370.279418,148.739368 L372.169395,153.733448 L373.900886,161.562007 L374.741834,167.245 C376.382761,178.32268 376.166055,202.874118 373.037297,209.450107 C369.567846,216.739845 360.12982,218.316355 352.24,218.855175 L347.030434,218.693205 Z M204.781887,255.780055 C205.109641,255.841604 205.479443,255.890195 205.882667,255.900993 L209.615183,256.004654 C210.749385,256.418218 211.909462,256.612582 213.210776,256.612582 C213.839331,256.612582 214.456026,256.56615 215.081347,256.51432 C215.541712,256.477607 216.009624,256.436574 216.496943,256.436574 L226.503148,256.700046 C226.845996,256.708684 227.179141,256.714083 227.511208,256.714083 L227.518755,256.714083 C231.139145,256.714083 234.066292,256.213056 236.419868,255.81029 C237.60043,255.608367 238.638678,255.431279 239.364265,255.395646 C240.020852,260.062547 239.771802,264.828789 239.404156,269.287288 L237.918481,287.299451 C237.538976,291.9156 236.047911,296.964751 233.487331,302.306527 C230.799531,307.909615 226.6239,310.996766 221.728072,310.996766 L221.726994,310.996766 C219.605217,310.996766 217.395032,310.423392 215.15466,309.29608 C208.894986,306.14306 205.885901,294.590268 205.156001,284.829945 L204.577041,277.085612 C203.844985,267.296134 204.086488,258.916878 204.781887,255.780055 L204.781887,255.780055 Z M187.691232,197.839006 C187.653497,196.904978 187.618997,196.02278 187.655653,195.152461 L188.169926,183.228216 C188.19041,182.755264 188.314396,182.294188 188.472883,181.711096 C188.74673,180.695003 189.112219,179.342012 188.976373,177.570058 L189.943464,171.927018 C191.317013,163.906255 194.197799,153.438663 198.16535,148.109844 C202.33559,142.508915 208.085304,139.423924 214.353603,139.423924 C219.64942,139.423924 224.968957,141.662351 229.331106,145.726723 C231.091707,147.366941 233.473315,150.840661 235.122868,154.176167 C239.501189,163.030536 240.90816,173.249774 241.643451,181.164716 L241.673638,181.491896 C242.031581,185.333829 242.369038,188.96412 242.390601,192.741265 C242.395991,193.830784 242.459602,194.88251 242.521056,195.899683 C242.659057,198.162946 242.777653,200.117386 242.262302,201.847228 L241.96258,202.857921 L242.255833,203.872935 C242.968483,206.329482 242.750699,208.979314 242.519977,211.784638 C242.421867,212.979977 242.3216,214.217429 242.288178,215.476478 L242.128613,221.645382 C241.938861,229.010705 238.040311,229.861588 228.517111,230.155294 C227.068093,230.199566 225.567324,230.245998 224.136634,230.360457 C224.068711,230.366935 224.002945,230.369095 223.935022,230.369095 C223.474657,230.369095 222.932353,230.257875 222.307032,230.128299 C221.486569,229.957691 220.556135,229.765486 219.502794,229.765486 L219.462902,229.765486 C218.882864,229.767646 218.317919,229.777364 217.757287,229.784923 C217.134123,229.794641 216.515271,229.804359 215.886716,229.804359 C214.438776,229.804359 213.257136,229.749289 212.056089,229.626192 L205.085922,228.910284 L198.30982,227.290582 L198.067239,227.270066 C192.307822,226.774437 188.801715,222.843961 188.195801,216.204264 L187.75592,211.387271 C187.431401,207.818528 187.562933,204.770249 187.714951,201.240379 L187.725732,200.969349 C187.772092,199.87659 187.731123,198.841061 187.691232,197.839006 L187.691232,197.839006 Z M165.215274,181.021103 C165.223899,182.902117 165.231446,184.698906 165.226055,186.181473 L165.125788,210.800939 C165.110694,214.354564 163.511815,215.336103 162.310768,215.766944 C160.475776,216.423463 159.115165,216.692334 157.613317,216.692334 C157.083951,216.692334 156.549195,216.65778 155.977781,216.586513 L145.389381,215.269156 C144.068661,215.106106 142.697268,214.674185 141.246093,214.217429 C140.145314,213.871893 139.006799,213.514479 137.794971,213.232651 C137.211698,213.050164 135.717398,211.919613 135.080218,211.436942 L134.590743,211.068729 C130.963884,208.370306 130.266328,202.70243 129.77901,196.119962 C128.977953,185.306834 129.652868,170.851536 131.421015,160.967036 C133.580527,148.898099 137.203073,141.793007 142.191621,139.847206 C143.249275,139.434722 144.409352,139.22632 145.639509,139.22632 C150.393022,139.22632 155.473212,142.352344 157.717897,146.657511 C158.155621,147.498676 158.636471,148.24158 159.102227,148.959647 C159.620812,149.76086 160.111365,150.516721 160.443432,151.275821 C162.458473,155.873614 163.750083,159.394846 164.384029,163.782078 C164.522031,164.744181 164.905848,165.56267 165.243305,166.287216 C165.358666,166.535571 165.519309,166.880027 165.606638,167.115424 C165.231446,168.518086 165.17107,171.308292 165.215274,181.021103 L165.215274,181.021103 Z M153.395639,243.146382 L160.130771,242.944459 L167.659414,242.038506 C168.61788,241.922967 169.472844,241.547196 170.227541,241.215697 C170.429153,241.127154 170.708391,241.004056 170.953128,240.909034 C171.240991,241.275087 171.522385,241.644378 171.802701,242.010431 C173.487832,244.215385 175.396138,246.712965 178.314659,248.291634 C179.004668,248.665246 179.775537,249.043176 180.564735,249.428665 C181.643952,249.955608 182.754435,250.498748 183.613711,251.025691 C184.16464,252.070938 183.931762,255.151611 183.827183,256.522958 C183.784057,257.084455 183.744166,257.614637 183.721525,258.096229 L183.248222,267.765848 L182.701606,280.061544 C182.300538,289.055207 179.509237,296.442127 175.045743,300.330491 C173.109406,302.01714 170.962831,302.872343 168.668552,302.872343 C163.718817,302.872343 158.910318,298.935388 156.703368,293.076387 C154.306666,286.714198 153.40642,280.403841 152.790803,272.884105 C151.311597,254.806075 152.278687,245.524104 153.395639,243.146382 L153.395639,243.146382 Z M130.652302,273.535225 L126.684752,282.857149 C124.629819,286.132186 121.676797,288.079067 118.748572,288.079067 C118.364755,288.079067 117.977703,288.046673 117.59712,287.981885 C112.538493,287.120204 108.783336,283.226441 107.554258,277.566123 L107.463694,277.154719 L107.283645,276.778948 C105.592045,273.260956 105.157555,269.207382 104.698268,264.917333 C104.54086,263.447723 104.376983,261.926283 104.160277,260.417801 C103.816351,258.041159 103.780772,255.857801 103.745194,253.547026 C103.7301,252.706941 103.717162,251.850659 103.68913,250.966302 C103.43469,242.864554 103.821742,236.499126 104.908505,230.93707 C105.378574,228.531273 106.51062,228.33043 107.534851,228.33043 C107.627571,228.33043 107.721369,228.33259 107.815167,228.337989 L108.342377,228.369303 L114.586957,226.695611 C119.755554,233.740234 124.558662,236.721565 131.40053,239.305529 C132.195119,241.713486 132.013991,244.347121 131.809145,247.328452 C131.760629,248.029243 131.712112,248.734353 131.675456,249.444862 L131.182746,258.95683 C131.123449,260.102499 131.110511,261.226572 131.096495,262.338767 C131.069542,264.647382 131.043666,266.827501 130.557426,268.943911 L130.445299,269.430901 L130.652302,273.535225 Z M107.596305,198.566792 C107.611399,199.430633 107.393615,200.050438 106.890124,200.580621 C105.877752,201.644225 103.681583,202.332058 101.294584,202.332058 L101.293506,202.332058 C100.331806,202.332058 99.4175448,202.220839 98.7189109,202.017836 L94.5928739,200.819257 C87.9795709,198.896131 84.7774989,195.749591 83.5376393,189.958617 C81.9667912,182.619209 81.7004909,175.11999 81.4190967,167.181292 C81.351174,165.253847 81.2821731,163.325322 81.1948439,161.396797 C81.1053583,159.450995 81.0848737,157.943593 81.2401257,156.00535 L81.6444277,150.975636 C81.7371476,149.839685 81.8083048,148.704814 81.8816182,147.571023 C82.167325,143.058534 82.4379378,138.796559 83.9365507,134.858524 C84.7742645,132.65465 86.5456464,130.080404 88.7752373,130.080404 C88.8765824,130.080404 88.9800837,130.085803 89.083585,130.094442 C92.176765,130.385988 97.150219,133.839192 98.758802,136.814044 L103.0002,144.652321 L105.033569,150.075082 C105.843252,152.234684 106.784467,155.273245 107.334318,157.485757 L107.2168,177.124101 L107.596305,198.566792 Z M69.010798,238.427651 L69.0539236,232.376445 C69.1078305,224.929057 70.5266611,219.9177 71.637144,218.153305 C74.0381589,221.009379 76.9502117,222.475749 79.5237288,223.77259 C80.9554971,224.493897 82.3128737,225.176331 83.5279361,226.05205 C83.9947702,227.059504 83.7338606,230.417686 83.6335937,231.706969 C83.5710616,232.522218 83.5160766,233.255403 83.5031389,233.847134 L83.3996376,238.587461 C83.3079958,242.823521 83.0233672,246.854419 82.7398167,250.618606 L82.0336358,260.008557 C81.8535866,262.399236 79.7921854,265.062026 78.2946507,265.483148 C77.9507244,265.58033 77.6121888,265.630001 77.2887472,265.630001 C74.8920448,265.628921 73.0290211,262.892705 72.1632757,260.550617 C69.9477006,254.563119 68.9461097,247.532534 69.010798,238.427651 L69.010798,238.427651 Z M295.88461,386.3982 C295.654967,386.369046 295.408073,386.353929 295.146085,386.353929 C294.104603,386.353929 292.989808,386.607682 292.004389,386.83336 C291.570977,386.931622 290.975845,387.067677 290.759139,387.083874 L281.931339,387.75659 L274.26146,388.052456 L261.663409,388.654985 L254.834478,388.651745 L249.787711,388.777002 L246.023928,388.73813 L241.505449,389.097703 L224.345793,388.886062 L216.312581,388.694937 L207.754316,388.241421 L201.95932,387.457485 L201.839647,387.449927 C185.087527,386.426275 167.304707,383.425508 145.873465,378.009225 L139.797075,376.474828 L131.190293,373.90922 C127.072882,372.683646 122.815312,371.208638 117.384727,369.130021 L109.143434,365.977001 C95.8780153,359.863167 81.8967122,352.806667 69.4733195,342.678132 L65.6685679,339.575863 C56.4720445,332.079884 49.2636089,322.956644 44.243795,312.462057 C42.3106922,308.422521 40.3474016,304.060124 39.4234367,299.064964 L37.319988,287.700057 L36.3179404,277.227066 C36.2860529,269.719208 36.4639458,261.761074 38.8272259,254.152795 C40.5587168,248.577782 43.3370803,244.043697 46.7914368,241.081802 L46.808687,241.754518 C46.3569469,244.633268 46.5941374,247.017469 46.8227028,249.326084 C46.9003288,250.115418 46.9811892,250.911232 47.0286273,251.740519 C47.3499127,257.331729 48.4506923,262.955334 50.4926871,269.43738 C50.6285325,269.866061 50.7277213,270.258029 50.8236757,270.629481 C51.1859303,272.032142 51.595623,273.622689 53.08022,275.601965 C53.6462429,276.357826 54.1788434,277.278896 54.74271,278.255036 C55.823005,280.125252 57.0488487,282.243822 58.9593106,283.926152 C64.9828717,289.229055 70.8565715,291.697481 77.4429211,291.697481 C80.4552407,291.697481 83.6141872,291.169458 87.0502153,290.087497 C87.1008879,290.224632 87.1494041,290.358527 87.1957641,290.483784 C87.8577413,292.281653 88.7644559,294.744679 90.5175095,297.010102 C90.9994375,297.632068 91.4910688,298.420323 92.0096535,299.253929 C93.3982962,301.482639 94.9723788,304.008293 97.593334,305.429312 C97.9178538,305.605319 98.2574675,305.938978 98.6854886,306.36226 C99.1728073,306.842771 99.7258925,307.386991 100.453636,307.890179 C105.933815,311.679201 112.217208,313.682232 118.62243,313.682232 C125.340313,313.682232 131.792973,311.416809 137.179354,307.22934 C137.226792,307.320044 137.275308,307.410747 137.322746,307.50145 C139.102754,310.866111 140.943136,314.34415 143.726891,317.191586 L146.246501,319.770151 C151.423723,325.066575 161.744745,328.343772 168.337564,328.342692 C168.639442,328.342692 168.938087,328.336213 169.230262,328.323256 C177.846747,327.942086 184.863274,324.914323 191.00543,318.867437 L193.837701,323.184482 L199.199285,328.862076 L199.368553,329.001371 C205.422302,333.954419 212.49597,336.362375 220.996016,336.362375 C222.659584,336.362375 224.413715,336.266273 226.207738,336.078387 C232.625898,335.404592 238.46941,332.42866 244.598629,326.713272 L244.754959,326.568579 L248.279395,322.350875 L250.051855,324.93484 L250.1532,325.055777 C256.488343,332.700769 265.174907,336.742465 275.275988,336.742465 C277.322296,336.742465 279.43437,336.571857 281.550756,336.238198 C291.220582,334.7092 299.431687,329.031605 305.532874,319.717241 C309.368892,324.277241 313.630774,327.204582 318.676463,328.792969 C318.768105,328.84156 318.860825,328.902029 318.955701,328.960338 C319.636007,329.371743 320.774521,330.059576 322.286072,330.059576 C322.652639,330.059576 323.013815,330.019623 323.368523,329.940798 C325.082764,330.456943 326.847677,330.709616 328.729029,330.709616 C332.493889,330.709616 336.057138,329.681645 339.349774,328.57161 C345.294631,326.56426 350.714434,322.655379 355.021598,317.267172 L358.557893,312.845386 L360.462964,309.451571 C366.050958,314.750155 372.977999,317.618107 380.381578,317.618107 C384.642382,317.618107 388.884858,316.667882 392.986098,314.796587 C401.32011,310.992447 407.954976,303.669236 412.344079,293.488871 C416.42699,295.765092 420.664075,296.91616 424.985255,296.91508 C436.215148,296.91508 446.900581,288.915913 453.569948,275.516661 L453.622776,275.41084 L453.669136,275.3007 C454.08961,274.293246 454.557523,273.29551 455.026513,272.293454 C456.445344,269.263532 457.911612,266.131029 458.460385,262.346326 L459.203223,257.234547 L459.933122,247.837038 C460.007514,246.883574 460.027999,245.965743 460.047405,245.077066 C460.063577,244.311487 460.080827,243.579382 460.130422,242.880751 C462.527124,245.335139 464.14002,249.064772 465.518959,252.873231 L467.061776,257.134126 L468.132368,263.24796 L469.317242,273.844049 C470.364115,291.525792 465.40252,308.75294 454.967215,323.667153 C446.14265,336.277071 434.757505,345.898099 418.053901,354.860448 L410.70423,358.806042 L404.872577,361.188083 L391.073479,366.602206 L382.47101,369.479876 L372.171551,372.535713 C371.273462,372.801344 370.509061,373.068055 369.78563,373.321809 C368.76032,373.679223 367.94956,373.96429 366.938266,374.173772 L358.908288,375.847464 L338.844127,380.176386 L325.538816,382.396457 L317.427979,383.991324 C317.147663,384.047473 316.795111,384.053952 316.486764,384.053952 L315.558486,384.047473 C314.301376,384.047473 312.814623,384.160853 311.250244,384.978262 C310.246497,385.381028 309.436814,385.576472 308.781306,385.576472 C308.32741,385.576472 307.938202,385.484689 307.554384,385.289245 L305.979223,384.485873 L304.437485,385.354033 C302.852621,386.245949 301.221397,386.643315 299.144902,386.643315 C298.226328,386.643315 297.189158,386.56557 295.88461,386.3982 L295.88461,386.3982 Z M501.772452,33.0667504 C501.662482,32.8443114 501.512621,32.3368048 501.381088,31.8886873 C500.86466,30.1404893 499.904038,26.8859686 496.611402,26.2067737 C496.470166,26.1776191 496.395774,26.1506241 496.384993,26.1506241 L496.382837,26.1506241 C496.268554,26.0307661 496.013035,25.5999255 495.824361,25.2835438 C495.577467,24.8656607 495.307933,24.4153836 494.982335,23.9370317 C492.625523,20.4805883 488.68277,17.9992052 487.53024,17.3210901 L483.529267,14.9660438 L474.128975,10.1404125 C472.610956,9.36187591 471.440097,9.28197062 470.664915,9.22798056 C470.371662,9.20854414 470.213175,9.19558653 470.095658,9.16103289 C466.510847,8.11254598 463.265649,7.54241098 458.892719,7.19255541 L453.956999,6.79842799 C453.102035,6.73040052 452.285884,6.64509623 451.48914,6.56195154 C449.833119,6.38810356 448.119956,6.20993637 446.300058,6.20993637 C445.464501,6.20993637 444.667756,6.24556981 443.866699,6.32007609 L439.497003,6.72716112 L430.27676,6.89129089 L410.601806,10.8206872 C410.192114,10.9016723 409.737139,10.941625 409.257367,10.9837372 C407.862256,11.1057548 406.126453,11.2580067 404.259116,12.467384 C403.557248,12.9219803 402.490969,13.0623544 401.2565,13.222165 C400.350863,13.3409431 399.322319,13.4759183 398.268977,13.7631454 L391.277248,15.676553 C391.065933,15.6679146 390.864321,15.6635954 390.672412,15.6635954 C388.675699,15.6635954 387.446621,16.0803986 385.608394,16.7617531 C385.109216,16.9463991 384.592788,17.0705763 383.995499,17.2141898 C382.837578,17.4916987 381.398262,17.8372351 379.787523,18.7572256 C378.71801,19.3694729 376.40648,19.9741615 374.526206,20.1328923 C372.55429,20.3013413 371.094491,20.7818528 369.805037,21.2072944 C369.152763,21.4210951 368.534989,21.6251775 367.851449,21.7903871 L352.392018,25.5513344 L346.079516,26.9593951 C344.960408,27.2088292 343.778768,27.6968993 342.527048,28.2119645 C340.686666,28.9710647 338.601545,29.8316662 336.906711,29.8316662 C336.359017,29.8316662 335.89973,29.7409629 335.502975,29.5519977 C334.880889,29.257212 334.216755,29.1071196 333.52459,29.1071196 C331.663723,29.1071196 330.209313,30.1815217 329.148425,30.9654574 C328.95436,31.1069113 328.681591,31.3099139 328.511245,31.4200536 L316.667891,33.644444 C315.97357,33.6217682 315.244748,33.5440225 314.479269,33.465197 C313.457194,33.3582967 312.403852,33.2470772 311.291213,33.2470772 C309.249218,33.2470772 307.50479,33.633646 305.91777,34.4510555 C304.584112,34.1411525 303.180375,33.9889006 301.66559,33.9889006 C299.734644,33.9889006 297.895339,34.2296962 296.115332,34.4629333 C294.837738,34.6313822 293.630222,34.7890332 292.448582,34.8527415 C292.297643,34.8613799 292.149938,34.8646193 292.002233,34.8646193 C291.553727,34.8646193 291.118159,34.8376243 290.687982,34.8106292 C290.141365,34.779315 289.602296,34.7490806 289.058914,34.7490806 C288.097214,34.7490806 286.737681,34.8300657 285.183005,35.4207169 L281.577709,34.4413372 L280.719511,34.6734945 C278.58264,35.2501083 276.400487,35.3084176 274.090036,35.3699662 C272.22809,35.4185573 270.301456,35.4714675 268.315525,35.8008069 C266.889147,36.0372833 265.392691,36.1528221 263.743138,36.1528221 C261.433765,36.1528221 259.113611,35.9314628 256.658689,35.6960662 C255.988086,35.6323579 255.31425,35.5686496 254.633944,35.507101 L247.643293,34.8851355 C246.329042,34.768517 245.122604,34.6853723 243.935574,34.6033074 C242.505962,34.5039657 241.107616,34.4078634 239.574502,34.2545316 C239.253217,34.2210578 238.929775,34.2070204 238.604178,34.2070204 C237.458116,34.2070204 236.356258,34.3949058 235.382699,34.562275 C234.569782,34.7015693 233.802148,34.8333051 233.159577,34.8333051 C232.424286,34.8333051 232.079282,34.6540581 231.816216,34.4596939 C230.671233,33.6185288 229.313856,33.1909275 227.783977,33.1909275 C226.693979,33.1909275 225.683763,33.4014887 224.791064,33.5872145 C224.189463,33.7124715 223.567377,33.8420476 223.170622,33.8420476 C223.123183,33.8420476 223.074667,33.8409678 223.029385,33.8323294 L211.810274,31.9631936 C211.810274,31.9631936 210.718119,31.971832 210.322442,31.971832 C206.579144,31.971832 203.625044,31.733196 200.471489,30.5486541 C196.140605,28.9192342 193.277069,28.757264 190.506252,28.6017727 C189.355878,28.5369846 188.164535,28.4711167 186.831955,28.2929495 L181.677374,27.6051162 C181.114586,27.5306099 180.567969,27.4798593 180.032134,27.4301884 C178.355629,27.2746971 177.24838,27.1731958 175.947067,26.3125942 L175.115822,25.7618957 L170.774157,25.7554169 C168.602786,24.6766955 166.582354,24.4035058 164.775393,24.1594708 C163.915038,24.0428522 163.101044,23.9327125 162.346347,23.7405079 C161.716714,23.5806974 161.109721,23.3755351 160.49626,23.1725325 C159.536717,22.8539912 158.447797,22.4933376 157.240281,22.2493025 L141.414283,19.0779266 L102.193752,7.8415159 C90.6652145,4.5384042 80.8746367,2.09157481 70.5536145,0.882197533 C66.8480517,0.448117474 63.0152685,0 59.1867978,0 C56.5960305,0 54.2359848,0.200843013 51.9697371,0.615486651 L50.2953877,0.917830971 C46.2383516,1.64237754 42.4066465,2.32805126 38.2385622,3.9715086 C27.2189062,8.3209476 17.6967848,16.2488476 10.703977,26.9000061 L8.03450549,30.9665372 C6.52403312,33.2654338 5.6744598,34.8073898 5.2820173,35.9660165 C0.251421953,50.8003246 -1.22347184,67.2986062 1.01905673,83.6802693 L1.0319944,83.7709726 L1.96242813,88.677589 L5.38444048,104.085272 C7.2916679,112.682648 11.1136697,120.408625 16.750179,127.072078 C16.2262036,132.290757 16.5097541,137.735115 16.7846795,141.514419 L17.4498911,150.632259 L17.472532,150.783432 C17.8886935,153.39979 18.2466356,155.837981 18.5851712,158.139037 C20.767324,172.983063 22.2087955,182.789817 32.6635068,198.081961 C34.1049783,200.189733 35.6521074,201.314886 37.1485639,202.404405 C37.5248343,202.678674 37.9151206,202.962662 38.3237352,203.279044 C38.8563357,203.690448 39.3490451,204.128847 39.8374419,204.557528 C41.4611189,205.991504 43.303658,207.616605 46.1413191,208.391902 C46.6825448,208.540915 47.554759,209.00199 48.3310189,209.633674 C48.3126905,209.886347 48.2652524,210.181133 48.2037985,210.435966 C41.5247291,212.432518 33.3513593,215.811216 27.1283425,223.685126 L23.0001493,228.909204 C22.7963811,229.165117 22.5893784,229.41995 22.3823758,229.675863 C20.9409043,231.451056 19.3075241,233.463805 18.5851712,236.293964 C18.4999982,236.513163 18.1258841,237.137289 17.8250834,237.638316 C16.8127111,239.328205 15.2806759,241.881935 14.2338032,245.473353 C11.7691781,253.927116 10.5983194,263.019042 10.5465687,274.090243 L10.4667865,291.714757 C10.4570832,293.675676 11.0608409,297.693616 12.0635099,299.778712 C12.4926092,300.674947 12.6262984,301.983666 12.7686127,303.369051 C12.8688796,304.346271 12.973459,305.356965 13.1933993,306.369819 C14.5982141,312.829189 16.8644617,318.857719 18.6822037,323.388564 C19.7549517,326.059992 21.0368587,328.467949 22.2756401,330.79492 C23.145698,332.42866 23.9650835,333.970616 24.7003741,335.567641 C24.9461897,336.099983 25.1100668,336.55458 25.2610062,336.967064 C25.7666533,338.356768 26.3423794,339.932198 28.3735928,341.749503 C29.3148079,342.592828 30.5999492,344.351824 31.8408869,346.052511 C33.2435454,347.973477 34.693642,349.959231 36.2817404,351.604848 L42.1198616,357.647415 L46.1176001,361.737702 C48.3795351,364.049556 50.5746256,365.757802 52.8990927,367.565389 L53.5750857,368.091252 C54.0451542,368.458384 54.4677846,368.847113 54.8968838,369.235841 C55.5868926,369.864285 56.3706995,370.576954 57.3507276,371.271266 L69.0000166,379.527426 L72.0004767,381.922425 L78.5339975,385.538679 C79.206756,385.91121 79.8752021,386.271864 80.5371792,386.629278 C82.9425068,387.929358 85.2141451,389.156013 87.3919853,390.775714 L87.7046456,391.006792 L93.1104332,393.34888 C94.6952971,394.499948 96.3394587,395.133792 98.2208108,395.858338 C99.7733306,396.457628 101.535009,397.136823 103.688052,398.280332 C105.152165,399.057789 106.505229,399.352575 107.593071,399.587971 C108.265829,399.734824 108.848024,399.861161 109.322405,400.071722 C110.065243,400.402141 110.794065,400.753077 111.517496,401.101853 C114.547066,402.560664 117.679059,404.068066 121.575452,404.15877 L125.089106,406.108891 L130.525082,407.621692 L135.883431,409.580451 L136.934617,409.26191 C137.288246,409.15393 137.638641,409.101019 138.005208,409.101019 C139.284959,409.101019 140.717805,409.734863 142.375983,410.470207 C142.704815,410.61598 143.036882,410.762833 143.370027,410.905367 C145.643821,411.882587 148.453451,412.364179 151.430192,412.874924 C153.106698,413.162152 154.842501,413.459097 156.4651,413.847825 C157.38583,414.069185 158.201981,414.165287 158.9211,414.249511 C159.942097,414.368289 160.679544,414.454674 161.537742,414.85636 C163.32314,415.688886 166.74084,416.581882 168.985525,416.581882 C169.136464,416.581882 169.282013,416.577563 169.41678,416.570004 C169.639955,416.558126 169.859895,416.551647 170.074445,416.551647 C171.704591,416.551647 173.156844,416.875588 174.836584,417.251359 C175.871597,417.482436 176.944345,417.721072 178.142157,417.904638 L182.315632,418.540641 C183.10483,418.660499 184.229328,418.731766 185.315014,418.800873 C185.906912,418.837586 186.484795,418.87322 186.948394,418.915332 L201.386828,420.217572 C202.803503,420.346069 204.086488,420.380622 205.326347,420.415176 C207.082635,420.463767 208.742969,420.509119 210.499257,420.82982 C211.074983,420.93564 211.68521,420.986391 212.366593,420.986391 C212.77413,420.986391 213.180588,420.966954 213.589203,420.947518 C213.895394,420.93348 214.203742,420.917283 214.515324,420.917283 C215.084581,420.917283 215.456539,420.978832 215.801543,421.128924 C217.144904,421.716336 218.667236,422.000324 220.455868,422.000324 C221.749635,422.000324 223.031542,421.852391 224.164665,421.721735 C224.876237,421.63967 225.570558,421.556526 226.227145,421.524132 L231.700855,421.245543 C234.896458,421.513334 237.909856,421.515493 240.826221,421.519812 C242.154488,421.520892 243.490302,421.521972 244.851991,421.547887 L259.680712,421.832955 L266.439563,421.405354 C267.490749,421.339486 268.329541,421.186154 269.069144,421.050099 C269.721418,420.931321 270.338113,420.816862 271.131623,420.754233 L279.853766,420.079358 L283.938833,420.026447 L289.345699,419.995133 C290.078833,419.995133 290.819515,420.018889 291.562352,420.042644 C292.38066,420.06748 293.203279,420.092315 294.021587,420.092315 C296.485134,420.092315 299.312013,419.889313 302.084986,418.54388 C302.881731,418.796554 303.80893,419.050307 304.746911,419.050307 C306.157116,419.050307 307.092941,418.479092 307.630932,417.996421 C307.810981,417.834451 307.85195,417.825813 308.093453,417.825813 C308.36191,417.825813 308.627132,417.857127 308.888042,417.884122 C309.35811,417.931633 309.82171,417.972666 310.278841,417.972666 C310.611986,417.972666 310.941896,417.953229 311.26965,417.907878 L315.99082,417.258917 C319.030093,416.839954 321.627329,416.463104 324.775494,415.99339 L330.41416,415.152225 L346.952808,412.320986 L352.545114,411.146163 L359.458139,409.092381 L369.255186,406.952215 L373.451302,405.746077 L383.362631,403.050894 L389.487537,401.081336 L403.738375,395.967398 C406.267689,395.058206 409.138772,393.736529 411.672398,392.570344 C414.031366,391.484064 416.964981,390.133233 417.981666,389.951826 C420.185382,389.557699 421.815527,388.433626 423.125466,387.531992 C423.721677,387.120587 424.284465,386.731859 424.770706,386.50942 L429.104823,384.520426 L442.484525,376.404641 L447.252055,373.127444 L453.856733,367.61182 L459.808058,362.168543 C468.333979,354.371299 474.008224,347.281324 478.206496,339.180656 L484.309839,327.401105 C485.773952,324.576346 486.737808,321.879002 487.759883,319.022928 C488.085481,318.110496 488.417548,317.181867 488.773334,316.231642 L491.095644,310.029265 L492.402349,304.62486 C493.486956,300.131807 493.892336,295.712181 494.24381,291.202932 L494.780723,284.309481 L494.596361,263.428287 L494.226559,262.688623 C493.039529,260.31738 492.460568,257.65351 492.2913,253.780264 L492.270816,253.322428 L490.153351,246.419259 C489.037478,242.783569 484.91791,230.439282 478.726159,224.240144 L475.653463,221.16379 C471.644944,217.151249 467.795988,215.227044 464.986359,213.823302 C464.407398,213.532836 463.748655,213.203496 463.22468,212.91195 L472.204498,206.724689 L477.746131,202.121497 L481.585383,197.38333 C486.703307,191.067573 490.085428,180.967113 491.640105,167.362698 L493.337095,152.507874 L493.959181,144.966543 L493.946243,132.133106 C493.945165,131.006874 494.086401,130.845983 495.003897,129.789938 C495.307933,129.439002 495.627062,129.07079 495.951581,128.653987 C501.011286,122.150345 503.871588,114.237562 506.366402,106.690832 L506.43109,106.496467 L509.986791,89.3762204 L510.70591,80.3598808 C512.016927,63.916669 508.928059,47.5630807 501.772452,33.0667504 L501.772452,33.0667504 Z" id="Fill-1" fill="#102E79" mask="url(#mask-2)"></path>
            </g>
            <path d="M6.28999286,334 C4.61159057,334 3.19782845,335.166574 2.60213651,337.044011 C0.724499407,342.957103 3.42121292,350.532591 8.15052394,352.631755 L11.2316198,354 L12.2861555,350.423398 C13.8900963,344.973816 12.5367084,339.975487 10.734539,337.114206 C9.47070609,335.105292 7.89091496,334 6.28999286,334" id="Fill-4" fill="#102E79"></path>
        </g>
    </g>
</svg>