<?xml version="1.0" encoding="UTF-8"?>
<svg width="691px" height="573px" viewBox="0 0 691 573" version="1.1" xmlns="http://www.w3.org/2000/svg" xmlns:xlink="http://www.w3.org/1999/xlink">
    <title>Symbol4a</title>
    <defs>
        <polygon id="path-1" points="0.0878305136 -0.0318067517 512.087831 -0.0318067517 512.087831 503.968193 0.0878305136 503.968193"></polygon>
    </defs>
    <g id="Symbol4a" stroke="none" fill="none" fill-rule="evenodd" stroke-width="1">
        <g id="Group-3" transform="translate(328.414, 304.0364) rotate(-3) translate(-328.414, -304.0364)translate(72.414, 52.0364)">
            <mask id="mask-2" fill="white">
                <use xlink:href="#path-1"></use>
            </mask>
            <g id="Clip-2"></g>
            <path d="M474.749064,409.935338 C474.258311,410.229183 473.753421,410.532116 473.241462,410.879479 C472.51442,411.37225 471.792427,411.8731 471.070434,412.372939 C467.246394,415.024613 466.048795,413.650307 461.65221,414.836794 C460.524285,415.141747 459.414536,415.492139 458.342149,415.831424 C455.628869,416.689735 453.067055,417.500585 450.465861,417.50678 C448.175678,417.511693 445.863281,417.376383 443.594304,417.103743 C443.594304,417.103743 443.593294,417.102733 443.592284,417.102733 C436.61672,416.261589 429.739104,414.128941 422.566633,410.580585 C401.811603,400.314185 387.569657,393.723372 372.036203,381.560611 L348.128637,362.100194 L308.550287,331.710963 L300.778006,325.420053 L289.372534,315.673688 C279.067724,306.870454 268.558937,299.766675 261.479365,284.987583 L249.504377,259.993588 C244.758409,250.089698 244.828083,239.485023 235.379566,228.254286 C232.811694,225.200721 230.948649,222.855009 229.451145,220.969756 C224.697098,214.98178 222.917864,212.741085 212.315168,204.883003 C196.126366,192.881806 179.378145,183.201076 161.112224,175.288466 L125.899155,160.032759 C100.876792,149.190786 57.0119237,125.296438 37.8392197,106.115729 C33.4365763,101.710073 30.7556089,96.6096908 29.4317865,90.1006699 C29.5893123,88.9162018 29.7498674,87.8165549 30.0023125,86.7694164 C32.3874143,90.6035387 35.5510569,93.8802643 38.7439831,96.8964674 C45.5377869,103.316628 51.4914532,108.071667 58.0469488,112.314749 C78.7575486,125.718525 98.9026713,137.188579 119.630437,147.378236 L121.333937,148.217361 C130.89151,152.921911 139.918949,157.365938 150.216691,160.926411 C155.780582,162.845997 161.762523,164.721152 167.807069,165.449201 C174.882602,166.302463 180.8292,165.418908 185.874063,162.748048 C192.132683,171.647211 198.677071,178.820665 206.299905,185.163073 C226.071409,201.607287 231.640349,203.096708 255.075337,208.124386 C256.90001,208.51517 255.586286,214.097216 257.573534,214.52839 L257.727021,214.561713 C277.055231,218.762384 291.518318,223.374035 306.860924,235.061191 C315.832825,241.897379 323.353671,249.613083 331.886317,259.096907 L334.981294,262.543275 C347.252148,276.221711 343.944107,274.307174 361.485005,286.449739 L384.823054,302.606167 L408.632671,317.017701 L423.31589,328.272673 L438.435335,339.979015 C446.853876,348.887265 459.453918,353.235364 467.904771,365.006331 C473.695863,373.075457 477.949059,381.79387 480.546215,390.918212 C482.237597,396.861758 481.559025,402.588202 478.531702,407.938 C478.105575,408.691293 475.977967,409.199211 474.749064,409.935338 L474.749064,409.935338 Z M76.6531659,25.0286366 L80.7771098,22.1023036 L81.6889416,27.0754541 C82.0342866,28.9566682 81.7192351,30.84798 81.2355502,33.3158744 C81.1264939,33.8793298 81.0275354,34.37614 80.9437236,34.8709306 C80.8003347,35.696928 81.0123886,35.9837046 81.0810537,36.0776138 L82.5280693,37.7588921 L81.526367,39.7744065 C74.79315,52.260296 68.8788651,65.182409 63.1594679,77.6794061 L62.4526215,79.2243645 L60.3926691,83.0292033 L54.2875357,77.6824354 C51.9963435,75.6749993 51.5530498,72.7617933 53.0404566,69.4779993 C57.9378925,58.6461241 63.3826294,46.99532 69.9946727,35.2041569 C70.6782941,33.9843466 71.258918,32.8210838 71.7708767,31.7941408 C73.1896184,28.9435411 74.3114847,26.6897194 76.6531659,25.0286366 L76.6531659,25.0286366 Z M98.1574532,40.9043467 C98.5209742,40.7155184 98.9874929,40.4721622 99.6004297,40.1359066 L103.658738,37.9063195 L104.34034,42.4866668 C104.70689,44.9505221 104.602883,49.5803485 103.453752,51.8634537 L91.1324097,80.4401357 L82.3311621,98.427289 L71.2468006,90.9781659 L72.9896819,88.313365 C74.015619,86.7431622 74.8173848,85.1164119 75.5928962,83.5431797 C75.8867424,82.9504407 76.1815983,82.3526529 76.4926107,81.7447673 L95.6057377,44.4890541 C96.0359042,43.6519492 96.2863298,43.0642591 96.4590023,42.6472213 L96.9043155,41.5596918 L98.1574532,40.9043467 Z M126.421212,49.2148093 L129.630295,47.5486777 L130.917765,50.9263809 C131.21464,51.703909 131.513535,52.8722207 131.259071,54.0263955 L131.210601,54.2182531 C130.872325,55.3986821 130.609782,56.5336712 130.356327,57.6312985 C129.752478,60.2476301 129.182962,62.7185538 127.798553,65.1026367 C124.026012,71.596511 121.96606,76.6524631 119.783924,82.0052897 C118.18948,85.9171648 116.550607,89.9340567 114.164495,94.7446332 L105.316798,112.257191 L102.426806,110.763732 C102.018854,110.552688 101.619991,110.341645 101.227186,110.129592 C99.3722193,109.125874 97.6555923,108.081764 95.9823858,106.938697 L93.5922352,105.307908 L115.263136,64.811821 C116.646536,62.2278023 117.414979,60.1577599 118.031955,58.4946576 C119.523401,54.4838244 120.571553,52.251208 126.421212,49.2148093 L126.421212,49.2148093 Z M141.194302,71.315793 C142.434312,69.126597 144.979969,66.8949904 147.836639,65.4924105 L153.576231,62.6741236 L150.586271,79.0537123 L128.120673,124.79155 L125.283189,123.5263 C124.35823,123.113301 123.39389,122.632647 122.248798,122.012645 C121.374328,121.540069 120.480673,121.032151 119.547635,120.501009 L116.617252,118.834877 L118.313684,115.92672 C118.938738,114.9331 119.487049,113.917264 120.016174,112.934752 L120.092917,112.793383 C120.301941,112.404619 120.515005,112.008786 120.739176,111.604876 L141.15795,71.379409 L141.194302,71.315793 Z M164.373815,83.3694981 C166.937648,81.2509865 169.586303,79.0628002 172.619683,77.412825 L177.314153,74.8590996 L177.383828,80.2018284 C177.398975,81.4075019 177.278811,85.658662 175.07547,89.7644142 L160.02469,121.381534 L152.139314,136.741248 L149.415935,135.653719 C146.757183,134.593453 144.405404,133.397877 142.454508,132.368915 L139.469597,130.793663 L141.180165,127.884496 C145.330363,120.825147 148.123416,114.837171 151.080054,108.497792 C153.178378,103.996208 155.340318,99.3562836 158.13842,94.0085059 L163.19944,84.3388838 L164.373815,83.3694981 Z M195.743659,92.0020795 L201.564034,89.4109924 L200.150341,95.8816418 C198.922448,101.527304 196.393958,106.264166 193.716019,111.279727 L193.590807,111.513996 C193.153572,112.334944 192.708258,113.16801 192.228613,114.089936 L179.58313,140.278496 L179.533651,140.369376 C177.924061,143.219976 175.837854,144.435747 173.153857,144.083335 C172.609586,144.011641 172.03704,143.874311 171.446318,143.675385 C170.993937,143.522909 170.535496,143.386589 170.072007,143.24724 C169.447963,143.061441 168.852192,142.881701 168.289744,142.678735 L164.818119,141.424593 L187.300883,98.4323379 C189.174026,95.116231 194.236056,92.6745908 195.743659,92.0020795 L195.743659,92.0020795 Z M505.617047,418.052933 C505.74327,417.724756 505.851316,417.442018 505.991676,417.169379 C509.661218,410.069638 513.107599,398.468313 511.808012,391.455414 L506.397607,384.77776 L506.195651,384.181992 C503.693415,376.791436 501.328509,369.810849 496.682508,363.025149 L484.580288,345.349007 L473.581758,332.115883 L454.969482,314.483161 C453.430576,313.026054 450.37498,312.155626 448.888583,311.198358 C448.180727,310.742948 447.455705,310.276431 446.709477,309.73923 L439.220944,304.354091 L409.18805,284.04849 L369.053311,258.522344 C362.041394,253.716816 351.829483,246.063718 349.514056,242.598164 C349.967448,241.208712 349.439333,240.172681 349.013205,239.622352 C348.449748,238.883196 358.138592,243.986607 357.198487,243.873512 C356.874347,243.834131 356.550207,243.83817 356.234146,243.8826 L354.254976,241.62474 C354.314553,240.485711 353.08565,239.941442 349.983604,239.241666 L349.878587,239.237627 C349.754384,239.132611 349.49891,238.688309 349.329267,238.393454 C348.920305,237.683581 348.411376,236.800026 347.534886,236.05885 C345.988912,234.74917 345.63145,233.787862 345.49513,233.097175 L345.098286,231.097817 L344.001664,230.821138 C344.016811,230.774688 345.668812,225.289581 345.668812,225.289581 L340.196811,226.620467 C339.989806,226.669946 339.773713,226.682063 339.552571,226.655809 C339.181981,226.611379 338.838656,226.464961 338.554908,226.279162 C338.816441,225.563231 338.827548,224.763487 338.573084,224.013223 C338.370118,223.418465 338.020734,222.889342 337.547147,222.439991 C337.198772,221.570573 336.527268,220.873827 335.686121,220.490112 L333.414115,218.593751 C332.662838,217.96769 331.818661,217.595082 330.900771,217.484007 C330.008125,217.376971 329.226555,217.538535 328.576256,217.78492 C328.494464,217.684952 328.422769,217.573877 328.367231,217.457753 C328.216774,217.141693 328.200618,216.850877 328.318762,216.594394 L330.242394,212.423006 L325.666068,212.033232 C324.143319,211.902971 322.997218,212.242256 322.120729,212.754213 L319.322627,210.985084 L321.557271,207.776013 L316.612376,206.88539 C316.431625,206.853077 316.258952,206.827833 316.091329,206.807637 C314.904837,206.664249 313.965741,206.808647 313.223552,206.982329 L309.855934,205.114242 C309.830689,204.600265 309.68831,204.094367 309.430816,203.638958 C308.888564,202.67866 307.916145,202.04755 306.762976,201.90921 C305.971308,201.813281 304.871657,201.943543 303.938619,202.534262 C303.043954,202.331297 302.156357,201.988983 301.185957,201.528524 C301.124361,201.400283 301.060745,201.287188 301.002177,201.192269 C300.429632,200.264284 299.481448,199.657408 298.325249,199.518059 C298.325249,199.518059 298.32323,199.518059 298.32323,199.518059 C297.843584,199.46959 297.206412,199.498873 296.538947,199.656398 C286.334105,196.376643 279.765482,187.246242 267.355278,184.833885 L257.981485,182.399314 C254.101908,181.391556 250.877679,180.642302 248.033127,179.980898 C236.946746,177.404958 238.990542,177.475642 227.751684,168.314948 C222.963304,164.41216 214.282221,155.312052 211.353857,150.649913 C210.46525,149.234206 209.651367,147.967946 208.915237,146.822859 C202.987825,137.597539 202.987825,137.597539 207.761058,127.529055 C208.935432,125.052073 210.157267,122.639716 211.3377,120.306122 C217.638731,107.858604 223.588359,96.1027829 219.061512,80.534045 C218.194111,77.5552036 215.830214,75.345812 213.929807,73.5706245 L212.67465,72.383127 L209.36257,71.4349467 C207.680275,70.5352356 205.902052,69.9677411 204.072329,69.7466 C201.055105,69.3830803 198.45492,70.0141908 196.605002,70.533216 C196.559562,62.5337646 190.303971,55.7440258 181.678425,54.7049655 C180.975618,54.6201442 180.255644,54.5736945 179.53668,54.5676359 C177.161677,54.5454208 175.081529,55.2664014 173.245747,55.9025607 C173.083173,55.9591082 172.922618,56.0146459 172.764082,56.0691739 C173.105388,50.0266698 169.189459,44.172994 162.914682,41.4173132 C161.685779,40.8780925 160.364986,40.5206315 158.986636,40.3540183 C155.521069,39.9369805 152.119118,40.7448019 148.964563,41.7697253 C148.783813,33.9671804 142.498938,27.5752936 133.97639,26.5483506 C132.925209,26.4211187 131.845753,26.3766886 130.769327,26.4180894 L130.543136,26.4271774 L130.320984,26.4665587 C128.432695,26.8058437 126.701931,27.347084 125.124654,27.9650674 C125.114556,27.7307992 125.097389,27.487443 125.067096,27.2329792 C124.666213,23.8795107 122.758738,20.788584 119.236623,17.7844982 C116.842433,15.7407101 113.830258,14.4502154 110.526256,14.0513536 C106.968799,13.6232082 103.312383,14.239172 100.049782,15.7942282 C99.3833269,11.4309829 97.5990446,3.63348683 85.9633429,0.892952734 C84.4971415,0.547609086 83.1753387,0.305262666 81.9252303,0.15480593 C77.0904009,-0.427835254 73.0926795,0.35070262 69.7038559,2.53484973 C69.081831,2.9357311 68.6062244,3.39315997 68.1861556,3.79707067 C67.9478474,4.02729976 67.5853362,4.37567274 67.4490158,4.4251518 L66.9794678,4.38779006 L66.5169883,4.48573841 C62.0547679,5.43694811 58.8477048,8.17647243 57.7440146,11.9096171 C55.4992724,14.2704751 55.289238,14.5219095 54.0371101,16.7777508 C53.7927432,17.2180134 53.4918285,17.758244 53.0990239,18.4479215 L45.178305,32.3333616 C43.3950325,35.4576109 41.8399704,38.6434565 40.3343875,41.7242854 C38.5773693,45.3221199 36.9092118,48.7392045 34.9169147,52.0532917 L25.7077157,54.7564641 L16.5591036,58.9359301 C14.4617893,59.8942082 6.86823931,68.0087742 5.12030912,70.8937063 C0.323851334,78.8022778 -1.0787339,87.1349556 1.06200094,94.9920285 L1.54164672,96.7773138 C2.74328562,101.279908 3.98531574,105.935989 6.52895304,110.085162 L10.3287574,116.280142 C10.1490164,116.55985 10.0025983,116.872881 9.9016202,117.220244 C9.72894772,117.812983 9.3866321,119.733578 11.5445332,121.097787 C12.2190666,122.188346 13.3439622,122.914375 14.9071026,123.265777 C14.8879167,123.293041 14.8667113,123.318286 14.8455059,123.339491 L12.198871,125.913412 L15.1080489,128.188439 C16.2985802,129.119453 17.6749112,129.684928 19.1996798,129.868708 C19.8318025,129.945451 20.4588762,129.951509 21.071813,129.909099 C21.2677105,130.650275 21.523185,131.354089 21.8715593,132.017513 C21.6413293,131.952887 21.3949428,131.902398 21.1303803,131.870085 C20.7103116,131.819596 20.2730766,131.822626 19.8328123,131.879173 L17.3649085,132.195233 L17.0458178,134.662118 C17.0195635,134.864073 17.0054266,135.14984 17.0044168,135.480037 L10.878078,140.762179 L19.9166241,140.519833 C19.9802402,140.518823 20.0418368,140.517813 20.1064628,140.519833 C20.6921355,141.501336 21.6877792,142.139515 22.8631638,142.281893 C24.4646758,142.474761 26.0712367,141.70733 26.8316015,140.403708 C27.3556776,140.653123 27.9332721,140.815697 28.5653948,140.89244 C29.2167033,140.970193 29.8387281,140.947978 30.4405573,140.925763 C30.6566504,140.918695 30.874763,140.910616 31.0969147,140.907587 L27.2183475,148.894921 L33.6950802,145.457641 C34.0596109,145.828229 34.5049242,146.119045 35.0007265,146.311912 C34.7583791,146.652207 34.5715697,147.038951 34.4514058,147.461038 C33.9081439,149.386682 34.9583157,151.537507 36.2861771,152.502853 C36.8274195,152.896666 37.4585324,153.139013 38.1633592,153.223834 C39.2488734,153.354095 40.5838033,153.048133 41.7763542,152.539205 C42.1489632,153.069338 42.6043743,153.416701 42.9305334,153.617647 L46.8666581,156.04717 L48.6559893,154.496153 C49.2992196,153.937746 49.8778238,153.267254 50.3847337,152.503863 C50.7068537,152.624027 51.0481595,152.706828 51.4025925,152.750249 C51.6499888,152.779532 51.8893068,152.78862 52.1175172,152.781552 L51.7772211,154.174034 L54.2784476,155.253485 C55.3144825,155.699807 56.3656641,156.004759 57.4794521,156.18046 L56.2101579,159.487479 L61.7518337,158.5807 C62.1284819,158.519103 62.4647388,158.410047 62.7636339,158.271708 C62.9928541,158.373695 63.2412601,158.458517 63.5139009,158.517084 C64.0864465,158.641286 64.2227668,158.66956 64.608503,159.570281 C65.1558041,160.849668 66.2039564,161.603971 67.0451036,162.210847 C67.2470597,162.356255 67.5257591,162.557201 67.7024707,162.705638 L68.9566182,168.296772 L73.1219631,163.821441 L81.1891003,170.931279 C81.2123252,173.219433 82.7199276,174.016147 83.449999,174.267582 L84.6324521,174.673512 C90.4548469,180.757417 93.8244847,188.564001 94.6504852,197.890299 C95.6895495,209.602699 96.4903055,220.195257 95.7612439,231.224039 C95.714794,231.919775 95.6602658,232.641766 95.6027083,233.378903 C95.0362214,240.730077 94.1789177,251.839641 103.65066,252.979679 C107.249518,253.400756 110.73528,251.736644 112.528651,248.740636 C115.002613,244.610649 114.60072,240.393822 114.246287,236.672794 L112.878035,222.147156 L112.879044,196.022212 C112.880054,192.705095 114.082703,189.232473 115.738743,187.763248 C116.539499,187.054384 117.202925,187.03116 117.689639,187.089727 C117.808793,187.103864 117.929967,187.126079 118.05316,187.155362 C119.346689,187.461325 121.494492,192.659655 119.877834,206.771285 C119.501185,210.063158 120.107054,213.159133 121.628793,215.721946 C122.763787,217.632444 124.68237,218.841147 127.032129,219.123884 C127.955069,219.23496 128.906282,219.195578 129.857495,219.00776 C136.7856,217.634464 136.034323,209.541103 135.431484,203.038141 C135.122491,199.710926 134.784215,196.060583 135.230538,193.234218 C135.943443,193.54119 136.654328,193.846143 137.363194,194.150086 C147.50846,198.504243 157.091278,202.616054 166.521618,207.645752 C183.566715,216.736772 184.994545,217.499153 199.068866,230.09107 L209.449411,240.924964 C215.409136,248.22666 219.701713,256.184711 223.453048,263.702498 L237.459714,283.049821 L242.654026,291.636962 L250.41217,304.524743 L253.758583,310.247148 C254.272561,311.123634 254.954163,311.857742 255.61254,312.567615 C255.975051,312.958399 256.542548,313.568304 256.788934,313.954038 C256.700074,314.140847 256.581929,314.369057 256.491049,314.542738 C255.821565,315.828184 254.575495,318.223374 256.023521,320.570096 L257.772461,323.407568 L253.142617,324.828324 L255.146021,323.863987 C255.469151,324.151774 255.883161,324.494088 256.400169,324.80308 L258.474258,326.040056 C258.417711,326.233933 258.37328,326.437908 258.340967,326.654001 L257.967348,329.858022 L258.249077,329.900433 C258.19051,330.375028 258.225852,330.866789 258.352075,331.372687 C258.794359,333.131718 260.103034,334.349509 261.766143,334.549445 L261.948913,334.569641 L262.076146,334.574689 C262.373021,334.586807 262.65576,334.563582 262.92941,334.519152 C262.92941,334.66254 262.936479,334.810977 262.951625,334.964463 C263.017261,335.589515 263.201041,336.309486 263.626159,337.005222 C263.490848,337.733271 263.509024,338.438095 263.57567,339.040932 C262.807227,339.922467 262.173085,341.170551 262.597192,342.75994 C263.275765,345.284382 265.388226,345.728683 266.019339,345.804417 C266.56563,345.870052 267.148273,345.83269 267.751112,345.694351 L267.839973,345.673146 C267.891472,347.618985 268.337795,349.625412 269.539434,351.315778 C270.818826,353.11823 272.740438,354.219896 275.094237,354.502634 C276.495812,354.671266 278.07208,354.547064 279.792746,354.134065 C281.420512,354.181525 282.541369,353.643314 283.300724,352.977871 C283.591541,352.859727 283.885387,352.733505 284.184282,352.602234 C284.452883,352.970802 284.602331,353.382791 284.802267,354.093674 L286.286645,359.325327 C285.977652,359.614123 285.654522,359.950379 285.377842,360.35126 C284.318583,361.886121 284.394316,363.752189 285.57374,365.108319 L286.404789,366.05044 L287.249976,366.152428 C288.125455,371.991967 288.135553,378.300042 287.308543,386.102587 L287.287337,386.31363 C286.889484,390.058892 286.439122,394.306013 289.296801,398.279485 C290.566095,400.044575 292.777515,401.311845 295.068707,401.588523 C296.185524,401.722824 297.248823,401.622856 298.232349,401.290639 C305.414919,398.859097 304.48895,389.848859 303.594284,381.134486 C303.075257,376.085602 302.486555,370.364207 303.191382,365.411252 C303.269135,364.867992 303.317604,364.309585 303.365064,363.74714 C303.416563,363.142283 303.464022,362.651532 303.528648,362.246611 C306.159127,363.906684 308.424065,365.985815 310.79099,368.156835 C311.328194,368.650616 311.864387,369.142377 312.40563,369.630099 L319.718461,376.220912 L330.404969,385.415939 C339.213285,392.994313 338.482203,402.845695 337.837963,411.537854 C337.450208,416.75739 337.11698,421.266043 338.834617,424.883063 C340.144302,427.638744 342.705106,429.437156 345.86269,429.817842 C346.808854,429.930937 347.788341,429.912761 348.774897,429.764324 C353.145227,429.10595 356.271508,425.48489 356.046327,421.341776 L355.326353,408.111681 C355.194072,405.71952 355.074918,403.566676 355.476811,401.583474 L376.440865,417.535928 L377.278983,421.828489 C383.726432,428.646501 387.440405,435.592755 388.316895,442.473374 L390.071894,456.244709 C391.188711,465.014621 390.437434,473.495735 389.833585,480.309709 C389.275177,486.613745 388.834912,491.593964 389.881045,495.249356 C391.281611,500.147783 394.846136,503.290208 399.65875,503.87083 C399.914225,503.901123 400.173739,503.924348 400.436282,503.941514 C405.651798,504.259594 410.19783,501.714957 412.301203,497.298193 C414.656012,492.353316 413.92897,486.937884 413.287759,482.15962 L413.245348,481.84154 C412.152766,473.683554 411.679179,465.592213 411.754912,456.378 L411.755922,456.208358 C411.819538,448.527996 412.165893,443.380154 416.233289,441.836205 C416.745248,441.642328 417.324862,441.571644 417.867114,441.637279 C418.305359,441.689787 419.078851,441.877606 419.333315,442.534971 C420.749028,446.208538 420.382477,449.645818 420.028044,452.968994 C419.641299,456.587024 419.241425,460.327237 421.539686,463.549434 C422.870577,465.418531 424.962842,466.649449 427.279279,466.928148 C428.303196,467.05134 425.907997,462.667899 426.864259,462.402328 C433.973114,460.431244 433.222847,453.425413 432.727045,448.787508 C432.481668,446.487237 432.230233,444.130418 432.56851,442.164382 C434.665824,442.683408 436.790402,443.071162 438.999802,443.336733 C441.783767,443.672989 444.691935,443.812338 447.888901,443.766898 L453.837518,443.683087 C459.088377,443.607353 463.610175,442.99139 467.986564,441.747345 L472.529567,442.774288 L472.718395,442.795493 C480.986479,443.66693 487.857026,439.331959 489.643328,432.343294 L493.794536,431.915148 C496.419965,430.200548 499.134256,428.428389 500.933685,424.910327 C501.464829,423.872277 502.541255,422.370739 503.150153,421.819401 C504.714303,420.401674 505.23636,419.044534 505.617047,418.052933 L505.617047,418.052933 Z M391.143271,350.170691 L365.398915,327.530487 L344.29753,298.381261 C329.826364,281.666427 321.140232,272.823812 298.970499,267.109485 C298.464599,266.979224 297.95062,266.881276 297.440681,266.820689 C296.338001,266.687399 293.615632,266.54502 292.140343,268.089978 C291.220433,269.052296 290.678181,270.804258 290.824599,271.669637 C292.804779,283.373959 305.621924,303.2292 316.620454,311.496242 L339.251656,328.489775 C341.572132,330.233659 343.876451,331.975524 346.175722,333.71335 C357.495362,342.270198 373.894199,348.785278 389.930524,360.013995 C391.303826,360.975303 392.289372,351.394541 391.143271,350.170691 L391.143271,350.170691 Z" id="Fill-1" fill="#000000" mask="url(#mask-2)"></path>
        </g>
    </g>
</svg>