<?xml version="1.0" encoding="UTF-8"?>
<svg width="691px" height="573px" viewBox="0 0 691 573" version="1.1" xmlns="http://www.w3.org/2000/svg" xmlns:xlink="http://www.w3.org/1999/xlink">
    <title>Symbol4</title>
    <defs>
        <path d="M0,0 L691,0 L691,573 L0,573 L0,0 Z" id="path-1"></path>
    </defs>
    <g id="Symbol4" stroke="none" fill="none" xlink:href="#path-1" fill-rule="evenodd">
        <g id="Group-11" stroke-width="1" transform="translate(134, 95)">
            <path d="M308.073482,7.5 C337.342274,7.5 363.851438,20.5160079 383.067624,41.4176354 C402.50277,62.5574289 414.5,91.7527823 414.5,123.918953 C414.5,180.31699 389.278814,230.297968 356.483847,270.565999 C304.103653,334.882187 231.916646,375.5 211,375.5 C190.083354,375.5 117.896347,334.882187 65.5161533,270.565999 C32.7211856,230.297968 7.5,180.31699 7.5,123.918953 C7.5,91.7527823 19.4972296,62.5574289 38.9323765,41.4176354 C58.1485623,20.5160079 84.6577258,7.5 113.926518,7.5 C154.276282,7.5 187.530555,42.6194963 205.100551,65.0018085 C206.985808,67.4034262 208.970637,70.0152784 211.003334,72.8082453 C213.031621,70.012307 215.015265,67.4020601 216.899449,65.0018085 C234.469445,42.6194963 267.723718,7.5 308.073482,7.5 Z" id="Path" stroke="#EA4589" stroke-width="15"></path>
            <path d="M251.36748,207.848371 C246.568485,205.631531 241.003657,207.906755 238.900126,212.954356 C233.308544,226.350931 220.590372,235.002444 206.499386,235.002444 C192.371613,235.002444 179.653441,226.361547 174.108679,212.984433 C172.013508,207.917371 166.440319,205.642147 161.659718,207.839525 C156.879116,210.065211 154.702011,215.963808 156.797182,221.011409 C165.3618,241.663578 184.870466,255 206.501058,255 C228.076469,255 247.576775,241.672424 256.194901,221.039716 C258.298432,215.990347 256.138049,210.084672 251.36748,207.848371 Z" id="Fill-1" fill="#EA4589"></path>
            <path d="M167,151.699623 L167,129.300377 C167,124.158919 162.750133,120 157.5,120 C152.248186,120 148,124.160565 148,129.300377 L148,151.699623 C148,156.841081 152.249867,161 157.5,161 C162.750133,161 167,156.839435 167,151.699623" id="Fill-3" fill="#EA4589"></path>
            <path d="M246.228879,131 C241.126947,131 237,135.02619 237,140 C237,144.97381 241.12858,149 246.228879,149 L268.771121,149 C273.873053,149 278,144.97381 278,140 C278,135.02619 273.873053,131 268.771121,131 L246.228879,131 Z" id="Fill-5" fill="#EA4589"></path>
        </g>
    </g>
</svg>