<?xml version="1.0" encoding="UTF-8"?>
<svg width="691px" height="573px" viewBox="0 0 691 573" version="1.1" xmlns="http://www.w3.org/2000/svg" xmlns:xlink="http://www.w3.org/1999/xlink">
    <title>Symbol5</title>
    <defs>
        <path d="M0,0 L691,0 L691,573 L0,573 L0,0 Z" id="path-1"></path>
    </defs>
    <g id="Symbol5" stroke="none" fill="none" xlink:href="#path-1">
        <path d="M427.003181,89.7821544 C456.612521,89.7821544 482.152656,102.599541 500.294945,124.231904 C518.768577,146.259351 529.578203,177.309641 529.579519,213.23342 C529.562556,217.036003 528.909002,268.274623 506.018915,325.35787 C498.557789,343.956594 491.5708,359.607663 485.402347,373.427419 C466.899311,414.844931 453.476962,444.995119 447.574569,503.782154 L390.554471,503.782154 L385.758405,430.263645 C384.821981,415.86597 378.903007,403.046554 370.035227,393.812151 C360.942028,384.34301 348.76721,378.63357 335.57862,378.63357 C322.389053,378.63357 310.213812,384.343064 301.120664,393.812151 C292.252784,403.046659 286.334239,415.86622 285.398911,430.262475 L280.602769,503.782154 L223.58449,503.782154 C217.681944,444.990443 204.263799,414.852016 185.956266,373.87251 L185.677017,373.246704 C179.529193,359.469413 172.568799,343.873667 165.140452,325.356653 C142.121207,267.950988 141.59057,215.99364 141.579725,213.241477 C141.582267,177.310135 152.391206,146.260456 170.863114,124.233478 C189.005426,102.599529 214.545968,89.7821544 244.155857,89.7821544 C274.411577,89.7821544 302.679043,103.247885 323.804096,127.566556 C324.990995,128.773707 325.308254,129.104039 325.643618,129.457811 L325.745659,129.565546 C331.472706,135.615292 363.078269,168.841622 412.107421,168.841622 C416.459437,168.841622 421.19964,167.140009 424.67399,164.138986 C428.07528,161.20107 430.271502,157.122537 430.271502,152.334712 C430.271502,147.588769 428.529231,143.321609 425.793236,140.224148 C422.80402,136.840011 418.650311,134.827803 414.107421,134.827803 C389.750105,134.827803 374.231729,123.372925 361.675757,114.028342 L361.426,113.842 L361.464076,113.810373 C380.15313,98.4010092 402.560078,89.9686782 426.214251,89.7852131 Z" id="Path" stroke="#EA4589" stroke-width="12"></path>
        <path d="M380.679594,312.584993 C377.037749,311.05882 372.769982,312.646731 371.165577,316.175696 C365.141396,329.456853 351.334064,338.043425 335.997694,338.043425 C320.703478,338.043425 306.896146,329.450679 300.825979,316.154705 C299.215187,312.638088 294.953807,311.044003 291.305575,312.591167 C287.657343,314.151912 286.00823,318.267392 287.615189,321.797592 C295.997437,340.14253 314.985871,352 335.997694,352 C357.065723,352 376.061821,340.136356 384.391695,321.777835 C385.99099,318.24887 384.327826,314.132156 380.679594,312.584993 Z" id="Fill-1" fill="#EA4589" fill-rule="evenodd"></path>
        <path d="M390,218 C385.029375,218 381,221.435716 381,225.680076 L381,250.319924 C381,254.565643 385.029375,258 390,258 C394.970624,258 399,254.564284 399,250.319924 L399,225.680076 C399.001592,221.434357 394.970624,218 390,218" id="Fill-3" fill="#EA4589" fill-rule="evenodd"></path>
        <path d="M309,240 C309,235.024597 305.591215,231 301.386149,231 L276.613851,231 C272.408785,231 269,235.02619 269,240 C269,244.975403 272.408785,249 276.613851,249 L301.386149,249 C305.589868,249 309,244.975403 309,240" id="Fill-5" fill="#EA4589" fill-rule="evenodd"></path>
    </g>
</svg>