<?xml version="1.0" encoding="UTF-8"?>
<svg width="691px" height="573px" viewBox="0 0 691 573" version="1.1" xmlns="http://www.w3.org/2000/svg" xmlns:xlink="http://www.w3.org/1999/xlink">
    <title>Symbol1</title>
    <defs>
        <path d="M0,0 L691,0 L691,573 L0,573 L0,0 Z" id="path-1"></path>
    </defs>
    <g id="Symbol1" stroke="none" fill="none" xlink:href="#path-1" fill-rule="evenodd">
        <g id="Group-9" stroke-width="1" transform="translate(110, 58)" fill="#EA4589">
            <path d="M250.679594,264.584993 C247.037749,263.05882 242.769982,264.646731 241.165577,268.175696 C235.141396,281.456853 221.334064,290.043425 205.997694,290.043425 C190.703478,290.043425 176.896146,281.450679 170.825979,268.154705 C169.215187,264.638088 164.953807,263.044003 161.305575,264.591167 C157.657343,266.151912 156.00823,270.267392 157.615189,273.797592 C165.997437,292.14253 184.985871,304 205.997694,304 C227.065723,304 246.061821,292.136356 254.391695,273.777835 C255.99099,270.24887 254.327826,266.132156 250.679594,264.584993 Z" id="Fill-1"></path>
            <path d="M260,170 C255.029375,170 251,173.435716 251,177.680076 L251,202.319924 C251,206.565643 255.029375,210 260,210 C264.970624,210 269,206.564284 269,202.319924 L269,177.680076 C269.001592,173.434357 264.970624,170 260,170" id="Fill-3"></path>
            <path d="M179,192 C179,187.024597 175.591215,183 171.386149,183 L146.613851,183 C142.408785,183 139,187.02619 139,192 C139,196.975403 142.408785,201 146.613851,201 L171.386149,201 C175.589868,201 179,196.975403 179,192" id="Fill-5"></path>
            <path d="M528.756015,87.9387378 L380.648788,87.9387378 C365.528761,87.9387378 351.31551,82.1026828 340.626805,71.5065489 L316.326449,47.4185666 C310.200393,41.3507057 302.061918,38.0112129 293.409395,38.0112129 L131.796828,38.0112129 C125.121703,38.0112129 119.6898,32.6276133 119.6898,26.0118475 C119.6898,19.3960817 125.121703,14.0124821 131.796828,14.0124821 L293.423153,14.0124821 C308.539428,14.0124821 322.752679,19.8485371 333.441384,30.4446709 L357.741741,54.5326532 C363.857791,60.6005141 371.998767,63.946205 380.658794,63.946205 L528.756015,63.946205 C535.43114,63.946205 540.863043,69.3236065 540.863043,75.9393723 C540.863043,82.5538986 535.43114,87.9387378 528.756015,87.9387378 L528.756015,87.9387378 Z M263.434495,113.483255 C263.434495,118.333825 259.454684,122.274525 254.564346,122.274525 L244.627327,122.274525 L244.627327,53.5062612 C244.627327,52.9794296 244.435966,52.5145781 244.324651,52.0212158 L263.433244,52.0212158 L263.433244,113.483255 L263.434495,113.483255 Z M286.489128,96.8167806 C346.138755,96.8167806 389.432794,141.929684 389.432794,204.130527 C389.432794,204.575545 389.528943,248.667014 366.988358,297.855735 C359.950523,313.20699 353.379208,326.090193 347.582093,337.459839 C330.225767,371.474569 317.67223,396.083185 312.734364,446.988758 L245.332737,446.988758 L240.387366,380.648877 C238.920264,360.931738 221.964171,345.485035 201.787458,345.485035 C181.610746,345.485035 164.6509,360.932978 163.183799,380.648877 L158.238428,446.988758 L90.8368009,446.988758 C85.8976837,396.083185 73.3453971,371.474569 55.9890716,337.459839 C50.1907057,326.090193 43.619391,313.20699 36.5828062,297.855735 C14.1185156,248.83808 14.138519,204.568107 14.138519,204.074745 C14.138519,141.928444 57.4324095,96.8167806 117.082036,96.8167806 C119.562226,96.8167806 122.008646,96.9990024 124.457568,97.1750261 L124.457568,113.482015 C124.457568,126.056557 134.777309,136.284528 147.464674,136.284528 L254.566847,136.284528 C267.254212,136.284528 277.573953,126.056557 277.573953,113.482015 L277.573953,97.2394856 C280.521914,96.9903252 283.489887,96.8167806 286.489128,96.8167806 Z M172.410405,446.989997 L177.278231,381.676509 C178.206269,369.239564 188.971268,359.497517 201.786208,359.497517 C214.597395,359.497517 225.362394,369.239564 226.290432,381.676509 L231.158258,446.989997 L172.410405,446.989997 Z M157.399191,53.5062612 L157.399191,122.274525 L147.463423,122.274525 C142.573084,122.274525 138.593274,118.333825 138.593274,113.483255 L138.593274,52.0212158 L157.701866,52.0212158 C157.590552,52.5145781 157.399191,52.9794296 157.399191,53.5062612 L157.399191,53.5062612 Z M193.945406,53.5062612 L193.945406,122.274525 L171.536147,122.274525 L171.536147,53.5062612 C171.536147,52.9794296 171.344786,52.5145781 171.233472,52.0212158 L194.248082,52.0212158 C194.136767,52.5145781 193.945406,52.9794296 193.945406,53.5062612 Z M230.491621,122.274525 L208.082363,122.274525 L208.082363,53.5062612 C208.082363,52.9794296 207.891001,52.5145781 207.779687,52.0212158 L230.794297,52.0212158 C230.684233,52.5145781 230.492872,52.9794296 230.492872,53.5062612 L230.492872,122.274525 L230.491621,122.274525 Z M528.756015,49.9349625 L380.658794,49.9349625 C375.847251,49.9349625 371.14327,47.9987012 367.740045,44.6257391 L343.435936,20.5377568 C330.079432,7.29258954 312.31537,0 293.423153,0 L131.796828,0 C117.325928,0 105.552844,11.6708704 105.552844,26.0106079 C105.552844,37.8079179 113.571248,47.6863211 124.456317,50.8572278 L124.456317,83.1402312 C122.007396,82.9790827 119.559725,82.8067778 117.080786,82.8067778 C50.3357899,82.8067778 0.000752863212,134.944516 0.000752863212,204.020202 C-0.0121873783,205.942828 -0.105991832,251.676773 23.7090829,303.643446 C30.8707403,319.268653 37.5145971,332.288212 43.3742487,343.781819 C60.4854318,377.321781 71.848278,399.664401 76.614795,446.989997 L9.08559393,446.989997 C5.18207792,446.989997 2.01774101,450.123716 2.01774101,453.994999 C2.01774101,457.866281 5.18207792,461 9.08559393,461 L394.485571,461 C398.389087,461 401.553423,457.866281 401.553423,453.994999 C401.553423,450.123716 398.389087,446.989997 394.485571,446.989997 L326.95637,446.989997 C331.724137,399.664401 343.085733,377.321781 360.196916,343.781819 C366.057818,332.288212 372.701675,319.269892 379.862082,303.643446 C403.675906,251.676773 403.583352,205.942828 403.569594,204.074745 C403.569594,134.943277 353.235375,82.8055382 286.490379,82.8055382 C283.492388,82.8055382 280.524416,82.9629678 277.572702,83.1922946 L277.572702,52.0199762 L293.410646,52.0199762 C298.218437,52.0199762 302.929922,53.9562374 306.331897,57.3217619 L330.632253,81.4097442 C343.988757,94.6549115 361.752819,101.947501 380.648788,101.947501 L528.756015,101.947501 C543.226916,101.947501 555,90.2766306 555,75.9368931 C555,61.5996348 543.226916,49.9349625 528.756015,49.9349625 Z" id="Fill-7"></path>
        </g>
    </g>
</svg>