<svg aria-hidden="true" viewBox="0 0 691 573" xmlns="http://www.w3.org/2000/svg" xmlns:xlink="http://www.w3.org/1999/xlink">
    <title>Symbol6</title>
    <defs>
        <polygon id="path-1" points="-0.430726224 0.385563157 383.569274 0.385563157 383.569274 354.385563 -0.430726224 354.385563"></polygon>
    </defs>
    <g id="Symbol6" stroke="none" fill="none" fill-rule="evenodd" stroke-width="1">
        <g id="Group-3" transform="translate(153.4307, 109.6144)">
            <mask id="mask-2" fill="white">
                <use xlink:href="#path-1"></use>
            </mask>
            <g id="Clip-2"></g>
            <path d="M4.858406,250.786172 C0.527087966,247.559093 0.546361111,221.995835 4.80701095,218.584829 C16.8655751,208.930599 -6.13756545,223.589439 0.958806406,209.778206 C-0.746224456,206.166552 -0.171884746,201.500213 1.87363834,198.647417 L1.11042181,194.306487 C0.949812272,193.389425 4.13887527,192.566256 5.18990409,191.530864 C14.1236491,182.724241 24.9153252,180.202 36.5344617,179.053422 C73.8446999,175.367168 110.237537,171.686059 148.284009,170.032004 L141.214619,107.006838 L132.315566,35.173764 C127.513983,29.565925 128.780871,23.4397466 130.695337,16.9122734 C135.838697,-0.622513245 155.137539,-0.980077295 158.458944,1.4817126 C163.43784,5.17053885 169.87764,-0.540196341 181.14729,6.60336745 L188.229528,20.2924113 L191.891426,34.2567023 L193.66841,69.953942 L196.082692,106.417758 L198.687137,138.435175 L201.035891,168.109132 L237.301524,167.993374 L276.135626,167.210077 L335.687073,166.58627 C343.144495,166.507811 348.884038,167.817165 355.853207,170.532336 C361.974358,172.915668 372.058067,172.109219 375.339641,178.53251 L381.190968,189.987422 L383.569274,200.899556 C381.469786,202.556184 380.948126,205.685513 379.870115,208.444415 C376.313577,217.543005 361.804754,226.826809 351.190391,227.484058 C347.672399,227.702712 342.541888,226.390786 339.112553,226.03065 L314.631805,223.462105 L265.676733,221.705154 L226.061427,220.987453 C218.907235,220.857547 211.701649,219.535332 204.460086,221.721874 L207.848305,318.293751 C208.206785,328.52034 207.601609,337.771988 203.604358,346.913023 L193.841868,350.082224 C190.259633,351.24495 186.629857,349.158731 184.070384,353.192259 C183.582131,353.96398 181.981175,354.176203 181.119023,354.372992 C180.127098,354.599364 179.541195,351.700265 178.60195,351.169064 C166.292835,344.21843 161.319079,331.577641 160.656083,317.896314 L159.85689,301.378913 L156.838715,264.943394 L152.3288,220.854975 C118.428623,221.859498 85.6848351,223.132838 52.4592186,228.098862 C46.7505132,228.951614 43.5922872,232.639154 36.6616644,230.314987 C33.4173517,229.228147 26.6897394,231.175456 23.1691783,228.468002 C17.9153191,224.429329 23.2514104,242.80915 17.9962663,246.559714 C7.39732159,254.122579 7.47312929,252.734768 4.858406,250.786172" id="Fill-1" fill="currentColor" mask="url(#mask-2)"></path>
        </g>
    </g>
</svg>