<svg xmlns="http://www.w3.org/2000/svg" viewBox="0 0 19.72834 20.9716" fill="none" stroke="currentColor" stroke-linejoin="round" aria-hidden="true">
  <path d="M14.22934,12.34859h3.222c1.00323-.02355,1.79741-.85591,1.77386-1.85914-.02277-.97009-.80377-1.75109-1.77386-1.77386h-5.864V2.35559c.02351-1.00102-.76891-1.83156-1.76992-1.85508-1.00102-.02351-1.83156.76891-1.85508,1.76992-.00067.02838-.00067.05677,0,.08515v6.3l-5.646.013c-1.0035.00036-1.81671.81416-1.81634,1.81766.00036,1.00299.81335,1.81598,1.81634,1.81634h5.863v6.36c.02351,1.00102.85406,1.79344,1.85508,1.76992.96793-.02274,1.74719-.802,1.76992-1.76992v-6.9"/>
</svg>
