<svg aria-hidden="true" viewBox="0 0 691 573" xmlns="http://www.w3.org/2000/svg" xmlns:xlink="http://www.w3.org/1999/xlink">
    <title>Symbol7</title>
    <defs>
        <polygon id="path-1" points="-0.483954549 0.264926539 395.516045 0.264926539 395.516045 70.2649265 -0.483954549 70.2649265"></polygon>
    </defs>
    <g id="Symbol7" stroke="none" fill="none" fill-rule="evenodd" stroke-width="1">
        <g id="Group-3" transform="translate(147.484, 251.7351)">
            <mask id="mask-2" fill="white">
                <use xlink:href="#path-1"></use>
            </mask>
            <g id="Clip-2"></g>
            <path d="M181.749844,68.9715027 L148.164391,67.2264168 L108.149541,65.8046889 L46.8186048,63.0371633 C39.1388266,62.6902407 33.3068046,61.0315582 26.2906292,57.8752175 C20.1274681,55.1024553 9.70320898,55.3472648 6.69646588,48.632677 L1.33466143,36.6566485 L-0.483954549,25.4320674 C1.77308961,23.8676431 2.48967464,20.7178481 3.75992427,17.9751962 C7.9455226,8.93295436 23.4150172,0.326656708 34.3770462,0.264926539 C38.0116291,0.244180779 43.2158113,1.87013479 46.7245613,2.43175659 L71.7745726,6.44034853 L122.060033,11.0210354 L162.794117,14.0137334 C170.149379,14.5544089 177.488746,16.3086588 185.067858,14.5007341 L238.675306,18.3587747 C273.625052,19.2738648 307.401241,19.8498871 341.886068,16.7027105 C347.809484,16.1620349 351.274524,12.5946237 358.27348,15.3516762 C361.549108,16.6424899 368.586477,15.0466462 372.054165,17.9987608 C377.227883,22.4027135 394.965018,25.8680116 390.382053,29.0924277 C377.414645,38.2145272 401.937483,24.6308727 393.835171,38.2603471 C395.380929,42.0293661 394.521292,46.7383489 392.251002,49.520275 L392.786123,53.9752843 C392.89871,54.9165572 389.56745,55.5711281 388.427007,56.5634575 C378.723307,65.002185 367.469875,66.9488787 355.445552,67.4528983 C316.830758,69.0683792 279.163023,70.4757065 239.904494,70.2387519 C230.277618,70.1811496 181.749844,68.9715027 181.749844,68.9715027" id="Fill-1" fill="currentColor" mask="url(#mask-2)"></path>
        </g>
    </g>
</svg>