<svg xmlns="http://www.w3.org/2000/svg" viewBox="0 0 17.81891 17.83364" fill="none" stroke="currentColor" stroke-linejoin="round" aria-hidden="true">
  <path d="M17.31891,2.0683h0c0-.86615-.70215-1.5683-1.5683-1.5683H2.18336c-.9297,0-1.68336.75367-1.68336,1.68336h0c0,.9297.75367,1.68337,1.68336,1.68337h13.45218c.9297,0,1.68336.75367,1.68336,1.68336h0c0,.9297-.75367,1.68337-1.68336,1.68337H2.18336c-.9297,0-1.68336.75367-1.68336,1.68336h0c0,.9297.75367,1.68337,1.68336,1.68337h13.45218c.9297,0,1.68336.75367,1.68336,1.68336h0c0,.9297-.75367,1.68337-1.68336,1.68337H2.18336c-.9297,0-1.68336.75367-1.68336,1.68336h0c0,.9297.75367,1.68337,1.68336,1.68337h13.48234c.91304,0,1.6532-.74016,1.6532-1.6532h0"/>
</svg>
