<svg xmlns="http://www.w3.org/2000/svg" viewBox="0 0 128.84277 136.94521" fill="none" stroke="currentColor" stroke-linejoin="round" stroke-width="7" aria-hidden="true">
  <path d="M92.73307,80.48071h21.007c6.54099-.1344,11.73455-5.54586,11.60015-12.08685-.13051-6.35175-5.24841-11.46965-11.60015-11.60015h-38.233V15.32771c.00591-6.52635-5.27995-11.82179-11.80629-11.8277-6.52635-.00591-11.82179,5.27994-11.8277,11.80629,0,.0048,0,.00961,0,.01441v41.062l-36.811.085c-6.54264.15906-11.71756,5.59186-11.5585,12.1345.15362,6.31886,5.23964,11.40488,11.5585,11.5585h38.225v41.467c0,6.52663,5.29087,11.8175,11.8175,11.8175s11.8175-5.29088,11.8175-11.8175h0v-44.961"/>
</svg>
