<svg width="1600" height="720" viewBox="0 0 1600 720" xmlns="http://www.w3.org/2000/svg" role="img" aria-label="Kids Club Hintergrund">
  <defs>
    <linearGradient id="bbg" x1="0" y1="0" x2="1" y2="1">
      <stop offset="0" stop-color="#FFE7EE"></stop>
      <stop offset="1" stop-color="#FBB9C4"></stop>
    </linearGradient>
  </defs>
  <rect width="1600" height="720" fill="url(#bbg)"></rect>
  <g opacity="0.16" fill="none" stroke="#26257F" stroke-width="16" stroke-linecap="round" stroke-linejoin="round">
    <path d="M900 600 V300 Q900 150 1150 150 Q1400 150 1400 300 V600"></path>
  </g>
  <g opacity="0.14" fill="none" stroke="#EC0A8C" stroke-width="13" stroke-linecap="round">
    <path d="M970 600 V320 Q970 215 1150 215 Q1330 215 1330 320 V600"></path>
  </g>
  <g>
    <path d="M250 150c-12-11-19-17-19-26 0-7 5-12 12-12 4 0 8 2 7 5 2-3 4-5 8-5 7 0 12 5 12 12 0 9-8 15-20 26Z" fill="#EC0A8C" opacity=".5"></path>
    <path d="M150 430c-10-9-16-14-16-22 0-6 4-10 10-10 3 0 6 2 6 4 1-2 3-4 6-4 6 0 10 4 10 10 0 8-6 13-16 22Z" fill="#EC0A8C" opacity=".4"></path>
    <g transform="translate(330,470)" fill="#F7E29D" opacity=".7"><path d="M0-18 5-6 18-6 7 2 11 16 0 7-11 16-7 2-18-6-5-6Z"></path></g>
    <g transform="translate(1500,250)" fill="#F7E29D" opacity=".8"><path d="M0-20 6-7 20-7 8 2 13 18 0 8-13 18-8 2-20-7-6-7Z"></path></g>
    <circle cx="120" cy="250" r="12" fill="#98ACBA" opacity=".7"></circle>
    <circle cx="1520" cy="560" r="15" fill="#CCC8CE" opacity=".8"></circle>
    <circle cx="860" cy="120" r="10" fill="#BDCCC2"></circle>
    <g transform="translate(820,470) rotate(-12)"><path d="M0 0c-9 0-14 6-14 15 0 9 4 18 8 21 3 1 3-7 6-7s3 8 6 7c4-3 8-12 8-21 0-9-5-15-14-15Z" fill="#fff" stroke="#26257F" stroke-width="3"></path></g>
    <path d="M1280 150c-11-10-17-15-17-23 0-6 4-11 11-11 3 0 7 2 6 4 2-2 4-4 7-4 7 0 11 5 11 11 0 8-7 14-18 23Z" fill="#EC0A8C" opacity=".85"></path>
  </g>
  <path d="M-20 662 Q800 624 1620 662 L1620 720 L-20 720 Z" fill="#fff" opacity=".5"></path>
  <ellipse cx="1140" cy="672" rx="360" ry="24" fill="#26257F" opacity=".07"></ellipse>
</svg>