<?xml version="1.0" encoding="UTF-8"?>
<svg width="860px" height="245px" viewBox="0 0 860 245" version="1.1" xmlns="http://www.w3.org/2000/svg" xmlns:xlink="http://www.w3.org/1999/xlink">
    <title>logo quer</title>
    <defs>
        <path d="M0,0 L860,0 L860,245 L0,245 L0,0 Z" id="path-1"></path>
        <polygon id="path-2" points="0 0 198 0 198 17 0 17"></polygon>
        <polygon id="path-4" points="0 0 17 0 17 152 0 152"></polygon>
    </defs>
    <g id="logo-quer" stroke="none" fill="none" xlink:href="#path-1" fill-rule="evenodd">
        <use fill="none" xlink:href="#path-1"></use>
        <g id="Logo-horizontal" stroke-width="1" transform="translate(21, 27)">
            <path d="M306.818973,155.133209 L306.311769,154.030324 C307.123296,153.559759 306.920414,152.001015 306.297277,151.98631 L303.978629,154.559709 C303.529391,155.059683 303.413458,156.191979 303.819222,156.471376 C304.413375,156.897825 307.25372,156.044927 306.818973,155.133209 L306.818973,155.133209 Z M245.505215,110.90016 C243.751737,109.503172 242.954702,112.164801 243.664788,115.532277 L245.505215,110.90016 Z M392.449556,150.118758 L396.869479,149.618783 C398.854822,149.398206 399.883722,148.17768 401.101013,147.912987 C404.274663,147.192435 405.897716,146.368948 407.274414,143.442626 L411.853744,138.986969 C412.752221,138.119366 412.694254,135.707724 412.491373,134.516608 C412.013152,131.943209 409.404672,131.281478 407.636703,130.046247 C402.868982,126.722886 397.260751,123.164243 391.92786,122.487807 C391.869894,121.72314 391.08735,121.737845 391.290232,122.414281 C391.130825,122.399576 390.913451,122.458397 390.797519,122.399576 L382.653266,118.752702 C382.001147,121.296691 384.058947,123.076012 384.812508,125.414129 L386.160222,129.605093 C385.290729,133.913698 384.725558,138.428174 384.653101,143.074997 C384.609626,147.14832 388.594803,150.545206 392.449556,150.118758 L392.449556,150.118758 Z M343.859381,136.884135 C346.076588,137.104712 348.916933,138.266418 351.192106,137.810559 C353.959993,136.751789 356.278641,135.501852 359.176952,134.766595 C359.945004,134.560724 360.495683,132.869633 362.205686,133.134325 C364.785182,133.546069 367.408153,131.575581 368.393579,129.428631 L365.13298,124.517116 C364.002639,122.81132 363.307044,122.120178 361.510092,121.252575 C361.626024,120.384972 360.944921,120.076164 360.205852,119.679126 L354.264315,116.443996 C351.97465,115.194059 349.786426,113.723546 347.293879,113.282392 L345.772266,113.017699 C345.960656,112.400083 345.7143,111.958929 345.380994,111.900109 L342.975396,111.547186 L338.091743,109.312005 C335.889027,108.29735 334.23699,108.165004 332.135715,107.547389 L321.426458,104.371079 C320.107727,105.415144 321.006203,107.326812 321.614848,108.23853 L324.90443,113.120635 L330.672068,120.473203 C331.469104,121.487858 331.208256,122.664268 332.961733,122.899551 L337.048351,130.060952 C338.62793,132.825517 340.642256,136.560622 343.859381,136.884135 L343.859381,136.884135 Z M402.042963,63.0937622 C401.811099,63.3584546 401.434318,63.7554933 401.101013,63.8584293 C400.709741,63.9907755 400.072112,63.2555187 399.202619,64.1084166 L403.897882,66.0494945 C404.086272,67.4611876 405.144156,69.3875604 404.926782,70.8286638 C404.216696,75.5931279 397.478125,80.1811303 396.97092,79.7840916 L395.56524,78.6959116 C394.217525,78.5929756 393.565405,80.3722971 392.884302,81.1075539 L386.725393,87.6954549 C384.232846,91.3717389 382.899623,95.7979848 384.55166,100.077179 C385.508102,102.562347 388.261497,103.253489 390.449722,104.121092 L396.159393,106.356273 L402.999406,109.106133 C405.231105,110.003146 406.781701,111.44425 408.491704,112.194212 C409.795944,112.767712 411.056709,111.738352 412.346457,113.900007 L419.171978,118.532125 C420.519693,119.429139 420.881982,120.134985 422.229696,120.958473 C424.765718,122.517217 424.88165,126.781707 426.200381,129.031592 C428.113266,132.296133 427.998689,134.840121 427.998689,138.354649 C427.998689,146.310127 425.678685,153.839157 419.200961,158.971249 C418.099603,161.676994 415.679514,163.515136 412.83917,164.456265 C411.955185,165.823843 410.477047,165.912074 409.056875,166.412048 L407.767127,168.382537 C407.491787,168.79428 406.346955,168.22078 405.535428,167.573754 C405.318054,168.853101 405.216613,169.808935 404.709409,170.235384 C404.289154,170.588307 403.013898,170.603012 402.564659,170.308909 C401.115504,169.367781 400.260503,170.558897 398.985246,170.455961 L397.101344,170.294204 C396.797022,170.264794 396.420241,170.91182 396.159393,171.823538 C395.058035,170.794179 393.768287,171.647077 392.594471,172 C391.08735,170.470666 388.623786,168.25019 386.174714,169.82364 C385.174797,168.911921 384.000981,168.309011 382.551826,168.059024 C382.377927,168.029613 382.189537,167.970793 382.001147,168.000203 C382.146062,167.603164 382.131571,167.044369 381.798265,166.897318 L381.015721,166.5591 L377.668172,163.573957 C376.726222,162.721059 376.581306,160.941738 375.523423,160.177071 L374.436556,159.397698 C374.306132,159.294762 374.074267,159.309468 373.929352,159.324173 C374.364099,155.442017 371.625195,153.986208 371.117991,150.942245 C367.277729,150.780489 365.306878,154.956747 360.973904,156.000812 C358.017627,156.721364 355.42364,159.015365 351.119649,159.897673 L345.308536,161.088789 C342.207344,161.72111 338.961236,161.427007 336.642588,164.029816 C334.005125,162.441662 331.570544,164.147457 329.672151,165.073881 C328.309945,164.765073 326.802824,164.882714 325.281211,165.265048 C323.571208,165.691497 321.093152,164.191573 319.658488,165.250343 L318.093401,166.397343 L316.339923,165.823843 C311.847542,166.794382 304.167019,165.706202 302.471507,162.912226 C301.645489,161.559353 299.051501,160.868212 298.834128,158.500685 L296.370564,160.735866 C294.906917,160.471173 293.225897,160.912327 292.081064,161.529943 L291.168096,160.618225 C291.631826,161.074084 286.661224,161.912277 284.023761,155.941991 C283.646981,155.103799 282.096385,154.633234 282.400707,152.868618 C278.473497,153.059785 276.096882,150.633437 273.242046,148.618834 L262.329907,141.001573 C260.76482,139.898688 259.677953,138.148777 257.721594,137.339994 C254.200146,135.884186 251.24387,133.722531 248.07022,131.619696 C246.57759,130.634452 244.128518,131.016786 242.722837,129.546272 C242.360548,129.163939 241.606987,129.634503 241.505547,129.88449 C241.360631,130.193298 241.331648,130.487401 241.476563,131.119722 L242.490972,135.222455 C245.113943,134.546018 244.548773,136.942956 245.418266,137.192943 C244.679197,137.266469 244.331399,137.531161 244.186484,137.839969 C244.085043,138.045841 243.693771,138.913444 243.809703,139.178136 C245.113943,142.001522 244.43284,144.986665 244.89657,147.883577 L246.171826,155.721414 C247.055811,161.103494 242.983685,162.515187 242.621396,162.971046 C241.780886,162.206379 240.563596,161.20643 240.099866,161.632879 L238.230456,163.412201 C235.288671,164.353329 232.999005,162.088738 231.810698,159.382993 C227.100944,148.707064 227.593656,142.31033 225.115601,136.016532 C224.17365,133.6343 224.796787,131.722632 224.593905,129.443336 L224.101192,123.737743 L222.999834,111.091326 L222.130341,100.65068 L221,82.960401 L221,73.990268 C221,73.1079599 221.797035,72.3579979 222.144833,71.8139079 C223.912802,71.6374463 224.564922,71.9021387 223.724412,72.2697671 C223.565005,72.3432928 223.202716,73.3285369 223.33314,73.4020626 C224.188142,73.8579218 225.188059,75.7842946 225.724246,76.5636668 C227.434249,76.8136542 227.81103,74.1961399 228.144335,72.1815363 C230.607899,75.4313714 230.260102,79.4752838 231.013663,83.2986192 L231.912139,87.8425062 C232.332394,89.9159304 232.506293,91.6511365 233.04248,93.4304579 L235.114772,100.488923 C235.274179,101.033013 237.360963,100.253641 237.476895,98.0037552 C238.969525,98.1361015 240.172324,97.1802676 240.317239,95.8862156 C240.520121,94.1068942 241.882327,93.9010223 242.766312,92.9157782 L251.301836,83.38685 C252.533618,82.0192723 255.055148,81.8281056 256.779643,81.2840155 C257.344813,81.0928488 258.721511,82.2692596 259.025833,81.4898874 L261.112617,82.7104137 C260.721345,84.0044657 260.779311,85.4308639 261.41694,86.9307878 C262.300924,87.2543008 263.039993,87.2690059 263.721096,87.2248905 C265.184743,89.1953787 264.677539,91.812893 263.054485,93.9157274 C262.880586,96.0185619 262.503806,98.0919861 260.750328,99.6066151 C262.779145,103.209373 256.084048,110.179608 254.60591,113.164751 L251.374294,119.752652 L256.562269,123.237769 C258.880918,126.193501 261.938635,127.472848 264.706522,129.85508 C268.880089,133.443133 272.329078,137.95761 277.183748,140.663355 C277.169257,141.633894 278.487988,143.060292 279.574855,143.31028 C280.386382,137.031186 278.748836,131.42853 276.922901,125.678821 L277.38663,116.282239 C277.517054,113.341212 276.604086,110.459006 277.488071,107.591504 L278.603921,105.738657 C280.56028,104.503425 281.980452,105.532785 283.704947,107.135645 C288.371227,111.488365 291.675301,117.105727 292.269454,123.678923 C292.965049,125.943514 293.312846,128.163989 295.022849,129.85508 C295.066324,134.575429 295.718444,140.369252 297.211074,144.369049 C296.196665,146.692461 297.747261,147.486538 297.616837,149.412911 C297.370481,149.26586 296.89226,149.368796 296.776327,149.648193 C296.674886,149.927591 296.921243,150.442271 297.240057,150.618732 L297.240057,151.368694 C297.240057,153.471529 298.631246,155.500837 300.44269,156.677248 C301.239725,156.353735 301.413624,155.147914 301.428116,154.324426 C301.442607,153.339182 300.674555,153.456823 299.906503,153.250951 C299.41379,151.398104 301.819387,150.662848 301.587523,147.69241 C302.529474,147.736525 302.717864,148.2365 303.268543,149.059988 C304.543799,146.57482 306.41321,145.368999 309.12313,145.339588 C309.905674,143.383805 311.586694,142.030933 313.499579,142.942651 C314.890768,142.236805 316.354414,141.927997 317.818061,142.016228 C318.774504,142.075048 319.701963,141.678009 320.527982,141.369202 C320.267134,139.972214 320.23815,138.839918 319.658488,137.737033 C318.107892,136.148878 316.96306,134.325441 317.296365,131.943209 C314.789327,130.619747 314.427038,128.031643 313.224239,126.252322 C310.369403,122.017242 309.050672,116.34106 307.644991,114.458803 C305.268377,111.253083 303.384475,108.576748 301.993286,104.694592 C301.47159,103.238784 300.022435,101.312411 299.196416,99.9154229 L295.790902,94.1804199 L295.370647,93.2098809 C295.225731,92.8863679 294.689544,93.0922398 294.588103,93.3863425 L294.356238,94.1363045 C293.892508,94.195125 293.153439,94.2245353 292.675218,94.0480736 C292.41437,92.8863679 291.139113,93.0187141 290.008772,92.5334446 C288.762499,91.9893546 288.139362,89.0924428 288.748007,87.9895576 C290.414536,84.9308893 293.602677,84.6367865 296.472005,84.2838633 C300.63108,83.7838887 304.26846,83.9603503 308.123213,85.769082 L316.586279,87.8866216 L322.064086,90.3129691 C323.962479,91.1364567 324.99138,90.9305848 326.947739,91.0776361 C333.295039,91.607021 340.164035,95.7832797 341.70014,95.3421256 C343.468109,94.8274458 343.75794,95.9597413 344.801332,96.2244338 C349.018373,97.3420241 354.670079,98.739012 357.510423,100.312462 L363.278061,103.518181 C365.002556,104.474015 366.422728,105.782772 368.364596,105.459259 C368.147223,103.797579 367.422645,102.974091 366.205355,102.003552 C367.582052,100.062474 367.596544,98.3125631 366.234338,96.2979595 C368.248663,94.6950996 367.596544,92.4599189 368.248663,90.842354 L370.813668,84.5338506 L372.23384,82.3280802 L372.291807,81.1663744 C372.69757,81.3134258 373.1613,81.1516693 373.335198,80.8722717 C373.610538,80.4311176 373.697487,80.0193738 373.755453,79.6223351 L374.117742,79.6517454 C374.639438,79.6811557 374.914777,79.0047194 374.784354,78.4312191 C374.84232,77.2695134 376.320458,76.5342566 377.276901,75.7401792 C381.682332,72.0786003 385.913866,68.7552396 391.08735,66.2259562 C394.681255,64.476045 397.912871,62.5496722 402.042963,63.0937622 L402.042963,63.0937622 Z" id="Fill-1" fill="#FFFFFF"></path>
            <path d="M597.935582,136.381807 C598.424951,135.000539 596.712158,134.425011 596.654585,135.906996 C596.323541,137.000501 597.74847,137.80624 597.935582,136.381807 L597.935582,136.381807 Z M621.569256,145.906804 L628.99616,141.475235 L637.444982,135.935773 L641.187221,133.504165 C644.497662,132.410661 647.47706,130.065382 649.189853,126.94314 C651.694274,122.382077 656.832655,120.900091 655.709984,117.20232 C654.644885,113.66282 651.780634,114.482948 649.420145,113.691596 C646.167276,112.61248 643.043947,111.806741 639.632752,112.727586 L630.579414,113.144844 L623.253263,114.295901 C618.158062,115.101641 613.178006,115.705946 608.082805,116.511686 L602.253549,117.461308 C604.542072,118.799412 603.433793,122.324524 605.851855,125.446766 L608.816859,129.27403 C610.990236,132.079732 612.228053,134.525728 613.667376,137.878182 C614.631722,140.122743 617.150536,142.309751 615.351383,145.230558 C614.761261,146.194568 613.609803,147.288072 613.465871,148.309636 C617.020997,149.043434 619.079228,147.38879 621.569256,145.906804 L621.569256,145.906804 Z M596.309147,105.346433 C598.496917,105.763691 600.425609,104.123435 602.61338,103.576683 L607.866906,102.281744 C613.307545,100.080347 618.848937,98.1523269 623.584307,94.6559913 C624.390328,94.0516864 625.42664,93.6056518 625.512999,92.6128651 C622.591175,91.5769138 620.000394,90.7423975 617.020997,91.6776313 C613.739342,89.8359401 610.227395,89.289188 606.441977,89.965434 L600.929372,89.6776698 C598.684029,89.5769523 597.057595,89.4762348 594.984971,89.5625641 L584.722602,89.9510458 C582.851483,90.0229869 580.735679,88.9438709 578.663054,90.5985154 C581.095509,92.742359 584.57867,95.9509304 585.543016,97.6775159 L588.882244,100.555158 L594.092591,106.166561 C594.409242,106.526267 595.387981,106.454326 595.719025,106.267279 C595.992496,106.09462 596.222788,105.850021 596.309147,105.346433 L596.309147,105.346433 Z M550.25083,59.4336472 C549.977358,60.7717509 551.646972,60.5559277 551.416681,59.5199764 C551.718938,58.613519 552.251488,58.2250373 552.712071,57.8941084 C552.121949,57.2754153 551.287142,57.4336856 551.05685,57.8077791 C550.840952,58.1530962 550.711413,58.6854601 550.581874,59.1458829 L550.25083,59.4336472 Z M539.110474,17.031585 C541.024773,17.2617964 540.103606,20.9451788 541.672468,20.4991442 C542.377736,20.283321 543.60116,18.7150059 544.680652,19.2042051 C546.19194,21.232943 546.623737,24.0674209 546.983568,26.6572991 L548.408497,30.441399 C548.278958,32.3406431 548.840294,33.0600537 549.329663,34.4988749 L551.387894,40.5850888 L553.100688,45.203705 C553.762776,47.031008 553.143868,48.9158638 554.208966,50.7143904 C555.936153,53.5920329 556.555062,56.6711104 556.900499,59.9947874 L559.160235,64.1817573 C559.102663,68.4262799 560.383659,72.0377213 561.995701,75.8362094 C562.48507,77.0160428 562.369924,78.3109819 563.33427,79.2749921 C564.514515,80.4692138 565.536434,79.8505206 567.004543,79.8792971 L573.265595,79.9944028 C574.129189,80.008791 574.661738,81.0735187 575.035962,81.3181183 C578.663054,82.7569396 582.563618,82.0087525 586.27707,81.6922118 L593.099458,81.1166833 L619.453452,79.332545 C623.354016,80.6562605 627.240186,80.2246142 631.342255,80.3541081 L637.272264,82.2101875 C637.200297,83.4475738 640.33802,83.9799376 641.532658,86.5410394 C643.821181,91.4330317 640.856176,96.0516479 636.725321,98.9868432 L629.154485,104.353646 L642.712902,103.188201 L646.728612,103.202589 L652.356363,103.605459 C657.106127,103.375248 660.747612,106.425549 664.763322,107.619771 C664.849681,109.144921 666.044319,109.806779 666.80716,110.900283 C672.017507,118.396542 667.21017,128.079809 660.056738,134.51134 C657.624283,136.698348 655.724377,139.791814 652.500295,141.057976 C651.118545,141.604729 650.02466,142.007599 648.830023,142.899668 L645.274896,145.590263 C644.425696,146.237733 642.626543,147.676554 641.647804,147.921154 C639.805471,148.324024 638.855518,149.144152 637.070758,150.180103 L628.074993,155.374248 C626.189481,157.172774 624.49108,157.93535 621.986659,157.705138 C621.310178,159.000077 619.957215,159.676323 618.503499,160.26624 L607.305571,164.870468 C606.024574,165.388444 605.304912,165.388444 604.153455,166.194184 C601.044518,168.366804 596.89927,168.438745 593.387323,169.517861 L587.155057,171.445881 L572.387609,174.654453 C571.27933,174.884664 569.667289,174.611288 568.487045,174.136477 C566.932577,173.517784 570.343771,172.712044 570.171052,171.258834 C570.070299,170.553812 569.149133,169.906342 568.141607,169.60419 C568.443865,168.338027 569.609716,168.294863 570.171052,167.503511 C573.251202,167.719334 575.942735,166.035913 578.922132,165.10068 C581.037936,164.438822 583.571144,164.740974 584.44913,162.467637 L592.178292,159.834594 C596.654585,158.309443 601.27481,156.856234 605.117801,154.036144 C605.779889,153.546945 607.967659,154.280744 607.607828,152.654876 C609.335015,152.151288 611.882616,151.460654 612.112908,148.626176 C607.507076,151.834748 605.218553,148.75567 600.569542,147.921154 C600.368037,147.374402 600.310464,145.964357 599.53323,145.748534 C596.798517,145.014735 595.416767,142.957221 593.545648,141.259411 C591.559383,139.475273 589.486759,138.007675 590.220813,134.856657 C585.643768,135.043704 587.21263,131.835132 584.506703,129.144537 C585.514229,127.130187 583.873402,126.036683 583.139347,124.468368 C582.088642,122.252583 581.426553,120.713044 579.843299,118.713083 C577.770674,116.051263 578.562302,110.84273 575.971521,108.339181 C575.280647,107.677324 574.978389,105.792468 573.611033,105.749303 C573.611033,105.634197 573.611033,105.389598 573.639819,105.274492 C573.438314,105.087445 573.236809,104.88601 573.10727,104.655799 C571.408869,101.677439 569.840008,98.5695851 567.263621,95.7926601 C566.94697,99.5623717 569.120347,102.022756 569.854401,105.116222 L574.489019,124.641026 C575.151108,127.389175 575.856376,129.720065 576.259386,132.425049 L577.583563,141.331353 L578.864559,148.180142 C579.613007,152.237618 580.706892,156.410199 579.296356,160.496452 C578.288831,163.417259 575.035962,164.496375 571.883846,164.237387 L565.147817,161.71945 L560.210941,162.482025 C557.807272,162.84173 555.734648,163.446035 553.33098,163.388482 C551.690152,163.330929 551.848477,165.877643 551.14321,166.510724 L547.861554,169.474696 L538.966542,175.949392 C537.152996,177.273107 534.418283,178.424164 532.072187,179.229904 L522.284795,182.582358 C519.334184,183.575144 515.519979,182.567969 512.324684,181.934888 C508.640018,181.229866 504.710668,178.193953 502.997874,174.985381 L501.026003,171.273223 C498.953378,167.374017 498.73748,162.539578 498.176144,158.108008 L497.686775,154.295132 C497.657988,153.978591 497.125439,153.90665 496.95272,154.007368 C497.211798,152.712429 496.621676,151.604536 496.564103,150.180103 L496.218666,141.0292 L495.499004,138.583204 C495.916408,136.971724 495.714903,135.302692 494.333153,134.26674 C494.030896,129.230866 493.699851,124.180603 491.771159,119.245446 L491.296183,108.367958 L489.972006,95.8646011 L487.928168,84.7281247 L485.020737,66.2680481 C484.891198,65.4335318 485.394961,64.5126862 485.797971,64.2393101 C486.114622,64.0234869 487.093361,63.9659341 487.381226,64.4839097 L490.187905,69.3902902 L495.887621,84.9295596 C496.06034,85.4187589 496.319418,85.7065231 496.880754,85.7784642 L496.90954,86.3252163 C496.981507,88.0086371 496.808788,90.2531983 498.521582,91.1021028 C498.535975,91.2172085 498.435222,91.4330317 498.392043,91.5337492 L500.407094,99.5479835 C501.026003,102.022756 501.457799,104.411199 502.033528,106.857195 C502.767583,109.979438 503.818288,112.526151 503.976614,115.792275 L505.459116,121.187855 L506.567394,128.71289 L507.200696,133.7056 C507.416594,135.432185 508.812737,136.266702 508.740771,138.338604 L508.568052,143.288149 C508.4673,145.935581 509.489218,148.741282 509.575578,151.359937 L509.733903,156.913787 C510.986114,160.064805 511.475483,162.928059 511.605022,166.395619 C511.676989,167.532287 513.764006,169.431531 514.872284,169.748072 C517.132021,169.618578 520.097025,169.330814 522.327974,168.625792 L528.574634,166.668995 C533.353184,165.172621 537.455253,162.424472 542.464095,161.748226 C540.492224,160.784216 539.13926,160.539616 537.829477,159.331006 L532.158547,154.266356 L531.841896,153.446227 C531.784323,152.769981 531.424492,152.266394 530.704831,152.093735 C529.826844,150.971455 530.013956,148.568623 529.395048,147.129802 C528.329949,144.65503 528.229196,142.683845 527.653467,140.108354 L525.52327,130.640911 C525.883101,126.669764 524.861182,122.971993 523.551399,119.302999 L523.133995,115.43257 C522.946883,113.720373 521.118944,111.677247 521.392415,109.792391 C521.968144,105.734915 520.65836,102.425626 519.694014,98.6127497 L517.981221,91.8071252 C516.800976,87.0590151 516.441146,82.4835635 514.555633,77.9225002 C514.167016,76.9872664 514.339735,75.7786565 515.045003,75.2462927 C517.549424,73.3902132 519.075106,76.0951972 520.370496,77.1599249 C520.514428,78.7138519 521.737852,79.9656263 522.184042,81.5771061 L525.480091,93.3178875 L529.654126,104.411199 L534.619788,119.950469 L536.735592,126.94314 C538.318847,133.978976 538.880182,140.986035 542.291377,147.446343 L545.011696,150.338374 C546.134367,151.532595 547.357792,152.482217 549.531168,152.3815 L568.832482,151.546983 L572.157317,152.899475 L569.523357,143.705408 L567.364373,136.856618 L566.05459,133.158848 L563.766067,124.051109 L560.441232,116.022487 C559.923076,114.770712 559.951863,114.108855 559.419313,112.511763 L557.332296,106.281667 C557.073218,103.504742 555.950546,101.763768 555.130133,99.3033839 L552.39542,91.116491 C551.819691,87.3611676 551.819691,84.0374905 549.430416,80.8433073 C547.156286,77.7930063 548.264565,71.7787335 545.83211,67.3615522 C545.256381,66.3256009 545.141235,63.9659341 544.723831,62.7573242 L542.924678,57.591956 L541.01038,49.7072155 L539.268799,40.8872413 C538.851396,38.7865623 539.038508,37.4484585 537.800691,35.5923791 C536.476514,33.621194 537.642365,30.1248584 537.196175,27.9522383 C536.275009,23.6069981 537.124209,17.506396 537.88705,17.0891379 C538.174914,16.9308675 538.765037,17.031585 539.110474,17.031585 L539.110474,17.031585 Z" id="Fill-3" fill="#FFFFFF"></path>
            <path d="M481.229993,93.5934901 C479.937031,95.8666972 479.692048,100.762836 481.556637,102.671747 C481.189163,103.546057 481.624687,104.653517 481.597467,105.556971 C481.570247,106.460425 481.95133,107.830178 481.638297,108.79192 L479.229304,116.106984 C478.331035,114.41665 477.7458,113.163472 476.167024,113.119757 C475.908432,114.168929 476.262295,114.824662 476.439227,115.946694 C475.404857,115.6844 474.288826,115.436679 473.444998,114.912093 L468.123436,103.079758 L465.809714,94.3220821 L464.775344,89.9505299 L463.618482,85.1272507 L457.684465,72.0125942 C456.935908,70.3514043 457.16728,68.369634 455.874317,67.0727402 L454.976049,70.3368325 L454.377203,79.5608076 L453.560595,88.0853343 C453.138681,92.5151739 452.621496,96.6827203 453.233952,101.141704 C453.329223,101.841152 454.213881,102.628031 453.791967,103.779207 C453.274782,105.178103 454.404423,107.145302 454.281932,108.39848 C453.860018,112.697173 455.302692,116.136128 455.942368,120.041381 C456.609264,124.077781 457.289771,127.487591 458.759665,131.27627 C460.025408,134.52579 459.453782,138.533047 461.413641,141.593133 L463.890685,148.879053 L466.40856,153.527471 C467.633471,155.800678 469.144196,158.321606 471.144886,159.866221 L475.976482,163.567469 C476.561718,164.033768 477.432767,164.398064 478.031612,164.13577 C478.467137,163.931765 478.943491,163.159457 478.943491,162.328862 L478.943491,157.79702 L478.725729,153.119459 C478.684899,152.288864 478.684899,151.560272 477.881901,151.268835 C478.589628,149.869939 476.343956,146.620418 477.732189,145.090375 C479.88259,142.715165 482.482126,148.310752 483.366784,153.36718 L485,162.605727 C484.673357,162.591155 484.360324,162.970023 484.401154,163.523753 C484.686967,167.195857 482.550176,169.804216 479.283745,171.275972 C474.384097,173.490892 468.422859,170.314231 464.162888,165.942679 L461.454471,163.159457 L458.991038,159.589356 L455.07132,152.88631 L450.525535,142.83174 C449.150912,139.800797 448.94676,137.046719 448.388745,133.942917 L445.81643,119.589654 C445.040652,115.349248 444.958991,111.779147 445.013432,107.495026 L445.108703,98.1107607 L445.149533,92.32574 L445.571447,89.1053632 C447.231883,88.6390643 446.932461,87.4878889 447.095782,86.0452767 L448.851489,71.4442924 L450.634416,61.6665873 L452.03626,58.4316387 C453.002579,56.2021471 453.655866,53.6812187 456.16013,52.8069082 C457.439482,52.3551812 458.732445,52.5008996 460.079848,51 C461.604183,53.1566324 464.285379,53.0837732 466.136357,54.1183739 L469.783872,59.3642365 L472.955033,65.9507085 L476.425617,75.043537 L477.80024,79.5025202 L479.120423,85.2875409 L480.250064,91.1745646 C480.318115,91.5388606 481.638297,91.5825761 481.679128,91.9468721 C481.706348,92.3403118 481.379705,93.141763 481.229993,93.5934901" id="Fill-5" fill="#FFFFFF"></path>
            <path d="M274.354722,23.2510889 C274.579306,23.5480299 274.80389,23.6045901 275.098656,23.6611502 L275.351313,24.5236931 C274.719671,26.6305602 277.723478,31.1695155 277.83577,36.8538146 C277.919989,40.7988879 280.250045,44.1642192 280.86765,47.9113318 C281.246635,50.1313192 281.358927,52.1109259 281.681766,54.3309134 L282.959086,63.2108632 C283.281925,65.4308507 282.916976,66.8872756 283.6188,69.0082827 C284.755755,72.4160342 282.987159,76.4742278 282.987159,79.9809596 C282.987159,84.6754554 283.267888,90.8405161 281.036088,91.717199 C280.713249,91.4626782 280.207935,91.6040787 279.800877,92 L279.407856,91.9434398 C278.07439,91.7596192 277.751551,91.1374571 277.246238,90.1476538 C273.189694,82.2009471 270.564872,73.6179382 270.438544,64.639008 L270.396435,61.5988978 L269.764793,56.5084807 C269.21737,52.0826458 270.185887,47.4164301 268.74013,43.1602758 C267.855831,40.5726471 268.712057,38.3950798 268.417291,35.6801907 L267.518956,27.4365429 C267.406664,26.4184595 266.522366,25.4145161 267.350518,24.3964327 C270.115705,21.0028213 270.873675,25.1034351 274.354722,23.2510889" id="Fill-7" fill="#FFFFFF"></path>
            <path d="M301.934423,156.941777 C302.517423,157.084777 303.100423,156.996777 303.089423,157.733777 C303.078423,158.360777 302.946423,159.262777 302.341423,159.504777 C300.966423,158.613777 299.910423,157.106777 299.910423,155.522777 C300.955423,155.302777 301.307423,156.457777 301.934423,156.941777" id="Fill-9" fill="#FFFFFF"></path>
            <path d="M265.550235,88.1840604 C265.033235,88.2060604 264.472235,88.2060604 263.801235,87.9530604 C263.306235,86.8420604 263.273235,85.7750604 263.570235,84.8070604 C264.934235,85.4780604 265.891235,86.6440604 265.550235,88.1840604" id="Fill-11" fill="#FFFFFF"></path>
            <path d="M486.023272,179.964 C485.242272,179.414 485.539272,178.303 485.363272,177.423 C485.143272,176.356 484.736272,175.817 485.165272,175.036 C485.814272,175.256 485.814272,175.795 485.847272,176.433 L486.023272,179.964 Z" id="Fill-13" fill="#FFFFFF"></path>
            <path d="M503.1215,88.3315 C501.8125,87.6825 501.9445,85.9555 501.8785,84.6685 C502.6815,85.6475 502.9565,87.0665 503.1215,88.3315" id="Fill-15" fill="#FFFFFF"></path>
            <path d="M496.873423,136.15 C495.685423,135.545 496.048423,133.983 495.982423,132.85 C497.038423,133.642 497.192423,134.918 496.873423,136.15" id="Fill-17" fill="#FFFFFF"></path>
            <path d="M497.005478,168.083717 C496.092478,167.445717 495.850478,166.015717 496.070478,164.948717 C496.202478,164.871717 496.609478,164.926717 496.642478,165.168717 L497.005478,168.083717 Z" id="Fill-19" fill="#FFFFFF"></path>
            <path d="M372.9445,84.050317 C372.9555,83.764317 373.0105,83.412317 373.2085,83.192317 C373.4175,82.983317 373.7695,82.884317 374.0555,82.906317 C374.0115,83.203317 373.9455,83.511317 373.7365,83.841317 C373.6045,84.039317 373.2525,84.171317 372.9445,84.050317" id="Fill-21" fill="#FFFFFF"></path>
            <path d="M384.870963,170.031281 C384.584963,170.064281 384.177963,169.910281 384.100963,169.668281 C384.023963,169.437281 384.100963,169.140281 384.122963,168.964281 L384.716963,169.217281 C384.969963,169.316281 384.969963,169.734281 384.870963,170.031281" id="Fill-23" fill="#FFFFFF"></path>
            <path d="M531.954784,146.992927 C531.624784,147.113927 531.206784,147.003927 531.074784,146.695927 C530.997784,146.519927 531.096784,146.101927 531.085784,145.958927 C531.624784,146.090927 531.910784,146.475927 531.954784,146.992927" id="Fill-25" fill="#FFFFFF"></path>
            <path d="M298.486922,149.9678 C298.244922,149.8248 298.046922,149.4398 298.134922,149.2418 C298.222922,149.0218 298.585922,148.9448 298.761922,149.0658 C298.750922,149.2418 298.970922,149.4398 298.849922,149.7368 C298.761922,149.9238 298.739922,150.0448 298.486922,149.9678" id="Fill-27" fill="#FFFFFF"></path>
            <path d="M378.915602,160.781649 C378.497602,160.869649 378.024602,160.660649 378.090602,160.198649 L378.915602,160.781649 Z" id="Fill-29" fill="#FFFFFF"></path>
            <path d="M278.984,91.4345292 C278.72,91.5335292 278.412,91.7095292 278.016,91.6545292 C278.335,91.3465292 278.731,91.2365292 278.984,91.4345292" id="Fill-31" fill="#FFFFFF"></path>
            <path d="M496.8795,83.8245 C496.4505,83.7695 496.2525,83.5495 496.1205,83.1755 C496.2415,83.1975 496.4725,83.2085 496.6815,83.3185 C496.8025,83.3955 496.8685,83.6375 496.8795,83.8245" id="Fill-33" fill="#FFFFFF"></path>
            <path d="M378.232449,83.9561461 L378.738449,83.0431461 C378.848449,83.4831461 378.639449,83.9781461 378.232449,83.9561461" id="Fill-35" fill="#FFFFFF"></path>
            <path d="M272.585794,22.8355 L272.387794,22.1645 C272.563794,22.1975 272.662794,22.5715 272.585794,22.8355" id="Fill-37" fill="#FFFFFF"></path>
            <path d="M360.892822,120.481 L352.543822,116.51 C351.410822,115.971 350.035822,115.839 350.101822,114.519 C351.993822,114.849 353.643822,115.96 355.392822,116.895 L359.891822,119.304 C360.452822,119.612 360.969822,119.832 360.892822,120.481" id="Fill-39" fill="#FFFFFF"></path>
            <path d="M308.715958,158.13421 C309.045958,158.81621 306.889958,159.45421 306.438958,159.13521 C306.130958,158.92621 306.218958,158.07921 306.559958,157.70521 L308.319958,155.78021 C308.792958,155.79121 308.946958,156.95721 308.330958,157.30921 L308.715958,158.13421 Z" id="Fill-41" fill="#FFFFFF"></path>
            <path d="M247.296658,109.907541 L245.899658,113.372541 C245.360658,110.853541 245.965658,108.873541 247.296658,109.907541" id="Fill-43" fill="#FFFFFF"></path>
            <path d="M393.754714,126.720818 L393.270714,126.654818 C393.116714,126.148818 393.710714,126.137818 393.754714,126.720818" id="Fill-45" fill="#FFFFFF"></path>
            <path d="M550.994,54.6683058 C551.082,54.3273058 551.192,53.9203058 551.357,53.6453058 C551.533,53.3593058 552.171,53.2493058 552.622,53.7113058 C552.27,53.9643058 551.863,54.2613058 551.621,54.9543058 C551.797,55.7463058 550.521,55.9113058 550.73,54.8883058 C550.741,54.8883058 550.653,54.7123058 550.378,54.4373058 C550.576,54.8113058 550.961,54.4923058 550.631,54.2283058 L550.994,54.6683058 Z" id="Fill-47" fill="#FFFFFF"></path>
            <path d="M600.974924,132.722458 C600.831924,133.811458 599.742924,133.195458 599.995924,132.359458 C600.039924,131.226458 601.348924,131.666458 600.974924,132.722458" id="Fill-49" fill="#FFFFFF"></path>
            <path d="M153.627667,128.154595 C153.405195,128.126052 153.271712,128.397216 153.345869,128.582749 C153.390364,128.654108 153.479352,128.725467 153.612835,128.711195 L153.612835,129.282067 C153.360701,129.467601 153.375532,129.881483 153.642498,130.038472 L153.627667,130.33818 C152.975083,130.752062 153.479352,131.836719 153.345869,132.379047 C153.034409,133.577878 153.227218,134.291468 153.242049,135.347581 C153.256881,136.175345 153.019578,136.888935 153.242049,137.816601 L152.886095,140.599602 C153.138229,141.570084 152.826769,142.055325 152.797106,142.854545 L152.722949,145.623274 L152.470815,153.915187 L152.678455,157.054982 C152.752612,158.239542 152.693286,159.138665 152.708118,160.337496 L152.722949,165.06146 C152.722949,166.403009 152.337332,167.658927 152.559803,169.043291 C152.752612,170.213578 152.381826,171.241148 151.358457,171.940466 C151.150817,171.712117 150.780031,171.398138 150.542728,171.455225 C149.415539,171.783476 147.887902,172.325804 146.701387,171.740661 C146.033972,171.412409 145.974647,171.754932 145.500041,171.797748 C143.749931,171.997553 142.48926,170.185035 142.355777,168.529507 L142.103642,165.575245 L142.133305,162.135742 L142.148137,154.742951 C142.162968,153.030336 142.148137,151.389079 142.281619,149.80491 L142.682068,144.909684 C142.785888,143.653766 142.637574,142.683284 142.711731,141.427366 L142.949034,137.987863 C143.097348,135.732919 143.438471,133.463704 143.038023,131.237303 C142.637574,129.06799 143.260494,127.041395 143.097348,126.142272 C142.860045,124.872082 143.230831,122.460149 143.453303,120.604815 L144.194874,114.168235 L144.402515,110.714461 L144.224537,106.447193 C144.194874,105.619429 144.076223,104.891568 144.04656,104.078075 L143.957572,101.152357 L143.067685,97.0706235 C143.156674,95.8147054 142.622742,94.8442233 142.444765,93.6882078 L141.999822,90.8909357 L141.124768,86.7806585 L140.338702,84.6113455 C139.997579,82.8701863 139.686119,81.4287349 138.914884,79.8017502 C138.425447,78.7884526 138.707244,77.3898166 138.084324,76.2908883 L137.832189,74.5069138 L136.823652,71.1387699 C136.349046,69.5831442 135.637137,68.1131492 135.399834,66.4861644 C135.207025,65.2159746 134.509948,64.1884052 134.020511,63.1037487 C133.605231,62.176082 133.308602,61.6908409 132.374222,61.1342409 L125.789065,57.1666816 L122.110869,54.5977583 C121.265477,53.9983428 117.320316,53.6986351 115.006612,53.5416453 L111.758528,53.3275684 C109.60797,53.4417428 107.620558,53.8984402 105.395843,53.7557223 C103.764385,53.6415479 102.05877,53.6130043 100.456975,54.05543 L94.3760875,55.7680455 C93.1154156,56.1248404 91.9733952,56.4673635 90.772049,56.8384302 C88.7846369,57.4378457 87.0938534,58.3512406 85.2844185,59.1932766 C83.9495894,59.8069638 82.9707147,60.6489998 81.7545372,61.4339486 C79.870945,62.6470513 77.7055557,63.6318052 76.3558952,65.4728669 C75.9999407,65.9438362 75.6588178,66.37199 75.2732005,66.8572311 L73.8642142,68.612662 L72.6035423,70.6392571 C71.2687133,72.2234264 70.4084901,73.8075958 69.5186041,75.6343857 L66.9675974,80.8721349 L66.0925428,83.45533 C65.3658025,85.624643 64.6242308,88.6502638 64.2831078,89.4922997 L62.8741216,93.0174334 L62.0880556,97.3417876 C61.7617641,99.1400339 60.9460352,101.09527 61.0201924,101.780316 C61.1240124,102.793614 60.3082835,107.332045 60.0413177,109.929512 L59.7891833,112.312902 L59.5963747,115.024543 L59.744689,118.135794 C59.5667118,120.990154 59.8930034,123.65898 60.6939008,126.356349 L60.8422152,127.840616 C61.6876069,129.396242 61.657944,130.937596 61.6727755,132.664483 L62.0435613,133.349529 L61.7024383,133.934673 C62.1177185,134.505545 61.999067,135.26195 62.0138984,135.904181 L62.0880556,139.586304 C62.1177185,140.528243 62.0732242,141.370279 62.102887,142.297945 L62.23637,145.980069 L63.0817617,150.689761 C63.1707503,151.189274 63.3635589,151.703059 63.467379,152.03131 C63.2152446,153.429946 63.2004132,154.785767 63.4822104,156.070229 C63.7046819,157.126341 62.8592902,157.725757 62.7258073,158.282357 C62.5478301,158.953131 63.7640077,160.080603 62.4291786,160.908367 C62.5626615,161.208075 62.785133,161.821762 62.6961444,162.107198 C62.0287299,163.705639 61.8359212,166.231747 60.9608666,167.088055 L59.3294089,168.700768 C58.9437916,168.700768 58.7064887,168.672224 58.3060399,168.500963 C57.8017712,169.100378 57.045368,168.929117 56.4521107,169.11465 L54.4943614,169.699794 C53.9307669,169.871055 53.5006553,169.942414 53.0705437,169.342999 C52.9370608,169.557076 52.7145893,169.742609 52.6552636,169.699794 L52.1213319,169.371543 C50.5343685,169.67125 48.5766192,169.157466 47.6867332,167.84446 C47.1528015,168.415332 46.7226899,167.459122 46.3370727,167.344947 C46.4705556,166.745532 45.9366239,166.659901 45.7734782,166.374465 C45.1208951,165.21845 44.8835921,164.019619 43.9343803,163.07768 C44.3199976,162.792245 44.5424691,162.449721 44.4534805,162.321275 L44.0233689,161.607685 C44.0975261,161.150988 44.3348291,160.680019 44.0085375,160.408855 C43.7415717,160.194778 43.4152802,160.066331 43,160.023516 L43.9640432,153.915187 L43.0148314,153.358587 C44.4238177,150.960926 42.8071914,149.319669 44.0530318,147.407248 C43.8157289,146.993366 43.9788746,146.650843 44.0382004,146.022884 L44.3941548,142.426391 L44.3496605,137.402719 C44.3496605,136.246704 44.6166263,135.176319 44.5276377,134.077391 C44.7501092,133.934673 44.9429179,133.563606 45.0022436,133.149724 L45.2988723,130.609344 C45.4026923,129.653134 44.8984236,128.811098 45.6251638,127.897703 C45.4471866,126.513339 45.7586467,125.200334 46.5447127,124.087133 C45.7883096,123.159467 46.2480841,122.602867 46.7078585,121.83219 C47.167633,121.090056 47.375273,119.934041 47.6570703,119.13482 L48.4134734,117.036866 C48.5321249,115.652502 48.5172935,114.567845 49.0957194,113.240568 L49.4516738,109.886696 C50.2822341,107.774471 50.2229084,105.876322 50.2674027,103.735552 L51.2462773,98.854598 C51.3797602,98.15528 51.2611088,97.3988748 51.4242545,96.8280029 L52.3438034,93.3742283 C52.5811064,90.6340434 53.3671724,88.2791971 54.3163842,85.7102738 C54.6426757,84.8396942 54.6130129,83.9120274 55.0579559,82.9700889 C55.9626734,80.9863092 56.3186278,78.5030167 57.7127826,75.4488524 C58.8251401,73.0369188 62.3550214,66.6003388 63.3190646,65.672672 C63.8826591,65.1303438 63.9864792,64.3882104 64.4907479,63.8601539 L66.2408571,61.9334615 C67.2345632,60.0353126 68.7622009,58.8935689 70.541973,57.7375534 C71.4318591,57.1524098 72.0251164,56.224743 73.2561254,55.8536763 L74.8579203,54.6120301 C75.8516264,54.4550403 76.1185922,53.7985377 76.7860067,53.4845582 L84.6614982,49.9166091 C85.9221701,49.3457373 87.4646393,49.1316603 88.7698055,48.7891372 L92.4331697,47.8471987 C93.4565386,47.5903064 94.3612561,47.5760346 95.2956364,47.1478807 C96.9419256,46.4057473 100.19001,46.5199217 102.993151,46.3629319 L105.647977,46.2202139 C108.213815,46.077496 112.5001,45.7777883 113.909086,46.2773011 C115.39223,46.8053576 116.875373,46.4913781 118.343685,46.6198242 C122.199858,46.9908909 126.204345,49.0460296 129.378272,51.0726246 C130.713101,51.9289324 131.721638,53.1277633 133.382759,53.6130043 L134.183656,54.3694095 L138.469941,56.6386251 L140.679825,58.2085227 C141.317576,58.6509483 141.525216,59.4501689 142.474428,59.7070613 C142.874877,60.8488049 143.512629,61.7764717 144.610155,62.4187025 C144.906783,64.1170463 146.063635,65.3301489 146.553072,66.8572311 L148.125204,71.766729 C148.362507,72.4945906 148.718462,72.8799291 148.955765,73.6934214 L149.949471,76.9188474 L151.195311,80.7436887 C151.892389,82.9415453 152.470815,84.9538686 153.049241,87.2088123 L153.583172,89.3210382 C154.131935,91.4475358 154.443395,93.3885001 154.606541,95.5863567 L154.814181,98.5120749 C154.992158,101.152357 155.095978,103.578562 154.873507,106.204573 L154.562047,109.672619 L154.636204,112.598338 L154.38407,115.552599 C154.250587,117.093953 154.17643,118.478318 154.042947,120.062487 L153.583172,126.085185 C153.523846,126.870134 153.627667,127.512365 153.627667,128.154595 L153.627667,128.154595 Z" id="Fill-51" fill="#FFFFFF"></path>
            <path d="M126.817057,28.4872689 L126.817057,28.8610781 C126.817057,28.9904736 127.107069,29.0911145 127.107069,28.7891917 L127.368079,28.6885508 C127.339078,29.1486236 127.614589,29.4361692 128.122108,29.5799419 C129.456161,29.9537511 130.239191,31.0464242 131.239731,31.8084199 C132.298272,32.6135474 133.226308,33.3611658 134.125344,34.3244433 L136.488936,36.7829577 C137.634481,37.9906489 138.867029,39.4427539 139.89657,39.9603358 C140.882608,40.4491633 141.361127,41.4987045 142.492171,42.5770002 C144.116235,44.0866143 145.145775,45.8118875 146.363823,47.5659153 C147.494868,49.2049249 148.538908,50.7432935 149.524947,52.4685667 L151.468023,55.9047359 C153.106587,58.7801913 154.45514,61.5118739 155.296173,64.6892521 L156.23871,67.2340301 C156.688228,69.1749625 157.427757,70.9433675 157.732269,72.941809 L158.210787,74.3507821 C158.921315,76.4067327 159.55934,78.3620424 159.472337,80.576143 C159.414335,82.0713798 160.06686,83.4947302 160.559879,84.731176 C160.545379,86.3126765 160.675884,87.6928951 160.748387,89.403791 L160.864391,92.04921 C160.922394,93.0268648 161.023898,93.7601059 160.994896,94.7808926 L160.849891,98.9359256 C160.82089,100.114862 160.965895,101.063763 160.965895,102.199567 L160.965895,104.658082 L160.545379,107.821083 C160.617882,111.343516 160.429374,114.693421 160.023358,118.215854 L159.950856,121.6664 C159.921854,122.787828 159.776849,123.650465 159.675345,124.786269 L159.472337,127.00037 C159.312831,128.653757 159.182325,130.048353 159.109823,131.64423 L158.993818,134.174631 C158.935816,135.296059 159.254828,137.639555 158.718307,138.645964 L158.573302,140.917574 L158.239789,143.706766 C157.369754,145.647698 157.558262,147.473612 157.181247,149.443299 C156.775231,151.513627 156.296712,153.440182 156.006701,155.568019 L155.542683,159.018566 C155.397677,160.068107 155.310674,160.930743 155.22367,161.965907 L154.745152,167.472404 L154.339136,173.769652 L153.94762,177.73778 L153.773614,181.777795 C153.715611,183.057373 153.498103,184.4951 153.904119,185.674037 L154.556644,187.586215 C154.339136,188.937679 154.45514,190.720461 153.17909,191.669361 C152.236553,192.359471 150.539987,191.813134 149.568449,191.439325 C149.220435,190.835479 148.408403,190.231634 148.234396,189.455261 C147.958886,188.305079 146.827841,185.731546 146.175316,185.257096 C145.928806,185.084569 145.928806,184.595741 145.885304,184.365705 C146.117314,184.480723 146.378324,184.437591 146.479828,184.265064 C146.552331,184.164423 146.668335,183.934386 146.682836,183.733105 L147.001848,179.879994 C147.190356,177.450235 147.233857,175.135493 147.55287,172.691356 C147.799379,170.779178 147.56737,168.852623 148.045889,167.12735 C148.277898,167.069841 148.654913,167.386141 148.84342,167.616177 C149.84396,166.911691 150.220974,165.876527 150.017966,164.69759 C149.800458,163.302994 150.177473,162.037794 150.177473,160.671952 L150.162972,155.927451 C150.148471,154.705383 150.206474,153.813991 150.133971,152.6063 L149.930963,149.457677 L150.177473,141.090101 L150.249975,138.315287 C150.278977,137.510159 150.597989,137.006955 150.336979,136.043677 L150.684993,133.240108 C150.467484,132.305585 150.699493,131.586721 150.684993,130.738462 C150.670492,129.688921 150.481985,128.95568 150.786496,127.747988 C150.931502,127.201652 150.423982,126.123356 151.076508,125.692038 C151.047507,125.792679 150.960503,125.993961 151.178012,126.20962 C151.250515,126.223997 151.410021,126.022715 151.366519,125.821433 C151.308517,125.591397 151.308517,125.548265 151.076508,125.404492 C150.815498,125.246342 150.815498,124.815024 151.047507,124.642497 C151.352019,124.915665 151.743534,124.872533 151.729033,124.541856 L151.656531,123.736728 L151.990044,120.4012 L152.903579,115.282889 C153.208091,113.600748 153.382098,112.148643 153.4401,110.42337 L153.614107,103.809822 L153.860617,100.373653 C154.382637,97.8863844 154.078125,95.8160565 153.860617,93.3144103 L153.541604,89.3750365 L153.295095,85.3493989 C153.17909,83.3509575 151.975543,80.7486703 151.917541,78.1751378 C151.859539,75.4722097 150.713994,73.2006 150.017966,70.6845765 C149.524947,68.9161715 149.176933,67.2196528 148.56791,65.4512477 L147.233857,61.4831193 C146.566831,59.4990551 145.52279,57.8888001 144.522251,56.0772632 C142.390668,52.2097757 140.40409,48.2704019 137.329969,45.0211373 C135.488397,43.0802049 133.603323,41.3117999 131.645747,39.399622 L129.514163,37.3005396 C128.064106,35.8771892 126.585048,34.8995344 124.859481,33.8643705 L122.002869,32.1822291 C120.320803,31.190197 118.653237,30.571974 116.797165,30.0975239 L113.143022,29.1486236 C107.647306,27.2652004 104.239673,27.1214276 98.5554499,27.2652004 C96.235359,27.3227095 94.1472772,27.1501822 91.7981851,27.3658413 L89.1300806,27.610255 C86.9549954,27.8115369 85.0989227,28.0847051 83.0108408,28.5304007 L78.8056761,29.4217919 C77.4136215,29.7237147 76.0795692,29.9249966 74.745517,30.5432195 L67.0747164,34.1087842 C65.6246596,34.7845162 64.6096198,35.8628119 63.3770715,36.8979759 C58.9398977,40.6073133 55.706271,45.3805692 53.154171,50.5420116 C52.0086261,52.8136214 51.3125988,54.9270811 50.5585693,57.3424636 L48.484988,64.1429156 C48.049971,65.5518887 47.7309585,66.658939 47.4554477,68.1829304 L46.9914295,70.6701993 L45.9908903,77.8875922 L44.859846,85.8238491 L44.6133363,91.531628 C44.5263329,93.3000331 44.1638187,95.0396836 44.3813272,96.8655977 C44.7148403,99.6116576 44.5843352,102.18519 44.5263329,104.945627 L44.2943238,119.251018 C44.2653227,120.846896 43.8303056,122.342132 43.9608107,123.93801 L44.3958278,129.473262 C44.4828312,130.580312 44.221821,131.658608 44.221821,132.823167 L44.2653227,137.883969 L43.917309,141.507042 C43.8593068,142.139643 43.6998005,142.47032 43.9318096,142.901638 C42.7282624,144.813816 44.2943238,146.48158 42.9167698,148.882585 L43.8448062,149.443299 L42.9022693,155.596774 C42.2787448,156.732579 39.8281488,156.200619 39.0596187,155.539265 C38.2475869,153.483314 39.8716505,151.427363 38.7551068,148.968849 C38.0155778,147.32984 38.813109,146.064639 38.7696073,144.468761 L38.6536028,138.760983 C38.6246016,137.050087 37.7835687,135.23855 38.1025812,133.556408 C38.2620874,132.679394 38.5665994,132.219322 38.2910886,131.16978 C37.6240624,128.538739 38.3345903,126.784711 38.175084,124.88691 C38.0735801,123.607333 38.3055891,122.399641 38.3925926,121.148818 L38.6101011,118.12959 C38.7551068,116.303676 38.9001124,114.262103 38.5375982,112.464943 C38.2185857,110.869065 38.3055891,109.646997 38.3635914,108.007987 L38.5520988,102.012663 L38.5810999,98.3177027 L38.7841079,88.8430772 C38.8276096,87.117804 38.7841079,85.5219263 38.9001124,83.8541621 L39.2336255,79.48347 L39.2191249,73.9913502 C39.9441533,72.0935497 39.9296528,70.0663536 40.1181602,69.045567 L41.2347039,63.2659017 L41.7712249,61.0661783 L44.555334,50.9733299 L46.7159187,45.9556603 C48.2094772,42.5051139 50.2395568,39.4858857 52.4581437,36.4666576 C53.6181891,34.8851571 54.6042278,33.3899203 56.2282914,32.1822291 C56.9243187,31.6646471 57.417338,30.9026514 57.9393585,30.413824 C59.2444096,29.1917555 61.2164869,29.4217919 62.956555,29.2492646 C64.1020999,29.1342464 65.0591374,28.8323235 66.2191829,28.7029281 L72.1499153,28.0703279 C73.3244613,27.9409324 74.542509,28.3147416 75.6880539,27.6677641 C76.1665727,27.6965187 77.0511073,28.1997234 77.4716238,27.9696869 C78.8926795,27.2076913 82.9818397,27.0351639 85.5629408,26.7619957 C86.4619761,26.6613547 87.0419988,26.3881865 88.042538,26.5032047 C88.9415732,26.6038456 91.9576914,26.4600729 92.2187016,26.3881865 C93.045234,26.15815 93.4802511,26.258791 94.3937869,26.2156592 L98.8744624,26 L105.776733,26.2012819 C106.371256,26.2300364 107.154287,26.2012819 107.632806,26.1150182 C109.691886,26.9632776 111.721966,26.9057684 113.88255,27.1358049 C115.883629,27.351464 118.131217,27.9840642 120.190298,27.351464 C120.871824,27.2508231 122.04637,27.8259142 122.887403,27.5671232 C123.090411,27.5096141 123.56893,28.1853461 123.728436,28.0990824 L124.380962,27.8115369 L126.817057,28.4872689 Z" id="Fill-53" fill="#FF008A"></path>
            <path d="M125.543455,32.5444096 L125.265049,32.658977 C125.250396,32.5116761 125.089213,32.3480084 124.986642,32.3152748 L122.510287,31.5460368 L121.865556,31.8733721 C121.704373,31.9715727 121.220824,31.2023346 121.015682,31.2678017 C120.165809,31.5787703 118.978917,30.9077328 118.290227,31.0223002 C116.209503,31.742438 113.923637,31.0223002 111.916177,30.7931654 C109.732882,30.5149304 107.666811,30.5803975 105.60074,29.6147582 C105.102538,29.7129588 104.311277,29.7456923 103.725158,29.7293255 L96.7356829,29.483824 L92.2079099,29.7293255 C91.2994247,29.7784258 90.859835,29.6638585 90.0099618,29.9257267 C89.760861,30.0239274 86.7130397,30.1712283 85.8045545,30.0566609 C84.7934984,29.9420935 84.2073789,30.2530621 83.2988937,30.3512627 C80.676009,30.6622313 76.5438667,30.8586325 75.1225269,31.7260712 C74.6829373,31.9879395 73.8037581,31.4151026 73.3202095,31.3823691 C72.1626236,32.1352404 70.9171197,31.7097044 69.7302277,31.8406386 L63.737156,32.5771431 C62.564917,32.7080773 61.5978199,33.0517794 60.4548869,33.1827135 C58.6965284,33.3791148 56.7037222,33.1172465 55.3849534,34.5084217 C53.7584718,34.0828858 52.2345611,34.5247885 50.6080796,34.8521239 L46.4905902,35.686829 L42.5782427,35.686829 C40.1458468,36.3414997 37.9332458,36.8652363 35.4861969,36.9143366 L31.2807897,37.8636091 L28.1010915,38.5346466 C26.4453039,38.6001137 25.185147,38.7801481 23.6319304,39.4511856 L21.3021055,39.8112545 C19.3092992,40.5313923 18.2982431,39.0747499 17.5216348,37.4053396 C17.1260042,36.5379009 16.9941273,36.2923994 17.0234332,35.2612931 C17.1113512,32.937212 16.4373138,29.90936 18.8550566,29.0582881 L21.771001,28.0435485 L25.3902889,27.2743104 L28.3208863,26.9306082 C29.3465954,26.8160409 29.9913268,26.6032729 30.899812,26.4396052 L34.1967341,25.8504016 L39.1787497,25.2284644 C40.1165408,25.113897 41.3034328,24.0827906 42.255877,24.2791919 C43.6039518,24.5574269 44.7468848,24.2628251 46.0656536,24.2791919 C47.9851949,24.2791919 49.7142474,23.9682233 51.6191357,23.6736214 C55.4728713,23.1007846 59.5464017,23.0516843 63.0484656,22.1187785 C64.6749472,21.6932425 66.4479586,21.7423428 68.1183991,21.4804746 L72.2212355,20.8258039 C74.3459186,20.4821017 76.3240719,20.5148353 78.478061,19.8765313 L81.1888636,19.5982963 C82.5369384,19.4509954 83.6945244,19.12366 85.0279462,18.632657 L87.2552002,18.7472243 L94.4937758,18.5344564 C96.6624179,18.4689893 98.6552242,18.4526225 100.823866,18.4853561 L110.509491,18.5835567 C111.256793,18.5835567 111.93083,18.2889548 112.560909,18.2398545 C114.231349,18.1252872 115.740607,17.7652183 117.440354,17.50335 L120.12185,17.077814 C120.283033,17.0450805 120.532134,17.1105476 120.664011,17.0941808 L120.971723,17.077814 C121.382007,16.5213439 122.070697,17.012347 122.539593,16.9959802 L125.206437,16.8814128 C126.759653,16.5377107 128.16634,16.6031778 129.719557,16.586811 C131.00902,16.586811 132.151953,16.3904098 133.485374,16.6195445 C135.741934,16.9796134 137.060703,15.5229711 137.529599,16.2594756 C137.866618,16.799579 138.408778,15.948507 138.716491,16.0139741 C139.507752,16.161275 142.277167,15.6539052 144.123443,15.3756702 L147.288488,14.9010339 C148.665869,15.179269 149.823455,14.9010339 151.068959,14.3772973 C151.669731,15.1301687 152.490299,15.1629022 153.076418,14.4427644 L158.981572,14.1808961 C160.256382,14.1154291 161.501886,13.9190278 162.791349,14.2954635 C162.99649,14.3609306 163.538651,13.8699275 163.685181,14.0335952 C163.773099,14.1645294 164.139423,14.6882659 164.300606,14.6391656 C167.333775,14.1154291 175.026593,15.1956357 175.891119,16.8486793 C176.125567,17.3069488 176.770298,17.290582 177.165929,17.2578485 C180.023261,21.2677066 185.093195,22.9534837 183.276224,28.8782536 C183.583937,29.1073884 183.789079,29.1892222 183.994221,29.483824 C183.188307,32.5607764 185.371602,33.7064501 182.265168,36.4233336 C180.389586,38.0600103 179.612978,37.8472424 177.283153,36.8488695 L174.528391,35.6704622 C170.542779,33.9683184 168.037118,35.1303589 165.531457,34.8357571 L160.241729,34.2138199 C159.406509,34.1156193 159.172061,33.7719172 158.248923,34.1647196 C156.329381,34.9666912 152.44634,33.9683184 150.614716,34.2301867 C148.783093,34.492055 145.896454,33.7882839 143.801077,33.9192181 C141.617782,34.0337855 139.654282,33.6900833 137.514946,33.5918827 C136.152218,33.5264157 134.848102,34.0501522 133.397456,33.5100489 C132.181259,33.0681462 129.646292,33.14998 127.87328,32.9208453 C127.301814,32.0370398 126.290758,32.233441 125.543455,32.5444096" id="Fill-55" fill="#FFFFFF"></path>
            <g id="Group-59">
                <mask id="mask-3" fill="white">
                    <use xlink:href="#path-2"></use>
                </mask>
                <g id="Clip-58"></g>
                <path d="M158.95417,12.7809216 C158.968627,12.6678661 158.925256,12.4558871 158.751773,12.3428316 C157.754243,13.0494283 156.612144,12.7385258 155.470045,12.6113384 C153.807496,12.4276232 150.410112,12.1449845 150.612509,12.1308526 C147.706662,12.3569635 146.116398,11.6644988 144.280365,11.9188736 C143.008154,12.1025887 141.938339,11.9047416 140.723955,11.8906097 C139.740883,11.8764778 138.960207,12.1025887 137.919307,11.9047416 C137.456685,11.81995 136.589268,11.6503668 136.126645,11.6503668 L133.191884,11.6503668 C132.772633,11.6503668 131.26911,12.1025887 130.054726,11.607971 C129.534276,12.1025887 128.623488,11.5938391 128.160865,11.7210265 C127.452475,11.9188736 127.004309,11.5231794 126.440488,11.5373113 L113.328034,11.5797071 C112.157021,11.5797071 111.130578,11.9188736 109.945108,11.6221029 C108.51387,11.2546727 106.576638,12.1449845 104.914089,11.8058181 C104.133414,11.6503668 103.193712,11.7210265 102.369666,11.9188736 C101.719103,12.0743249 101.010713,11.7351584 100.432435,11.81995 C96.6157997,12.4558871 93.6232109,11.81995 90.4571388,11.9188736 C88.5777352,11.9754013 86.7127886,12.3286997 84.8044712,11.834082 C84.0382528,11.6362349 81.6817699,12.3145677 78.8915784,11.8623458 C78.139817,11.7351584 76.1303009,12.1873803 74.3231821,11.8623458 C73.2678247,11.6786307 72.0968117,11.9188736 71.0269974,11.9330055 L62.9021913,12.1449845 C61.4854101,12.1732484 60.1842846,12.25804 58.7675035,12.3710955 L56.6134178,12.5406787 C53.5340874,12.7950535 50.4836709,12.5548106 47.4332543,13.0635603 L45.0478575,13.4592544 C44.9755728,13.1342199 44.8310033,13.1059561 44.5707781,13.1342199 L41.5348186,13.4733864 C40.3638056,13.6147057 39.3373621,13.332067 38.0651505,13.544046 C37.1688195,13.6853654 36.0990052,13.982136 35.1882173,13.8832125 C34.3641711,13.7842889 33.6991514,13.5864418 33.0341317,14.1658512 C32.8895622,13.982136 32.7160788,13.7418931 32.6148801,13.7277612 C32.4992245,13.7136293 32.2823703,14.1093234 32.1667147,14.1234554 L19.0398037,15.2116143 L14.9629437,15.706232 L2.13962866,16.9922381 C-0.0289139008,17.218349 -0.737304471,12.4417552 0.881873976,10.8448466 C2.00951611,9.72842372 3.88891966,9.91213887 5.3346147,9.67189599 L11.2330505,8.66852863 L18.5048965,7.80648063 C21.7577104,7.4249184 24.8370408,6.67592587 28.1187686,6.50634265 C29.1741259,6.44981491 30.1282847,5.96932914 31.212556,5.84214173 C32.961847,5.65842658 35.1303895,5.94106527 36.7206541,5.20620468 C37.8772101,4.66919117 38.6000576,4.98009372 39.7276998,4.85290631 L46.4068108,4.06151798 C47.1874862,3.96259444 48.2862144,3.75061542 49.0668897,3.58103221 C51.3655448,3.07228256 53.4618027,2.95922709 55.7604578,2.77551194 L62.9021913,2.21023456 L70.5932889,1.8569362 L74.3376391,1.78627652 C75.1038574,1.77214459 75.5664798,1.75801265 76.3471552,1.72974879 L79.6433399,1.63082524 C81.074578,2.06891521 82.216677,1.63082524 83.5467165,1.67322105 C86.1634245,1.74388072 88.7223047,2.11131102 91.3245558,1.31992268 C92.8280786,1.74388072 94.3316015,1.65908911 95.8495813,1.37645042 C96.5435149,1.75801265 97.3097333,1.37645042 97.960296,1.34818655 L101.155282,1.20686721 C103.641878,1.10794367 106.128473,0.924228518 108.470499,0.825304976 L114.10871,0.585062089 L117.37598,0.344819202 L123.462357,0.189367923 C124.922509,0.146972119 126.469402,0.514402417 127.958468,0.146972119 C129.288508,-0.178062375 130.517348,0.11870825 131.818474,0.132840184 L133.423195,0.146972119 C135.2014,0.161104054 136.892864,-0.178062375 138.671068,0.146972119 C140.362532,0.457874678 142.111823,0.175235988 143.788829,0.0904443809 C145.234524,0.00565277381 146.535649,0.387215006 147.937974,0.457874678 L155.224277,0.811173041 L159.503534,1.10794367 L162.69852,1.37645042 L167.209089,2.18197069 L170.736584,2.74724807 C171.604001,2.87443548 172.789471,2.98749096 173.584604,3.29839352 C176.649477,4.51373989 182.649112,5.44644756 186.089866,5.36165596 C187.68013,5.31926015 189.270395,5.74321819 190.918487,5.22033661 C192.017215,4.88117018 193.08703,5.0931492 194.156844,5.16380887 C195.501341,5.26273242 196.455499,5.53123917 197.279545,6.49221072 C198.089135,7.43905033 198.060221,8.6967925 197.930108,9.883875 C197.771082,11.2970685 197.308459,11.6786307 196.108532,12.1873803 L192.581037,13.6571015 C190.701633,14.4484899 188.966799,14.6604689 186.942826,14.8300521 L183.010535,15.1833504 C181.868436,15.282274 181.116675,15.5931765 179.830006,15.282274 C177.777119,14.7735243 175.92663,15.5366488 174.9291,14.6039411 C174.365279,14.6463369 173.613518,14.6463369 172.861756,14.4767537 L167.527141,13.2048796 C166.77538,13.9680041 166.124817,13.5299141 164.910433,12.8091854 C163.912904,13.544046 163.36354,12.9222409 162.423838,12.6113384 C161.816646,12.4276232 160.645633,13.0494283 160.168554,12.1025887 C159.763759,12.4558871 159.416792,12.6537342 158.95417,12.7809216" id="Fill-57" fill="#FFFFFF" mask="url(#mask-3)"></path>
            </g>
            <path d="M79.206779,107.223439 L78.3330486,113.106691 C78.2374843,113.820254 78.1965282,114.242566 78.1965282,114.897879 L78.3193966,124.101382 L78.5378292,127.028445 L78.9337382,132.707822 C79.1521708,135.72226 79.575384,138.678449 80.2170298,141.663762 C80.3535502,142.304512 80.5856348,142.654012 80.8723276,143.251075 L81.6777978,144.925763 C82.8245689,147.255764 82.2238793,149.367327 83.7802116,150.867265 C84.0122962,151.988578 84.4764655,153.153578 85.1863714,154.085578 C85.6914968,154.726329 86.5652272,154.304016 87.0976567,153.881703 L89.2956347,152.134203 L90.2376253,150.13914 L94.1830642,146.483951 L98.6882366,142.959825 L101.309428,140.629824 C101.828205,140.163824 102.237766,139.858012 102.742892,139.421136 L106.087641,136.552323 L109.377782,133.523322 L111.876105,131.062259 L113.678174,128.703133 C114.196951,128.047821 114.715729,127.93132 115.179898,127.217758 C117.132139,124.305257 119.002468,121.407318 120.080979,117.956005 C120.749929,117.621067 120.859146,116.805567 120.777233,116.019192 C121.405227,114.999817 121.541747,114.009566 121.637312,112.990191 L122.087829,107.966127 C122.388174,104.704126 122.278957,103.291563 120.490541,101.034375 C119.821591,100.18975 119.371073,100.087812 118.333519,99.9858745 C114.606512,99.6363744 114.169647,100.029562 112.149146,102.126563 C111.657672,102.63625 111.138895,102.9275 110.620117,103.480876 L108.722484,105.490501 C108.258315,105.971064 107.876058,106.291439 107.780494,107.048689 C107.603017,108.403002 106.401638,109.291315 105.664428,110.325253 L103.589318,113.281441 L101.678033,116.64538 C100.913519,118.014255 99.6984873,118.582193 98.2923275,117.86863 C95.8895689,116.64538 94.1694121,114.038691 95.575572,111.461128 C97.5278134,107.878752 96.4902585,105.446814 97.0772961,103.946876 C97.4868573,102.9275 97.8554623,101.58775 97.1182522,100.612062 C96.8588635,99.2723118 96.0124372,98.180124 95.3707914,97.0005611 C93.8827193,94.2773728 90.7290987,92.2823097 88.681293,93.27256 C86.6061833,94.2919353 83.8621238,96.7238735 82.483268,98.6752491 C80.7494592,101.107187 79.6572962,104.150751 79.206779,107.223439 L79.206779,107.223439 Z M102.278722,155.279704 L100.927171,156.153454 C98.5380641,158.760142 95.930525,160.886268 93.377594,163.201706 C92.0806504,164.395832 90.838315,165.386082 89.391199,166.318082 L86.3877507,169.201458 L82.8928291,171.487771 C81.6914498,172.274146 80.5719828,172.099396 79.3979075,171.342146 L77.2818417,169.987833 C76.7767163,169.667458 76.1896787,168.720895 75.9575941,168.05102 C74.9063872,164.861832 78.100964,160.362018 80.7358072,157.624267 L76.9541928,150.182827 C76.0122022,148.318827 76.2579389,145.406326 75.5889891,144.0957 C74.5923903,142.129762 74.0599608,140.382262 73.745964,138.212449 C73.4319671,136.159135 72.9131897,134.193197 72.8858856,132.052509 C72.8585815,129.664258 72.6811051,127.305133 72.2442399,124.946007 C71.8892869,123.009194 72.0258073,121.247131 72.0258073,119.368568 L72.0667634,109.932065 L72.5855408,105.242939 C72.4490204,103.510001 72.8995377,102.374125 73.391011,100.8305 C74.5104781,97.3354987 75.8893339,93.9569977 78.5514812,91.4522469 L82.3057915,87.9281209 C85.9235815,85.0593075 89.8417162,85.6563702 93.6642867,87.9863709 C94.5380171,88.510621 95.6028761,88.6562461 96.3264341,89.3989338 C98.5653682,91.6706845 100.135353,94.2045603 101.623425,97.0296861 L103.357233,100.320812 C105.527907,97.4519987 108.76344,92.8502473 111.5075,92.8502473 L116.558754,92.8502473 C118.661167,92.8356848 120.408628,93.6803101 121.992265,95.092873 C123.917202,96.7821235 125.691967,98.7189366 127.070823,101.019812 C128.872892,104.005126 128.913848,107.660314 128.99576,111.12619 C129.050368,113.995004 128.572547,116.383254 127.848989,119.09188 C127.412124,120.708318 127.234647,122.397569 126.579349,124.028569 L124.435979,129.373008 C123.685117,131.237009 122.770431,133.071885 121.610008,134.688323 L120.176544,136.697948 L116.763534,141.387075 C115.8625,142.63945 114.920509,143.68795 113.85565,144.838388 L111.616716,147.284889 C110.606465,148.377077 109.418738,149.61489 108.353879,150.517765 L104.818001,153.503078 L102.278722,155.279704 Z" id="Fill-60" fill="#FFFFFF"></path>
            <g id="Group-64" transform="translate(155, 46)">
                <mask id="mask-5" fill="white">
                    <use xlink:href="#path-4"></use>
                </mask>
                <g id="Clip-63"></g>
                <path d="M0.896119328,147.007664 L0.241491787,145.112202 C-0.165832016,143.94357 0.052377164,142.51841 0.110566279,141.264269 L0.285133623,137.245318 L0.677910148,133.311877 L1.07068667,127.069676 L1.56529415,121.611313 C1.65257782,120.585197 1.73986149,119.730101 1.88533428,118.689735 L2.3508472,115.269351 C2.64179277,113.160114 3.12185297,111.250399 3.51462949,109.198169 C3.90740602,107.2457 3.71829139,105.435746 4.57658084,103.526032 L4.92571553,100.74697 L5.07118831,98.4952169 C5.60943762,97.4976049 5.28939749,95.1745941 5.34758661,94.0772208 L5.46396484,91.5546876 C5.53670123,89.9727599 5.66762674,88.5903547 5.82764681,86.9514207 L6.01676143,84.7566742 C6.13313966,83.6450494 6.27861244,82.7757018 6.29315972,81.664077 L6.36589612,78.2436929 C6.77321992,74.7520508 6.96233454,71.4314279 6.90414543,67.9397859 L7.31146923,64.8044338 L7.32601651,62.3674101 C7.32601651,61.2415337 7.18054372,60.3009281 7.20963828,59.1322969 L7.34056379,55.0135844 C7.38420563,54.0017207 7.2678274,53.2748891 7.22418556,52.3057803 L7.10780733,49.6834859 C7.02052366,48.001797 6.90414543,46.6193918 6.91869271,45.0517158 L6.97688182,39.83563 C6.97688182,39.3083208 6.61319985,38.76676 6.36589612,38.4389732 C7.31146923,37.484116 6.3804434,34.5340347 6.40953795,32.7098299 L6.49682163,28.3345886 C6.27861244,26.5531385 6.14768694,24.7431853 6.49682163,22.9189805 C5.85674136,20.3251892 5.9003832,17.7741527 5.9003832,15.1376067 L5.9003832,12.6863314 L5.81309953,8.04030973 L5.66762674,3.60806203 C5.60943762,2.2826632 5.60943762,0.77199357 6.9914291,0.344445561 C7.32601651,0.657980768 8.14066412,1.21379318 8.32977874,0.800496771 L8.63527159,0.116419956 C8.85348077,-0.368134455 9.31899369,0.814748371 9.63903382,0.843251572 C9.82814845,0.857503172 10.1918304,0.415703562 10.3373032,0.486961564 C10.5991542,0.77199357 10.7591743,1.42756718 11.108309,1.39906398 L12.1993549,1.32780598 L14.5705613,2.59619841 L15.8652691,11.2184166 C16.0107419,12.1590222 15.7779854,13.0283698 15.8798164,13.8692143 C16.0398364,15.1518583 15.9234582,16.1637219 15.8943637,17.4178627 C15.8361745,20.225428 16.4908021,23.3322769 16.5053494,27.2657186 L16.5344439,31.8689855 C16.5489912,32.6955783 16.5489912,33.1658811 16.6799167,33.9212159 C17.0726932,36.4437492 16.7235585,38.9662824 16.7235585,41.5315705 L16.6799167,49.9115115 C16.9417677,52.9043475 16.7817477,55.6834096 16.6799167,58.6762457 C16.592633,61.3270433 17.1745242,63.906583 16.6362749,66.6001354 L16.694464,68.4813467 L16.5198966,73.996716 C16.1853092,76.0917012 16.3889711,78.0156673 16.4617075,80.0964009 C16.4908021,80.8802389 15.8943637,81.8208446 16.0252892,82.7471986 C16.4617075,85.6117702 15.6907018,88.3480775 15.7634382,91.0986364 L15.9816473,98.9370165 L15.6034181,102.043865 C15.8652691,103.825315 15.6179654,105.321733 15.6761545,107.07468 L15.7343436,109.226672 C15.7488909,109.967755 16.0980256,110.580574 15.5597763,111.478425 C15.2979252,111.905973 15.9089109,112.94634 15.7779854,113.388139 C15.4579453,114.585274 15.7634382,115.468873 15.80708,116.680259 L15.9234582,119.445069 C16.592633,120.870229 16.0980256,124.07684 16.2434983,125.017445 C16.6653694,127.611236 17.3345443,128.808371 16.7381058,132.057736 C16.592633,132.927083 16.7090113,135.634887 16.8835786,136.575493 C17.0872405,137.587357 17.1017878,138.613472 16.2725929,139.425813 C16.3453293,139.824858 16.7962949,140.665702 16.2871402,140.964986 C15.8216273,141.250018 15.4288507,141.421037 15.4143035,141.919843 C15.4143035,142.276133 15.9234582,142.60392 16.1125728,142.846197 L15.3561143,144.998189 C15.4724926,147.905515 15.283378,149.715468 12.7230569,151.169132 L8.98440628,151.810454 C8.30068418,151.924467 7.92245494,152.081234 7.09326005,151.95297 L4.54748628,151.539673 C3.77648051,151.411409 3.76193323,151.026616 3.31096759,150.556313 C2.49631998,149.715468 1.52165231,149.088398 1.57984143,147.720244 C1.59438871,147.335451 1.05613939,147.15018 0.896119328,147.007664" id="Fill-62" fill="#FFFFFF" mask="url(#mask-5)"></path>
            </g>
            <path d="M42.9851713,79.6126033 L43,85.08444 L42.65894,89.4389906 C42.5403104,91.1005954 42.5847965,92.6905794 42.5403104,94.4094809 L42.3327087,103.86344 L42.3030513,107.53043 L42.1102782,113.503612 C42.0509634,115.136569 41.9619913,116.354124 42.2882226,117.958432 C42.65894,119.734631 42.510653,121.768664 42.3623661,123.587835 L42.1399356,126.610237 C42.0509634,127.842116 41.8137043,129.045347 41.9175052,130.320199 C42.0806208,132.225315 41.3540147,133.958541 42.0361347,136.579866 C42.31788,137.625531 42.0064773,138.083905 41.8433617,138.95768 C41.5319591,140.633609 42.3771948,142.438455 42.4068521,144.143033 L42.5254817,149.829732 C42.5699678,151.419716 41.7543895,152.680244 42.510653,154.3132 C43.6524626,156.762635 41.9916486,158.810993 42.8220556,160.859351 C42.5847965,160.802054 42.2585652,160.988268 42.2882226,161.016917 L42.7775696,161.604208 C42.3327087,162.520955 42.1251069,164.28283 41.9916486,165.457412 L41.6209312,168.895215 L41.3688434,171.573837 L40.5977512,174.238134 C40.3308347,175.140558 40.019432,175.842443 38.9814233,175.928388 C39.1000529,176.257844 39.1445389,176.630272 38.9814233,176.615948 L38.0323867,176.615948 C36.8905771,177.360806 35.4670222,177.8908 33.9841526,177.776207 C33.4948056,177.733234 32.7681995,178.306201 32.1898803,177.761883 C31.0480707,178.306201 29.6986593,177.876476 29.0017106,176.888108 C27.5929845,176.658921 26.7774062,175.584607 26.8515496,174.22381 C25.1907356,169.382237 26.2435731,164.426071 27.5929845,159.613147 C28.0675027,157.894245 27.9637019,154.556712 27.9637019,152.250519 C29.2686271,150.689183 30.1880063,148.698122 29.4762289,146.707061 L29.6245159,144.844918 C29.6838306,144.057088 28.9423958,141.980082 29.4020854,139.544971 C29.8914324,137.081212 29.3872567,135.720415 29.6986593,133.88692 C29.7283167,133.71503 29.2389698,133.313953 29.3279419,133.170711 C29.3872567,133.041794 29.713488,132.798283 29.7283167,132.612068 C29.861775,130.563711 30.202835,128.64427 30.6773533,126.624561 L31.6412186,122.570818 C31.8043342,121.92623 32.1305656,121.338939 32.1898803,120.680027 L32.4123108,117.414114 L33.4503195,115.953047 C32.9609725,114.93603 33.3168613,113.990635 33.3020326,112.959294 L33.2723752,109.378249 C33.2278891,105.940446 33.5986065,102.545615 33.2427178,99.0791635 L33.1537456,91.544645 C33.1389169,88.9376443 33.3910047,86.4309129 33.3613474,83.7522912 L33.2872039,79.5123341 L33.2130604,76.7907399 C33.1685743,74.6277888 32.5309404,72.4791618 32.7681995,70.2875623 C32.8571717,69.385139 32.8126856,68.5829849 32.3233386,67.7951551 C33.3613474,66.6492207 32.0712508,63.9849233 32.1305656,61.6644061 L32.1750516,59.2865923 C32.204709,58.226603 32.2640238,57.424449 32.0860795,56.3214871 C31.9526212,55.4477122 32.5309404,54.402047 32.2788525,53.4136786 C32.1157369,52.7690906 32.5161117,52.0385574 32.4567969,51.4226177 C32.2491951,49.0448038 32.0712508,46.5667207 32.7237134,44.2032311 C33.0944308,43.9024233 33.7024074,43.5299946 33.7765508,43 C34.3845274,43.7591815 35.4818509,43.9740442 36.0898275,43.6445881 C36.2529431,43.558643 36.4605449,42.9570275 36.5346884,43.0286484 L37.0092067,43.4297254 C37.2761232,43.6732364 37.8099563,43.3581045 38.0027293,43.5013463 C38.2399885,43.6589123 38.3882754,43.9310717 38.4920763,44.1602586 C38.699678,43.4297254 39.2483398,43.5299946 39.6635433,43.716209 C39.8563164,43.8164782 40.0935755,43.9740442 40.2122051,44.274852 C41.339186,44.833495 41.6654173,45.8218634 41.680246,47.0394187 L41.7840469,63.3833077 L42.31788,70.4451283 C42.4068521,71.4478209 42.2882226,72.3072717 42.4216808,73.3959093 C42.5699678,74.5131953 42.5699678,75.7021023 42.5996252,76.7907399 C42.6292826,77.7791083 42.9851713,78.6528833 42.9851713,79.6126033" id="Fill-65" fill="#FFFFFF"></path>
            <path d="M154.955486,12.9071289 C155.125655,13.5842659 154.813679,14.5691925 153.920292,15.0000979 C153.069448,15.4104839 151.920808,15.0308768 151.041602,15.0411365 L148.148732,15.0719154 L144.8588,15.3386664 C142.689147,15.5130805 140.661301,15.9029472 138.53419,16.2825543 C137.867695,16.4056702 137.38555,16.4467088 137.328827,16.9802107 C136.889224,16.528786 135.612958,17.4316354 133.429124,17.205923 C132.138677,17.0725475 131.018398,17.1854037 129.770493,17.1854037 C128.267335,17.1956634 126.905984,17.1648844 125.417006,17.3700774 L122.836112,17.441895 C122.368147,17.4521547 121.715833,17.1546248 121.304592,17.4931933 C121.205327,17.3700774 121.035158,17.3803371 121.020977,17.5034529 C120.87917,17.5239722 120.638097,17.4829336 120.49629,17.4931933 C119.560361,17.1341055 117.532515,17.472674 115.674838,17.4624143 L110.52723,17.441895 C109.605482,17.441895 108.953168,17.4316354 108.059781,17.4111161 L105.54979,17.3700774 L98.7713967,17.205923 L88.1074806,17.205923 C87.1431904,17.205923 86.3632497,17.4829336 85.313875,17.2469616 C84.8884528,17.1546248 84.0659699,17.1956634 83.5412825,17.236702 L80.1662665,17.5137126 C77.471926,17.4316354 74.9193929,17.5444915 72.2534139,17.708646 L65.6451893,18.1087724 L56.8956731,18.7756498 L50.8972203,19.1860358 C49.3657004,19.298892 47.8199998,19.3604499 46.3310222,19.7503167 C45.7070696,19.9247308 41.9208122,20.0786256 39.6518939,20.2632993 L29.0588815,21.1661487 L24.5494064,21.5252365 C22.5924643,21.8740646 20.8056911,22.1715945 18.7353032,22.0484787 L16.0693242,22.3767876 C14.6796117,22.5512017 13.30408,22.571721 11.942729,22.8589912 C10.6381009,23.1360018 7.47579604,23.0334053 6.85184351,22.2947104 C6.12862579,21.4431593 5.87337248,20.2222607 6.0577221,19.2681131 C6.29879467,18.0472145 7.23472347,17.677867 8.78042407,17.4931933 L13.956394,16.8776142 C15.7573479,16.6621615 17.4164944,16.4877474 19.1607254,16.2517754 L26.8466862,15.2155505 C27.4139157,15.143733 28.1654949,15.0719154 28.761086,15.0719154 C30.2784251,15.0821751 31.5405109,14.7436066 33.0011271,14.671789 L34.3199358,14.5999714 C36.163432,14.5076346 37.6665904,14.3434801 39.3824598,13.8202379 C41.3819441,13.9228344 42.9560062,13.4303711 43.2254402,13.3995922 L45.5652622,13.1123219 C48.5573983,12.7429744 51.5495343,12.9173885 54.5700318,12.7327148 L56.682962,12.609599 C58.0726745,12.5275217 59.348941,12.4659638 60.7386535,12.4454445 L68.7082291,12.2915497 C69.7576038,12.2812901 70.9062437,12.106876 71.9414376,12.2402515 C73.7140301,12.4762235 75.6851529,12.1479146 76.4225513,12.2402515 C79.159434,12.5685603 81.4708946,12.0760971 82.2224738,12.2197322 C84.0943314,12.57882 85.9236468,12.3223287 87.7671429,12.2812901 C90.8727248,12.2094725 93.8081379,12.6711569 97.5518531,12.2094725 C98.1190827,12.1479146 98.8139389,12.3941463 99.4520722,12.2812901 C100.260374,12.137655 101.182122,12.0863567 101.947882,12.1992129 C103.578667,12.4454445 105.478886,11.7990865 106.88278,12.0658374 C108.0456,12.2812901 109.052433,12.0350584 110.201073,12.0350584 L123.063003,12.0042795 C123.616052,11.9940198 124.055655,12.2812901 124.750511,12.137655 C125.204295,12.0453181 126.097682,12.4146656 126.608188,12.0555778 C127.79937,12.4146656 129.274167,12.0863567 129.685409,12.0863567 L132.564099,12.0863567 C133.017883,12.0863567 133.868727,12.2094725 134.322511,12.2710304 C135.343524,12.4146656 136.109284,12.2505111 137.073574,12.2607708 C138.264756,12.2710304 139.314131,12.4146656 140.562036,12.2812901 C142.36299,12.0966164 143.922871,12.5993393 146.7732,12.4351849 C146.574669,12.4454445 149.907143,12.6506376 151.537928,12.784013 C152.658207,12.8763499 153.778485,13.1020622 154.756956,12.5890797 C154.927125,12.6711569 154.969667,12.8250516 154.955486,12.9071289" id="Fill-67" fill="#FF008A"></path>
            <path d="M149.606675,129.715461 C149.507675,129.726461 149.441675,129.671461 149.408675,129.605461 C149.353675,129.473461 149.452675,129.253461 149.606675,129.286461 L149.606675,129.715461 Z" id="Fill-69" fill="#FFFFFF"></path>
            <path d="M98.5374806,99.4852487 C98.1094868,100.073514 98.0292379,101.020479 97.4541213,101.594396 C96.9057543,102.139618 96.2236392,102.469621 96.2503888,103.674848 L98.5107309,102.770928 C97.9222395,104.248766 98.9387247,106.644872 97.0261275,110.174466 C95.6618974,112.714052 97.3337481,115.296682 99.6877138,116.487561 C101.065319,117.19061 102.255677,116.631041 103.01804,115.282334 L104.877138,111.967959 L106.923484,109.055327 C107.632348,108.036623 108.809331,107.161398 108.983204,105.82704 C109.758942,105.310514 110.494557,104.693552 111.28367,103.918763 L113.651011,101.651788 L116.325972,100.260038 C117.208709,99.8009035 117.8507,99.3561173 118.773561,99.5856843 C120.378538,100.001775 121.983515,102.455273 121.007154,104.822684 L123,106.745308 L122.558631,111.681 C122.210886,111.767088 121.903266,112.011003 121.649145,112.384049 L118.104821,117.592353 C119.428927,117.276698 120.084292,116.516257 121.033904,116.587997 C119.977294,119.974111 118.144946,122.829352 116.245723,125.713289 C115.777605,126.40199 115.269362,126.516773 114.774495,127.176779 L112.995645,129.486798 L110.548056,131.9116 L107.338103,134.895972 L104.0479,137.722517 C103.553033,138.152955 103.151788,138.454262 102.643546,138.913396 L100.075583,141.209067 L95.6618974,144.681269 L91.7965785,148.296951 C90.873717,147.708685 90.5660964,146.546502 91.1813375,145.527798 C92.5455677,143.289519 94.2842924,141.452982 95.9695179,139.472966 C97.6681182,137.464254 99.059098,135.599021 100.530327,133.360742 C101.172317,132.385082 102.429549,131.76812 102.3493,130.347674 L95.207154,139.157311 L93.1608087,141.754289 L89.8037325,145.642581 C88.533126,147.106072 87.1956454,148.411734 85.4836703,149 C83.9455677,147.522162 84.5340591,145.456058 83.4239502,143.146039 L84.5474339,141.323851 L89.0279938,136.02946 C89.3891135,135.599021 89.4693624,134.98206 90.0578538,134.652057 C89.2821151,134.723797 88.8273717,135.355106 88.4261275,135.88598 C87.6236392,136.947728 86.7676516,137.622081 85.7912908,138.425566 C84.6544323,139.37253 83.5309487,140.276451 81.9794712,139.9321 C81.3508554,137.00512 80.9496112,134.092487 80.7356143,131.108115 L81.4578538,130.032019 C82.8087092,128.28157 84.0525661,126.588513 85.1493002,124.45067 C83.9054432,123.81936 82.8354588,126.344598 80.3343701,125.512417 L80.1203733,122.628481 L80,113.574929 C80.7356143,113.460145 80.7757387,112.541877 81.1101089,112.111439 C82.0730949,110.834472 82.6348367,109.643592 83.2099533,108.151406 C83.5041991,107.362269 84.6276827,106.774004 84.4671851,105.654864 C83.4506998,105.525733 82.6883359,106.587481 80.9897356,105.999215 C81.4311042,102.971799 82.5144635,99.9874268 84.199689,97.5769723 C85.5505443,95.654348 88.2522551,93.2582415 90.2718507,92.2538855 C92.2780715,91.2782254 95.3676516,93.2438935 96.8255054,95.9413068 C97.4541213,97.0891423 98.2833593,98.165238 98.5374806,99.4852487" id="Fill-71" fill="#FF008A"></path>
            <g id="by-zacp" transform="translate(651, 14)" fill="#FF008A" fill-rule="nonzero">
                <path d="M4.33312461,0 L0,0 L0,42.12 L4.33312461,42.12 L4.33312461,0 Z M25.1862868,29.7 C25.1862868,27 24.6265915,24.687 23.507201,22.761 C22.3878105,20.835 20.8982989,19.35 19.0386662,18.306 C17.1790336,17.262 15.1117721,16.74 12.8368817,16.74 C10.7786475,16.74 8.96415153,17.262 7.39339386,18.306 C5.82263619,19.35 4.59491755,20.835 3.71023795,22.761 C2.82555834,24.687 2.38321853,27 2.38321853,29.7 C2.38321853,32.364 2.82555834,34.668 3.71023795,36.612 C4.59491755,38.556 5.82263619,40.05 7.39339386,41.094 C8.96415153,42.138 10.7786475,42.66 12.8368817,42.66 C15.1117721,42.66 17.1790336,42.138 19.0386662,41.094 C20.8982989,40.05 22.3878105,38.556 23.507201,36.612 C24.6265915,34.668 25.1862868,32.364 25.1862868,29.7 Z M20.7989981,29.7 C20.7989981,31.608 20.4108224,33.228 19.6344709,34.56 C18.8581194,35.892 17.8290023,36.9 16.5471196,37.584 C15.2652369,38.268 13.8479441,38.61 12.2952411,38.61 C11.0314131,38.61 9.78563974,38.268 8.5579211,37.584 C7.33020246,36.9 6.31914005,35.892 5.52473388,34.56 C4.7303277,33.228 4.33312461,31.608 4.33312461,29.7 C4.33312461,27.792 4.7303277,26.172 5.52473388,24.84 C6.31914005,23.508 7.33020246,22.5 8.5579211,21.816 C9.78563974,21.132 11.0314131,20.79 12.2952411,20.79 C13.8479441,20.79 15.2652369,21.132 16.5471196,21.816 C17.8290023,22.5 18.8581194,23.508 19.6344709,24.84 C20.4108224,26.172 20.7989981,27.792 20.7989981,29.7 Z M50.9142142,17.28 L46.039449,17.28 L38.3481528,36.504 L40.1355667,36.72 L32.2276143,17.28 L27.0820288,17.28 L36.6149029,38.61 L29.7902317,54 L34.6649969,54 L50.9142142,17.28 Z M83.4126487,21.33 L67.9758923,42.12 L90.1831559,42.12 L90.1831559,38.07 L75.8296807,38.07 L91.2664371,17.28 L69.600814,17.28 L69.600814,21.33 L83.4126487,21.33 Z M98.0911083,34.452 C98.0911083,33.552 98.3077646,32.778 98.741077,32.13 C99.1743895,31.482 99.8333855,30.978 100.718065,30.618 C101.602745,30.258 102.749217,30.078 104.157483,30.078 C105.674076,30.078 107.100397,30.267 108.436443,30.645 C109.77249,31.023 111.072427,31.644 112.336255,32.508 L112.336255,29.97 C112.08349,29.646 111.596013,29.223 110.873826,28.701 C110.151638,28.179 109.185713,27.711 107.976049,27.297 C106.766385,26.883 105.258819,26.676 103.45335,26.676 C100.384053,26.676 97.9918076,27.405 96.2766124,28.863 C94.5614172,30.321 93.7038197,32.256 93.7038197,34.668 C93.7038197,36.36 94.1010228,37.8 94.8954289,38.988 C95.6898351,40.176 96.7460342,41.085 98.0640263,41.715 C99.3820184,42.345 100.799311,42.66 102.315905,42.66 C103.688061,42.66 105.069244,42.408 106.459455,41.904 C107.849666,41.4 109.023221,40.626 109.980119,39.582 C110.937017,38.538 111.415466,37.224 111.415466,35.64 L110.548842,32.4 C110.548842,33.696 110.232885,34.839 109.600971,35.829 C108.969057,36.819 108.120486,37.584 107.05526,38.124 C105.990033,38.664 104.789397,38.934 103.45335,38.934 C102.406178,38.934 101.476362,38.763 100.663901,38.421 C99.8514402,38.079 99.2195262,37.566 98.768159,36.882 C98.3167919,36.198 98.0911083,35.388 98.0911083,34.452 Z M97.4411396,23.004 C97.8383427,22.716 98.3799833,22.374 99.0660614,21.978 C99.7521394,21.582 100.591682,21.24 101.58469,20.952 C102.577698,20.664 103.688061,20.52 104.91578,20.52 C105.674076,20.52 106.396264,20.592 107.082342,20.736 C107.76842,20.88 108.373252,21.114 108.896838,21.438 C109.420424,21.762 109.826654,22.203 110.115529,22.761 C110.404404,23.319 110.548842,24.03 110.548842,24.894 L110.548842,42.12 L114.881966,42.12 L114.881966,24.3 C114.881966,22.68 114.475736,21.312 113.663275,20.196 C112.850814,19.08 111.713369,18.225 110.250939,17.631 C108.78851,17.037 107.082342,16.74 105.132436,16.74 C102.821436,16.74 100.844448,17.082 99.2014715,17.766 C97.5584951,18.45 96.2675851,19.134 95.3287414,19.818 L97.4411396,23.004 Z M124.14402,29.7 C124.14402,27.972 124.514141,26.433 125.254383,25.083 C125.994625,23.733 127.005688,22.68 128.28757,21.924 C129.569453,21.168 131.022855,20.79 132.647777,20.79 C133.983824,20.79 135.238625,20.997 136.412179,21.411 C137.585734,21.825 138.605823,22.374 139.472448,23.058 C140.339073,23.742 140.952933,24.498 141.314026,25.326 L141.314026,19.926 C140.447401,18.918 139.210655,18.135 137.603788,17.577 C135.996921,17.019 134.344918,16.74 132.647777,16.74 C130.228449,16.74 128.043832,17.298 126.093926,18.414 C124.14402,19.53 122.600344,21.06 121.462899,23.004 C120.325454,24.948 119.756731,27.18 119.756731,29.7 C119.756731,32.184 120.325454,34.407 121.462899,36.369 C122.600344,38.331 124.14402,39.87 126.093926,40.986 C128.043832,42.102 130.228449,42.66 132.647777,42.66 C134.344918,42.66 135.996921,42.381 137.603788,41.823 C139.210655,41.265 140.447401,40.482 141.314026,39.474 L141.314026,34.074 C140.952933,34.866 140.339073,35.613 139.472448,36.315 C138.605823,37.017 137.585734,37.575 136.412179,37.989 C135.238625,38.403 133.983824,38.61 132.647777,38.61 C131.022855,38.61 129.569453,38.223 128.28757,37.449 C127.005688,36.675 125.994625,35.622 125.254383,34.29 C124.514141,32.958 124.14402,31.428 124.14402,29.7 Z M152.146838,54 L152.146838,17.28 L147.813713,17.28 L147.813713,54 L152.146838,54 Z M173,29.7 C173,27 172.440305,24.687 171.320914,22.761 C170.201524,20.835 168.712012,19.35 166.852379,18.306 C164.992747,17.262 162.925485,16.74 160.650595,16.74 C158.592361,16.74 156.777865,17.262 155.207107,18.306 C153.636349,19.35 152.408631,20.835 151.523951,22.761 C150.639272,24.687 150.196932,27 150.196932,29.7 C150.196932,32.364 150.639272,34.668 151.523951,36.612 C152.408631,38.556 153.636349,40.05 155.207107,41.094 C156.777865,42.138 158.592361,42.66 160.650595,42.66 C162.925485,42.66 164.992747,42.138 166.852379,41.094 C168.712012,40.05 170.201524,38.556 171.320914,36.612 C172.440305,34.668 173,32.364 173,29.7 Z M168.612711,29.7 C168.612711,31.608 168.224536,33.228 167.448184,34.56 C166.671833,35.892 165.642716,36.9 164.360833,37.584 C163.07895,38.268 161.661657,38.61 160.108954,38.61 C158.845126,38.61 157.599353,38.268 156.371634,37.584 C155.143916,36.9 154.132853,35.892 153.338447,34.56 C152.544041,33.228 152.146838,31.608 152.146838,29.7 C152.146838,27.792 152.544041,26.172 153.338447,24.84 C154.132853,23.508 155.143916,22.5 156.371634,21.816 C157.599353,21.132 158.845126,20.79 160.108954,20.79 C161.661657,20.79 163.07895,21.132 164.360833,21.816 C165.642716,22.5 166.671833,23.508 167.448184,24.84 C168.224536,26.172 168.612711,27.792 168.612711,29.7 Z" id="Combined-Shape"></path>
            </g>
        </g>
    </g>
</svg>