<?xml version="1.0" encoding="UTF-8"?>
<svg width="759px" height="245px" viewBox="0 0 759 245" version="1.1" xmlns="http://www.w3.org/2000/svg" xmlns:xlink="http://www.w3.org/1999/xlink">
    <title>logo pos quer</title>
    <defs>
        <path d="M0,0 L759,0 L759,245 L0,245 L0,0 Z" id="path-1"></path>
        <polygon id="path-2" points="0 0 134 0 134 178 0 178"></polygon>
    </defs>
    <g id="logo-pos-quer" stroke="none" fill="none" xlink:href="#path-1" fill-rule="evenodd">
        <use fill="#FFFFFF" xlink:href="#path-1"></use>
        <g id="Group-44" stroke-width="1" transform="translate(24, 20)">
            <path d="M60.431479,186.003993 L60.2857107,186.150689 L60.431479,186.346283 L60.5772474,186.150689 L60.431479,186.003993 Z M166.534651,140.290333 C166.314379,140.251214 166.165372,140.557645 166.249593,140.756499 C166.285226,140.847777 166.385644,140.926014 166.528173,140.909715 L166.531412,141.535617 C166.26579,141.740991 166.269029,142.207157 166.557326,142.386452 L166.550848,142.709183 C165.84792,143.16883 166.392122,144.371735 166.243115,144.974817 C165.915946,146.304859 166.113543,147.106796 166.132979,148.273842 C166.149175,149.206175 165.893271,149.995073 166.132979,151.025203 L165.750742,154.112334 C166.029321,155.188103 165.689195,155.732507 165.663281,156.615941 L165.575819,159.693293 L165.310197,168.915566 L165.530469,172.393886 C165.611452,173.717408 165.553144,174.708419 165.559623,176.044981 L165.579059,181.286909 C165.585537,182.783206 165.167668,184.181706 165.413855,185.717121 C165.62117,187.017824 165.219497,188.168571 164.134332,188.937908 C163.917299,188.690156 163.512387,188.331566 163.26944,188.403284 C162.064422,188.761873 160.438294,189.361696 159.181447,188.709715 C158.481759,188.344606 158.410495,188.729274 157.908404,188.784693 C156.055526,189 154.711217,186.995004 154.565449,185.149898 L154.306305,181.870432 L154.32898,178.043303 L154.351655,169.83486 C154.358134,167.934335 154.341938,166.095748 154.484467,164.338658 L154.918532,158.897876 C155.028669,157.515675 154.860225,156.426867 154.947686,155.041407 L155.193873,151.217537 C155.355838,148.71393 155.721878,146.194022 155.284573,143.719754 C154.860225,141.304163 155.521042,139.051568 155.349359,138.047517 C155.106412,136.632718 155.495127,133.956335 155.725117,131.892815 L156.518745,124.740582 L156.742257,120.910192 L156.551138,116.170289 C156.515506,115.250995 156.389173,114.436019 156.363259,113.529765 L156.269319,110.276379 L155.320205,105.74511 C155.417384,104.35965 154.856986,103.274101 154.659389,101.983178 L154.183212,98.879748 L153.253534,94.3158797 L152.421034,91.9100692 C152.054994,89.9704252 151.731064,88.3698114 150.908283,86.5605636 C150.396474,85.439156 150.688011,83.8874408 150.023955,82.6617161 L149.76805,80.6699136 L148.686125,76.9340615 C148.184034,75.2095713 147.432517,73.5763584 147.173373,71.7638507 C146.972537,70.3588313 146.230738,69.2080845 145.709211,67.9986594 C145.268667,66.9815688 144.954455,66.4371645 143.966469,65.8145224 L136.969588,61.4169094 L133.062996,58.5579719 C132.152753,57.8929511 127.967582,57.550661 125.502477,57.377886 L122.059104,57.1399128 C119.765682,57.2637893 117.666617,57.7723346 115.30517,57.6125992 C113.562428,57.4919827 111.7549,57.4626435 110.057509,57.9581492 L103.591872,59.8521546 C102.254042,60.2433433 101.042545,60.6247523 99.7597836,61.0387603 C97.6542405,61.7135608 95.8531914,62.7208717 93.9258097,63.6564647 C92.5167155,64.341045 91.4769012,65.2733781 90.1811824,66.1470328 C88.1760576,67.4998938 85.8826353,68.5952222 84.4411482,70.6359233 C84.068629,71.1672879 83.6993492,71.6432342 83.2944371,72.1778588 L81.8011212,74.1338023 L80.4632915,76.3733577 C79.0380008,78.1337068 78.1245191,79.9070957 77.1786444,81.9347571 L74.4673528,87.7536892 L73.5441532,90.6224063 C72.7699612,93.0347367 71.9795727,96.3924398 71.6200108,97.3280328 L70.1234556,101.2497 L69.2941955,106.048281 C68.9475908,108.049863 68.0729806,110.22748 68.1507237,110.977259 C68.2705777,112.105186 67.3927282,117.141741 67.1076701,120.039797 L66.8485263,122.686841 L66.637972,125.689214 L66.7999369,129.147974 C66.6088183,132.329642 66.9521838,135.289637 67.8105975,138.285491 L67.9563659,139.928483 C68.863369,141.669273 68.8277368,143.383983 68.840694,145.300808 L69.2358882,146.050586 L68.8763262,146.705827 C69.3233492,147.351289 69.1970166,148.176045 69.2099738,148.899744 L69.2909562,152.987666 C69.3136313,154.040616 69.2715205,154.966429 69.310392,156.006339 L69.4529211,160.100781 L70.3502064,165.32315 C70.444146,165.877334 70.6449824,166.447818 70.7518792,166.822707 C70.4830175,168.374422 70.4732996,169.867459 70.7615971,171.298558 C70.9980657,172.478644 70.1007805,173.150184 69.9582514,173.763046 C69.7833294,174.512825 71.0758089,175.754849 69.6440396,176.687182 C69.7962866,177.009913 70.0262767,177.697753 69.9258584,178.010704 C69.2196917,179.790612 69.0220946,182.590872 68.0956557,183.546024 L66.3593925,185.338972 C65.9382839,185.332452 65.6953366,185.299853 65.2677494,185.114039 C64.739744,185.77906 63.933159,185.593245 63.3047354,185.792099 L61.2218675,186.44408 C60.6225975,186.633155 60.1626174,186.714653 59.7123551,186.049632 C59.5568688,186.287605 59.3333573,186.492979 59.2685714,186.4506 L58.7049337,186.088751 C57.0075421,186.411481 54.9376314,185.844258 53.9917566,184.38056 C53.4119225,185.022761 52.9616602,183.963292 52.5470302,183.836156 C52.6992771,183.174395 52.1226823,183.076598 51.9509995,182.753867 C51.25779,181.472724 51.0116034,180.142682 49.9944642,179.096252 C50.4090942,178.770262 50.6455629,178.398633 50.5548625,178.242157 L50.0916431,177.45326 C50.1693862,176.947975 50.4317693,176.429649 50.0786859,176.119958 C49.8033456,175.878725 49.4502623,175.741809 49,175.689651 L50.0300964,168.902527 L49.0259144,168.286405 C50.5224696,165.626321 48.8088815,163.797514 50.1207968,161.675315 C49.8746102,161.209149 50.0495322,160.840779 50.1143182,160.146419 L50.4868373,156.143255 L50.4447265,150.565556 C50.4350086,149.284413 50.7168274,148.088028 50.6228878,146.868823 C50.8658351,146.709087 51.0796287,146.291819 51.1314574,145.828913 L51.4424299,143.018874 C51.5622839,141.946365 51.018082,141.017292 51.7987526,139.996941 C51.6011555,138.464785 51.9445209,137.004348 52.7640631,135.765583 C51.967196,134.732193 52.4530906,134.109551 52.9519423,133.261976 C53.4345976,132.440479 53.6516305,131.146297 53.9528851,130.269382 L54.75947,127.935289 C54.8825633,126.396614 54.8631275,125.193708 55.4883118,123.710451 L55.8575917,119.987639 C56.7483984,117.640506 56.6771338,115.531347 56.7289626,113.148356 L57.7655376,107.727133 C57.911306,106.961055 57.7882127,106.106959 57.9501775,105.474538 L58.9381631,101.644148 C59.1843497,98.5993961 60.016849,95.9816917 61.030749,93.1227542 C61.3773537,92.1513022 61.3482001,91.1342116 61.8114195,90.0780021 C62.77673,87.8743057 63.1524885,85.1099055 64.6393258,81.7261231 C65.8151906,79.0399607 69.5630572,71.8975069 70.5963929,70.8608568 C71.1924236,70.264294 71.3090383,69.4395378 71.8338044,68.842975 L73.706118,66.7077367 C74.7556502,64.5920577 76.3817773,63.3304741 78.2670482,62.0493311 C79.2194015,61.4006099 79.8478251,60.35744 81.1500225,59.9532116 L82.8506534,58.5677516 C83.9099035,58.3982365 84.188483,57.6582379 84.8978891,57.3224676 L93.274711,53.3519022 C94.6060621,52.7227403 96.2419071,52.4749875 97.6380441,52.1000983 L101.531679,51.0601883 C102.616844,50.7700567 103.582154,50.7504973 104.563661,50.2843307 C106.312881,49.4497948 109.762733,49.5769312 112.746125,49.4041561 L115.567553,49.2379009 C118.291802,49.0814255 122.839775,48.7554349 124.349287,49.3128788 C125.926825,49.893142 127.494644,49.5443321 129.049507,49.6975477 C133.147217,50.0952562 137.410132,52.3804502 140.775762,54.6428249 C142.197813,55.5979774 143.263542,56.9182392 145.032198,57.4561237 L145.880894,58.3004393 L150.435345,60.8170867 L152.790314,62.5611364 C153.45761,63.0566421 153.690839,63.9531162 154.7015,64.2236884 C155.119369,65.5080913 155.799621,66.5284418 156.95605,67.248881 C157.273501,69.1265868 158.507673,70.4761879 159.0292,72.1811187 L160.700678,77.6382011 C160.950103,78.4466578 161.319383,78.8671857 161.585006,79.7701796 L162.641016,83.3528162 L163.956171,87.6102533 C164.707688,90.0388832 165.316676,92.2816985 165.925664,94.7853062 L166.499019,97.1356983 C167.072375,99.4991301 167.41574,101.663708 167.577705,104.098857 L167.794738,107.355503 C167.992335,110.276379 168.10571,112.985361 167.859524,115.896457 L167.532355,119.749666 L167.613337,122.993272 L167.344476,126.275997 C167.201947,127.987448 167.120964,129.529383 166.991392,131.292992 L166.49578,137.985579 C166.434233,138.852714 166.544369,139.569893 166.534651,140.290333 L166.534651,140.290333 Z" id="Fill-1" fill="#012F7D"></path>
            <g id="Group-5" transform="translate(43, 34)">
                <mask id="mask-3" fill="white">
                    <use xlink:href="#path-2"></use>
                </mask>
                <g id="Clip-4"></g>
                <path d="M96.762503,2.74070732 L96.762503,3.14709927 C96.762503,3.29665151 97.077523,3.40393899 97.077523,3.06907202 L97.3698096,2.95853341 C97.3243428,3.4689617 97.6328675,3.77781958 98.1752215,3.93387409 C99.6366546,4.35977286 100.487533,5.55293963 101.578737,6.39173262 C102.731645,7.2760415 103.741658,8.10508109 104.732184,9.15519789 L107.291316,11.8731473 C108.544901,13.2028617 109.899162,14.7959182 111.019594,15.368118 C112.081569,15.9045554 112.604437,17.0587086 113.841783,18.2323685 C115.601998,19.9067034 116.738668,21.7956132 118.063701,23.7300388 C119.291305,25.5246657 120.424727,27.2250096 121.496445,29.1204217 L123.623642,32.8949901 C125.40659,36.0583451 126.874518,39.0623944 127.793597,42.5671186 L128.813353,45.3663464 C129.303745,47.5055936 130.109157,49.4465216 130.443663,51.6410381 L130.969778,53.1918298 C131.732971,55.451369 132.440954,57.6003697 132.343525,60.0419725 C132.278573,61.6902983 132.993051,63.2573456 133.52891,64.6065669 C133.512672,66.3524268 133.645825,67.8739582 133.730263,69.7433612 L133.863416,72.6596298 C133.91213,73.7390069 134.029045,74.5355351 133.993321,75.6636792 L133.847178,80.2315247 C133.804958,81.5287278 133.964092,82.5690912 133.964092,83.8272807 L133.960845,86.5224721 L133.512672,90.0011872 C133.580872,93.8765409 133.376271,97.5665798 132.931346,101.438682 L132.853403,105.23926 C132.83067,106.468189 132.668288,107.427274 132.554621,108.672459 L132.33703,111.104308 C132.171401,112.921693 132.031753,114.462732 131.950562,116.211843 L131.81741,119.004568 C131.758952,120.230246 132.099953,122.801894 131.51538,123.913783 L131.365989,126.417157 L130.989264,129.48948 C130.047452,131.622225 130.252052,133.624925 129.839604,135.793432 C129.401174,138.072478 128.878305,140.188968 128.563285,142.533036 L128.056655,146.323861 C127.900769,147.484516 127.806588,148.427345 127.705911,149.571745 L127.183043,155.631862 L127.205776,157.943419 L126.786832,162.306443 L126.595222,166.760499 C126.533517,168.16499 126.293193,169.745042 126.73487,171.038994 L127.449349,173.139227 C127.199281,174.631498 127.325939,176.585431 125.942449,177.632297 C124.925941,178.399565 123.071545,177.794853 122.006323,177.378708 C121.636093,176.715476 120.74949,176.055496 120.551385,175.206949 C120.255851,173.929253 119.024999,171.100765 118.307273,170.587086 C118.03772,170.395269 118.044215,169.845827 118.005244,169.601992 C118.245568,169.735288 118.528112,169.680019 118.648274,169.494704 C118.719722,169.380914 118.849627,169.133828 118.869113,168.902997 L119.206866,164.670019 C119.42121,161.987832 119.460182,159.451946 119.807678,156.766508 C120.077231,154.656521 119.366,157.150142 119.895364,155.248228 C120.142184,155.176703 120.548137,155.531077 120.765728,155.781414 C121.853684,155.014146 122.25639,153.866495 122.048542,152.566041 C121.801722,151.034756 122.220666,149.64327 122.214171,148.150999 L122.194685,142.923173 C122.18819,141.590207 122.246647,140.601862 122.162209,139.27865 L121.944618,135.809688 L122.210923,126.612225 L122.298609,123.546404 C122.32459,122.662096 122.665591,122.119156 122.386295,121.049532 L122.769515,117.970707 C122.529191,116.940097 122.785754,116.153322 122.769515,115.223497 C122.75003,114.059591 122.551924,113.263063 122.879935,111.936599 C123.029326,111.335139 122.483724,110.13547 123.18846,109.673809 C123.168974,109.784347 123.071545,109.998922 123.295631,110.236255 C123.386565,110.255762 123.548946,110.031434 123.50348,109.813608 C123.445022,109.56327 123.445022,109.511252 123.194955,109.355198 C122.905916,109.173134 122.902668,108.708222 123.165726,108.5034 C123.493737,108.815509 123.922424,108.763491 123.896443,108.396113 L123.828242,107.518306 L124.182234,103.844523 L125.185751,98.220058 C125.520257,96.3604085 125.70862,94.7738543 125.760582,92.8784422 L125.952192,85.5991496 L126.22824,81.82133 C126.793328,79.087125 126.458822,76.81133 126.231488,74.0576182 L125.871001,69.7238544 L125.607943,65.2925565 C125.478038,63.09804 124.172491,60.2305384 124.107538,57.392297 C124.042586,54.4240102 122.795496,51.9206358 122.038799,49.1571705 C121.50294,47.2162425 121.11972,45.3533418 120.466946,43.4026605 L119.002266,39.0331342 C118.271549,36.8613756 117.144622,35.0830044 116.056666,33.0900583 C113.737859,28.8440752 111.565196,24.500558 108.213643,20.9243088 C106.209855,18.7883127 104.150859,16.8441336 102.030157,14.7406489 L99.7016071,12.4323426 C98.1232595,10.8685464 96.5091879,9.78916933 94.6255631,8.66102528 L91.5175822,6.80462684 C89.6924148,5.71549641 87.870495,5.03275793 85.8472221,4.5093251 L81.8656291,3.47546397 C75.8705061,1.39798831 72.1649615,1.2419338 65.9717331,1.39798831 C63.4418302,1.45975989 61.1652423,1.27119403 58.6028631,1.50852693 L55.7092257,1.77512005 C53.3417042,1.99619727 51.3086885,2.29205061 49.0321007,2.77972095 L44.4496962,3.76806618 C42.9330535,4.09643087 41.4813634,4.31425696 40.0329209,4.99699544 L31.6767717,8.93086953 C30.0951764,9.67537959 28.9942302,10.8522907 27.6497118,11.9901881 C22.81724,16.0801167 19.2935626,21.3274496 16.5006017,26.994179 C15.2665027,29.5008046 14.4968147,31.8188643 13.6881551,34.4782932 L11.4148148,41.9656585 C10.9471563,43.5066968 10.59966,44.7323749 10.2943828,46.4067098 L9.80074325,49.1344125 L8.70953993,57.0866903 L7.46894568,65.8127382 L7.19614485,72.08743 C7.11495413,74.0283579 6.71549577,75.9497791 6.95582031,77.9589809 C7.31630712,80.9727836 7.16691619,83.8175273 7.11495413,86.8540879 L6.84864855,102.583082 C6.81941989,104.345198 6.3485137,105.974016 6.48816174,107.739383 L6.96231557,113.825509 C7.05649681,115.041434 6.77395309,116.2346 6.78369598,117.512297 L6.82591515,123.071739 L6.45243783,127.067384 C6.38748525,127.756625 6.21211328,128.127255 6.45568545,128.592167 C5.14039574,130.708656 6.86163907,132.529292 5.36123451,135.18547 L6.36799947,135.799935 L5.33525348,142.565548 C4.66624192,143.817235 1.98370043,143.228779 1.14905979,142.494023 C0.262457095,140.231232 2.03241486,137.978195 0.82104927,135.273251 C0.0156372971,133.472122 0.876258962,132.080635 0.840535044,130.321771 L0.710629887,124.047079 C0.67165834,122.15817 -0.231182501,120.168475 0.106570907,118.318578 C0.285190498,117.34974 0.613201019,116.845814 0.320914416,115.694912 C-0.413049721,112.791648 0.366381221,110.876729 0.191009259,108.782998 C0.0708469888,107.372005 0.330657303,106.039039 0.42808617,104.676813 L0.668410711,101.350902 C0.814554013,99.3416998 0.976935459,97.091914 0.583972359,95.1217258 C0.233228435,93.3596103 0.330657303,92.010389 0.389114623,90.2092599 L0.603458132,83.6224591 L0.629439164,79.5617908 L0.856773189,69.1321477 C0.895744736,67.2302334 0.847030302,65.4811224 0.983430717,63.6442308 L1.33742227,58.8390523 L1.32443175,52.7951912 C2.12010084,50.7144644 2.09736744,48.4776831 2.31171095,47.3495391 L3.52632416,40.993569 L4.10440211,38.5812263 L7.14093516,27.4688448 L9.49871376,21.9581699 C11.1290235,18.1575924 13.3309159,14.8349318 15.7503994,11.5187735 C17.0169747,9.7859182 18.0886923,8.13434131 19.85865,6.80137571 C20.6088523,6.23892924 21.1577016,5.39038285 21.722789,4.85719661 C23.1484981,3.51122646 25.2951808,3.76481504 27.1950438,3.57299804 C28.4323904,3.44945489 29.4748793,3.12109019 30.7382069,2.98454249 L37.2009885,2.28554834 C38.4805543,2.14574951 39.8153298,2.55864373 41.0656669,1.83364049 C41.5787923,1.86940298 42.5400904,2.42209603 43.0045014,2.16850745 C44.5438775,1.32971447 48.9996244,1.13464633 51.8218139,0.838792989 C52.7993502,0.738007784 53.4326378,0.438903308 54.5173459,0.55594419 C55.5013775,0.663231665 58.7847303,0.516930563 59.067274,0.435652172 C59.9701149,0.172310188 60.4442687,0.286099934 61.4347955,0.2373329 L66.3159818,0 L73.8472333,0.230830629 C74.4805209,0.250337442 75.3346473,0.224328357 75.8705061,0.123543153 C78.0983795,1.05661907 80.3197577,1.0046009 82.6710411,1.25818948 C84.8437048,1.49552238 87.3054075,2.18476313 89.5430239,1.48902011 C90.2834833,1.38498377 91.5695443,2.01895522 92.4886233,1.73285528 C92.6997192,1.66458143 93.2225874,2.39933808 93.3979594,2.31805969 L94.1026949,1.99294613 L96.762503,2.74070732 Z" id="Fill-3" fill="#FF008A" mask="url(#mask-3)"></path>
            </g>
            <path d="M140.995057,35.8306728 L140.702851,35.9374552 C140.673631,35.8047862 140.511294,35.6462305 140.387918,35.6138722 L137.728846,34.8696314 L137.027552,35.1932144 C136.848982,35.2741101 136.329505,34.5428126 136.115221,34.6075292 C135.196396,34.895518 133.910691,34.2645312 133.170437,34.364842 C130.93344,35.0605454 128.472418,34.3745494 126.303602,34.1383339 C123.949723,33.8859392 121.728959,33.9377124 119.501702,33.0090293 C118.965992,33.10934 118.112101,33.1352267 117.478989,33.1158117 L109.949821,32.8860678 L105.069986,33.1222833 C104.079733,33.1675849 103.60571,33.0575667 102.703119,33.3196689 C102.420654,33.4005647 99.1382093,33.5429412 98.15445,33.4393946 C97.0732888,33.3196689 96.4369297,33.6206011 95.4596639,33.7209118 C92.6382552,34.0153723 88.1837412,34.2062863 86.644791,35.0443662 C86.1837553,35.2967609 85.2194764,34.7466699 84.706493,34.7110757 C83.4565018,35.4326658 82.1220956,35.0217154 80.8428839,35.1608561 L74.3818905,35.8565595 C73.1189124,35.9924643 72.076712,36.3192831 70.8397077,36.4422447 C68.9403705,36.6331586 66.7942817,36.3775281 65.3689671,37.7171616 C63.6222262,37.3062112 61.9826273,37.7333407 60.2261462,38.050452 L55.7911126,38.8561736 L51.5768566,38.8561736 C48.9534985,39.4806888 46.5671517,39.9854782 43.9275599,40.0404873 L39.4016178,40.9465197 L35.9600837,41.5936856 C34.1776287,41.6551664 32.8269889,41.8363728 31.1484293,42.4705955 L28.6322133,42.8168293 C26.4893713,43.5125327 25.4049633,42.1146542 24.5673069,40.5064468 C24.1289983,39.6651311 23.9958824,39.4321513 24.0315964,38.4452233 C24.1127647,36.2125007 23.398484,33.300254 26.0056085,32.481589 L29.1484434,31.4978968 L33.0412731,30.7633634 L36.2035885,30.4365446 C37.3009833,30.3232906 37.9990303,30.1194333 38.9860364,29.9641135 L42.5314659,29.3946075 L47.9080513,28.795979 C48.9210312,28.6827249 50.2034897,27.6957968 51.2197163,27.883475 C52.6774982,28.1552847 53.9112557,27.8705316 55.3235834,27.8770033 C57.3917506,27.883475 59.2586206,27.5760711 61.3235411,27.3042614 C65.4728625,26.7509346 69.8624419,26.7056329 73.641636,25.8125439 C75.3851302,25.3983577 77.3007011,25.4468952 79.096143,25.1880288 L83.5181897,24.557042 C85.8168748,24.2269874 87.9369897,24.2625815 90.2713888,23.6542455 L93.1901994,23.3759641 C94.6349944,23.2368234 95.8849855,22.9164763 97.3200403,22.4440452 L99.732361,22.560535 L107.531007,22.3566778 C109.865406,22.295197 112.011495,22.2854895 114.345894,22.3049045 L124.787379,22.3987435 C125.589321,22.4052152 126.329576,22.1204622 127.001649,22.0751606 C128.803584,21.9619065 130.433443,21.6092011 132.254859,21.3568064 L135.157436,20.9523276 C135.323019,20.9296768 135.589251,20.9911576 135.741847,20.9717426 L136.060027,20.9523276 C136.514569,20.4281232 137.251577,20.8908469 137.76456,20.8714319 L140.637917,20.7678853 C142.300242,20.4410665 143.822959,20.4960757 145.495025,20.4863682 C146.881379,20.4798965 148.12163,20.3019259 149.563178,20.509019 C151.988486,20.8584886 153.4138,19.4670818 153.907303,20.1627852 C154.280677,20.6902254 154.855349,19.8683247 155.199502,19.9265696 C156.053392,20.0754178 159.027397,19.5835717 161.03063,19.3182336 L164.43645,18.8652175 C165.910465,19.1370272 167.16695,18.8684533 168.50785,18.3539564 C169.160443,19.0755464 170.033813,19.1143763 170.670172,18.4219088 L177.030517,18.1630424 C178.407131,18.1080333 179.754524,17.923591 181.134384,18.2762964 C181.368149,18.3345414 181.95256,17.8685819 182.098663,18.036845 C182.205805,18.1630424 182.592166,18.6548885 182.760996,18.6063511 C186.04344,18.1015616 194.325849,19.1370272 195.260908,20.7322912 C195.520646,21.1755999 196.20246,21.1594207 196.634275,21.1302983 C199.712175,24.993879 205.179669,26.608558 203.225137,32.3036184 C203.553057,32.5268907 203.783575,32.6110222 203.997859,32.8957753 C203.121242,35.8403803 205.481615,36.9502699 202.127742,39.5615845 C200.111523,41.130962 199.267373,40.9271047 196.767391,39.9757707 L193.786892,38.8399945 C189.494715,37.2026646 186.793435,38.3190259 184.095402,38.0375087 L178.394144,37.4388802 C177.488306,37.3418053 177.238308,37.0085149 176.248055,37.3838711 C174.173394,38.1637061 169.988359,37.2059005 168.02084,37.4550594 C166.040335,37.7042183 162.93646,37.0344015 160.670243,37.1476555 C158.322857,37.2673812 156.202742,36.9340908 153.897563,36.8337801 C152.423548,36.7690635 151.02096,37.2770887 149.459283,36.7625918 C148.147604,36.3289906 145.423597,36.4195938 143.508026,36.1866141 C142.891147,35.3355909 141.793753,35.5362123 140.995057,35.8306728" id="Fill-6" fill="#012F7D"></path>
            <path d="M173.406577,14.2804925 C173.422787,14.1571852 173.370913,13.9170604 173.182869,13.793753 C172.103235,14.5757811 170.845284,14.2318186 169.603544,14.0922866 C167.79767,13.8911009 164.091901,13.5763427 164.312367,13.5601181 C161.138309,13.8132226 159.407005,13.0344394 157.400119,13.3232382 C156.00924,13.5276688 154.838826,13.3037686 153.516032,13.2810541 C152.45261,13.2648294 151.596684,13.5276688 150.45545,13.3070135 C149.95616,13.2129106 149.012696,13.0117249 148.510164,13.0117249 L145.306927,13.0247046 C144.846543,13.0247046 143.202777,13.5276688 141.873498,12.9760307 C141.31585,13.5276688 140.320512,12.9500712 139.81798,13.0928482 C139.036624,13.3199933 138.550302,12.8819277 137.931053,12.8851726 L123.639689,12.9338466 C122.359042,12.9370915 121.234019,13.3199933 119.937162,12.9825205 C118.377691,12.5736594 116.267057,13.563363 114.454699,13.193441 C113.595531,13.0214597 112.574256,13.0928482 111.676183,13.3135034 C110.962911,13.4854847 110.197766,13.1058279 109.56879,13.2096656 C105.399395,13.9105705 102.141042,13.2129106 98.6881598,13.3135034 C96.6293993,13.3751571 94.6030602,13.7742834 92.5086361,13.2226454 C91.6754055,13.0019901 89.1011443,13.7645487 86.0632567,13.2518497 C85.2365104,13.1090728 83.0545485,13.6250167 81.0735994,13.2583396 C79.9356073,13.0474191 78.6517189,13.3102585 77.4813054,13.3394628 L68.623772,13.5666079 C67.0707857,13.6055471 65.6604537,13.6931602 64.1107096,13.8229574 L61.7633984,14.0144083 C58.3948123,14.2934722 55.0748583,14.027388 51.7484201,14.5952507 L49.1482218,15.0398061 C49.0671682,14.6796189 48.901819,14.6439247 48.629479,14.676374 L45.309525,15.0592757 C44.0288787,15.2085425 42.920066,14.9002741 41.5227025,15.1306641 C40.5533019,15.2896657 39.3764042,15.6238935 38.3875507,15.507076 C37.4927194,15.4032383 36.756753,15.1793381 36.0402395,15.8250792 C35.8846167,15.6206486 35.6900881,15.3610542 35.573371,15.3415846 C35.4566538,15.3188701 35.2199774,15.7601806 35.0870496,15.7731603 L20.7697481,17.0029887 L16.3247707,17.5513819 L2.33492567,18.9921308 C-0.0253541011,19.2322556 -0.800226168,13.9105705 0.963499373,12.1128793 C2.18578711,10.8668262 4.24130548,11.0809916 5.81698675,10.8084175 L12.2623661,9.69540653 L20.1926468,8.72841741 C23.7363086,8.30008666 27.0919261,7.4693846 30.6680093,7.2746888 C31.8319385,7.2097902 32.8694241,6.66788691 34.0528061,6.53484478 C35.9591859,6.32716927 38.3227078,6.64841733 40.054012,5.82420513 C41.3249318,5.21740323 42.1062882,5.57434552 43.3415445,5.42183382 L50.6266388,4.53596795 C51.4825644,4.43213019 52.6691886,4.20174016 53.5283564,4.00704437 C56.0345325,3.44242656 58.3299695,3.30613951 60.8296614,3.10495385 L68.623772,2.47868238 L77.0111948,2.07631106 L81.0898101,2.00492261 C81.9327671,1.98869796 82.4320571,1.96598345 83.294467,1.94002401 L86.8900031,1.82645146 C88.4429894,2.31968081 89.6944564,1.82645146 91.1501784,1.87188048 C93.9967795,1.95624866 96.7850221,2.3618649 99.625139,1.47924396 C101.265663,1.9497588 102.912672,1.86539062 104.569406,1.54089763 C105.321583,1.97247331 106.14833,1.5376527 106.871328,1.50844833 L110.353389,1.35593662 C113.067062,1.23911914 115.774251,1.04117842 118.325817,0.930850801 L124.482646,0.664766548 L128.039276,0.395437364 L134.679184,0.216966218 C136.280803,0.171537199 137.960232,0.5836433 139.600756,0.171537199 C141.04351,-0.191894952 142.379273,0.13259804 143.796089,0.14882269 L145.556572,0.168292269 C147.498616,0.191006779 149.343395,-0.195139882 151.275712,0.168292269 C153.133459,0.515499771 155.026871,0.203986498 156.868408,0.0969038109 C158.440847,0.00929070294 159.860905,0.434376523 161.391196,0.512254841 L169.344172,0.917871082 L174.006373,1.23911914 L177.491676,1.54089763 L182.419733,2.43974322 L186.25843,3.06925962 C187.198651,3.22177133 188.508477,3.34832359 189.36116,3.69228617 C192.716778,5.04866688 199.249695,6.09028938 203.013822,5.99618641 C204.751611,5.95075739 206.476431,6.4180273 208.282304,5.84042978 C209.475412,5.46077298 210.639342,5.69765286 211.812997,5.77877611 C213.278446,5.88261387 214.309447,6.18114742 215.210763,7.25197429 C216.102352,8.31631131 216.063446,9.71812104 215.924034,11.0485423 C215.758685,12.6255782 215.25291,13.053909 213.943085,13.6152819 L210.094662,15.2604613 C208.032659,16.1430823 206.14249,16.3767172 203.931349,16.574658 L199.648478,16.9575597 C198.406738,17.0678873 197.583234,17.4215847 196.176144,17.0711322 C193.942308,16.5130043 191.925695,17.3631759 190.839577,16.3085737 C190.217086,16.3637375 189.400066,16.3702274 188.586288,16.1722867 L182.756916,14.7574972 C181.936654,15.6141587 181.229867,15.1241743 179.907073,14.3064519 C178.811228,15.1274192 178.20819,14.4362491 177.186915,14.0987764 C176.525518,13.8813661 175.25784,14.5757811 174.729371,13.5309137 C174.281955,13.9203053 173.915593,14.1312257 173.406577,14.2804925" id="Fill-8" fill="#012F7D"></path>
            <path d="M85.3449242,118.196853 L84.340781,124.623697 C84.2172942,125.409054 84.1685493,125.873724 84.1782983,126.590363 L84.3147838,136.649486 L84.5650072,139.840001 L85.0362071,146.054144 C85.2864305,149.355918 85.7738786,152.585701 86.5180495,155.841663 C86.6805322,156.548485 86.9372549,156.928075 87.2719693,157.579267 L88.2111194,159.408496 C89.5272294,161.964181 88.835053,164.258079 90.6451105,165.907331 C90.9115822,167.124635 91.4412759,168.400841 92.2731874,169.421806 C92.8451265,170.125356 93.865518,169.660686 94.4894517,169.192743 L97.0306814,167.281706 L98.1193156,165.115428 L102.678581,161.106832 L107.900775,157.258579 L110.939202,154.712712 C111.540388,154.205502 112.011588,153.86518 112.596526,153.390693 L116.476613,150.259079 L120.281958,146.947488 L123.170901,144.257638 L125.266928,141.685592 C125.855116,140.962408 126.462801,140.824971 127.002244,140.055975 C129.254254,136.865459 131.418524,133.701122 132.67614,129.934678 C133.443059,129.558361 133.579544,128.665016 133.475555,127.81094 C134.213227,126.704894 134.362711,125.608666 134.46995,124.499348 L134.996394,119.014934 C135.340857,115.441557 135.21737,113.893748 133.15059,111.436233 C132.373922,110.510165 131.847478,110.392362 130.648356,110.284375 C126.326316,109.901513 125.825869,110.336732 123.489367,112.627359 C122.923928,113.183654 122.325991,113.494524 121.715056,114.106449 L119.51504,116.298906 C118.975597,116.835567 118.540144,117.182433 118.426406,118.007058 C118.218428,119.479604 116.830826,120.451484 115.985915,121.58698 L113.577922,124.820036 L111.371406,128.494855 C110.474502,129.990307 109.073901,130.615321 107.445824,129.833236 C104.66412,128.5014 102.678581,125.647934 104.300158,122.827191 C106.552169,118.913492 105.353046,116.246548 106.041973,114.613659 C106.509923,113.507614 106.938878,112.041613 106.080969,110.965018 C105.778751,109.499017 104.797355,108.307892 104.059684,107.028413 C102.337367,104.047326 98.6815058,101.858142 96.3190071,102.947826 C93.9175125,104.057143 90.7328512,106.724087 89.1405206,108.847825 C87.1387335,111.518041 85.8713682,114.832905 85.3449242,118.196853 L85.3449242,118.196853 Z M112.060333,170.727463 L110.493999,171.676437 C107.735043,174.536448 104.706365,176.853253 101.762178,179.389303 C100.251089,180.688416 98.8147416,181.768283 97.1346703,182.785975 L93.6607898,185.943768 L89.6117204,188.44055 C88.2176187,189.297899 86.917757,189.108104 85.5724,188.290024 L83.1221606,186.804389 C82.5372228,186.447705 81.8450465,185.416923 81.5850741,184.680651 C80.3697034,181.198898 84.0710597,176.283868 87.1127362,173.28642 L82.7387014,165.157968 C81.6403182,163.122583 81.9360368,159.928795 81.162619,158.495518 C80.0024924,156.348873 79.3883078,154.444381 79.0145975,152.065402 C78.6636348,149.820588 78.0559495,147.677216 78.0299522,145.337505 C78.0007053,142.736007 77.7894778,140.154144 77.2825317,137.562464 C76.8698256,135.448543 77.0290587,133.521144 77.035558,131.479215 L77.0778035,121.155034 L77.6757399,116.03712 C77.5262558,114.132627 78.0429508,112.902234 78.6181397,111.203898 C79.9115021,107.388369 81.5070824,103.697188 84.5812555,100.964797 L88.9260434,97.1034557 C93.1148479,93.9751144 97.664364,94.6230345 102.087144,97.1689022 C103.094536,97.7481034 104.329405,97.9019026 105.171066,98.7068942 C107.767539,101.187315 109.584096,103.962246 111.306413,107.054592 L113.3082,110.647603 C115.823433,107.512717 119.573534,102.486428 122.745197,102.483156 L128.597824,102.476611 C131.035065,102.476611 133.046601,103.399406 134.895654,104.940671 C137.111919,106.786261 139.1657,108.906727 140.771029,111.423144 C142.850808,114.682378 142.906052,118.668068 142.993793,122.457419 C143.065285,125.605394 142.512844,128.206891 141.664684,131.178161 C141.164238,132.932126 140.95626,134.777717 140.192591,136.57095 L137.716354,142.408775 C136.851946,144.440888 135.78606,146.450095 134.447202,148.217149 L132.783379,150.409606 L128.835049,155.54061 C127.78541,156.908441 126.690277,158.050482 125.465157,159.310326 L122.868683,161.987087 C121.705307,163.181485 120.324204,164.539499 119.092585,165.521196 L115.00127,168.783703 L112.060333,170.727463 Z" id="Fill-10" fill="#012F7D"></path>
            <path d="M169.949076,204.678267 L169.252555,202.659785 C168.825144,201.415381 169.056263,199.89662 169.116417,198.550966 L169.303211,194.272306 L169.714791,190.081833 L170.139036,183.435214 L170.648762,177.614931 C170.746909,176.517504 170.838723,175.61278 170.990691,174.495756 L171.487753,170.857262 C171.79169,168.606883 172.304582,166.572071 172.728827,164.383749 C173.134075,162.299944 172.931451,160.37618 173.852758,158.328303 L174.220015,155.375701 L174.362485,152.97508 C174.932366,151.907048 174.599935,149.434571 174.656923,148.258756 L174.786729,145.573979 C174.865879,143.895177 175.005184,142.41561 175.163484,140.668219 L175.378772,138.336186 C175.486416,137.140774 175.644716,136.216453 175.670044,135.037372 L175.746028,131.385814 C176.176605,127.668933 176.376063,124.125158 176.309577,120.401745 L176.746486,117.060471 L176.749652,114.473679 C176.749652,113.265203 176.594517,112.26576 176.635676,111.01809 L176.778146,106.631648 C176.812972,105.547285 176.698996,104.783006 176.651506,103.744369 L176.521699,100.945277 C176.439383,99.1521595 176.309577,97.6889234 176.325407,96.0133874 L176.382395,90.4543965 C176.388727,89.8991507 176.008807,89.3145095 175.746028,88.9650312 C176.746486,87.9492579 175.755527,84.8006873 175.790353,82.8540606 L175.872669,78.1932616 C175.64155,76.289095 175.502246,74.3718637 175.879001,72.4252371 C175.195144,69.6555401 175.2458,66.9413677 175.242634,64.1292108 L175.242634,61.5162891 L175.153986,56.5680687 L174.995686,51.848479 C174.94503,50.430969 174.94503,48.8240221 176.398225,48.3667609 C176.752818,48.6966422 177.620303,49.2878157 177.816595,48.8468852 L178.139527,48.1250656 C178.370646,47.6057474 178.867708,48.8697483 179.209637,48.8991436 C179.399597,48.9154744 179.792181,48.43535 179.950481,48.5104715 C180.225924,48.8174898 180.384224,49.5164464 180.764144,49.4903172 L181.922902,49.4184618 L184.427211,50.7673826 L185.801256,59.9485361 C185.953225,60.9577771 185.706276,61.878832 185.81392,62.7868223 C185.975387,64.1488077 185.858244,65.2233717 185.82975,66.5657602 C185.763264,69.5608217 186.453453,72.8661676 186.478781,77.0566407 L186.507275,81.959135 C186.513607,82.8442622 186.526271,83.3407173 186.652911,84.150723 C187.077156,86.8355 186.713065,89.5235432 186.700401,92.2573125 L186.656077,101.193505 C186.934686,104.381269 186.766887,107.337137 186.665575,110.528167 C186.573761,113.363187 187.181634,116.106755 186.618085,118.977703 L186.675073,120.976588 L186.491445,126.855661 C186.133687,129.092976 186.348975,131.144119 186.434457,133.368369 C186.466117,134.197971 185.826584,135.207212 185.969055,136.183792 C186.421793,139.247442 185.611296,142.154318 185.68728,145.084056 L185.912066,153.445405 L185.525814,156.757284 C185.801256,158.651652 185.538478,160.255333 185.589134,162.120305 L185.652454,164.409878 C185.674616,165.193755 186.041873,165.850251 185.478324,166.803967 C185.202882,167.267761 185.836082,168.368454 185.709442,168.848579 C185.364348,170.12891 185.68728,171.066296 185.737936,172.35316 L185.855078,175.295963 C186.561097,176.814724 186.041873,180.237651 186.203339,181.246892 C186.637081,184.000258 187.346266,185.28059 186.725729,188.745977 C186.561097,189.670298 186.687737,192.560843 186.880864,193.557019 C187.092986,194.641382 187.102484,195.732276 186.222335,196.591274 C186.310983,197.025673 186.785883,197.923864 186.247663,198.240681 C185.744268,198.534635 185.329522,198.720806 185.326356,199.259721 C185.32319,199.638594 185.855078,199.988073 186.054537,200.246099 L185.253538,202.535671 C185.380178,205.63525 185.177554,207.572078 182.467454,209.116968 L178.519448,209.793061 C177.791267,209.920441 177.389184,210.087015 176.515367,209.94657 L173.817932,209.50564 C172.994771,209.371728 172.978941,208.963459 172.500875,208.460471 C171.64922,207.562279 170.617102,206.89925 170.667759,205.43928 C170.680423,205.021213 170.113708,204.821978 169.949076,204.678267" id="Fill-12" fill="#012F7D"></path>
            <path d="M41.9870871,88.3056186 L42,94.6308676 L41.6481232,99.661647 C41.5125377,101.583738 41.5609611,103.41757 41.5222224,105.405038 L41.2962465,116.323039 L41.2704206,120.569292 L41.0573576,127.466592 C40.9992495,129.352725 40.9024027,130.764874 41.2510513,132.608512 C41.6416668,134.671165 41.4802554,137.024746 41.3349852,139.126624 L41.0960964,142.607963 C40.9992495,144.036456 40.7409914,145.428991 40.8604358,146.906517 C41.03476,149.096655 40.2599855,151.100468 40.9895649,154.14051 C41.2801053,155.34672 40.9540544,155.873007 40.7765019,156.886354 C40.4407662,158.821521 41.3382134,160.907055 41.3769521,162.881448 L41.5060812,169.448593 C41.5415917,171.292231 40.6861115,172.746875 41.4867119,174.633009 C42.6908406,177.463844 40.9314568,179.820694 41.8127628,182.190619 C41.5674175,182.128511 41.2219972,182.344255 41.2510513,182.383482 L41.7675676,183.063405 C41.28979,184.106172 41.0702705,186.149211 40.934685,187.509058 L40.5472977,191.477457 L40.2728984,194.569801 L39.4561569,197.658876 C39.1817576,198.695106 38.8492502,199.509052 37.7451964,199.607118 C37.8678691,199.996113 37.9227489,200.411259 37.7419682,200.40799 L36.7347613,200.401452 C35.5403172,201.257894 34.0295068,201.87244 32.4573602,201.738417 C31.9376156,201.695922 31.1757539,202.359501 30.5591625,201.718804 C29.3518055,202.356232 27.9184726,201.862633 27.1727521,200.715263 C25.694224,200.457023 24.8193744,199.208317 24.9000801,197.635994 C23.1406962,192.046239 24.2641193,186.309386 25.6845393,180.752319 C26.191371,178.774658 26.0848395,174.907593 26.0816113,172.253277 C27.4665208,170.435789 28.4317607,168.147586 27.6860402,165.839769 L27.8345387,163.685588 C27.895875,162.780113 27.1081876,160.370962 27.6085628,157.55974 C28.1186227,154.712561 27.5795087,153.150044 27.9152444,151.031821 C27.9475266,150.825883 27.4245538,150.368242 27.5181724,150.188455 C27.5891934,150.054432 27.937842,149.763503 27.9507549,149.547758 C28.0863404,147.190908 28.4543583,144.968081 28.96119,142.634114 L29.9780816,137.956371 C30.1427212,137.194726 30.4978262,136.531147 30.5494778,135.756427 L30.7883667,131.98416 L31.8891922,130.294158 C31.375904,129.127174 31.7503784,128.035374 31.7374655,126.845508 L31.6954985,122.703859 C31.6535316,118.722384 32.0441471,114.809556 31.6632162,110.80193 L31.5825106,102.103487 C31.5534565,99.0895961 31.8343123,96.1868462 31.7891171,93.0977711 L31.7148679,88.1944773 L31.6438469,85.0498316 C31.5857388,82.5524206 30.9142675,80.0550097 31.1660692,77.5281789 C31.2693725,76.4788741 31.2112644,75.5603237 30.6979763,74.6450422 C31.7988018,73.3342283 30.4300334,70.2418844 30.4849133,67.564686 L30.5397932,64.8188415 C30.565619,63.593018 30.63664,62.6711988 30.452631,61.3898047 C30.3073608,60.3797262 30.9174957,59.1702471 30.6527811,58.0326829 C30.4816851,57.29392 30.9013546,56.4440157 30.8432465,55.7314037 C30.6204988,52.9822903 30.423577,50.1253045 31.1176458,47.3859977 C31.517946,47.0362294 32.1603633,46.6047396 32.2313843,46 C32.8738015,46.8662486 34.0327351,47.1212198 34.6912934,46.7354941 C34.8591613,46.6374282 35.068996,45.9476982 35.1626146,46.0359575 L35.6565334,46.500136 C35.9406174,46.7649138 36.5120136,46.4151455 36.7153919,46.5687821 C36.957509,46.7518384 37.1221486,47.0721869 37.2351365,47.330427 C37.4481995,46.4903294 38.0292804,46.6080084 38.4618629,46.8270222 C38.6781541,46.9381635 38.9299559,47.1244887 39.0558567,47.4677193 C40.2373879,48.1182229 40.5892647,49.2557871 40.5989494,50.6679357 L40.7119373,69.5586921 L41.2865618,77.7046975 C41.3704957,78.8651437 41.2413666,79.8588779 41.3930933,81.1206588 C41.54482,82.4085907 41.5415917,83.7880507 41.5803305,85.040025 C41.6126127,86.1841269 41.9838589,87.1942054 41.9870871,88.3056186" id="Fill-14" fill="#012F7D"></path>
            <path d="M172.951851,14.4050467 C173.136971,15.4544863 172.795959,16.9667223 171.795657,17.6413621 C170.853814,18.2736331 169.567711,17.6804716 168.593391,17.6967673 L165.368391,17.7521725 L161.711442,18.1595636 C159.29188,18.4300714 157.034705,19.026492 154.654116,19.6261718 C153.913632,19.8119422 153.374509,19.8738656 153.312802,20.6951662 C152.819146,19.9977125 151.396638,21.3991381 148.967333,21.0471522 C147.525339,20.8385679 146.284705,21.0145609 144.90117,21.0243383 C143.225339,21.0341157 141.702152,20.9787105 140.039312,21.3078825 L137.165067,21.4121747 C136.651925,21.4317294 135.914689,20.9656739 135.460007,21.4936529 C135.356079,21.3046234 135.167711,21.320919 135.141729,21.5132077 C134.989085,21.5327624 134.722771,21.470839 134.557136,21.4936529 C133.514614,20.9363418 131.257439,21.4643207 129.195127,21.4512842 L123.459629,21.4186929 C122.430097,21.4121747 121.702604,21.3926199 120.70555,21.369806 L117.915746,21.2981051 L110.355021,21.0536704 L98.478057,21.0406339 C97.4063047,21.0406339 96.5359119,21.4740981 95.3602321,21.1123348 C94.8958061,20.9689331 93.9831928,21.0341157 93.3856097,21.1025574 L89.6279812,21.5295033 C86.623827,21.3926199 83.7885551,21.5686129 80.8136305,21.8163067 L73.4575125,22.4355412 L63.6980711,23.4686852 L57.027225,24.1139928 C55.3091736,24.2802084 53.5878745,24.3845006 51.9412732,24.9874395 C51.2365149,25.2449107 47.0274513,25.4828271 44.4942186,25.7794079 L32.6919525,27.1612787 L27.6612122,27.721849 C25.488478,28.2563462 23.4976169,28.7126243 21.1949733,28.5366313 L18.2200488,29.0385372 C16.6676318,29.3025267 15.1347012,29.335118 13.6277526,29.7783595 C12.1662722,30.2118237 8.65222373,30.0521264 7.95396087,28.9179494 C7.13877958,27.5882247 6.8562267,25.7077071 7.06732943,24.2313215 C7.33689137,22.3508039 8.37941405,21.7771971 10.0942177,21.4936529 L15.8621937,20.5354689 C17.8790367,20.2030377 19.7172542,19.9455665 21.6691425,19.580544 L30.2236745,17.9770524 C30.8602304,17.8597237 31.6916503,17.7521725 32.367179,17.7554316 C34.0592486,17.7619498 35.4557743,17.2437483 37.0861369,17.1264196 L38.5476173,17.0221275 C40.603433,16.8754667 42.2792639,16.6245137 44.1986748,15.8129905 C46.4233728,15.975947 48.180397,15.2165699 48.4791885,15.1676829 L51.0838714,14.7211822 C54.4160467,14.1508346 57.7417266,14.4180832 61.1161224,14.1377981 L63.467482,13.9455095 C65.019899,13.8151443 66.4326633,13.7271478 67.988328,13.6880382 L76.8611379,13.4598992 C78.03357,13.430567 79.3196728,13.1665776 80.4596275,13.378421 C82.4439931,13.7467026 84.6297182,13.228501 85.4578904,13.3719027 C88.5010174,13.8868451 91.0797184,13.1209497 91.9143861,13.3425705 C94.0124224,13.8966225 96.0422563,13.4957496 98.1045675,13.4338262 C101.563404,13.3327931 104.827377,14.0335059 109.003964,13.329534 C109.634024,13.2252419 110.400489,13.60656 111.114991,13.4338262 C112.014613,13.2122054 113.037649,13.1405045 113.898299,13.3132384 C115.713782,13.6847791 117.828057,12.6907447 119.390218,13.101395 C120.689311,13.4403444 121.816275,13.0557672 123.09913,13.052508 L137.415143,13.0036211 C138.03546,13.000362 138.52262,13.4403444 139.305324,13.2122054 C139.808723,13.0688037 140.805777,13.6489287 141.364387,13.0948767 C142.695958,13.6489287 144.34256,13.1437636 144.803738,13.1437636 L148.012499,13.1307271 C148.515898,13.1307271 149.460989,13.3327931 149.96114,13.4273079 C151.104342,13.6489287 151.961744,13.3849392 153.027001,13.4012349 C154.352077,13.4240488 155.524509,13.6489287 156.917787,13.4436035 C158.928134,13.153541 160.662424,13.9357321 163.841956,13.68152 C163.62111,13.6978156 167.33327,14.0139512 169.142258,14.2160172 C170.38614,14.3561597 171.646261,14.7016274 172.727757,13.9161773 C172.916125,14.0400242 172.968089,14.2811998 172.951851,14.4050467" id="Fill-16" fill="#FF008A"></path>
            <path d="M166.637052,141.785831 C166.505052,141.800831 166.412052,141.728831 166.379052,141.644831 C166.301052,141.458831 166.439052,141.176831 166.643052,141.215831 L166.637052,141.785831 Z" id="Fill-18" fill="#FF008A"></path>
            <path d="M105.981072,112.269451 C105.482095,112.924653 105.380995,113.96776 104.702647,114.593625 C104.040606,115.203191 103.235068,115.571538 103.274204,116.894981 L105.941936,115.904029 C105.250544,117.530625 106.453958,120.187289 104.193887,124.085904 C102.566505,126.895775 104.559151,129.734983 107.350812,131.064945 C108.984717,131.840756 110.390331,131.218151 111.290446,129.728463 L113.50486,126.067808 L115.921473,122.850473 C116.772669,121.719353 118.161977,120.747959 118.3707,119.281089 C119.293644,118.704121 120.161146,118.019581 121.106919,117.175316 L123.914887,114.671858 L127.078335,113.126755 C128.13173,112.611721 128.894871,112.119504 129.984141,112.380281 C131.88221,112.833381 133.78354,115.55198 132.632306,118.169528 L135,120.28834 L134.471672,125.751616 C134.057488,125.842888 133.698747,126.110184 133.40197,126.517648 L129.185126,132.287337 C130.753805,131.935288 131.533252,131.087763 132.671441,131.165996 C131.409323,134.917924 129.237307,138.066804 126.977235,141.248282 C126.435861,142.014315 125.826001,142.151222 125.235708,142.868359 L123.132178,145.430492 L120.232894,148.109974 L116.413928,151.412062 L112.519951,154.531605 C111.93292,155.001004 111.460033,155.340013 110.856695,155.845269 L107.807392,158.384584 L102.566505,162.218004 L97.9909196,166.20789 C96.8853434,165.559208 96.5233406,164.278141 97.2571301,163.150281 C98.8714669,160.672901 100.939123,158.642101 102.928507,156.458094 C104.943983,154.238231 106.594194,152.184613 108.338982,149.713752 C109.098862,148.634788 110.599054,147.946989 110.504476,146.382327 L102.02187,156.115825 L99.6019951,158.98763 L95.6167029,163.283929 C94.1165111,164.897486 92.5217419,166.335019 90.4899604,167 C88.6734237,165.357106 89.3680778,163.072048 88.0472567,160.526214 L89.3811229,158.508453 L94.7035427,152.650752 C95.1242486,152.187873 95.2253485,151.493554 95.9167413,151.138246 C95.0101036,151.2067 94.4622074,151.917317 93.9893209,152.497545 C93.0402865,153.667782 92.0195038,154.410996 90.8584857,155.310676 C89.5115744,156.353784 88.1809694,157.351255 86.3481264,156.973129 C85.6012917,153.729716 85.1120987,150.509122 84.8609797,147.223333 L85.7252206,146.027019 C87.3265123,144.10053 88.8071365,142.226196 90.1018672,139.862905 C88.631027,139.168587 87.3558639,141.958899 84.3880931,141.033142 L84.136974,137.854923 L84,127.834571 C84.8577184,127.720481 84.9131603,126.706711 85.3045146,126.224274 C86.4524875,124.8063 87.1210513,123.492636 87.7961376,121.843222 C88.1548791,120.96636 89.4789615,120.327457 89.2898069,119.092026 C88.0929147,118.951859 87.186277,120.125355 85.1708019,119.473412 C85.6991303,116.122429 86.9710321,112.820342 88.9799847,110.160418 C90.5780151,108.041606 93.774076,105.388201 96.1841668,104.283159 C98.5551221,103.197675 102.22407,105.378422 103.952551,108.348019 C104.692864,109.622566 105.677772,110.8091 105.981072,112.269451" id="Fill-20" fill="#FF008A"></path>
            <path d="M473.672397,159.196589 L472.399663,150.582553 C471.707242,145.877763 469.349715,140.595878 467.147158,142.721673 C465.726048,144.094311 467.823093,147.188452 467.064727,148.456757 C466.500899,149.399019 466.978999,150.080447 467.190023,151.397658 C467.364776,152.476858 466.946027,153.833194 467.875849,154.537445 L467.717581,158.73687 C467.687906,159.499809 467.19332,160.197539 466.748192,160.370342 C466.154689,160.598571 465.31719,160.226883 464.750065,159.783465 L460.124036,156.183959 C458.211637,154.697206 456.813607,152.297535 455.682653,150.152177 L453.371288,145.770169 L451.198406,138.942843 C449.365141,136.037807 450.077345,132.343748 448.952986,129.295253 C447.637387,125.734871 447.08345,122.549438 446.575675,118.78691 C446.084386,115.154799 444.785274,111.92372 445.355696,107.949265 C445.520558,106.798336 444.485225,104.933374 445.039161,103.661809 C445.497478,102.611953 444.659978,101.852275 444.590736,101.20019 C444.148906,97.0529323 444.808354,93.2121543 445.382074,89.1203238 L446.48665,81.2529238 L447.403283,72.7269183 C449.309088,73.017096 448.458399,75.5830487 448.992552,76.5676963 C450.29826,78.9738883 450.967599,81.3996428 451.993041,83.7601888 C453.625175,87.5031541 454.911099,90.8385666 455.352929,94.9108346 L457.73024,103.224912 C459.065622,107.887317 461.185748,113.857151 463.493816,117.818565 C464.275262,119.161859 464.756659,120.306267 467.044944,120.032392 C467.470288,119.980225 467.434018,118.985796 467.048241,118.24894 C467.084511,117.740314 468.433082,117.662064 468.90129,117.991367 C469.432146,118.366316 469.600305,118.910806 470.117972,119.892193 L472.97668,113.736515 L473.138244,108.536141 C473.171217,107.518889 473.019544,106.694002 472.376582,106.244064 C472.432635,105.415917 472.040263,104.36606 472.442527,103.573778 C472.686522,103.094496 473.105272,102.598911 472.90414,101.747941 C472.050155,98.1516947 475.080319,96.1302327 472.439229,95.1586267 C472.607389,94.7478134 472.953599,94.0109579 472.937113,93.649051 C472.920627,93.3034462 471.618217,93.2186752 471.562163,92.8795912 L470.65872,87.3988206 L469.567333,81.9930397 L468.367137,77.8164382 L465.28092,69.2806515 L462.392538,63.0695462 L458.983191,58.0843599 C457.196087,57.067108 454.561592,57.0410246 453.137184,55 C451.752343,56.3465546 450.486202,56.1672313 449.21017,56.5356591 C446.714159,57.2594729 445.97228,59.5678522 444.936947,61.602356 L443.439999,64.5530386 L441.33636,73.5452844 L439.084345,87.0108303 C438.86343,88.3443432 439.123912,89.4170223 437.4654,89.7952313 L436.941139,92.7556951 C435.539811,95.9574302 435.645323,99.6645309 435.374949,103.325986 C435.177115,106.048439 434.530856,108.624173 434.9562,111.330323 C435.041928,111.874814 434.659448,112.314971 434.234104,112.552982 L434,116.889344 C434.108809,117.675106 434.313238,118.395659 434.606692,119.184682 C435.605756,121.887572 435.918994,124.786088 436.357527,127.65526 L437.650045,136.122578 C438.0622,138.805906 437.857771,141.890266 439.384394,144.250812 C440.789018,146.418993 442.114509,148.55783 442.4838,151.241158 C442.872874,154.074465 444.129123,156.102448 445.484289,158.381484 C448.036353,162.685242 450.20264,167.037906 454.459377,169.913599 C458.491902,172.639312 463.348737,175.019421 467.951685,173.552231 C471.881996,172.300228 474.180172,169.065889 473.988932,165.335965 L473.672397,159.196589 Z" id="Fill-22" fill="#012F7D"></path>
            <path d="M616.473261,117.239038 C614.793254,120.117313 611.974864,122.21891 608.909986,123.142438 L605.394295,125.302775 L599.248322,128.758663 L592.285049,132.677946 C588.788818,129.757248 590.459095,125.53121 586.210429,122.163433 C586.275294,119.944355 585.059072,118.433424 583.14555,117.545793 L581.682841,113.495976 C581.086082,111.841458 581.630949,110.291367 579.62986,108.835913 L586.077455,108.388834 C590.893692,107.044334 595.739118,107.031281 600.711031,106.881167 L605.047266,107.370669 L619.168408,107.014964 C620.426792,106.985594 621.655986,107.879752 622.79437,108.297461 C623.689509,111.812088 618.925164,113.035844 616.473261,117.239038 L616.473261,117.239038 Z M576.924983,139.775731 C573.302265,142.301564 569.014679,143.518793 564.856823,144.807816 L557.673008,147.030157 C558.04274,141.795744 557.092465,136.531961 555.717324,131.277969 L555.548675,126.268727 C554.92597,124.865487 555.221106,123.684154 554.977862,122.385341 C554.410292,119.389586 553.878398,116.798486 554.004885,113.675461 L552.704338,109.263412 C552.817852,107.706794 551.773524,106.930117 551.556225,105.925005 L549.503244,96.4710815 L549.775677,93.442693 C551.034061,93.5275401 551.241629,95.299539 551.844875,95.9424188 C554.131372,98.3834044 553.220016,103.249059 555.029754,105.804261 C556.398408,107.736164 556.962735,109.201408 557.841658,111.319322 C558.46112,112.810673 559.927072,113.890842 558.928149,115.744424 C561.305457,118.358367 559.748693,121.318226 563.958441,121.298645 C563.176816,124.23566 565.018986,125.668271 566.773588,127.417426 C568.434136,129.071944 569.617925,131.043007 572.095773,131.822948 C572.806047,132.048119 572.80929,133.379566 572.968209,133.895175 C573.38659,135.242938 575.280652,135.951085 576.600657,136.763659 L577.732554,138.463864 C578.034177,138.920733 578.595261,138.734722 579.247155,138.565028 C579.522832,140.102066 577.541202,139.344969 576.924983,139.775731 L576.924983,139.775731 Z M565.369258,81.5869439 C567.143319,81.6685276 568.8363,81.2083953 570.756308,81.3585094 L577.486067,81.8839087 L585.811508,82.5333152 L591.347748,83.0032376 C592.992079,83.1402983 594.399653,84.491325 595.966146,84.621859 C591.509911,87.757938 586.362862,89.3961395 581.287164,91.2823556 L576.435251,92.3298908 C574.411459,92.7671797 572.588748,94.2585304 570.597388,93.7853447 C570.487118,92.8846603 569.24495,92.3364175 568.810354,91.4781566 C566.870886,87.6437208 562.385461,86.021836 560.111938,81.3487193 L565.369258,81.5869439 Z M531.091273,49.3319962 C531.263165,50.3110011 529.725861,50.4611152 530.024241,49.2145156 L530.345323,48.9469209 C530.47181,48.5324755 530.617757,48.033183 530.828569,47.7101114 C531.055597,47.3674597 531.824249,47.2499791 532.336683,47.8471721 C531.908573,48.1408736 531.402625,48.490052 531.091273,49.3319962 L531.091273,49.3319962 Z M529.61559,48.6369027 L529.93343,48.3888881 C530.309648,48.7348032 529.839375,49.1002984 529.61559,48.6369027 L529.61559,48.6369027 Z M640.950123,107.638264 C638.799844,103.55255 635.248477,100.896184 631.434407,99.5941071 C627.795472,98.3507709 624.568431,95.3713327 620.20625,95.430073 L615.062444,94.8753035 L611.391077,94.7349795 C612.756489,91.9415522 617.277589,90.7373762 617.365157,87.4609732 C617.550023,80.4610882 618.471108,83.3034658 613.457032,78.0005226 C611.85162,76.3068442 609.107824,75.5660638 607.15214,74.8611803 L603.584557,71.4477166 C599.841838,71.199702 596.258039,71.4803501 592.732619,70.1130066 L568.515217,70.9353707 L562.242758,71.2682323 C558.834095,71.4477166 555.230836,72.0188028 551.961633,70.5502954 C551.621091,70.3055442 551.173521,69.3004325 550.388653,69.258009 L544.654574,68.9479908 C543.311866,68.8729337 542.345375,69.4179131 541.304289,68.259424 C540.464286,67.3228427 540.616719,66.1088766 540.198339,64.9797576 C538.868603,61.3704929 537.824274,57.9407125 538.0286,53.9528992 L536.095618,49.9487693 C535.910753,46.8224803 535.443724,43.9050458 533.971285,41.1507787 C533.056686,39.4407835 533.698851,37.681838 533.144254,35.9522627 L531.743167,31.5565308 L530.076133,25.7836653 C529.680456,24.4097951 529.190724,23.7212283 529.382076,21.9427028 L528.208017,18.3334381 C527.977746,15.8989793 527.672879,13.2230326 526.362604,11.2780762 C525.396113,10.7787837 524.209081,12.2146576 523.563673,12.3843518 C522.10745,12.7661637 523.090157,9.33311985 521.345285,9.05573514 C521.027445,9.03615504 520.492308,8.93172785 520.210145,9.07205188 C519.496628,9.42775699 518.504191,15.1288288 519.188519,19.2439127 C519.529061,21.2932962 518.332299,24.5468558 519.470682,26.4363352 C520.537714,28.2083341 520.323659,29.4614603 520.628525,31.4488402 L521.906368,39.7932252 L523.385293,47.2467158 L524.841516,52.1613203 C525.182058,53.306756 525.208004,55.5193071 525.691249,56.508102 C527.763691,60.7374031 526.531253,66.3503645 528.50964,69.2808524 C530.585324,72.3581911 530.462081,75.4779534 530.867488,79.0284778 L533.069659,86.7952499 C533.731284,89.1285448 534.701018,90.7961165 534.840478,93.4133229 L536.536701,99.3363025 C536.968055,100.847233 536.909676,101.464006 537.344272,102.668182 L540.101041,110.304421 L541.868616,118.922927 L542.935648,122.434291 L544.667547,128.94141 L546.756205,137.654554 L543.759435,136.274157 L526.038278,136.443851 C524.050161,136.463431 522.957183,135.53664 521.974477,134.384677 C522.412316,132.684472 520.917175,131.372606 520.670687,129.737668 L519.094464,119.203575 L517.699864,114.243284 C516.853373,111.237739 516.804725,108.587899 515.838234,105.667201 L513.243628,97.8318983 C512.533355,95.6846142 512.095515,93.8767185 511.404701,91.641324 L509.273881,84.7393396 C508.735501,82.9934475 507.694415,81.5608371 507.49009,79.553877 C507.139818,76.0979898 506.286842,72.926014 505.226296,69.6267675 C504.574402,67.6067541 503.448991,66.2002504 502.008985,64.8883838 C500.867359,63.8473753 499.563569,61.2725925 497.205721,62.9271107 C496.531124,63.4002964 496.343015,64.5294154 496.664097,65.4268365 C498.220861,69.7670915 498.383024,74.0779764 499.304109,78.5650821 L500.627358,85.013461 C501.370064,88.6292523 502.459798,91.7653313 501.781957,95.5606069 C501.467361,97.3228157 503.063044,99.2906156 503.173315,100.909237 L503.423045,104.557662 C504.486834,108.046183 505.297648,111.554283 504.827376,115.267975 L506.432788,124.219343 C506.867385,126.650539 506.886844,128.513911 507.772253,130.86026 C508.291174,132.23413 508.034957,134.482578 508.803609,135.56601 C508.813339,135.732441 508.667392,136.24805 508.751717,136.473221 C508.897664,136.855033 509.393882,137.005147 509.796046,136.87135 L510.052263,137.654554 C510.541995,139.172011 510.996051,141.234448 511.693351,142.856333 C511.933352,143.417629 513.162547,144.742549 512.069569,145.160258 L507.029547,147.085634 C502.745205,148.717309 496.482475,151.59232 493.394894,150.048756 C491.361372,145.385429 490.930019,140.19344 491.935428,135.223358 C490.638126,132.240657 491.260831,129.50597 491.306237,126.444948 C491.328939,124.89812 491.03056,122.776943 490.829478,121.354122 L489.733257,113.58735 L486.687838,96.8006798 L484.670532,87.0041042 C483.992692,83.7015944 483.464041,80.2293904 481.355923,77.6872411 C481.407816,77.5860772 481.508357,77.3935396 481.498627,77.2891124 C479.954836,76.4373782 480.194837,74.3259909 480.181864,72.7432664 L480.178621,72.2276571 C479.662943,72.1493367 479.442402,71.8686887 479.296455,71.405293 L474.626165,56.6288459 L472.239128,51.9394125 C471.986153,51.44012 471.091014,51.4727535 470.789392,51.6620278 C470.40993,51.896989 469.920199,52.7519866 470.01101,53.5417172 L472.008856,70.9549508 L473.494268,81.4792533 L474.25319,93.2534188 L474.295353,103.490547 C475.891035,108.186507 476.017522,112.928154 476.108333,117.666537 C476.137523,119.059988 475.621845,120.965784 477.022932,121.758778 L477.596988,124.075756 L477.590502,132.677946 C477.587259,134.015919 478.089963,135.076508 477.801314,136.283947 C477.486718,137.58276 477.704016,139.354759 478.774291,140.17386 C479.131049,144.354211 479.156995,148.890266 480.921327,152.626802 C480.590515,155.064524 480.989435,157.355395 482.458631,159.473309 L483.960259,163.079311 L485.867294,165.409342 C486.973245,166.757106 489.256498,168.33983 491.16029,168.646585 C494.530034,169.188301 498.023022,170.274997 501.415469,169.935608 C511.125781,168.966393 522.752858,161.744601 530.277215,154.806719 L531.373436,152.2352 C531.289111,152.427737 540.188609,150.835223 544.42106,151.295355 C543.869706,152.019819 542.805917,152.023082 542.484835,153.201151 C543.386461,153.517696 544.219978,154.154049 544.275113,154.829563 C544.385384,156.196906 541.229695,156.84305 542.634025,157.472876 C543.69457,157.952588 545.170252,158.26587 546.188635,158.076596 C545.280523,158.402931 545.261063,159.058864 545.053495,160.201036 L544.661061,162.394007 C545.715119,164.655509 548.24486,163.950625 549.983246,164.058316 C552.405959,164.211693 553.845965,163.089101 555.889217,162.739922 C560.935725,161.875135 565.7098,160.997294 570.66874,159.525523 L580.949865,156.474291 C582.013654,156.161009 582.192033,155.149371 583.635282,155.01231 C587.763949,154.620708 591.331532,152.218883 595.116413,150.750376 C596.118579,150.362037 597.172638,150.241293 597.746694,148.988167 C600.435355,149.500513 600.775897,149.582097 602.61158,147.810098 C605.991054,145.196155 609.101338,145.254895 612.743516,142.738852 C613.281896,142.363567 614.718659,142.415781 614.913255,141.534676 C616.891642,142.32767 617.546779,139.880158 620.358683,138.163636 L623.835455,136.039196 C629.284127,133.761378 632.73171,129.277535 636.688483,125.097184 C637.9793,123.729841 638.861466,123.498143 639.649577,121.386756 C641.271206,117.030184 643.259323,112.027469 640.950123,107.638264 L640.950123,107.638264 Z" id="Fill-24" fill="#012F7D"></path>
            <path d="M268.58797,14.4620612 L269.923794,23.1926579 C270.128797,24.5178378 270.241218,23.4654891 270.264363,24.6672453 C270.300735,26.3302161 270.32388,27.7625796 270.872758,29.3475986 C271.517525,31.2151928 273.461744,33.4855377 273.699811,36.9154149 C273.805619,38.4289782 273.914734,40.0010053 274.066832,41.5243125 L275.630804,57.3030471 L279.55892,70.0059353 C280.451674,72.9096382 281.532898,75.1312632 283.288647,77.6711913 C283.639135,78.1778777 283.844138,78.7495239 284.016075,79.2074905 C284.098738,79.4348498 284.227691,79.7726407 284.528582,79.8083686 C284.846006,79.8668324 285.166736,79.9350402 285.461014,79.9447842 L285.629645,80 L286.119006,79.3991219 L286.819983,79.4413457 L287.438298,79.2789463 C288.212017,78.4247249 287.861529,73.0135739 287.692898,70.415182 L287.606929,69.0315384 C287.517654,67.6089188 287.649913,66.0791156 287.795399,64.5330724 C288.000402,62.2952074 288.198791,60.1742701 287.606929,58.5177953 C287.06797,57.00748 286.962162,55.7667479 286.862968,54.5682396 C286.803451,53.9153937 286.750547,53.2333158 286.605061,52.4570463 L284.965039,43.6582418 C284.783182,42.6773489 284.63439,41.7419278 284.495517,40.8162507 C284.31366,39.6632143 284.138416,38.5231699 283.890429,37.3149177 C283.596151,35.8987941 283.050579,34.5281424 282.471942,33.073043 C281.632093,30.9618496 280.759178,28.7824484 280.560788,26.2132884 C280.34256,23.4330092 279.37045,23.1959059 278.656247,21.1691602 C278.044546,19.4152457 277.532039,17.9633943 277.532039,16.6447104 C277.363408,16.5245348 277.19147,16.3686313 277.029452,16.1607599 L276.384685,15.6638175 L276.725254,14.6407007 C276.68227,14.5042851 276.450815,14.1762381 276.298716,13.9586228 C275.948228,13.4486884 275.505158,12.8120824 275.303461,12.0033329 L275.022409,10.7528569 C274.638856,8.93073457 272.638427,8.5702077 271.686156,8.13172907 C271.527444,8.05702531 271.289377,8.01155345 271.03147,8.00180948 C269.897342,7.9628336 268.683859,8.56046373 268.356516,9.12236597 C267.797718,10.1032589 267.976269,11.2855272 268.34329,13.1173935 C268.435872,13.57536 268.52184,14.0300786 268.58797,14.4620612" id="Fill-26" fill="#012F7D"></path>
            <path d="M307.439481,144.476476 L304.853756,145.626185 L304.470926,140.005021 L304.143249,137.33652 L304.133516,136.676743 C303.873971,135.794864 303.653357,134.609226 303.815573,133.110031 C302.595708,129.340814 301.625655,124.140992 301.132518,118.699471 C299.915897,116.932446 299.341652,114.933519 298.822561,113.146897 L298.306713,111.229626 C295.957824,94.5457766 298.326179,100.242064 292.723234,94.5751726 C292.473422,94.3236737 292.278762,94.1407654 292.148989,94.0068504 L291.960819,94.1897587 C291.921887,94.2289533 291.908909,94.2420182 291.873222,94.2779466 C291.214624,93.3699375 287.152733,91.5375883 286.254055,90.5250603 C285.929623,90.1559774 285.67981,89.8032257 285.475418,89.4602727 L283.944098,88.9507424 C283.470427,89.8064919 283.126529,91.8217494 282.896182,94.9932487 L282.808585,96.1690877 C282.698278,97.4200498 282.192164,98.641616 281.595208,99.9350389 C280.907412,101.486493 280.24557,102.94976 280.887946,104.315039 C281.673072,106.029805 283.26279,109.821886 283.223858,111.102244 C283.223858,111.552982 283.214125,112.026584 283.317944,112.59164 L284.706514,120.616741 C284.852508,121.518218 284.959571,122.370701 285.063389,123.350567 C285.180185,124.314102 285.287247,125.267838 285.507861,126.316295 C285.770651,127.550926 286.477914,128.890076 287.26304,130.386004 C287.950836,131.708823 288.615922,133.061038 289.05715,134.423052 L288.95982,134.367526 C285.790117,132.55804 283.26279,129.824215 280.625156,126.979337 C279.538308,125.800232 278.448216,124.614594 277.30297,123.549807 C276.504866,122.818174 275.693786,122.230254 274.785376,121.567211 C273.215124,120.420768 271.443723,119.130612 270.16546,117.314593 L263.715747,112.741886 L266.681058,102.273652 C266.98278,101.202332 267.602446,99.7096698 268.329174,98.0210343 C270.301722,93.4287295 271.180933,90.6655077 270.966808,89.8620177 L269.75992,87.5495342 L271.236087,85.4722185 C271.774644,84.6948583 271.969304,83.5941423 271.946593,81.4090413 L271.943349,80.7917258 L272.173696,79.8706519 L272.345645,79.5113677 C272.955578,78.221211 273.088595,76.9016583 272.663589,76.2843428 L271.858997,75.0921726 L272.001747,73.5603156 C272.014724,73.3316802 272.043923,73.0442529 271.142001,72.583716 L268.786623,71.051859 C268.407038,70.6762437 267.936611,70.4998678 267.307212,70.4900692 C265.019965,70.4639394 261.983279,72.8580784 261.191665,75.3077431 C260.954829,76.0720385 260.555777,76.6828216 260.004243,77.1466247 L260.000998,77.1890856 L257.016222,82.5358871 C255.669828,84.9528896 253.992513,87.9610779 250.475668,88.0655969 L248.194909,88.1341875 L247.438982,85.6159322 C247.046419,84.3061781 244.493137,66.6359301 244.162216,65.0354824 L243.730721,62.9549006 L242.63414,58.0719022 C242.368106,56.8601348 240.535064,55.5569132 240.320938,54.2438929 C240.298228,54.096913 240.278762,53.9531993 240.252808,53.8094857 C239.863489,53.9270696 238.578737,55.5895753 238.140754,55.5863091 L236.625655,55.5046536 L235.191665,53.1170471 C234.971051,52.7414319 234.575243,52.8818793 234.481158,52.728367 L233.485151,52 L231,52.5487249 C231.032443,58.8786585 234.451959,79.619153 235.577739,86.8081023 C235.704268,87.7291763 235.876217,88.6404515 236.054654,89.5615255 C236.528325,92.0732483 237.021462,94.6666267 236.797604,97.674815 C238.127776,101.607343 240.278762,106.049402 240.002995,110.948731 C240.775143,113.509448 240.963314,115.975443 241.157974,118.591685 C241.242326,119.7022 241.326678,120.815981 241.492139,121.923229 L242.004742,125.333163 L242.8288,129.125244 L242.848266,129.850344 L242.815822,130.141038 C242.5141,132.803007 243.133766,134.955446 243.922136,137.702336 C244.207637,138.692001 244.496381,139.688198 244.736461,140.700726 L247.980784,152.511376 C248.422011,154.317595 248.866484,155.558759 249.693786,157.27679 C250.332917,158.635538 250.855253,160.089005 251.377589,161.552272 C252.175693,163.799431 252.925131,165.922474 254.203394,167.35961 C254.566758,167.764622 255.124782,167.993257 255.770402,168 C256.876716,168.012854 257.892189,167.415136 258.151734,167.085248 L261.902171,159.207126 L262.752184,158.083547 C263.449713,157.35518 264.319191,156.440638 263.8001,153.785202 L261.327926,143.578265 C261.071625,142.27831 260.951585,140.935894 260.838033,139.531419 C260.692039,137.836251 260.555777,136.235804 260.030197,135.033835 C259.498128,133.838398 259.498128,132.51558 260.030197,130.591776 C260.494135,128.942335 261.665336,127.7371 263.517844,127.198174 L264.215373,127.142648 L264.633891,127.243901 C265.882955,127.547659 266.943848,128.354416 267.855503,129.043588 C268.212378,129.314684 268.553032,129.582514 268.861243,129.745825 C271.709758,131.179696 273.997005,132.603767 276.579486,135.269003 C279.551285,138.339249 282.7145,140.20426 285.316446,141.729585 C287.269528,142.879294 288.813826,143.787303 289.900674,145.031733 C290.036935,145.185245 290.594959,145.707841 292.269029,146.305559 L292.411779,146.279429 C292.632393,146.92614 292.781632,147.533657 292.768655,148.079116 L295.13701,149.757953 L293.602446,150.982785 L294.144248,150.685559 C294.75418,151.371465 295.584727,152.30887 295.87996,153.33773 L296.171949,154.523367 C296.301722,155.108021 296.603444,156.486365 296.931121,156.656209 C297.74869,156.927305 298.793362,157.031824 298.945845,157.025291 C299.575243,156.777059 299.539556,156.042159 299.198902,154.373121 L299.01722,153.210347 L298.767407,150.950123 C299.374095,151.933255 299.863988,152.971913 300.130022,154.160817 L301.236336,154.703009 L302.572997,152.625694 L304.464437,154.732405 L304.805091,154.732405 C305.116546,154.729139 305.593461,154.725873 306.352633,152.766141 L309,145.93321 L308.133766,145.19831 C307.864487,144.966409 307.643873,144.727975 307.439481,144.476476" id="Fill-28" fill="#012F7D"></path>
            <path d="M399.148351,121.056114 L395.996916,125.651591 C394.618974,130.058836 392.423992,131.749686 389.039117,133.35291 C388.316103,134.011725 387.223476,135.004816 385.569945,135.449435 L378.028547,137.455088 L378.326831,125.034966 L378.852071,114.269996 C378.359253,113.205507 378.151752,112.105318 377.992883,111.277743 C377.934523,110.966185 377.876163,110.589719 377.892374,110.55402 L377.370377,109.693991 C376.349079,108.042085 374.809025,105.543132 375.389382,102.018635 L376.10267,97.5075377 L378.070696,98.3805486 L379.594538,98.9647194 C384.723726,99.2308417 389.791312,102.651487 394.492527,106.296064 C394.761631,106.503769 395.0664,106.67902 395.43277,106.899707 C396.89501,107.766227 399.333158,109.216918 400.036719,112.949121 C400.049688,113.001047 401.090439,118.14175 399.148351,121.056114 L399.148351,121.056114 Z M363.383452,113.676089 C362.423755,116.983145 359.781348,120.468698 356.124127,120.822446 C355.751272,121.406616 355.196853,122.201738 354.224187,122.659338 C352.904605,123.272718 351.72768,124.103539 350.437278,125.012249 C349.691568,125.534757 348.939373,126.057265 347.636002,126.819933 C346.77033,127.157454 345.813876,127.303497 344.721248,127.261307 C343.87503,127.232098 343.002873,127.08281 341.971848,126.897822 C341.479031,126.810197 341.00891,126.722571 340.545272,126.699853 L335.941324,126.449958 L337.124733,123.155884 C336.920473,122.886516 336.719456,122.565222 336.554103,122.17902 C335.769486,120.322655 334.83897,118.209904 333.730132,116.700796 L331.184991,113.215243 C330.059941,111.66719 329.051612,110.025021 328.059493,108.386097 C326.889053,106.46807 325.793183,104.65714 324.236919,102.706658 L316.663099,90.8057998 L320.90392,89.19933 C322.067876,88.7547111 323.36152,88.5437605 324.638954,88.5924414 C325.345757,88.6184045 326.033108,88.7255025 326.701004,88.9039992 L338.233571,92.0325586 C338.690724,92.1558836 339.212721,92.3441164 340.036244,92.645938 C340.470701,92.8082077 341.015394,93.0126675 341.268287,93.041876 L342.461423,93.1781826 L345.240003,93.3664154 L345.27891,95.6284548 C345.606374,95.7550251 345.946807,95.8945771 346.277513,96.0665829 L355.608614,100.814594 C357.819807,101.9375 358.844347,103.209694 360.069905,105.309464 L363.905449,111.884631 L363.383452,113.676089 Z M416.977304,123.013086 C416.980547,122.785909 416.918945,122.409443 416.873554,122.055695 C416.704958,120.864636 416.435854,118.975817 417,117.051298 L416.8541,116.798157 L416.675778,114.974246 C416.559058,113.72477 416.439096,112.429858 416.037061,111.917085 C414.532673,110.034757 413.773994,107.451424 413.135277,105.289992 C412.895353,104.468907 412.658671,103.660804 412.373356,102.937081 C411.614677,100.999581 409.465087,99.7436139 407.117721,98.3708124 C405.198329,97.2414154 403.022801,95.9594849 401.466537,93.9927764 C401.03208,93.4475503 400.88618,93.395624 400.036719,93.1067839 C399.556871,92.9412688 399.0446,92.7627722 398.44479,92.4901591 L394.275299,90.526696 L391.405936,89.6991206 L384.908533,87.368928 L383.122071,86.255758 C379.364341,85.6001884 376.310172,82.4326843 375.152701,77.9832496 C374.189762,74.2737647 374.646915,71.8462102 375.185123,69.0292085 C376.362048,62.7558626 378.855313,57.5372697 382.664918,53.0294179 C383.031289,51.7085427 384.007196,48.206763 387.294805,48.3300879 C387.301289,48.3300879 388.072937,48.4534129 388.072937,48.4534129 L388.776498,48.7974246 C390.3587,47.0384213 392.855207,43.5269054 392.670401,40.7423576 C392.547197,38.7756491 391.934418,38.0584171 390.397607,38 L389.807523,38.0032454 C387.700082,38.107098 387.63848,38.214196 387.20078,38.9930905 L386.069246,40.5833333 L384.399504,40.5216709 C382.44769,40.4470268 380.700134,41.8522822 378.4857,43.6275126 L377.551941,44.3707077 C373.664523,47.4408501 370.45797,51.3872487 367.267628,55.4764447 C367.043915,55.7685302 366.3209,56.583124 366.217149,56.7032035 C366.197696,57.6248953 365.980468,58.5141332 365.581675,59.2605737 C365.403353,59.5883585 365.195851,59.8804439 364.955927,60.13683 C364.910536,60.2763819 364.85866,60.4191792 364.8003,60.5717127 C364.657643,60.9254606 364.476079,61.25 364.265335,61.5453308 L364.210217,64.2162898 L362.242191,64.3396147 C362.193558,64.5051298 362.154651,64.6673995 362.112502,64.8166876 C361.853125,65.7708333 361.584021,66.7055067 361.094446,67.5720268 C359.651659,70.1001884 359.645175,71.8948911 359.63869,74.2218384 C359.635448,76.552031 359.625722,79.4534129 357.800353,82.4521566 L356.526162,84.5421901 L339.238659,79.1970268 C336.625432,78.3889238 333.603685,77.8144891 330.685689,77.2497906 C328.004376,76.7402638 324.959934,76.1593384 322.434246,75.3771985 L315.492659,73.1768216 L309.773387,72.4433626 C308.103646,71.6969221 306.437146,71.3074749 304.67338,71.242567 C302.689143,71.1679229 300.542795,71.5119347 298.107889,72.3005653 C295.779977,73.056742 294.625748,73.6181951 294.08754,75.4713149 C294.068087,75.5913945 294.08754,75.9873325 294,76.444933 L296.846667,77.4347781 L299.125946,76.733773 L305.169439,88.5632328 L308.061497,94.9371859 L310.71363,101.447446 C312.522788,103.521252 313.411155,106.179229 314.121201,108.317944 L314.665893,109.901696 L316.624193,115.263086 C316.841421,115.847257 317.136463,116.379502 317.515803,117.067525 C318.154519,118.226131 318.939136,119.634631 319.35414,121.448807 C321.646387,123.691374 322.781164,127.157454 322.560693,131.275858 L322.382371,134.71273 L319.467617,134.797111 C318.877534,134.816583 318.274481,135.076214 317.308301,135.786956 L315.677465,136.530151 L315.47969,136.432789 C315.466721,136.471734 314.8507,138.980423 314.8507,138.980423 L312.723805,139.246545 C312.000791,139.337416 311.352347,139.567839 310.739568,141.476131 L308.995255,146.844012 L311.044337,154.925042 L304.602051,149.190431 L307.053167,155.56763 C307.581649,156.933941 307.915597,157.352596 308.628885,158.053601 C309.351899,158.767588 309.737723,159.705507 310.091125,160.591499 C311.511216,160.893321 312.970214,161.29575 314.409758,162 C315.255977,161.698178 316.027625,161.714405 316.484777,161.730632 C316.507473,161.730632 316.864117,161.756595 316.864117,161.756595 C318.177215,161.159443 319.389804,161.120498 320.274929,161.152952 C320.287898,161.152952 322.554208,161.298995 322.554208,161.298995 C322.722804,161.250314 323.183198,160.958229 323.484725,160.769996 C324.493054,160.127408 325.880723,159.244661 327.618552,159.309569 C327.936289,159.32255 328.250784,159.36474 328.555553,159.44263 C329.450405,158.897404 330.439281,158.641018 331.515697,158.679962 C331.561088,158.683208 331.609721,158.686453 331.655112,158.689698 C332.754224,157.323388 334.161346,157.01183 334.958932,156.833333 L338.891742,155.85647 C339.040884,155.817525 339.45913,155.570875 339.786594,155.372906 C340.538788,154.918551 341.611962,154.279209 343.10014,154.120184 C345.064923,152.461788 347.503071,151.533606 349.72399,151.61474 C349.834225,151.617986 349.937976,151.624477 350.048212,151.634213 C351.212168,150.173786 352.547961,149.349456 353.634104,148.674414 L354.600285,148.044807 L358.393679,145.425775 C358.915676,145.062291 359.41822,144.679334 359.962912,144.263924 C361.661834,142.981993 363.574742,141.528057 365.970741,140.979585 L366.706724,140.875733 L366.885046,140.882224 C367.549701,140.908187 368.178691,141.141855 368.729868,141.570247 L369.657142,142.316688 C370.856763,143.274079 371.411182,144.68907 371.784037,145.636725 C371.86185,145.83794 371.959116,146.09108 371.910483,146.09108 C371.907241,146.09108 371.894272,146.08459 371.887788,146.081344 L375.023012,149.300775 L375.512587,150.060197 L377.289322,150.816374 L377.367135,152.899916 C379.682078,155.025649 381.757097,156.700272 384.039618,157.826424 C384.399504,157.761516 384.769117,157.732307 385.132246,157.745289 C386.899254,157.813442 388.248016,158.78706 389.230408,159.497802 C389.512481,159.699016 389.781585,159.89374 390.011783,160.02031 C391.091441,159.533501 392.122466,159.445875 392.978412,159.377722 C393.746817,159.306323 394.353112,159.254397 394.969133,158.968802 L399.222922,157.005339 C399.4823,156.794389 399.958906,156.239426 400.234494,155.931114 C400.613833,155.502722 400.963993,155.113275 401.239581,154.853643 L404.099217,152.169703 C404.26457,152.013924 404.485041,151.702366 404.796294,151.257747 C405.519308,150.24843 406.41416,148.995708 407.860189,148.242776 C408.469726,147.927973 408.878246,147.171796 409.591533,145.773032 C409.92224,145.120708 410.25943,144.468384 410.645254,143.842023 L411.436355,142.569828 C412.64246,140.635574 413.689696,138.964196 414.519704,136.646985 L414.90877,135.582496 C415.7712,133.206868 416.747107,130.509946 416.815194,128.371231 L416.977304,123.013086 Z" id="Fill-30" fill="#012F7D"></path>
            <path d="M594.254291,28.4632272 C593.734142,27.5279912 593.042724,26.816685 592.170522,26.3424808 C591.311007,25.8583974 590.35,25.6180022 589.30653,25.6180022 C588.447015,25.6180022 587.609701,25.8583974 586.781903,26.3424808 C585.94459,26.816685 585.265858,27.5279912 584.733022,28.4632272 C584.190672,29.4050494 583.930597,30.5444566 583.930597,31.884742 C583.930597,33.2250274 584.190672,34.3644347 584.733022,35.2996707 C585.265858,36.2381998 585.94459,36.9429199 586.781903,37.4270033 C587.609701,37.9077936 588.447015,38.1481888 589.30653,38.1481888 C590.35,38.1481888 591.311007,37.9077936 592.170522,37.4270033 C593.042724,36.9429199 593.734142,36.2381998 594.254291,35.2996707 C594.787127,34.3644347 595.047201,33.2250274 595.047201,31.884742 C595.047201,30.5444566 594.787127,29.4050494 594.254291,28.4632272 L594.254291,28.4632272 Z M596.867724,36.7453348 C596.109701,38.1119649 595.113806,39.1591658 593.857836,39.8935236 C592.601866,40.6278814 591.209515,41 589.668097,41 C588.275746,41 587.054664,40.6278814 585.988993,39.8935236 C584.926493,39.1591658 584.098694,38.1119649 583.499254,36.7453348 C582.9125,35.3754116 582.604851,33.7585071 582.604851,31.884742 C582.604851,29.9846323 582.9125,28.3578485 583.499254,27.0043908 C584.098694,25.64764 584.926493,24.6070252 585.988993,23.8726674 C587.054664,23.1383095 588.275746,22.7694841 589.668097,22.7694841 C591.209515,22.7694841 592.601866,23.1383095 593.857836,23.8726674 C595.113806,24.6070252 596.109701,25.64764 596.867724,27.0043908 C597.628918,28.3578485 598,29.9846323 598,31.884742 C598,33.7585071 597.628918,35.3754116 596.867724,36.7453348 L596.867724,36.7453348 Z M581,40.6180022 L583.930597,40.6180022 L583.930597,11 L581,11 L581,40.6180022 Z" id="Fill-32" fill="#FF008A"></path>
            <polygon id="Fill-34" fill="#FF008A" points="604.088328 49 600.823344 49 605.40694 38.5248724 599 24 602.454259 24 607.769716 37.2366071 606.564669 37.0899235 611.735016 24 615 24"></polygon>
            <polygon id="Fill-36" fill="#FF008A" points="628.115904 26.7692308 628.115904 24 643 24 632.398912 38.2275641 642.251764 38.2275641 642.251764 41 627 41 637.601088 26.7692308"></polygon>
            <path d="M646.151287,26.1361994 C646.81677,25.6647399 647.73181,25.1900289 648.893079,24.7153179 C650.057675,24.2373555 651.458518,24 653.098935,24 C654.476486,24 655.687666,24.2113439 656.722493,24.621026 C657.753993,25.0339595 658.562555,25.6257225 659.131544,26.4028179 C659.713842,27.1734104 660,28.1260838 660,29.2510838 L660,41.6228324 L656.935448,41.6228324 L656.935448,29.6640173 C656.935448,29.0592486 656.828971,28.5682803 656.625998,28.1846098 C656.423026,27.7944364 656.126886,27.4888006 655.76087,27.2611994 C655.391526,27.0401012 654.962289,26.8775289 654.476486,26.7734827 C653.990683,26.6759393 653.478261,26.6239162 652.945874,26.6239162 C652.064108,26.6239162 651.282165,26.7279624 650.58008,26.9263006 C649.881322,27.1278902 649.285714,27.3652457 648.799911,27.6383671 C648.314108,27.9114884 647.931455,28.1488439 647.648625,28.353685 L646.151287,26.1361994 Z M648.586957,37.9844653 C648.906389,38.4624277 649.358917,38.8200867 649.927906,39.0541908 C650.510204,39.2915462 651.162378,39.4118497 651.901065,39.4118497 C652.849379,39.4118497 653.704525,39.2200145 654.453194,38.8493497 C655.211846,38.4721821 655.807453,37.945448 656.256655,37.2528902 C656.709184,36.5700867 656.935448,35.7734827 656.935448,34.8760838 L657.541038,37.1260838 C657.541038,38.2218208 657.208296,39.1354769 656.532831,39.8605491 C655.854037,40.5856214 655.022183,41.1253613 654.037267,41.4732659 C653.052351,41.8211705 652.064108,42 651.102484,42 C650.024401,42 649.026176,41.7789017 648.087844,41.3432081 C647.149512,40.904263 646.400843,40.2702312 645.841837,39.4476156 C645.282831,38.6217486 645,37.6268064 645,36.4465318 C645,34.775289 645.60559,33.4291908 646.81677,32.4212428 C648.04126,31.4035405 649.724933,30.8995665 651.901065,30.8995665 C653.182121,30.8995665 654.250222,31.0458815 655.105368,31.3287572 C655.960515,31.6181358 656.64929,31.9432803 657.161713,32.3041908 C657.670807,32.6683526 658.016859,32.9609827 658.193212,33.1853324 L658.193212,34.9508671 C657.304791,34.3460983 656.376442,33.9169075 655.43811,33.6567919 C654.489796,33.3966763 653.478261,33.2633671 652.39685,33.2633671 C651.401952,33.2633671 650.59339,33.3901734 649.964508,33.6405347 C649.335626,33.8876445 648.869787,34.2355491 648.563665,34.6907514 C648.264197,35.1361994 648.111136,35.6759393 648.111136,36.2969653 C648.111136,36.9537572 648.264197,37.5097543 648.586957,37.9844653 L648.586957,37.9844653 Z" id="Fill-38" fill="#FF008A"></path>
            <path d="M666.826797,36.1864162 C667.339869,37.1163295 668.039216,37.8446532 668.937908,38.3811416 C669.823529,38.9208815 670.839869,39.1875 671.970588,39.1875 C672.892157,39.1875 673.767974,39.041185 674.584967,38.7583092 C675.398693,38.4656792 676.111111,38.0787572 676.718954,37.5910405 C677.323529,37.1033237 677.745098,36.5863439 678,36.0368497 L678,39.7825145 C677.395425,40.4848266 676.53268,41.0310694 675.411765,41.4147399 C674.303922,41.8049133 673.150327,42 671.970588,42 C670.29085,42 668.761438,41.613078 667.408497,40.8327312 C666.055556,40.0621387 664.98366,38.9956647 664.189542,37.6300578 C663.398693,36.2677023 663,34.7232659 663,33 C663,31.2474711 663.398693,29.6997832 664.189542,28.353685 C664.98366,27.0010838 666.055556,25.9378613 667.408497,25.1607659 C668.761438,24.3901734 670.29085,24 671.970588,24 C673.150327,24 674.303922,24.1983382 675.411765,24.5820087 C676.53268,24.9689306 677.395425,25.5151734 678,26.2109827 L678,29.9664017 C677.745098,29.3843931 677.323529,28.8641618 676.718954,28.3861994 C676.111111,27.9114884 675.398693,27.5343208 674.584967,27.2449422 C673.767974,26.958815 672.892157,26.8157514 671.970588,26.8157514 C670.839869,26.8157514 669.823529,27.0758671 668.937908,27.5993497 C668.039216,28.1260838 667.339869,28.857659 666.826797,29.7908237 C666.313725,30.7304913 666.055556,31.8002168 666.055556,33 C666.055556,34.2030347 666.313725,35.2630058 666.826797,36.1864162" id="Fill-40" fill="#FF008A"></path>
            <path d="M695.25499,28.6503268 C694.734938,27.7222222 694.043649,27.0163399 693.17161,26.5457516 C692.312255,26.0653595 691.351427,25.8267974 690.308151,25.8267974 C689.448797,25.8267974 688.61164,26.0653595 687.783996,26.5457516 C686.946838,27.0163399 686.268234,27.7222222 685.735497,28.6503268 C685.193248,29.5849673 684.933221,30.7156863 684.933221,32.0457516 C684.933221,33.375817 685.193248,34.5065359 685.735497,35.4346405 C686.268234,36.3660131 686.946838,37.0653595 687.783996,37.5457516 C688.61164,38.0228758 689.448797,38.2614379 690.308151,38.2614379 C691.351427,38.2614379 692.312255,38.0228758 693.17161,37.5457516 C694.043649,37.0653595 694.734938,36.3660131 695.25499,35.4346405 C695.787726,34.5065359 696.047752,33.375817 696.047752,32.0457516 C696.047752,30.7156863 695.787726,29.5849673 695.25499,28.6503268 L695.25499,28.6503268 Z M697.867935,36.869281 C697.110054,38.2254902 696.114344,39.2647059 694.858608,39.9934641 C693.602873,40.7222222 692.210782,41.0915033 690.669651,41.0915033 C689.27756,41.0915033 688.056706,40.7222222 686.991233,39.9934641 C685.928931,39.2647059 685.101287,38.2254902 684.501959,36.869281 C683.915314,35.5098039 683.607722,33.9052288 683.607722,32.0457516 C683.607722,30.1601307 683.915314,28.5457516 684.501959,27.2026144 C685.101287,25.8562092 685.928931,24.8235294 686.991233,24.0947712 C688.056706,23.3660131 689.27756,23 690.669651,23 C692.210782,23 693.602873,23.3660131 694.858608,24.0947712 C696.114344,24.8235294 697.110054,25.8562092 697.867935,27.2026144 C698.628987,28.5457516 699,30.1601307 699,32.0457516 C699,33.9052288 698.628987,35.5098039 697.867935,36.869281 L697.867935,36.869281 Z M682,49 L684.93005,49 L684.93005,23.379085 L682,23.379085 L682,49 Z" id="Fill-42" fill="#FF008A"></path>
        </g>
    </g>
</svg>