<?xml version="1.0" encoding="UTF-8"?>
<svg width="589px" height="745px" viewBox="0 0 589 745" version="1.1" xmlns="http://www.w3.org/2000/svg" xmlns:xlink="http://www.w3.org/1999/xlink">
    <title>logo pos hoch</title>
    <defs>
        <path d="M0,0 L589,0 L589,745 L0,745 L0,0 Z" id="path-1"></path>
        <polygon id="path-2" points="0 0 205 0 205 184 0 184"></polygon>
    </defs>
    <g id="logo-pos-hoch" stroke="none" fill="none" xlink:href="#path-1" fill-rule="evenodd">
        <use fill="#FFFFFF" xlink:href="#path-1"></use>
        <g id="Group-44" stroke-width="1" transform="translate(62.6847, 59.0885)">
            <path d="M137.946711,382.769704 L137.645375,383.070431 L137.946711,383.471399 L138.248047,383.070431 L137.946711,382.769704 Z M357.286042,289.0567 C356.830689,288.976507 356.522657,289.604691 356.696762,290.012342 C356.770422,290.19946 356.978009,290.359848 357.272649,290.326434 L357.279346,291.609533 C356.730244,292.03055 356.73694,292.986191 357.332916,293.353745 L357.319524,294.015343 C355.866413,294.957619 356.991402,297.423575 356.683369,298.659894 C356.007037,301.386479 356.415515,303.03045 356.455693,305.422895 C356.489175,307.334178 355.960162,308.951417 356.455693,311.063184 L355.665522,317.391802 C356.24141,319.597129 355.538292,320.713158 355.484721,322.524198 L355.303919,328.832768 L354.754817,347.738429 L355.21017,354.868985 C355.377579,357.582204 355.257044,359.613778 355.270437,362.353729 L355.310615,373.099682 C355.324008,376.167091 354.460177,379.034015 354.969101,382.181617 C355.397668,384.848057 354.567319,387.207088 352.324038,388.784231 C351.875382,388.276337 351.038336,387.541229 350.529413,387.68825 C348.045063,388.423359 344.683489,389.652996 342.085301,388.316434 C340.638886,387.56796 340.491567,388.356531 339.45363,388.470139 C335.623311,388.911518 332.844321,384.801278 332.542985,381.018809 L332.007276,374.295905 L332.054151,366.450289 L332.101025,349.622981 C332.114418,345.726905 332.080936,341.957801 332.375576,338.355768 L333.272888,327.202163 C333.500565,324.368653 333.152354,322.143278 333.333156,319.296402 L333.842079,311.45747 C334.176897,306.325074 334.933586,301.159264 334.029577,296.087013 C333.152354,291.135053 334.518412,286.517234 334.163505,284.458929 C333.661277,281.558591 334.464841,276.072006 334.940283,271.841789 L336.580891,257.179711 L337.04294,249.327412 L336.647855,239.610611 C336.574195,237.726059 336.313037,236.055357 336.259466,234.197537 L336.065271,227.528095 L334.103237,218.238994 C334.304128,215.398801 333.145658,213.173426 332.73718,210.527034 L331.752814,204.165002 L329.830959,194.809072 L328.109994,189.87716 C327.353305,185.90089 326.683668,182.619632 324.982793,178.910674 C323.924767,176.611788 324.52744,173.430772 323.154686,170.918037 L322.625673,166.834841 L320.389088,159.176344 C319.351152,155.641139 317.797596,152.293053 317.261887,148.577412 C316.846713,145.697123 315.313246,143.338092 314.235132,140.85877 C313.324427,138.773734 312.67488,137.657706 310.632489,136.381289 L296.168348,127.366183 L288.092535,121.505361 C286.210858,120.148751 277.559158,119.440373 272.463227,119.086185 L265.344994,118.59834 C260.60397,118.852286 256.264728,119.894804 251.38308,119.567347 C247.780437,119.320083 244.043867,119.259938 240.534974,120.275724 L227.169036,124.158435 C224.403438,124.960372 221.898999,125.742261 219.24724,126.590977 C214.894604,127.974318 211.171427,130.039306 207.187092,131.957271 C204.274175,133.360661 202.124642,135.271943 199.446098,137.062936 C195.30105,139.836301 190.560026,142.081724 187.580145,146.265161 C186.810063,147.354459 186.046678,148.330149 185.209632,149.426129 L182.12261,153.435813 L179.357012,158.026902 C176.410613,161.635617 174.522239,165.271065 172.566901,169.427771 L166.962047,181.356581 L165.053583,187.237451 C163.453153,192.182729 161.819241,199.06602 161.075945,200.983986 L157.982225,209.023403 L156.267957,218.860495 C155.551446,222.963738 153.743428,227.427853 153.904141,228.964899 C154.151906,231.27715 152.337192,241.602087 151.747913,247.543103 L151.212204,252.969542 L150.770244,259.124407 L151.111758,266.214866 C150.716673,272.737285 151.426487,278.805274 153.201023,284.946774 L153.502359,288.314909 C155.377341,291.883528 155.303681,295.398684 155.330466,299.328175 L156.147422,300.865221 L155.404126,302.208465 C156.328224,303.531661 156.067066,305.222411 156.093851,306.705994 L156.26126,315.086234 C156.308135,317.244781 156.221082,319.142698 156.301439,321.274513 L156.596078,329.668119 L158.450971,340.373976 C158.645165,341.510053 159.06034,342.679545 159.28132,343.448067 C158.725522,346.629084 158.705432,349.689809 159.301409,352.623561 C159.790243,355.042738 157.935351,356.419396 157.640711,357.675764 C157.279107,359.212809 159.950956,361.758959 156.991164,363.670242 C157.305893,364.33184 157.781335,365.741912 157.573747,366.383461 C156.11394,370.032274 155.705462,375.772805 153.790303,377.730868 L150.201053,381.406412 C149.330526,381.393046 148.828299,381.326218 147.944379,380.945298 C146.852872,382.308591 145.185478,381.927671 143.886384,382.335322 L139.580623,383.671883 C138.341796,384.059486 137.390913,384.226556 136.460119,382.863264 C136.138693,383.351108 135.676644,383.772125 135.542717,383.685249 L134.37755,382.943457 C130.86196,383.605055 126.589681,382.442247 124.634344,379.441666 C123.435695,380.758179 122.5049,378.586267 121.647766,378.325638 C121.962495,376.969028 120.770543,376.768544 120.415636,376.106946 C118.982614,373.480602 118.473691,370.754017 116.371033,368.608836 C117.228167,367.940555 117.717002,367.178715 117.529504,366.857941 L116.571924,365.240701 C116.732637,364.204866 117.275042,363.1423 116.545138,362.507433 C115.975948,362.012905 115.246044,361.732228 114.31525,361.625303 L116.444693,347.711698 L114.368821,346.448648 C117.46254,340.995477 113.920165,337.246422 116.632191,332.895915 C116.123268,331.940274 116.484871,331.185116 116.618798,329.761678 L117.38888,321.555191 L117.301827,310.120908 C117.281738,307.494565 117.864322,305.041975 117.670127,302.542605 C118.172354,302.215148 118.614314,301.359748 118.721456,300.41079 L119.364307,294.65021 C119.612072,292.451566 118.487083,290.546966 120.100907,288.455248 C119.692429,285.314328 120.402243,282.320431 122.096422,279.780964 C120.449117,277.662514 121.453572,276.386098 122.484811,274.648568 C123.482569,272.964501 123.931226,270.311426 124.553987,268.513751 L126.221381,263.728861 C126.475843,260.574577 126.435665,258.108621 127.728063,255.067943 L128.491448,247.436178 C130.332947,242.624557 130.185627,238.30078 130.292769,233.415648 L132.435605,222.30214 C132.736941,220.731681 132.48248,218.980785 132.817298,217.684321 L134.859688,209.832022 C135.368612,203.59028 137.089577,198.223986 139.185538,192.363164 C139.902048,190.371688 139.841781,188.286652 140.799361,186.121423 C142.794877,181.603845 143.571655,175.936825 146.645285,169.000071 C149.076064,163.493438 156.823755,148.851407 158.959894,146.726275 C160.192025,145.503321 160.433094,143.812571 161.517904,142.589617 L165.388402,138.212379 C167.558023,133.875237 170.919596,131.28899 174.816879,128.662647 C176.785609,127.332769 178.084704,125.19427 180.776641,124.365602 L184.292231,121.525409 C186.481941,121.177903 187.057828,119.660906 188.524332,118.972577 L205.841123,110.832918 C208.593328,109.543136 211.974991,109.035243 214.861123,108.26672 L222.910149,106.134905 C225.153431,105.540135 227.148947,105.500038 229.177944,104.544396 C232.79398,102.833598 239.925605,103.094227 246.092954,102.740039 L251.925485,102.399215 C257.557125,102.078441 266.958817,101.41016 270.079322,102.55292 C273.34045,103.74246 276.581489,103.027399 279.789047,103.341491 C288.266641,104.156794 297.079053,108.841441 304.036573,113.47931 C306.976276,115.437372 309.179379,118.143909 312.835592,119.246572 L314.590039,120.977419 L324.005124,126.136546 L328.873379,129.711848 C330.252829,130.727635 330.734967,132.565407 332.824232,133.12008 C333.688063,135.753106 335.094299,137.844824 337.4849,139.321725 C338.141144,143.171021 340.692457,145.937704 341.770572,149.432812 L345.225894,160.619831 C345.741514,162.277167 346.504899,163.139249 347.054001,164.990387 L349.237015,172.334792 L351.955738,181.062538 C353.502598,186.041229 354.76821,190.639 356.027126,195.771396 L357.212382,200.5897 C358.397638,205.434735 359.107452,209.872119 359.44227,214.864176 L359.890927,221.5403 C360.299405,227.528095 360.533777,233.081508 360.024854,239.049255 L359.348521,246.948333 L359.51593,253.597726 L358.960132,260.327313 C358.665492,263.835786 358.498083,266.996754 358.230229,270.612153 L357.205686,284.331956 C357.078455,286.109582 357.306131,287.5798 357.286042,289.0567 L357.286042,289.0567 Z" id="Fill-1" fill="#012F7D"></path>
            <path d="M302.617122,74.5468852 L302.617122,75.3824971 C302.617122,75.6900023 303.265969,75.9106039 303.265969,75.2220596 L303.867992,74.9947732 C303.774344,76.0443018 304.409813,76.6793668 305.5269,77.0002418 C308.537016,77.8759631 310.289572,80.3293197 312.537125,82.0540227 C314.911772,83.8723142 316.992097,85.5769626 319.032286,87.7361838 L324.303334,93.3247563 C326.885344,96.0588785 329.674718,99.3344772 331.982473,100.504334 C334.169824,101.614027 335.246777,103.987164 337.795341,106.400412 C341.420859,109.843133 343.76206,113.727057 346.491231,117.70457 C349.019729,121.394632 351.354241,124.884147 353.561659,128.788126 L357.94305,136.54929 C361.615391,143.053693 364.638885,149.230536 366.531913,156.436853 L368.632305,162.192548 C369.642366,166.591209 371.301274,170.582092 371.990256,175.094396 L373.073898,178.283091 C374.645847,182.929094 376.104081,187.347809 375.903407,192.368166 C375.769624,195.757408 377.241236,198.979527 378.344945,201.753759 C378.3115,205.343548 378.585755,208.472079 378.759672,212.315894 L379.033927,218.312245 C379.134264,220.53163 379.375074,222.169429 379.301493,224.489088 L379.000482,233.881366 C378.913523,236.548639 379.241291,238.687806 379.241291,241.27486 L379.234602,246.816639 L378.3115,253.969477 C378.451972,261.937872 378.030555,269.525228 377.114142,277.486938 L376.953603,285.301581 C376.906779,287.828472 376.572322,289.800516 376.338201,292.360831 L375.890029,297.361132 C375.548882,301.097989 375.261249,304.266629 375.09402,307.863103 L374.819765,313.605428 C374.699361,316.125634 375.401721,321.413386 374.197675,323.69962 L373.889974,328.84699 L373.114033,335.164216 C371.174181,339.549507 371.595597,343.667403 370.746075,348.126228 C369.84304,352.812339 368.766088,357.164206 368.117241,361.984016 L367.073734,369.778604 C366.752655,372.165111 366.55867,374.103731 366.351306,376.456814 L365.274354,388.917459 L365.321178,393.67042 L364.458278,402.641549 L364.063618,411.799856 C363.936524,414.687731 363.441528,417.93659 364.351252,420.597178 L365.822864,424.915621 C365.307799,427.983988 365.568676,432.00161 362.7191,434.154146 C360.625397,435.731781 356.805895,434.488391 354.611855,433.632724 C353.849292,432.269006 352.023155,430.911972 351.615117,429.167214 C351.006405,426.54005 348.471219,420.724191 346.992917,419.667978 C346.437718,419.273569 346.451096,418.143822 346.370827,417.642455 C346.865823,417.916535 347.447779,417.802892 347.695278,417.421853 C347.842439,417.187882 348.110005,416.67983 348.15014,416.205202 L348.845811,407.501468 C349.287294,401.98643 349.367564,396.772211 350.083303,391.250488 C350.638502,386.911991 349.173579,392.039305 350.26391,388.128642 C350.772285,387.981574 351.608428,388.710227 352.056601,389.224964 C354.297465,387.647329 355.126919,385.287561 354.698814,382.613603 C354.190439,379.465017 355.053338,376.603882 355.03996,373.535515 L354.999825,362.786203 C354.986447,360.045396 355.106852,358.013188 354.932934,355.292436 L354.484761,348.159652 L355.033271,329.248083 L355.213878,322.944227 C355.267391,321.125935 355.969751,320.009558 355.394485,317.810227 L356.183804,311.479631 C355.688807,309.36052 356.21725,307.742775 356.183804,305.830895 C356.143669,303.437702 355.735631,301.799903 356.411235,299.072466 C356.718936,297.83576 355.595159,295.369034 357.046704,294.419778 C357.006569,294.647065 356.805895,295.088268 357.267446,295.576265 C357.454742,295.616375 357.789199,295.155117 357.688862,294.707229 C357.575146,294.192492 357.575146,294.085534 357.060082,293.764659 C356.464748,293.390305 356.458059,292.434365 356.99988,292.013216 C357.675484,292.654966 358.558451,292.548008 358.504938,291.792615 L358.364466,289.987693 L359.093583,282.433761 L361.160529,270.868892 C361.849511,267.045132 362.237481,263.782903 362.344508,259.885609 L362.739167,244.918128 L363.307745,237.15028 C364.471656,231.528283 363.782674,226.848856 363.314434,221.18675 L362.571939,212.275784 L362.030118,203.164272 C361.762552,198.651968 359.073515,192.75589 358.939732,186.919976 C358.805949,180.816667 356.237317,175.669297 354.678746,169.987136 C353.575037,165.996254 352.785718,162.165809 351.441199,158.154871 L348.424395,149.170372 C346.919337,144.704862 344.598203,141.048224 342.357339,136.950383 C337.581289,128.21991 333.10625,119.28889 326.203051,111.935505 C322.075848,107.543529 317.834929,103.545961 313.466917,99.220834 L308.670799,94.4745583 C305.419874,91.2591236 302.095368,89.0397384 298.215664,86.7200797 L291.814151,82.9030044 C288.054851,80.6635645 284.30224,79.2597364 280.134902,78.1834683 L271.934008,76.0576716 C259.585845,71.7860234 251.953529,71.4651485 239.190638,71.7860234 C233.986482,71.9130364 229.297391,71.5253125 224.019655,72.0133099 L218.059625,72.5614713 C213.183238,73.0160442 208.995832,73.6243697 204.306741,74.627104 L194.868356,76.6593121 C191.744524,77.3344866 188.754476,77.7823746 185.771117,79.1862026 L168.559944,87.274926 C165.30233,88.805767 163.034709,91.2256991 160.265403,93.5654125 C150.311953,101.975011 143.05423,112.764432 137.301564,124.416205 C134.759688,129.570259 133.174361,134.336589 131.508763,139.804834 L126.826361,155.200148 C125.863124,158.368788 125.147385,160.888994 124.518606,164.331715 L123.501855,169.940342 L121.254302,186.291596 L118.699049,204.233855 L118.13716,217.135703 C117.969932,221.126586 117.147167,225.077359 117.642163,229.208624 C118.384659,235.405522 118.076958,241.254806 117.969932,247.498498 L117.421422,279.840022 C117.361219,283.463235 116.391293,286.812368 116.678926,290.442266 L117.655542,302.95639 C117.849527,305.456541 117.267571,307.909897 117.287639,310.537061 L117.374598,321.968232 L116.605346,330.183969 C116.471563,331.601166 116.110349,332.363244 116.612035,333.319185 C113.902931,337.671051 117.448178,341.414593 114.357793,346.876152 L116.431428,348.139598 L114.30428,362.050865 C112.926315,364.624549 107.401081,363.414583 105.68197,361.903797 C103.855833,357.25111 107.501418,352.618477 105.006366,347.056644 C103.347458,343.353212 105.120082,340.492077 105.046501,336.875549 L104.778935,323.973701 C104.698666,320.089777 102.839083,315.998621 103.534754,312.194915 C103.902657,310.202816 104.578261,309.166658 103.976238,306.800205 C102.464491,300.830593 104.069886,296.89319 103.708672,292.588117 C103.461174,289.686873 103.996305,286.946065 104.19698,284.145094 L104.691977,277.306446 C104.992988,273.175181 105.327445,268.549233 104.518059,264.498187 C103.795631,260.874974 103.996305,258.100742 104.11671,254.39731 L104.558194,240.853712 L104.611707,232.504278 L105.079947,211.059133 C105.160217,207.14847 105.05988,203.551996 105.340824,199.77503 L106.069941,189.894755 L106.043184,177.467534 C107.682025,173.189201 107.635201,168.589993 108.076684,166.270334 L110.578425,153.201364 L111.769093,148.241172 L118.016756,125.392199 L122.879765,114.061302 C126.237716,106.246659 130.772957,99.4146959 135.756371,92.5961027 C138.365138,89.0330535 140.572556,85.6371266 144.218141,82.8963195 C145.763334,81.7398326 146.8938,79.9950749 148.057711,78.8987521 C150.994246,76.1312054 155.415772,76.6526273 159.328922,76.2582184 C161.877487,76.0041924 164.024703,75.329018 166.626781,75.0482524 L179.938181,73.6109999 C182.573705,73.3235494 185.322944,74.1725311 187.898265,72.6817994 C188.95515,72.7553333 190.935138,73.8917655 191.891686,73.3703436 C195.062341,71.6389557 204.239849,71.2445469 210.052717,70.6362214 C212.06615,70.4289897 213.370534,69.8139793 215.604709,70.0546355 C217.63152,70.2752371 224.394247,69.9744168 224.969513,69.8072944 C226.835785,69.2658179 227.8124,69.4997892 229.85259,69.3995158 L239.906377,68.9115184 L255.418507,69.386146 C256.72289,69.4262554 258.482136,69.3727762 259.585845,69.1655445 C264.174599,71.0841094 268.749975,70.9771511 273.592917,71.4985729 C278.067955,71.9865703 283.138328,73.4037681 287.74715,71.9732005 C289.272275,71.7592839 291.921177,73.0628384 293.814205,72.4745677 C294.249,72.3341849 295.325952,73.8449712 295.687166,73.6778488 L297.138711,73.0093593 L302.617122,74.5468852 Z" id="Fill-3" fill="#FF008A"></path>
            <path d="M303.455062,74.9993179 L302.852793,75.2214253 C302.792566,74.9454737 302.457973,74.6156779 302.203682,74.5483727 L296.723038,73.0003517 L295.277594,73.6734043 C294.909541,73.8416675 293.838842,72.3205686 293.397178,72.4551791 C291.503378,73.0541959 288.853397,71.7417434 287.32765,71.9503897 C282.71695,73.3974528 277.644511,71.9705813 273.174341,71.4792529 C268.322734,70.9542719 263.745493,71.0619603 259.154869,69.1302994 C258.05071,69.3389457 256.290748,69.3927899 254.985833,69.3524067 L239.467382,68.8745394 L229.409498,69.3658678 C227.368477,69.4600951 226.391464,69.2312572 224.531124,69.7764298 C223.948931,69.944693 217.183448,70.2408361 215.155811,70.0254593 C212.927418,69.7764298 211.615811,70.4023687 209.601557,70.611015 C203.78632,71.2234929 194.605072,71.6205939 191.433125,73.3638001 C190.482879,73.8887812 188.495393,72.7445918 187.438077,72.670556 C184.861706,74.1714632 182.111347,73.3166865 179.47475,73.6060991 L166.157924,75.0531621 C163.554786,75.3291137 161.406695,76.0156273 158.857092,76.2713873 C154.942347,76.6684883 150.51902,76.1367768 147.581288,78.9232145 C143.981061,78.0684377 140.601665,78.9568671 136.981363,79.6164587 L127.840265,81.2923596 L119.154216,81.2923596 C113.747183,82.5913511 108.828657,83.6413131 103.388165,83.7557321 L94.0596957,85.6402793 L86.9663114,86.9863845 C83.2924736,87.1142645 80.5086549,87.491174 77.0489571,88.810357 L71.8627563,89.5305233 C67.4461208,90.9775864 65.2110356,88.0699992 63.4845326,84.7249278 C62.5811299,82.9749911 62.3067631,82.4903932 62.3803737,80.4375828 C62.5476705,75.79352 61.0754587,69.7360467 66.4490319,68.0332236 L72.926764,65.9804132 L80.9503185,64.4593144 L87.4682018,63.7795313 C89.7300545,63.5439629 91.168807,63.1199397 93.203136,62.7968745 L100.51066,61.6123019 L111.5924,60.3671547 C113.680264,60.1315863 116.323554,58.0787759 118.41811,58.4691464 C121.42276,59.0345105 123.965672,58.4422243 126.876636,58.4556853 C131.139358,58.4691464 134.987185,57.8297464 139.243215,57.2643822 C147.795428,56.1134623 156.842839,56.0125044 164.632178,54.1616098 C168.225713,53.3001025 172.173917,53.4010604 175.874522,52.8626183 L184.988852,51.5501658 C189.726697,50.8636521 194.09649,50.9376879 198.907946,49.672349 L204.923939,49.0935238 C207.901822,48.8041112 210.478192,48.1377891 213.436,47.1551324 L218.408061,47.3974313 L234.481937,46.9734082 C239.293393,46.8455282 243.716721,46.8253366 248.528176,46.8657197 L270.049237,47.060905 C271.702129,47.0743661 273.227876,46.4820798 274.613093,46.3878524 C278.327082,46.152284 281.686402,45.4186567 285.440542,44.8936757 L291.423076,44.0523599 C291.764361,44.0052462 292.313095,44.1331262 292.627613,44.0927431 L293.283416,44.0523599 C294.220278,42.9620147 295.739333,43.9244799 296.796649,43.8840968 L302.718956,43.66872 C306.145194,42.9889368 309.283682,43.1033558 312.729996,43.0831642 C315.587426,43.0697032 318.143721,42.6995242 321.114912,43.1302779 C326.11374,43.8571747 329.051472,40.9630486 330.068636,42.4101116 C330.838202,43.5071873 332.022663,41.7976338 332.732002,41.9187832 C334.491964,42.2283874 340.621719,41.2053475 344.750604,40.6534444 L351.770377,39.7111707 C354.808487,40.2765349 357.398242,39.7179013 360.161985,38.6477477 C361.507051,40.1486549 363.307165,40.2294212 364.618772,38.7890887 L377.728149,38.2506466 C380.565502,38.1362277 383.342629,37.7525877 386.186675,38.486215 C386.66849,38.6073645 387.873027,37.6381688 388.174161,37.9881561 C388.394993,38.2506466 389.191325,39.2736866 389.539303,39.1727287 C396.304785,38.1227666 413.375751,40.2765349 415.30301,43.5946842 C415.83836,44.5167662 417.243653,44.4831136 418.133672,44.4225389 C424.477566,52.4587868 435.746679,55.8173192 431.718172,67.6630447 C432.394051,68.127451 432.869174,68.3024447 433.310837,68.8947309 C431.504032,75.0195095 436.369023,77.3280799 429.456319,82.7596143 C425.300667,86.0239193 423.56078,85.5998962 418.408038,83.6211216 L412.2649,81.258707 C403.418245,77.8530609 397.850608,80.1750923 392.289662,79.5895366 L380.538735,78.3443893 C378.671703,78.1424735 378.156429,77.4492293 376.115408,78.2299703 C371.839301,79.8520271 363.213478,77.8597914 359.158204,78.3780419 C355.076162,78.8962924 348.678732,77.5030735 344.007806,77.738642 C339.169582,77.9876714 334.79979,77.2944272 330.048561,77.0857809 C327.010451,76.9511704 324.119562,78.007863 320.900772,76.9377094 C318.197256,76.0358189 312.582775,76.2242736 308.634571,75.7396758 C307.363115,73.9695475 305.101262,74.3868401 303.455062,74.9993179" id="Fill-5" fill="#012F7D"></path>
            <path d="M371.367719,29.2237906 C371.401191,28.9706889 371.29408,28.4778064 370.905803,28.2247046 C368.67656,29.8299028 366.079124,29.123882 363.515159,28.8374774 C359.786365,28.4245218 352.134639,27.7784462 352.589859,27.7451433 C346.036018,28.2646681 342.461196,26.6661304 338.317348,27.2589215 C335.44544,27.6785376 333.028753,27.218958 330.297428,27.172334 C328.101657,27.1390312 326.334329,27.6785376 323.977892,27.2256186 C322.94695,27.032462 320.998873,26.6195064 319.961237,26.6195064 L313.347146,26.6461487 C312.396538,26.6461487 309.002465,27.6785376 306.257751,26.5462401 C305.10631,27.6785376 303.051122,26.4929555 302.013487,26.7860208 C300.40013,27.2522609 299.395967,26.3530835 298.117332,26.3597441 L268.608311,26.4596527 C265.964014,26.4663132 263.641048,27.2522609 260.963279,26.5595613 C257.743261,25.720329 253.385191,27.7518039 249.643008,26.9924985 C247.868986,26.6394881 245.760242,26.7860208 243.905887,27.2389398 C242.433113,27.5919502 240.853229,26.8126631 239.554511,27.0258014 C230.945482,28.4644853 224.217586,27.032462 217.088024,27.2389398 C212.837065,27.3654907 208.65305,28.1847412 204.328452,27.0524437 C202.607985,26.5995247 197.292613,28.1647595 191.019938,27.1123889 C189.312859,26.8193236 184.807512,27.8783548 180.717219,27.12571 C178.367476,26.6927727 175.716484,27.2322792 173.299797,27.2922243 L155.010631,27.7584645 C151.804002,27.8383914 148.891928,28.0182269 145.691993,28.2846498 L140.84523,28.6776236 C133.889724,29.2504329 127.034633,28.7042659 120.166154,29.8698663 L114.797226,30.7823648 C114.629866,30.0430412 114.28845,29.9697749 113.726119,30.0363806 L106.871029,30.8223283 C104.226731,31.1287147 101.937238,30.4959602 99.0519413,30.9688609 C97.0503086,31.295229 94.6202327,31.9812681 92.5784334,31.7414874 C90.7307724,31.5283491 89.2111381,31.0687695 87.7316705,32.3942236 C87.4103381,31.9746075 87.0086727,31.4417616 86.7676734,31.4017982 C86.5266741,31.3551742 86.0379812,32.2610121 85.7635098,32.2876544 L56.2009337,34.8120118 L47.0228784,35.9376487 L18.1364391,38.8949433 C13.2628985,39.3944863 11.6629312,28.4644853 15.3046978,24.7745276 C17.8284956,22.223528 22.0727604,22.6564652 25.3262504,22.0969771 L38.6347652,19.8124004 L55.0093262,17.8275495 C62.3263316,16.9483538 69.2550604,15.243247 76.63901,14.8436126 C79.0423082,14.7104011 81.1845238,13.5980853 83.6279886,13.3250018 C87.5643099,12.8987251 92.4445449,13.5581219 96.0193673,11.8663362 C98.6435815,10.620809 100.256938,11.3534721 102.807513,11.0404251 L117.849884,9.22208858 C119.617212,9.00895022 122.067371,8.53604951 123.841393,8.1364151 C129.016183,6.97747532 133.755835,6.69773124 138.917236,6.28477568 L155.010631,4.99928501 L172.329106,4.1733739 L180.750691,4.02684128 C182.491241,3.99353842 183.522183,3.9469144 185.302899,3.89362981 L192.727016,3.66050974 C195.933645,4.67291691 198.517692,3.66050974 201.523489,3.75375777 C207.401193,3.92693268 213.158398,4.75950436 219.022713,2.94782838 C222.410091,3.91361153 225.810859,3.74043663 229.231709,3.07437928 C230.784816,3.96023555 232.491894,3.06771871 233.98475,3.00777355 L241.174562,2.69472659 C246.777795,2.45494595 252.367639,2.04865097 257.63615,1.82219147 L270.348861,1.27602445 L277.692644,0.723196852 L291.402825,0.356865312 C294.70987,0.263617284 298.177582,1.10951011 301.56496,0.263617284 C304.543979,-0.482366943 307.302081,0.183690402 310.227545,0.21699327 L313.862617,0.25695671 C317.872577,0.303580725 321.681704,-0.489027516 325.671581,0.25695671 C329.507486,0.96963807 333.417029,0.330223018 337.219462,0.110424095 C340.466258,-0.0694113886 343.398415,0.803123733 346.558183,0.962977496 L362.979605,1.79554918 L372.606187,2.45494595 L379.802693,3.07437928 L389.978217,4.91935813 L397.904415,6.21150938 C399.852493,6.52455633 402.550345,6.78431869 404.310979,7.49033948 C411.239708,10.2744592 424.728972,12.4125033 432.501198,12.2193466 C436.089409,12.1260986 439.650843,13.0852212 443.379637,11.8996391 C445.843185,11.120352 448.246483,11.6065739 450.669865,11.7730882 C453.695744,11.9862266 455.824571,12.5989993 457.685621,14.7969886 C459.526588,16.9816566 459.446254,19.8590244 459.158394,22.5898595 C458.816979,25.8268982 457.772649,26.7060939 455.068101,27.8583731 L447.12182,31.2352838 C442.864166,33.0469598 438.961317,33.5265211 434.39572,33.9328161 L425.552386,34.7187637 C422.988422,34.9452232 421.288038,35.6712257 418.382658,34.9518838 C413.7702,33.8062652 409.606268,35.5513354 407.363636,33.3866491 C406.078307,33.4998788 404.391312,33.5131999 402.711012,33.106905 L390.674437,30.2028949 C388.980748,31.9612863 387.521364,30.9555397 384.790039,29.2770752 C382.527323,30.9622003 381.28216,29.5434982 379.173417,28.8507985 C377.807754,28.4045401 375.190235,29.8299028 374.099044,27.6851982 C373.175213,28.484467 372.418743,28.9174043 371.367719,29.2237906" id="Fill-7" fill="#012F7D"></path>
            <path d="M191.510851,244.292325 L189.441708,257.419495 C189.18725,259.023629 189.086806,259.972742 189.106895,261.436515 L189.388138,281.982808 L189.90375,288.499606 L190.874707,301.192322 C191.390319,307.936372 192.394757,314.533377 193.9282,321.183852 C194.263013,322.627573 194.792018,323.402905 195.481732,324.733 L197.416951,328.469297 C200.128935,333.689419 198.702632,338.37483 202.432447,341.743513 C202.981541,344.229922 204.073031,346.836641 205.787272,348.922016 C206.965814,350.359053 209.068439,349.40994 210.35412,348.454143 L215.590593,344.550749 L217.83384,340.12601 L227.228689,331.938239 L237.989575,324.077978 L244.250576,318.877908 C245.489383,317.841905 246.460341,317.146779 247.665667,316.177615 L255.660998,309.781127 L263.502316,303.017026 L269.455289,297.522864 L273.774375,292.269323 C274.986398,290.792182 276.238598,290.511458 277.350177,288.940743 C281.990683,282.423945 286.45039,275.960619 289.041842,268.267456 C290.622159,267.498808 290.903402,265.674105 290.689121,263.929608 C292.209172,261.670452 292.5172,259.424663 292.738176,257.165507 L293.82297,245.963299 C294.532773,238.664486 294.278316,235.503003 290.019496,230.483398 C288.41909,228.591856 287.334296,228.351236 284.863377,228.130667 C275.957355,227.348652 274.926131,228.23761 270.111522,232.916336 C268.946373,234.052598 267.714262,234.687568 266.455366,235.937456 L261.921999,240.415666 C260.81042,241.511825 259.913122,242.220318 259.678753,243.904659 C259.250192,246.912412 256.397587,248.897529 254.649864,251.21684 L249.687937,257.820528 L245.141178,265.326542 C243.293011,268.381082 240.406924,269.657706 237.052099,268.060255 C231.320102,265.33991 227.228689,259.511554 230.570122,253.750036 C235.210628,245.756098 232.739709,240.308724 234.159316,236.97346 C235.123577,234.714304 236.007483,231.719919 234.239671,229.520917 C233.616919,226.526532 231.594649,224.093595 230.074598,221.480192 C226.525582,215.391164 218.992292,210.919638 214.124113,213.145375 C209.175579,215.411215 202.613246,220.851906 199.33208,225.196437 C195.207186,230.650496 192.595645,237.421281 191.510851,244.292325 L191.510851,244.292325 Z M246.560784,351.58889 L243.339885,353.527219 C237.648066,359.368943 231.407154,364.101141 225.340344,369.28116 C222.226585,371.934666 219.266839,374.140351 215.804874,376.219043 L208.646574,382.669001 L200.303038,387.768813 C197.430343,389.519993 194.75184,389.132327 191.979589,387.461354 L186.930611,384.426865 C185.725285,383.698321 184.298982,381.592894 183.763282,380.089018 C181.258881,372.977353 188.885919,362.938143 195.153616,356.815696 L186.140453,340.212901 C183.877118,336.048834 184.486477,329.532037 182.892768,326.604491 C180.502204,322.219856 179.236611,318.329829 178.466542,313.470637 C177.743346,308.885485 176.491146,304.507534 176.437576,299.728549 C176.377309,294.414853 175.942053,289.14126 174.897437,283.847615 C174.047012,279.529819 174.375128,275.593005 174.388521,271.422254 L174.475572,250.334566 L175.707684,239.880954 C175.399656,235.990928 176.464361,233.477783 177.649598,230.008842 C180.314709,222.21542 183.602571,214.675987 189.937231,209.094935 L198.890127,201.207939 C207.521603,194.818135 216.896364,196.141546 226.00997,201.341616 C228.08581,202.524666 230.630388,202.838809 232.364719,204.483047 C237.715028,209.549439 241.458236,215.217382 245.007253,221.533663 L249.132147,228.87258 C254.315051,222.469408 262.042532,212.202946 268.578079,212.196262 L280.638039,212.182894 C285.660232,212.182894 289.805215,214.067752 293.615386,217.215867 C298.182234,220.985584 302.414268,225.316747 305.72222,230.456663 C310.007824,237.113822 310.121661,245.254806 310.30246,252.994756 C310.449777,259.424663 309.311414,264.73836 307.56369,270.807336 C306.532467,274.389904 306.103906,278.159621 304.530286,281.822395 L299.427738,293.746463 C297.646533,297.897162 295.450161,302.001074 292.691302,305.610377 L289.262819,310.088586 L281.126866,320.568934 C278.963975,323.362802 276.707336,325.695481 274.182847,328.268781 L268.832537,333.736207 C266.435277,336.175828 263.589367,338.949645 261.051486,340.954813 L252.620898,347.618656 L246.560784,351.58889 Z" id="Fill-9" fill="#012F7D"></path>
            <path d="M364.318854,418.038101 L362.848421,413.913919 C361.94611,411.37134 362.434027,408.268193 362.561019,405.518738 L362.955362,396.77654 L363.824254,388.214524 L364.719881,374.634085 L365.795971,362.742025 C366.003168,360.499751 366.196998,358.65121 366.51782,356.368896 L367.567174,348.93469 C368.208817,344.336694 369.291591,340.179144 370.187218,335.707943 C371.042743,331.450292 370.61498,327.51964 372.559962,323.335396 L373.335281,317.302612 L373.636051,312.397638 C374.839133,310.215425 374.137335,305.163635 374.257643,302.761199 L374.531679,297.275636 C374.698773,293.845491 374.99286,290.822425 375.327049,287.252138 L375.781547,282.487306 C376.008795,280.044829 376.342985,278.156247 376.396455,275.747137 L376.556866,268.286238 C377.465861,260.69187 377.886939,253.451194 377.74658,245.843479 L378.668942,239.016556 L378.675626,233.731196 C378.675626,231.262025 378.34812,229.219954 378.435009,226.670702 L378.73578,217.70828 C378.809301,215.4927 378.568685,213.931116 378.468428,211.808964 L378.194393,206.089831 C378.020615,202.426116 377.74658,199.436417 377.779998,196.012946 L377.900307,184.654761 C377.913674,183.520277 377.11162,182.325732 376.556866,181.611675 C378.668942,179.536237 376.576917,173.103046 376.650439,169.125679 L376.824217,159.602689 C376.336301,155.712077 376.042214,151.794771 376.837585,147.817404 C375.393887,142.158332 375.500828,136.612708 375.494144,130.866881 L375.494144,125.528134 L375.306998,115.417881 L374.972809,105.774769 C374.865868,102.878498 374.865868,99.5951686 377.933726,98.6608878 C378.68231,99.3349047 380.513667,100.542796 380.928062,99.6418827 L381.609808,98.1670537 C382.097724,97.1059777 383.147078,99.6885967 383.868927,99.7486576 C384.269954,99.7820248 385.098744,98.8010299 385.432933,98.9545189 C386.014422,99.5818217 386.348612,101.009937 387.150666,100.956549 L389.596931,100.809734 L394.883806,103.565862 L397.784569,122.324885 C398.105391,124.386977 397.584055,126.268885 397.811304,128.1241 C398.152177,130.906922 397.904877,133.102482 397.844723,135.845263 C397.704363,141.964802 399.161429,148.718318 399.214899,157.280334 L399.275053,167.297158 C399.288421,169.105659 399.315156,170.120021 399.582507,171.775033 C400.478135,177.260596 399.709499,182.752832 399.682764,188.338496 L399.589191,206.597012 C400.177364,213.110284 399.823124,219.149742 399.609242,225.669687 C399.415413,231.462228 400.698699,237.067913 399.508986,242.933861 L399.629294,247.018003 L399.241634,259.030185 C398.486366,263.601487 398.940864,267.792404 399.121326,272.337012 C399.188164,274.032065 397.838039,276.094156 398.13881,278.089513 C399.094591,284.349194 397.383542,290.28855 397.543953,296.274621 L398.018501,313.358612 L397.20308,320.125475 C397.784569,323.996066 397.229815,327.272723 397.336755,331.083254 L397.470431,335.761331 C397.517217,337.362955 398.292537,338.704315 397.102823,340.652958 C396.521333,341.600586 397.858091,343.849533 397.590739,344.830528 C396.862206,347.446514 397.543953,349.36179 397.650893,351.991123 L397.898193,358.003887 C399.388677,361.107034 398.292537,368.100793 398.63341,370.162884 C399.549088,375.788589 401.046256,378.404575 399.736234,385.485089 C399.388677,387.373671 399.656029,393.27966 400.06374,395.315058 C400.511553,397.530638 400.531605,399.759565 398.673512,401.514678 C398.860658,402.402245 399.863226,404.237439 398.726983,404.884762 C397.664261,405.485371 396.788685,405.865757 396.782001,406.966874 C396.775317,407.740992 397.898193,408.455049 398.319272,408.982251 L396.628274,413.660328 C396.895625,419.993417 396.467863,423.950764 390.746543,427.107298 L382.411862,428.488699 C380.874591,428.748963 380.02575,429.089308 378.181026,428.80235 L372.48644,427.901437 C370.748656,427.627826 370.715237,426.793647 369.705985,425.765938 C367.908047,423.930743 365.729133,422.576036 365.836074,419.593011 C365.862809,418.738812 364.666411,418.331732 364.318854,418.038101" id="Fill-11" fill="#012F7D"></path>
            <path d="M101.288707,180.421085 L101.31525,193.355408 L100.591948,203.642707 C100.313244,207.573137 100.412781,211.323088 100.333152,215.387206 L99.8686455,237.713118 L99.8155591,246.39616 L99.3775962,260.500254 C99.2581518,264.357155 99.0590778,267.244818 99.7757443,271.014822 C100.578676,275.232682 100.246886,280.045453 99.9482751,284.343525 L99.4572259,291.462417 C99.2581518,294.383501 98.7272878,297.231058 98.9728124,300.252409 C99.3311456,304.73096 97.7385535,308.8285 99.2382444,315.044997 C99.8354665,317.511542 99.1652506,318.587731 98.8002816,320.659897 C98.1101583,324.617064 99.9549109,328.881714 100.03454,332.919095 L100.299973,346.348064 C100.372966,350.118068 98.6144792,353.092628 100.260158,356.94953 C102.735311,362.738224 99.1188,367.55768 100.930374,372.403874 C100.426053,372.27687 99.7160221,372.718041 99.7757443,372.798254 L100.837472,374.18861 C99.8553739,376.320935 99.4041395,380.498688 99.1254358,383.2794 L98.3291398,391.394268 L97.7650967,397.717715 L96.0862392,404.034477 C95.5221961,406.153433 94.8387087,407.81785 92.5692649,408.018382 C92.8214253,408.813826 92.9342339,409.662746 92.5626291,409.656061 L90.4922594,409.642693 C88.0370132,411.394007 84.9314585,412.650675 81.6998237,412.376614 C80.6314598,412.289717 79.0654109,413.646651 77.797973,412.336508 C75.3161836,413.639967 72.3698881,412.630622 70.8370182,410.284395 C67.7978216,409.756327 65.9995196,407.202885 66.1654146,403.987686 C62.5489034,392.557354 64.8581619,380.826224 67.7779142,369.462736 C68.8197349,365.418671 68.6007534,357.51102 68.5941176,352.083283 C71.4408761,348.366754 73.4249804,343.687671 71.8921105,338.968481 L72.1973573,334.563458 C72.3234375,332.705194 70.7043022,327.785472 71.7328513,322.036884 C72.7813078,316.214767 71.6731291,313.019622 72.3632523,308.688128 C72.4296103,308.26701 71.3546107,307.331193 71.5470489,306.963551 C71.6930365,306.689491 72.4097029,306.094579 72.4362461,305.653408 C72.7149498,300.833952 73.471431,296.288557 74.5132517,291.515892 L76.6035289,281.950509 C76.9419547,280.393042 77.6718927,279.036108 77.7780656,277.451904 L78.2691148,269.738101 L80.5319228,266.282264 C79.4768305,263.895931 80.2465833,261.66334 80.2200401,259.230217 L80.1337747,250.761076 C80.0475093,242.619471 80.8504412,234.618239 80.0674167,226.423158 L79.9015217,208.635957 C79.8417995,202.472936 80.4191142,196.537185 80.326213,190.220422 L80.1735895,180.193815 L80.0276019,173.763418 C79.9081575,168.656532 78.527911,163.549647 79.0455035,158.382602 C79.2578491,156.236908 79.1384047,154.351906 78.0833124,152.486957 C80.3461204,149.799827 77.5325409,143.483064 77.6453495,138.008537 L77.7581582,132.393637 C77.8112446,129.886985 77.9572322,128.001983 77.5789915,125.381696 C77.2803805,123.316215 78.5411826,120.842985 77.9904112,118.516812 C77.6387137,117.006137 78.5013678,115.268192 78.3819234,113.810991 C77.9240532,108.189407 77.5192693,102.347237 78.9459664,96.745706 C79.7688057,96.0304747 81.08933,95.1481333 81.2353176,93.9115184 C82.5558419,95.6828857 84.9380943,96.2042693 86.2917976,95.4155095 C86.6368592,95.2149774 87.0681863,93.804568 87.2606245,93.9850469 L88.275902,94.9342324 C88.8598524,95.4756691 90.0343891,94.7604378 90.4524445,95.0746049 C90.9501296,95.4489315 91.2885554,96.1040032 91.5208084,96.6320712 C91.9587713,94.9141791 93.1532154,95.1548177 94.0424126,95.6026728 C94.4870113,95.8299426 95.0046037,96.2109537 95.2633999,96.9128162 C97.6921029,98.2430127 98.4154052,100.569186 98.4353126,103.456848 L98.6675656,142.086023 L99.8487381,158.74356 C100.021269,161.116524 99.7558369,163.148583 100.06772,165.728763 C100.379602,168.362419 100.372966,171.183237 100.452596,173.743364 C100.518954,176.082906 101.282071,178.148387 101.288707,180.421085" id="Fill-13" fill="#012F7D"></path>
            <path d="M371.21605,29.8042616 C371.597444,31.9648726 370.894877,35.0782996 368.834013,36.4672639 C366.89359,37.7689984 364.243909,36.5477835 362.236574,36.5813334 L355.592297,36.6954029 L348.058101,37.5341494 C343.07322,38.0910771 338.422895,39.319002 333.518308,40.5536368 C331.992734,40.9361052 330.882009,41.0635947 330.754877,42.7545077 C329.737828,41.3185737 326.80712,44.2038616 321.802165,43.4791847 C318.83131,43.0497464 316.275304,43.4120849 313.424889,43.4322149 C309.972274,43.4523448 306.834141,43.3382752 303.40829,44.0159824 L297.486653,44.2307015 C296.429457,44.2709614 294.910574,43.3114354 293.973818,44.3984508 C293.759702,44.0092725 293.371617,44.0428223 293.318089,44.4387107 C293.003606,44.4789705 292.454935,44.351481 292.113688,44.3984508 C289.96584,43.2510456 285.315515,44.3380611 281.066657,44.3112212 L269.250148,44.2441215 C267.129064,44.2307015 265.630254,44.1904417 263.576082,44.1434719 L257.828414,43.9958525 L242.251498,43.4926046 L217.78209,43.4657647 C215.574022,43.4657647 213.780803,44.358191 211.35862,43.6133841 C210.40179,43.3181453 208.521587,43.4523448 207.290422,43.5932542 L199.548802,44.4722605 C193.35952,44.1904417 187.518177,44.5527802 181.389115,45.0627381 L166.23374,46.3376328 L146.126939,48.4646939 L132.383388,49.7932684 C128.843788,50.1354769 125.297497,50.3501961 121.905102,51.5915409 C120.45313,52.1216287 111.781445,52.6114566 106.562375,53.2220641 L82.2468629,56.0670923 L71.8823256,57.2212075 C67.4059696,58.3216429 63.3043161,59.261039 58.5603155,58.8987005 L52.4312541,59.9320362 C49.2329011,60.4755439 46.0746947,60.5426436 42.9700173,61.4551998 C39.9590155,62.3476261 32.719229,62.0188375 31.2806393,59.6837672 C29.6011694,56.9460986 29.0190424,53.0744447 29.4539648,50.0348274 C30.0093274,46.1631735 32.1571753,44.9822184 35.6900841,44.3984508 L47.5735045,42.425719 C51.728687,41.7413019 55.5158581,41.2112141 59.5372183,40.4596972 L77.1616155,37.158391 C78.473074,36.916832 80.1859995,36.6954029 81.5777514,36.7021129 C85.0638224,36.7155328 87.9410019,35.6486473 91.2999416,35.4070883 L94.3109434,35.1923692 C98.5464193,34.8904204 101.999035,34.3737526 105.953484,32.7029695 C110.536898,33.0384681 114.156791,31.4750446 114.772373,31.3743951 L120.138648,30.4551289 C127.003732,29.2808838 133.855434,29.8311015 140.807502,29.2540439 L145.65187,28.8581555 C148.850223,28.5897566 151.760858,28.4085874 154.965902,28.3280677 L173.246028,27.8583697 C175.661521,27.7979799 178.311202,27.2544722 180.659784,27.6906204 C184.748055,28.4488472 189.251175,27.3819617 190.95741,27.6772004 C197.226985,28.737376 202.53973,27.1605326 204.259347,27.6168107 C208.581807,28.757506 212.763754,27.9321794 217.012612,27.8046899 C224.13865,27.5966808 230.86322,29.0393248 239.467994,27.5899708 C240.766071,27.3752517 242.345174,28.1603184 243.817219,27.8046899 C245.670658,27.3484118 247.778359,27.2007924 249.551505,27.556421 C253.291838,28.3213578 257.647754,26.2748163 260.86618,27.1202728 C263.542626,27.8181099 265.864443,27.0263332 268.507434,27.0196232 L298.001869,26.9189736 C299.279872,26.9122636 300.283539,27.8181099 301.896098,27.3484118 C302.933221,27.053173 304.987393,28.2475481 306.138265,27.1068528 C308.881622,28.2475481 312.274018,27.2075024 313.224156,27.2075024 L319.834978,27.1806625 C320.8721,27.1806625 322.819215,27.5966808 323.849647,27.79127 C326.204919,28.2475481 327.971374,27.7040403 330.166059,27.7375902 C332.896034,27.78456 335.311527,28.2475481 338.182015,27.8248198 C342.323815,27.2276323 345.896871,28.8380256 352.447473,28.3146478 C351.992477,28.3481977 359.640421,28.9990649 363.367372,29.4150832 C365.93007,29.703612 368.526222,30.4148691 370.754363,28.7977658 C371.142448,29.0527447 371.249506,29.5492827 371.21605,29.8042616" id="Fill-15" fill="#FF008A"></path>
            <path d="M357.135037,290.078458 C356.827037,290.113458 356.610037,289.945458 356.533037,289.749458 C356.351037,289.315458 356.673037,288.657458 357.149037,288.748458 L357.135037,290.078458 Z" id="Fill-17" fill="#FF008A"></path>
            <path d="M233.570398,229.844204 C232.543092,231.185808 232.334946,233.321695 230.938348,234.603227 C229.575322,235.851386 227.916861,236.605621 227.997434,239.315527 L233.489825,237.286435 C232.066369,240.617083 234.543988,246.05692 229.890899,254.039797 C226.540407,259.793343 230.642913,265.60696 236.390451,268.330215 C239.754373,269.918781 242.648285,268.643924 244.501463,265.59361 L249.06055,258.097982 L254.03593,251.510106 C255.788392,249.194004 258.648733,247.211634 259.078455,244.201368 C260.978634,243.019956 262.764668,241.61828 264.711848,239.889547 L270.492958,234.763418 L277.005939,231.599636 C279.174695,230.545042 280.745868,229.53717 282.988482,230.071142 C286.896271,230.998918 290.810774,236.565573 288.440586,241.925314 L293.31525,246.263834 L292.227515,257.450542 C291.374784,257.637432 290.636199,258.184753 290.025187,259.019084 L281.343451,270.833208 C284.573083,270.112346 286.177828,268.376938 288.521159,268.537129 C285.922681,276.219648 281.450881,282.667356 276.797793,289.181811 C275.6832,290.750353 274.427605,291.030688 273.212296,292.49911 L268.881499,297.745383 L262.912385,303.231942 L255.049807,309.993359 L247.032797,316.380996 C245.824203,317.342145 244.850613,318.036308 243.608446,319.070878 L237.330469,324.270428 L226.540407,332.119812 L217.120084,340.289579 C214.843898,338.961325 214.098598,336.338189 215.609341,334.028761 C218.932976,328.95603 223.189914,324.797725 227.285707,320.325712 C231.435214,315.780277 234.832707,311.57525 238.424919,306.515868 C239.989377,304.30656 243.078007,302.89821 242.883289,299.694379 L225.4191,319.624874 L220.437005,325.505237 L212.231991,334.302421 C209.143361,337.606371 205.860013,340.549891 201.676933,341.911518 C197.937005,338.547497 199.367175,333.868569 196.647837,328.65567 L199.394032,324.524064 L210.351955,312.529725 C211.218115,311.581925 211.426262,310.160225 212.849717,309.432689 C210.98311,309.572856 209.855089,311.027929 208.881499,312.216016 C206.927605,314.612214 204.825993,316.134034 202.435662,317.976236 C199.662609,320.112123 196.923128,322.154565 193.149628,321.380306 C191.612027,314.739033 190.604865,308.144482 190.087855,301.416438 L191.867175,298.966843 C195.163952,295.022127 198.212296,291.19088 200.877918,286.345086 C197.849717,284.930061 195.224382,290.636884 189.114265,288.741284 L188.597255,282.233504 L188.31525,261.715641 C190.081141,261.482028 190.195286,259.406213 191.001015,258.418365 C193.364489,255.514894 194.740944,252.825012 196.130827,249.44764 C196.869413,247.652161 199.595465,246.34393 199.206029,243.814239 C196.741839,243.527229 194.875232,245.930102 190.725724,244.595172 C191.813459,237.733636 194.432081,230.972219 198.56816,225.525707 C201.858222,221.187187 208.438348,215.754025 213.400299,213.49132 C218.281678,211.268662 225.835393,215.734001 229.394032,221.814604 C230.918204,224.424391 232.945957,226.853962 233.570398,229.844204" id="Fill-19" fill="#FF008A"></path>
            <path d="M272.347017,560.385122 L270.146874,550.720818 C268.949835,545.440253 265.800086,539.644348 263.472882,542.234435 C261.974912,543.914311 264.629797,547.247291 263.874124,548.746463 C263.312386,549.864149 263.920936,550.593656 264.275366,552.07275 C264.56961,553.284134 264.208493,554.856926 265.33197,555.579741 L265.512529,560.351659 C265.545966,561.221714 265.044413,562.051613 264.549548,562.279165 C263.894186,562.587031 262.904456,562.239009 262.222345,561.783903 L256.631707,558.07613 C254.324566,556.550187 252.518977,553.946715 251.041069,551.604259 L248.025067,546.825649 L244.955566,539.256169 C242.614988,536.117278 243.103166,531.867394 241.558384,528.50095 C239.746108,524.572317 238.836626,521.005091 237.933832,516.781978 C237.057787,512.699411 235.292322,509.145571 235.599941,504.594514 C235.686877,503.269353 234.342716,501.241455 234.864331,499.755669 C235.29901,498.524206 234.275843,497.734464 234.142095,496.998264 C233.272738,492.33343 233.694042,487.92292 233.994973,483.238008 L234.570087,474.222899 L234.877706,464.484975 C237.071162,464.658986 236.322177,467.637251 237.017663,468.708088 C238.716254,471.324946 239.692609,474.022117 241.070207,476.618897 C243.250288,480.728234 245.009065,484.402543 245.865048,488.987064 L249.302354,498.216341 C251.228315,503.396515 254.164069,509.995548 257.139947,514.298974 C258.149739,515.75799 258.798414,517.016223 261.386424,516.514268 C261.861227,516.42057 261.740855,515.296191 261.232615,514.493063 C261.232615,513.917489 262.764022,513.716707 263.32576,514.051343 C263.96106,514.432829 264.201805,515.035175 264.877229,516.106012 L267.605675,508.891247 L267.33818,502.981565 C267.284681,501.823723 267.043936,500.900126 266.268201,500.44502 C266.261514,499.501345 265.719837,498.343503 266.107705,497.413213 C266.34845,496.844331 266.783129,496.248678 266.482197,495.305003 C265.191535,491.289364 268.475032,488.752819 265.378782,487.869378 C265.532591,487.387501 265.866959,486.524139 265.81346,486.115882 C265.759962,485.727704 264.275366,485.734397 264.181743,485.359604 L262.670398,479.215676 L260.958433,473.17214 L259.226405,468.534077 L254.959866,459.110711 L251.128005,452.304204 L246.807967,446.92994 C244.681384,445.926031 241.678757,446.106734 239.873168,443.911518 C238.415322,445.551238 236.950789,445.450847 235.52638,445.97288 C232.744436,447.00356 232.095761,449.680653 231.099344,452.069958 L229.641498,455.536793 L228.023156,465.910526 L226.625496,481.364043 C226.491749,482.889986 226.886303,484.087985 225.020528,484.650174 L224.68616,488.050082 C223.362062,491.798011 223.803428,495.994354 223.816802,500.163926 C223.82349,503.269353 223.31525,506.247618 224.030798,509.279426 C224.17792,509.888464 223.776678,510.41719 223.31525,510.718363 L223.428935,515.657599 C223.616181,516.541039 223.910426,517.344167 224.311668,518.214222 C225.689265,521.19918 226.297815,524.45854 227.0468,527.677744 L229.260318,537.168037 C229.962492,540.179766 229.995929,543.69345 231.941952,546.250074 C233.734166,548.585837 235.432757,550.908215 236.088119,553.919944 C236.776918,557.098991 238.381885,559.294207 240.127288,561.770518 C243.410785,566.442044 246.259602,571.200576 251.362063,574.111914 C256.203716,576.876013 261.948163,579.171619 267.070685,577.130336 C271.444223,575.390226 273.784801,571.535213 273.236437,567.318792 L272.347017,560.385122 Z" id="Fill-21" fill="#012F7D"></path>
            <g id="Group-25" transform="translate(259.3153, 385.9115)">
                <mask id="mask-3" fill="white">
                    <use xlink:href="#path-2"></use>
                </mask>
                <g id="Clip-24"></g>
                <path d="M175.751377,114.545569 C174.04924,117.942208 170.959927,120.55655 167.475236,121.860378 L163.581763,124.595073 L156.739706,129.014715 L148.986268,134.029438 C144.677313,131.020604 146.245424,126.092804 141.018387,122.635988 C140.897763,120.121941 139.356457,118.510543 137.0512,117.66807 L135.000593,113.201623 C134.162927,111.382951 134.665527,109.584337 132.21284,108.099979 L139.664718,107.056917 C145.146406,105.137949 150.775523,104.716713 156.538666,104.135005 L161.618274,104.328907 L177.989621,102.750941 C179.450511,102.610529 180.95831,103.519865 182.31868,103.900984 C183.665648,107.799095 178.237571,109.584337 175.751377,114.545569 L175.751377,114.545569 Z M131.75715,143.34345 C127.769858,146.506068 122.897992,148.237819 118.173555,150.043119 L110.024738,153.158933 C109.997933,147.201443 108.436523,141.324188 106.379215,135.493737 L105.74929,129.83713 C104.904922,128.299282 105.14617,126.935277 104.74409,125.491037 C103.826008,122.141202 102.981641,119.252722 102.861017,115.708985 L100.964541,110.827988 C100.964541,109.056119 99.6778854,108.26045 99.3428189,107.137152 L96.1328821,96.6129208 L96.1864928,93.1627247 C97.6540839,93.1494191 98.0494623,95.1419355 98.8067126,95.8172515 C101.674882,98.3914758 101.038255,103.974534 103.363617,106.715915 C105.126066,108.788667 105.90342,110.400065 107.10966,112.726896 C107.960729,114.358353 109.756685,115.461592 108.758187,117.641324 C111.74698,120.402765 110.198973,123.886326 115.090943,123.511893 C114.434213,126.901846 116.699262,128.366145 118.890597,130.204876 C120.961308,131.936627 122.509315,134.069556 125.4579,134.744872 C126.302267,134.938774 126.422891,136.443191 126.650736,137.018213 C127.253856,138.509257 129.518905,139.151141 131.120523,139.960183 L132.588114,141.792229 C132.976791,142.287015 133.613418,142.026249 134.350564,141.778856 C134.806254,143.497234 132.440685,142.808546 131.75715,143.34345 L131.75715,143.34345 Z M113.274883,78.4462523 C115.338892,78.3860756 117.268875,77.7241322 119.507119,77.7375048 L127.37448,77.7709363 L137.10481,77.8177404 L143.578295,77.8846033 C145.501576,77.9046622 147.257325,79.3154709 149.086788,79.3355298 C144.181414,83.2536997 138.344556,85.5337269 132.608218,88.0945786 L127.066219,89.6859173 C124.75426,90.3478607 122.763965,92.1865923 120.411799,91.818846 C120.204058,90.8025289 118.709661,90.287684 118.133347,89.3516024 C115.539932,85.1726669 110.192271,83.7083679 107.143166,78.6134097 L113.274883,78.4462523 Z M70.6410248,44.7874339 C70.9224807,45.8773003 69.1466284,46.1781837 69.3878762,44.7406299 L69.7430467,44.4130013 C69.850268,43.9315879 69.9775932,43.3565664 70.1920358,42.9754475 C70.4265823,42.5675834 71.3111578,42.3736808 71.9544854,43.0021927 C71.4853924,43.369939 70.929182,43.8112346 70.6410248,44.7874339 L70.6410248,44.7874339 Z M203.354153,101.641016 C200.499387,97.1946286 196.143523,94.4866784 191.600022,93.3299491 C187.264261,92.2200238 183.250165,89.117582 178.190661,89.5521913 L172.166166,89.3516024 L167.890718,89.498701 C169.230984,86.2224155 174.384306,84.4839783 174.196669,80.7663973 C173.801291,72.8297629 175.121452,75.9656361 168.835605,70.3825783 C166.818505,68.597337 163.56836,67.988884 161.236298,67.3536858 L156.793316,63.7898896 C152.42405,63.8166348 148.282628,64.4384604 144.067492,63.1814366 L116.002324,66.1300935 L108.744784,67.0260573 C104.797701,67.5074706 100.662981,68.4569248 96.7360018,67.066175 C96.313818,66.8187821 95.7106984,65.7155431 94.7926162,65.735602 L88.1046894,65.8626416 C86.5365783,65.8893868 85.4643656,66.5847617 84.150905,65.3611693 C83.092095,64.3715974 83.1658096,62.987534 82.5827939,61.7438827 C80.7198244,57.7655361 79.2120252,53.9744058 79.0981026,49.4410965 L76.5113895,45.0682584 C76.0221924,41.54458 75.2247342,38.2816671 73.2746473,35.2862061 C72.0617067,33.4274156 72.6514237,31.388095 71.8606668,29.4691278 L69.850268,24.6148763 L67.410984,18.2160902 C66.8346697,16.6916146 66.2047447,15.9561219 66.271758,13.930174 L64.5897243,9.94514104 C64.11393,7.20375933 63.524213,4.20161205 61.8354779,2.10880113 C60.6694466,1.62738776 59.416298,3.35245235 58.6791518,3.59315903 C57.0172221,4.14812167 57.8615896,0.176461343 55.8109828,0.00930392223 C55.4424096,0.0159902191 54.8124847,-0.0575590463 54.4975222,0.122970969 C53.6933626,0.584325451 53.0366324,7.11683747 54.189261,11.723696 C54.7655754,14.0170958 53.659856,17.7948535 55.1475511,19.8408604 C56.5414277,21.7598276 56.4006997,23.1906951 56.9234034,25.417232 L59.1348422,34.7513024 L61.5004115,43.0690556 L63.6247329,48.5117013 C64.1206313,49.7754114 64.3417752,52.2827727 64.9918041,53.3592665 C67.7661545,57.9728113 66.8212671,64.4317741 69.3744736,67.5810199 C72.0550054,70.8907368 72.1823306,74.4344742 72.9596848,78.4195071 L76.196427,87.0247711 C77.1681197,89.612368 78.4413723,91.4176682 78.8300495,94.3663251 L81.3162427,100.932269 C81.9461676,102.610529 81.932765,103.31259 82.542586,104.636477 L86.4092531,113.047838 L89.2171101,122.662733 L90.7584159,126.547472 L93.3384277,133.761986 L96.5215592,143.457117 L92.9229453,142.139916 L72.3431625,143.804804 C70.0379052,143.99202 68.6842366,143.03588 67.4444907,141.812288 C67.8063625,139.853203 65.9500942,138.495884 65.5279105,136.663839 L62.7803654,124.869211 L60.7230572,119.373075 C59.4833113,116.043299 59.1951541,113.047838 57.8146803,109.825043 L54.1222477,101.166289 C53.110347,98.7993399 52.440214,96.7867645 51.4484173,94.3128347 L48.3658057,86.6770837 C47.5884515,84.7514302 46.2615883,83.2135819 45.8461058,80.9602999 C45.1357649,77.0755614 43.8692137,73.5585693 42.3547132,69.9145375 C41.4232284,67.6813143 39.9891439,66.1835839 38.1998889,64.8195793 C36.7859084,63.7363992 35.0435628,60.9281545 32.4501483,62.9942203 C31.7063007,63.5893007 31.5856768,64.879756 32.0346658,65.8693279 C34.2260006,70.6567164 34.7889122,75.5176543 36.2498021,80.5190043 L38.3473182,87.7067734 C39.5200508,91.7386104 41.0613566,95.2021122 40.6056662,99.5548914 C40.3912237,101.574153 42.4217265,103.666964 42.6897797,105.492323 L43.2996007,109.597709 C44.8342051,113.455703 46.0806524,117.3605 45.8595085,121.606298 L48.4998323,131.602312 C49.2168746,134.316949 49.4045118,136.429819 50.6375564,139.010729 C51.3613,140.521832 51.2540787,143.08937 52.2458755,144.2461 C52.2659795,144.440002 52.1453555,145.035083 52.2659795,145.275789 C52.4670194,145.703712 53.0567363,145.830752 53.5124267,145.643536 L53.8742985,146.506068 C54.5779381,148.184328 55.2882791,150.477728 56.2398678,152.26297 C56.568233,152.871423 58.1095388,154.275545 56.8764941,154.837194 L51.1870654,157.431477 C46.3487056,159.637955 39.3257123,163.415713 35.5997731,161.924668 C32.832124,156.816338 31.8805353,150.972514 32.6176815,145.262417 C30.8485305,141.992818 31.3310262,138.850258 31.123285,135.38007 C31.0160637,133.62826 30.4799574,131.247939 30.1247869,129.6566 L28.1747001,120.957728 L23.1755083,102.209351 L19.9789741,91.2906285 C18.9000601,87.606479 17.9886793,83.7217405 15.3215502,81.0204766 C15.3684595,80.9001232 15.4689794,80.6727891 15.4488754,80.5591221 C13.5792045,79.723335 13.6730231,77.3162681 13.5255939,75.5243406 L13.4719832,74.9426327 C12.8688636,74.8958286 12.5874077,74.5949453 12.3796665,74.0801004 L5.67163573,57.7454772 L2.48850424,52.6371464 C2.14673643,52.0888701 1.1147317,52.2025371 0.779665224,52.4432438 C0.357481468,52.7441272 -0.138416912,53.7470717 0.035817654,54.6363492 L3.87567943,74.1803949 L6.50930191,85.9683362 L8.41918081,99.2272629 L9.35736693,110.814615 C11.6224163,115.996495 12.1786266,121.352219 12.7013303,126.707943 C12.8554609,128.285909 12.4198745,130.479014 14.1153109,131.261311 L14.9864837,133.835535 L15.7236299,143.57747 C15.8442539,145.088573 16.5143868,146.251989 16.2865416,147.642738 C16.0318911,149.140469 16.4406722,151.119613 17.7541327,151.962086 C18.531487,156.662553 18.9536707,161.797629 21.3326427,165.87627 C21.1584081,168.664456 21.8218397,171.225307 23.7116146,173.498648 L25.7756241,177.456936 L28.1881027,179.930866 C29.5953819,181.36842 32.383135,182.966445 34.621379,183.160347 C38.5818647,183.494662 42.736689,184.430744 46.6502654,183.7688 C57.8481869,181.856519 70.7281421,172.716352 78.8702574,164.238127 L79.9156648,161.23598 C79.8352489,161.463314 90.0413736,158.922521 94.9936561,159.089679 C94.4173418,159.952211 93.1842972,160.045819 92.9095426,161.403137 C93.9884567,161.690648 95.0137601,162.339219 95.134384,163.101457 C95.3823332,164.639305 91.7703166,165.635563 93.4590517,166.230644 C94.7323043,166.685312 96.4746499,166.919332 97.6406812,166.618449 C96.6153778,167.059744 96.6488845,167.801923 96.5081566,169.112438 L96.2401034,171.633171 C97.6607852,174.107101 100.542357,173.090784 102.566158,173.070725 C105.400821,173.04398 106.975633,171.65323 109.314397,171.084895 C115.104346,169.687459 120.579332,168.296709 126.208449,166.217271 L137.888866,161.911296 C139.101807,161.47 139.215729,160.306585 140.88436,160.032446 C145.649006,159.243463 149.582686,156.227944 153.851433,154.255486 C154.983957,153.733955 156.196898,153.506621 156.753108,152.042322 C159.922837,152.396695 160.324917,152.456872 162.301809,150.303885 C166.000943,147.061031 169.619661,146.867128 173.633757,143.717882 C174.230176,143.249841 175.898807,143.189665 176.052937,142.173348 C178.418507,142.90884 178.968016,140.080537 182.084134,137.90749 L185.937398,135.212913 C192.075816,132.18402 195.687833,126.814924 199.923073,121.760083 C201.303547,120.101882 202.308746,119.767567 203.039191,117.313696 C204.54699,112.245483 206.423362,106.415032 203.354153,101.641016 L203.354153,101.641016 Z" id="Fill-23" fill="#012F7D" mask="url(#mask-3)"></path>
            </g>
            <path d="M42.9908944,387.452803 L44.5281788,397.639235 C44.7641655,399.18467 44.8922725,397.955042 44.9192424,399.359372 C44.9596973,401.294525 44.9866672,402.967626 45.6204599,404.815429 C46.3621322,406.999196 48.5938917,409.646593 48.8703332,413.644566 C48.9916977,415.411738 49.1198048,417.246102 49.2883667,419.026712 L51.0886077,437.430826 L55.6060664,452.253563 C56.6376652,455.640082 57.8782807,458.233725 59.894281,461.196928 C60.2988295,461.788225 60.5348162,462.453434 60.730348,462.990977 C60.8314851,463.253029 60.9730771,463.649466 61.3236858,463.689782 C61.6877795,463.763694 62.0586157,463.837606 62.3957395,463.851045 L62.5912713,463.911518 L63.1508967,463.212713 L63.9599938,463.266467 L64.6679538,463.071608 C65.5579606,462.077154 65.153412,455.761029 64.9646227,452.730632 L64.8634856,451.118005 C64.7623484,449.458342 64.9106829,447.671013 65.0792448,445.870245 C65.31525,443.256444 65.5444756,440.783748 64.8634856,438.855314 C64.2431778,437.088143 64.1218133,435.643497 64.0071912,434.245886 C63.9397664,433.486607 63.8790841,432.687013 63.7105222,431.77991 L61.822629,421.519565 C61.6136123,420.370568 61.4450504,419.282044 61.283231,418.20024 C61.0742142,416.856383 60.8786824,415.525965 60.588756,414.114916 C60.2516322,412.461973 59.6245819,410.862783 58.9570769,409.162805 C57.9929028,406.703548 56.9882739,404.156939 56.7590298,401.166859 C56.5095582,397.921445 55.3903072,397.639235 54.5744676,395.280767 C53.8665077,393.231386 53.2799123,391.538127 53.2731698,389.999411 C53.0843805,389.858306 52.8888487,389.676886 52.7000594,389.434992 L51.9583871,388.857133 L52.3494506,387.661101 C52.2955108,387.506558 52.0325543,387.116839 51.8572499,386.861506 C51.4527014,386.27021 50.9470157,385.531088 50.7110291,384.58367 L50.3873902,383.125585 C49.9491293,380.995573 47.6499451,380.578977 46.5509215,380.068312 C46.3688747,379.980961 46.0991757,379.927207 45.8025067,379.913768 C44.4944664,379.866733 43.1055164,380.565539 42.7279378,381.224028 C42.0806601,382.366306 42.2896769,383.743759 42.7077104,385.88721 C42.81559,386.418034 42.9167271,386.948857 42.9908944,387.452803" id="Fill-26" fill="#012F7D"></path>
            <path d="M89.4963239,538.735372 L86.4759669,540.06674 L86.0329812,533.570468 L85.6504027,530.486245 L85.6369789,529.723552 C85.3349432,528.706628 85.0798908,527.341809 85.2678241,525.602334 C83.8449004,521.246955 82.7105885,515.245765 82.1400767,508.956893 C80.7171529,506.916355 80.0459625,504.608205 79.4418911,502.540905 L78.8378197,500.33311 C76.0993627,481.058386 78.8646673,487.63494 72.3272724,481.091837 C72.0319486,480.797464 71.8104558,480.590065 71.656082,480.436189 L71.4345891,480.643588 C71.3943177,480.69042 71.374182,480.7038 71.3339106,480.743942 C70.5687535,479.700257 65.830149,477.579435 64.7830919,476.415325 C64.4005133,475.987146 64.1119014,475.579038 63.8702729,475.184311 L62.0849063,474.595566 C61.5345301,475.585729 61.1318159,477.91395 60.8566278,481.573538 L60.7559492,482.931667 C60.628423,484.376769 60.0377754,485.78842 59.3464493,487.287045 C58.5410208,489.073353 57.7691518,490.765996 58.520885,492.338214 C59.433704,494.32523 61.2861897,498.700679 61.2459182,500.185923 C61.2392063,500.701076 61.2324944,501.24968 61.3533087,501.898638 L62.9708777,511.171379 C63.1453872,512.215064 63.2662015,513.198537 63.3870157,514.329196 C63.5212538,515.446474 63.64878,516.550372 63.9105443,517.754624 C64.2192919,519.186346 65.0381442,520.731803 65.9576751,522.457897 C66.7563918,523.989974 67.5349727,525.548811 68.0517893,527.121029 L67.9376869,527.060817 C64.2327157,524.966756 61.2929016,521.808939 58.2121374,518.524007 C56.9435875,517.159188 55.6683257,515.794369 54.3326567,514.563356 C53.4064139,513.713689 52.4600354,513.03797 51.3995545,512.268586 C49.5672046,510.950599 47.499938,509.458665 46.0098952,507.357914 L38.4791385,502.079275 L41.9424812,489.983232 C42.2982121,488.745528 43.0163859,487.019434 43.8620858,485.072559 C46.164269,479.76716 47.1911904,476.575892 46.9428499,475.645941 L45.53335,472.976516 L47.2583094,470.574702 C47.8892285,469.678203 48.1107213,468.407048 48.0838737,465.878119 L48.0838737,465.168948 L48.3523499,464.105192 L48.553707,463.690394 C49.2651689,462.198459 49.4195427,460.679764 48.9228617,459.963903 L47.9831951,458.585703 L48.1509927,456.819466 C48.1644165,456.551855 48.1979761,456.21734 47.150919,455.688808 L44.3990382,453.915881 C43.9560525,453.487702 43.4056763,453.280303 42.6740787,453.266923 C40.0027408,453.240162 36.4588553,456.003251 35.5393243,458.833244 C35.2641363,459.716362 34.794303,460.425533 34.1499601,460.954065 L34.1499601,461.007588 L30.6664817,467.182725 C29.0958961,469.972576 27.13602,473.451526 23.0350464,473.571952 L20.3771323,473.652235 L19.4911609,470.741959 C19.0347514,469.229954 16.0546658,448.81788 15.6720873,446.96467 L15.1619826,444.562856 L13.8867207,438.922942 C13.5779731,437.524671 11.4368756,436.019356 11.1885351,434.50066 C11.1616875,434.333403 11.1348399,434.166146 11.1079923,433.998889 C10.6515828,434.132695 9.15482811,436.059498 8.64472337,436.052808 L6.87278061,435.959144 L5.20151641,433.202744 C4.94646404,432.767875 4.48334264,432.928442 4.36924026,432.747805 L3.21479271,431.911518 L0.31525,432.540406 C0.348809522,439.852892 4.34239265,463.810819 5.65121401,472.120159 C5.7988759,473.183915 6.00023304,474.23429 6.20830207,475.298046 C6.76539014,478.201632 7.33590201,481.198882 7.07413774,484.671142 C8.63129956,489.213849 11.1348399,494.345301 10.8126685,500.005286 C11.7187756,502.962394 11.9335565,505.812457 12.1684732,508.836468 C12.2624399,510.114313 12.3631184,511.405539 12.5510517,512.683384 L13.1551231,516.623965 L14.1149255,520.999414 L14.1350612,521.835701 L14.0947898,522.176905 C13.7457707,525.254438 14.4706564,527.736536 15.3901873,530.907733 C15.7257825,532.051773 16.0546658,533.202503 16.3365658,534.373303 L20.1220799,548.021494 C20.6388966,550.102174 21.1624251,551.540586 22.1222274,553.520912 C22.8672488,555.09313 23.4780321,556.772393 24.0888154,558.465036 C25.0150582,561.054178 25.8943177,563.509514 27.3843605,565.168706 C27.8072105,565.637026 28.4582652,565.897948 29.2099985,565.911518 C30.505396,565.924709 31.6866912,565.228919 31.9887269,564.854262 L36.3648886,555.755469 L37.3582504,554.457552 C38.1703909,553.607886 39.1906003,552.55751 38.579817,549.486667 L35.6936981,537.698377 C35.3983744,536.193062 35.2574244,534.647605 35.1231863,533.021865 C34.9553887,531.06161 34.794303,529.21509 34.1835197,527.82351 C33.5593125,526.44531 33.5593125,524.919924 34.1835197,522.698748 C34.7271839,520.792015 36.0897005,519.400435 38.2509337,518.771548 L39.0630742,518.711335 L39.5530432,518.82507 C41.0095264,519.179656 42.2512288,520.109606 43.3117097,520.90575 C43.7278477,521.220194 44.1238501,521.527947 44.4862929,521.715275 C47.8086856,523.374467 50.4800236,525.020278 53.4936686,528.097812 C56.9570113,531.650355 60.6485587,533.797938 63.6890514,535.557484 C65.964387,536.888852 67.7631774,537.939228 69.0317274,539.37764 C69.1928131,539.551587 69.8438678,540.160404 71.797032,540.849503 L71.9648296,540.816052 C72.219882,541.565364 72.3943915,542.267845 72.3809677,542.896732 L75.1395604,544.836916 L73.3541938,546.255257 L73.9851128,545.907362 C74.6965747,546.703507 75.6630889,547.780643 76.005396,548.971515 L76.3477032,550.343024 C76.502077,551.018744 76.851096,552.611033 77.2336745,552.805051 C78.1934769,553.119495 79.4083316,553.23992 79.5828411,553.226539 C80.3211506,552.945547 80.2741672,552.09588 79.8848768,550.169077 L79.6700958,548.824329 L79.3747721,546.215116 C80.0862339,547.352465 80.6567458,548.550027 80.9654934,549.921536 L82.2608909,550.550423 L83.8180528,548.148609 L86.0262693,550.583875 L86.4222717,550.583875 C86.7847145,550.577185 87.3418026,550.577185 88.227774,548.309176 L91.31525,540.414635 L90.3084643,539.564968 C89.9930048,539.304047 89.7379525,539.023054 89.4963239,538.735372" id="Fill-28" fill="#012F7D"></path>
            <path d="M195.562037,511.363718 L191.899312,516.703239 C190.295199,521.822229 187.741985,523.780277 183.805224,525.644765 C182.969749,526.406599 181.699826,527.562716 179.77489,528.077288 L171.012422,530.409569 L171.353296,515.988184 L171.968206,503.48475 C171.393399,502.248441 171.152782,500.972034 170.965636,500.009718 C170.898798,499.648849 170.83196,499.207787 170.852011,499.167691 L170.243785,498.17196 C169.054067,496.25401 167.269492,493.347011 167.937872,489.257165 L168.773348,484.017886 L171.059209,485.033664 L172.830417,485.708623 C178.792371,486.016029 184.680803,489.992268 190.148155,494.222452 C190.462294,494.463031 190.816535,494.663514 191.244299,494.924141 C192.941985,495.926555 195.775918,497.617292 196.591343,501.947717 C196.611394,502.007861 197.821163,507.982244 195.562037,511.363718 L195.562037,511.363718 Z M153.982088,502.789744 C152.865893,506.632328 149.798026,510.682077 145.547127,511.089725 C145.112679,511.771366 144.46435,512.693586 143.334787,513.221524 C141.797512,513.936579 140.427332,514.898895 138.93016,515.954771 C138.061265,516.562901 137.185687,517.171032 135.675147,518.053156 C134.665893,518.447438 133.556381,518.614507 132.286458,518.567728 C131.297255,518.534314 130.288001,518.360562 129.0916,518.146714 C128.516792,518.046473 127.96872,517.939549 127.427332,517.919501 L122.080289,517.625459 L123.450469,513.802924 C123.216535,513.488834 122.982602,513.1146 122.788772,512.666855 C121.879774,510.508326 120.796998,508.062437 119.507024,506.304873 L116.546098,502.261806 C115.236073,500.464145 114.066407,498.552877 112.910109,496.648292 C111.553296,494.422935 110.27669,492.317867 108.472062,490.059096 L99.6694916,476.232476 L104.595456,474.367988 C105.945584,473.853416 107.44944,473.612836 108.939929,473.666298 C109.762037,473.693029 110.557409,473.820002 111.339415,474.027167 L124.740443,477.655903 C125.275147,477.802924 125.883373,478.023455 126.839157,478.370958 C127.340443,478.558075 127.975404,478.798654 128.269492,478.832068 L129.659723,478.992454 L132.888001,479.206302 L132.934787,481.832625 C133.315764,481.986328 133.710109,482.146714 134.091085,482.340514 L144.9389,487.853787 C147.512165,489.163607 148.708566,490.640496 150.132217,493.079701 L154.590314,500.711407 L153.982088,502.789744 Z M216.288515,513.635855 C216.295199,513.375227 216.221677,512.934166 216.168206,512.526517 C215.974376,511.143187 215.660237,508.951244 216.31525,506.712521 L216.148155,506.41848 L215.940957,504.300046 C215.800597,502.849889 215.666921,501.346269 215.199055,500.751504 C213.447898,498.566243 212.565636,495.565686 211.823733,493.05297 C211.543013,492.104019 211.268978,491.16175 210.941471,490.326406 C210.059209,488.074318 207.559466,486.610794 204.82579,485.020299 C202.600083,483.703796 200.066921,482.220225 198.262294,479.934722 C197.754325,479.299861 197.580546,479.239716 196.591343,478.905578 C196.036587,478.718461 195.441728,478.504613 194.746612,478.190523 L189.89417,475.911704 L186.558952,474.949387 L179.006253,472.242872 L176.927589,470.9531 C172.556381,470.191266 169.007281,466.509068 167.663836,461.343299 C166.540957,457.039605 167.075661,454.219482 167.703939,450.944932 C169.067435,443.660729 171.968206,437.599471 176.399569,432.366874 C176.820648,430.82984 177.956895,426.766725 181.780031,426.907063 C181.786715,426.907063 182.689029,427.054084 182.689029,427.054084 L183.504453,427.455049 C185.342499,425.410126 188.249954,421.326963 188.029389,418.099192 C187.889029,415.81369 187.173862,414.985029 185.389286,414.911518 L184.700854,414.918201 C182.254582,415.038491 182.18106,415.165463 181.673091,416.067635 L180.356381,417.912075 L178.418078,417.838565 C176.145584,417.758372 174.113708,419.388964 171.540443,421.447253 L170.457666,422.309328 C165.932731,425.877919 162.203168,430.455606 158.50034,435.207045 C158.239672,435.547865 157.397512,436.490134 157.277204,436.630471 C157.250469,437.699712 156.996484,438.735539 156.535301,439.597615 C156.328103,439.985214 156.087487,440.319352 155.813451,440.620076 C155.75998,440.780462 155.699826,440.947531 155.632988,441.121283 C155.459209,441.535613 155.252011,441.909848 155.00471,442.257351 L154.944556,445.358149 L152.652011,445.498487 C152.59854,445.692287 152.551754,445.879404 152.504967,446.053156 C152.204196,447.162493 151.890057,448.245099 151.321934,449.254195 C149.644299,452.187925 149.637615,454.272944 149.630931,456.97946 C149.624247,459.679293 149.61088,463.054084 147.492114,466.529116 L146.008309,468.961639 L125.910109,462.75336 C122.875661,461.817774 119.35998,461.149499 115.964607,460.494589 C112.849954,459.899824 109.307538,459.224865 106.373348,458.316011 L98.3059955,455.763198 L91.6556099,454.907806 C89.7173066,454.04573 87.7723194,453.591303 85.7270752,453.517793 C83.4211626,453.430917 80.9214197,453.831882 78.0941703,454.74742 C75.3872294,455.622861 74.0437847,456.277771 73.4221909,458.422935 C73.3954557,458.563273 73.4155071,459.024383 73.31525,459.559003 L76.6304171,460.708437 L79.2772037,459.893141 L86.3018824,473.632885 L89.6638361,481.030694 L92.7450701,488.595573 C94.8504685,491.001364 95.8797744,494.088797 96.7085662,496.568099 L97.3435276,498.412539 L99.622705,504.634184 C99.8700058,505.315825 100.217564,505.930639 100.658695,506.732569 C101.400597,508.075803 102.309594,509.713078 102.797512,511.818145 C105.457666,514.42442 106.78106,518.447438 106.520391,523.232291 L106.313193,527.221895 L102.924504,527.322137 C102.242756,527.342185 101.540957,527.642909 100.418078,528.47157 L98.5198772,529.333646 L98.2926279,529.220039 C98.2725765,529.266818 97.5574094,532.180499 97.5574094,532.180499 L95.0844017,532.487906 C94.2422423,532.59483 93.4936562,532.86214 92.7784891,535.074132 L90.7532963,541.309142 L93.1327307,550.69173 L85.6468695,544.035706 L88.4941703,551.440199 C89.1090803,553.030694 89.496741,553.511853 90.3255328,554.327149 C91.1676922,555.15581 91.6155071,556.245099 92.0232192,557.274244 C93.6741189,557.62843 95.3718053,558.08954 97.0427564,558.911518 C98.0319595,558.564015 98.9275893,558.577381 99.4556099,558.597429 C99.4823451,558.597429 99.896741,558.62416 99.896741,558.62416 C101.427332,557.935836 102.830931,557.889057 103.866921,557.929153 C103.880289,557.929153 106.513708,558.096222 106.513708,558.096222 C106.707538,558.036078 107.242242,557.70194 107.596484,557.481409 C108.76615,556.739623 110.38363,555.710479 112.402139,555.783989 C112.769749,555.804037 113.137358,555.850817 113.4916,555.937693 C114.534273,555.309514 115.683888,555.00879 116.933759,555.055569 C116.987229,555.055569 117.0407,555.062252 117.09417,555.062252 C118.370777,553.478439 120.008309,553.11757 120.937358,552.910405 L125.50908,551.781019 C125.682859,551.73424 126.170777,551.446881 126.54507,551.212985 C127.420648,550.685047 128.67052,549.943262 130.401625,549.762827 C132.680803,547.838194 135.52142,546.755587 138.101368,546.849146 C138.228361,546.855829 138.348669,546.862512 138.475661,546.875877 C139.832474,545.178457 141.383116,544.222823 142.646355,543.434258 L143.769235,542.705838 L148.180546,539.665185 C148.788772,539.244171 149.370263,538.796427 150.005224,538.315268 C151.976947,536.825014 154.209337,535.14096 156.9898,534.499415 L157.845327,534.379126 L158.052525,534.385808 C158.821163,534.419222 159.556381,534.686532 160.198026,535.187739 L161.274119,536.056497 C162.671034,537.165834 163.312679,538.809792 163.747127,539.912447 C163.8407,540.146343 163.947641,540.433701 163.89417,540.433701 C163.887487,540.433701 163.874119,540.433701 163.867435,540.420336 L167.510109,544.162679 L168.084916,545.044802 L170.150211,545.926926 L170.237101,548.3394 C172.930674,550.81202 175.343528,552.756701 177.996998,554.066521 C178.418078,553.986328 178.845841,553.952914 179.266921,553.972963 C181.325533,554.046473 182.889543,555.182541 184.032474,556.00452 C184.35998,556.238417 184.674119,556.46563 184.941471,556.612651 C186.198026,556.044617 187.394427,555.944375 188.390314,555.864182 C189.27926,555.783989 189.987744,555.723844 190.702911,555.389707 L195.648926,553.110887 C195.949697,552.863625 196.504453,552.222081 196.825276,551.861212 C197.266407,551.366688 197.674119,550.912261 197.994942,550.611537 L201.316792,547.497373 C201.510623,547.316939 201.764607,546.949387 202.125533,546.434815 C202.967692,545.265333 204.010366,543.808493 205.688001,542.939735 C206.396484,542.572183 206.871034,541.690059 207.70651,540.06615 C208.087487,539.310999 208.475147,538.555847 208.929646,537.827427 L209.845327,536.350538 C211.248926,534.09845 212.465379,532.160451 213.43453,529.467301 L213.889029,528.230991 C214.884916,525.471014 216.021163,522.343484 216.101368,519.857499 L216.288515,513.635855 Z" id="Fill-30" fill="#012F7D"></path>
            <path d="M163.367674,624.692112 C162.543653,623.259817 161.447172,622.167275 160.058297,621.441135 C158.696003,620.70167 157.167576,620.328607 155.512887,620.328607 C154.143948,620.328607 152.814881,620.70167 151.50575,621.441135 C150.170037,622.167275 149.093493,623.259817 148.249535,624.692112 C147.385641,626.131069 146.973631,627.883133 146.973631,629.93498 C146.973631,631.993488 147.385641,633.73889 148.249535,635.171185 C149.093493,636.616804 150.170037,637.696022 151.50575,638.435487 C152.814881,639.174951 154.143948,639.541352 155.512887,639.541352 C157.167576,639.541352 158.696003,639.174951 160.058297,638.435487 C161.447172,637.696022 162.543653,636.616804 163.367674,635.171185 C164.211632,633.73889 164.623643,631.993488 164.623643,629.93498 C164.623643,627.883133 164.211632,626.131069 163.367674,624.692112 L163.367674,624.692112 Z M167.521009,637.389578 C166.318203,639.488057 164.736614,641.09356 162.736367,642.219411 C160.742767,643.345262 158.52987,643.911518 156.084386,643.911518 C153.878135,643.911518 151.931051,643.345262 150.243136,642.219411 C148.55522,641.09356 147.239444,639.488057 146.289161,637.389578 C145.352169,635.291098 144.867059,632.812894 144.867059,629.93498 C144.867059,627.023756 145.352169,624.532228 146.289161,622.460396 C147.239444,620.37524 148.55522,618.783061 150.243136,617.65721 C151.931051,616.531359 153.878135,615.958441 156.084386,615.958441 C158.52987,615.958441 160.742767,616.531359 162.736367,617.65721 C164.736614,618.783061 166.318203,620.37524 167.521009,622.460396 C168.723815,624.532228 169.31525,627.023756 169.31525,629.93498 C169.31525,632.812894 168.723815,635.291098 167.521009,637.389578 L167.521009,637.389578 Z M142.31525,643.325277 L146.973631,643.325277 L146.973631,597.911518 L142.31525,597.911518 L142.31525,643.325277 Z" id="Fill-32" fill="#FF008A"></path>
            <polygon id="Fill-34" fill="#FF008A" points="178.587362 655.911518 173.277789 655.911518 180.731483 639.149485 170.31525 615.911518 175.935958 615.911518 184.573315 637.089573 182.611816 636.853962 191.01244 615.911518 196.31525 615.911518"></polygon>
            <polygon id="Fill-36" fill="#FF008A" points="217.057271 620.310772 217.057271 615.911518 240.31525 615.911518 223.746101 638.505548 239.145037 638.505548 239.145037 642.911518 215.31525 642.911518 231.87775 620.310772"></polygon>
            <path d="M244.079302,619.234683 C245.102721,618.500651 246.503189,617.766619 248.28744,617.025913 C250.07169,616.285208 252.219524,615.911518 254.737674,615.911518 C256.845109,615.911518 258.703423,616.238497 260.292416,616.879107 C261.874676,617.519717 263.113552,618.440594 263.988845,619.648411 C264.877604,620.849555 265.31525,622.330966 265.31525,624.079297 L265.31525,643.324292 L260.615601,643.324292 L260.615601,624.719907 C260.615601,623.785684 260.454009,623.018287 260.14429,622.417715 C259.834571,621.817143 259.376725,621.336685 258.817885,620.983015 C258.252311,620.642691 257.592475,620.389116 256.845109,620.228964 C256.097744,620.075484 255.316714,619.995408 254.495285,619.995408 C253.148681,619.995408 251.950203,620.15556 250.87292,620.462519 C249.795636,620.776151 248.886679,621.149841 248.139313,621.570241 C247.391948,621.997314 246.812908,622.364331 246.375262,622.684636 L244.079302,619.234683 Z M247.816128,637.66557 C248.307639,638.406275 248.994407,638.966809 249.8697,639.327152 C250.765191,639.694169 251.768412,639.887686 252.892826,639.887686 C254.353892,639.887686 255.666831,639.5874 256.811444,639.01352 C257.976257,638.426294 258.885215,637.605513 259.578716,636.531156 C260.272217,635.463473 260.615601,634.228964 260.615601,632.827629 L261.544758,636.330966 C261.544758,638.039259 261.039782,639.45394 259.996163,640.58168 C258.959278,641.709421 257.686737,642.550222 256.171807,643.090737 C254.663611,643.631252 253.148681,643.911518 251.674149,643.911518 C250.017826,643.911518 248.48943,643.571194 247.048564,642.890546 C245.607697,642.203225 244.463084,641.222291 243.60799,639.94107 C242.752896,638.65985 242.31525,637.105036 242.31525,635.276628 C242.31525,632.67415 243.244407,630.578821 245.102721,629.01066 C246.974501,627.429154 249.559981,626.648411 252.892826,626.648411 C254.865601,626.648411 256.501725,626.86862 257.814665,627.315713 C259.127604,627.762805 260.177955,628.269955 260.965718,628.830489 C261.746749,629.397696 262.278657,629.851461 262.547978,630.198458 L262.547978,632.947743 C261.181175,632.006847 259.760508,631.339545 258.326374,630.932491 C256.865309,630.525436 255.316714,630.318573 253.660391,630.318573 C252.131995,630.318573 250.893119,630.518763 249.923564,630.905799 C248.960742,631.292834 248.253775,631.833349 247.77573,632.540689 C247.324618,633.234683 247.082229,634.075484 247.082229,635.036399 C247.082229,636.057372 247.324618,636.924864 247.816128,637.66557 L247.816128,637.66557 Z" id="Fill-38" fill="#FF008A"></path>
            <path d="M277.179291,634.869574 C277.966012,636.310946 279.037009,637.452033 280.418728,638.279488 C281.774003,639.120289 283.334221,639.534016 285.066328,639.534016 C286.481102,639.534016 287.823155,639.307133 289.072652,638.866714 C290.322149,638.419621 291.412979,637.812376 292.345144,637.051652 C293.277308,636.2976 293.918584,635.490165 294.31525,634.636018 L294.31525,640.468239 C293.383086,641.555942 292.060867,642.403415 290.341982,643.003987 C288.64293,643.604559 286.871157,643.911518 285.066328,643.911518 C282.488001,643.911518 280.147673,643.310946 278.071789,642.096456 C275.995905,640.901986 274.356354,639.240403 273.139912,637.118382 C271.923471,634.996361 271.31525,632.594073 271.31525,629.911518 C271.31525,627.188925 271.923471,624.779965 273.139912,622.684636 C274.356354,620.582634 275.995905,618.927724 278.071789,617.719907 C280.147673,616.518763 282.488001,615.911518 285.066328,615.911518 C286.871157,615.911518 288.64293,616.218477 290.341982,616.819049 C292.060867,617.419621 293.383086,618.273768 294.31525,619.354798 L294.31525,625.193692 C293.918584,624.292834 293.277308,623.478725 292.345144,622.73802 C291.412979,621.997314 290.322149,621.410088 289.072652,620.962996 C287.823155,620.515904 286.481102,620.295694 285.066328,620.295694 C283.334221,620.295694 281.774003,620.696075 280.418728,621.510184 C279.037009,622.330966 277.966012,623.472052 277.179291,624.920098 C276.392571,626.388163 275.995905,628.043072 275.995905,629.911518 C275.995905,631.779965 276.392571,633.434874 277.179291,634.869574" id="Fill-40" fill="#FF008A"></path>
            <path d="M322.367674,624.608036 C321.543653,623.181834 320.447172,622.09394 319.058297,621.370888 C317.696003,620.63457 316.167576,620.263094 314.512887,620.263094 C313.143948,620.263094 311.814881,620.63457 310.50575,621.370888 C309.170037,622.09394 308.093493,623.181834 307.249535,624.608036 C306.385641,626.040872 305.973631,627.785482 305.973631,629.8286 C305.973631,631.878351 306.385641,633.616328 307.249535,635.04253 C308.093493,636.481999 309.170037,637.556626 310.50575,638.292945 C311.814881,639.029263 313.143948,639.394105 314.512887,639.394105 C316.167576,639.394105 317.696003,639.029263 319.058297,638.292945 C320.447172,637.556626 321.543653,636.481999 322.367674,635.04253 C323.211632,633.616328 323.623643,631.878351 323.623643,629.8286 C323.623643,627.785482 323.211632,626.040872 322.367674,624.608036 L322.367674,624.608036 Z M326.521009,637.251485 C325.318203,639.341037 323.736614,640.939711 321.736367,642.060772 C319.742767,643.181834 317.52987,643.745681 315.084386,643.745681 C312.878135,643.745681 310.931051,643.181834 309.243136,642.060772 C307.55522,640.939711 306.239444,639.341037 305.289161,637.251485 C304.352169,635.161933 303.867059,632.694271 303.867059,629.8286 C303.867059,626.929761 304.352169,624.448832 305.289161,622.385814 C306.239444,620.309528 307.55522,618.724122 309.243136,617.603061 C310.931051,616.481999 312.878135,615.911518 315.084386,615.911518 C317.52987,615.911518 319.742767,616.481999 321.736367,617.603061 C323.736614,618.724122 325.318203,620.309528 326.521009,622.385814 C327.723815,624.448832 328.31525,626.929761 328.31525,629.8286 C328.31525,632.694271 327.723815,635.161933 326.521009,637.251485 L326.521009,637.251485 Z M301.31525,655.911518 L305.973631,655.911518 L305.973631,616.495266 L301.31525,616.495266 L301.31525,655.911518 Z" id="Fill-42" fill="#FF008A"></path>
        </g>
    </g>
</svg>